%
M48
M72
T01C0.02400
T02C0.03150
T03C0.03200
T04C0.03937
T05C0.04000
T06C0.04331
T07C0.07000
T08C0.19685
%
T01
X140430Y274091
X148304Y236689
X160115Y207161
X148304Y191413
X156178Y167791
X144367Y146138
X122713Y116610
X132556Y102831
X122713Y94957
X110902Y98894
X104997Y98894
X110902Y91020
X120745Y79209
X136493Y77240
X136493Y83146
X140430Y87083
X148304Y102831
X156178Y106768
X156178Y98894
X169957Y83146
X173894Y87083
X189642Y87083
X205390Y87083
X225075Y110705
X229012Y148106
X246729Y142201
X250666Y148106
X266414Y100862
X276257Y191413
X236886Y203224
X232949Y213067
X221138Y228815
X193579Y203224
X189642Y193382
X193579Y175665
X201453Y173697
X185705Y165823
X167989Y144169
X173894Y132358
X169957Y118579
X110902Y134327
X108934Y142201
X106965Y154012
X85312Y159917
X106965Y234720
X229012Y285902
X236886Y272122
X246729Y281965
X242792Y303618
X248698Y354799
T02
X207595Y283933
X207595Y273933
X207595Y263933
X207595Y253933
X207595Y243933
X207595Y233933
X207595Y223933
X207595Y213933
X207595Y203933
X207595Y193933
X207595Y183933
X207595Y173933
X207595Y163933
X207595Y153933
X207595Y143933
X267595Y143933
X267595Y153933
X267595Y163933
X267595Y173933
X267595Y183933
X267595Y193933
X267595Y203933
X267595Y213933
X267595Y223933
X267595Y233933
X267595Y243933
X267595Y253933
X267595Y263933
X267595Y273933
X267595Y283933
T03
X117595Y128933
X127595Y128933
T04
X82595Y358933
X82595Y348933
X82595Y338933
X82595Y328933
T05
X81195Y273633
X98995Y273633
X98995Y299233
X81195Y299233
X239795Y320033
X239795Y337833
X239795Y350033
X239795Y367833
X265395Y367833
X265395Y350033
X265395Y337833
X279795Y337833
X279795Y320033
X265395Y320033
X305395Y320033
X305395Y337833
T06
X115095Y148933
X115095Y158933
X115095Y168933
X115095Y178933
X115095Y188933
X115095Y198933
X115095Y208933
X115095Y218933
X115095Y228933
X115095Y238933
X115095Y248933
X115095Y258933
X115095Y268933
X115095Y278933
X115095Y288933
X115095Y298933
X175095Y298933
X175095Y288933
X175095Y278933
X175095Y268933
X175095Y258933
X175095Y248933
X175095Y238933
X175095Y228933
X175095Y218933
X175095Y208933
X175095Y198933
X175095Y188933
X175095Y178933
X175095Y168933
X175095Y158933
X175095Y148933
T07
X207595Y293933
X267595Y293933
X267595Y133933
X207595Y133933
T08
X84780Y132358
X295331Y132358
M30
