G75*
%MOIN*%
%OFA0B0*%
%FSLAX25Y25*%
%IPPOS*%
%LPD*%
%AMOC8*
5,1,8,0,0,1.08239X$1,22.5*
%
%ADD10C,0.00000*%
%ADD11R,0.05000X0.05000*%
%ADD12C,0.02047*%
%ADD13C,0.06496*%
%ADD14OC8,0.05200*%
%ADD15C,0.05200*%
%ADD16C,0.01600*%
%ADD17C,0.04000*%
%ADD18C,0.02400*%
D10*
X0067595Y0047713D02*
X0067595Y0372634D01*
X0312516Y0372634D01*
X0312516Y0047713D01*
X0312517Y0047713D02*
X0312543Y0047410D01*
X0312563Y0047106D01*
X0312574Y0046802D01*
X0312579Y0046498D01*
X0312576Y0046194D01*
X0312566Y0045889D01*
X0312548Y0045586D01*
X0312524Y0045282D01*
X0312491Y0044980D01*
X0312452Y0044678D01*
X0312405Y0044377D01*
X0312351Y0044078D01*
X0312290Y0043780D01*
X0312221Y0043483D01*
X0312146Y0043189D01*
X0312063Y0042896D01*
X0311973Y0042605D01*
X0311877Y0042317D01*
X0311773Y0042030D01*
X0311663Y0041747D01*
X0311545Y0041466D01*
X0311421Y0041188D01*
X0311290Y0040914D01*
X0311153Y0040642D01*
X0311009Y0040374D01*
X0310859Y0040109D01*
X0310702Y0039849D01*
X0310539Y0039592D01*
X0310370Y0039339D01*
X0310195Y0039090D01*
X0310013Y0038845D01*
X0309826Y0038605D01*
X0309634Y0038370D01*
X0309435Y0038139D01*
X0309231Y0037913D01*
X0309022Y0037692D01*
X0308808Y0037477D01*
X0308588Y0037266D01*
X0308363Y0037061D01*
X0308133Y0036861D01*
X0307899Y0036667D01*
X0307660Y0036479D01*
X0307417Y0036296D01*
X0307169Y0036120D01*
X0306917Y0035949D01*
X0306661Y0035785D01*
X0306401Y0035627D01*
X0306137Y0035475D01*
X0305870Y0035330D01*
X0305599Y0035191D01*
X0305325Y0035058D01*
X0305048Y0034933D01*
X0304768Y0034814D01*
X0304485Y0034702D01*
X0304199Y0034596D01*
X0303911Y0034498D01*
X0303621Y0034407D01*
X0303329Y0034322D01*
X0303034Y0034245D01*
X0302738Y0034175D01*
X0302440Y0034112D01*
X0302141Y0034057D01*
X0301841Y0034008D01*
X0301539Y0033967D01*
X0301237Y0033933D01*
X0078875Y0033933D01*
X0078568Y0033968D01*
X0078262Y0034010D01*
X0077957Y0034059D01*
X0077653Y0034116D01*
X0077351Y0034180D01*
X0077050Y0034252D01*
X0076751Y0034331D01*
X0076455Y0034418D01*
X0076160Y0034512D01*
X0075868Y0034612D01*
X0075578Y0034720D01*
X0075292Y0034836D01*
X0075008Y0034958D01*
X0074727Y0035087D01*
X0074449Y0035223D01*
X0074175Y0035365D01*
X0073905Y0035515D01*
X0073638Y0035671D01*
X0073375Y0035833D01*
X0073116Y0036002D01*
X0072861Y0036177D01*
X0072611Y0036358D01*
X0072365Y0036546D01*
X0072124Y0036739D01*
X0071888Y0036939D01*
X0071657Y0037144D01*
X0071431Y0037354D01*
X0071210Y0037570D01*
X0070994Y0037792D01*
X0070784Y0038018D01*
X0070580Y0038250D01*
X0070381Y0038487D01*
X0070188Y0038729D01*
X0070002Y0038975D01*
X0069821Y0039225D01*
X0069646Y0039480D01*
X0069478Y0039740D01*
X0069316Y0040003D01*
X0069161Y0040270D01*
X0069012Y0040541D01*
X0068870Y0040816D01*
X0068735Y0041094D01*
X0068607Y0041375D01*
X0068485Y0041659D01*
X0068371Y0041946D01*
X0068264Y0042236D01*
X0068164Y0042528D01*
X0068071Y0042823D01*
X0067985Y0043120D01*
X0067907Y0043419D01*
X0067835Y0043720D01*
X0067772Y0044022D01*
X0067716Y0044326D01*
X0067667Y0044631D01*
X0067626Y0044937D01*
X0067592Y0045245D01*
X0067566Y0045553D01*
X0067547Y0045861D01*
X0067536Y0046170D01*
X0067533Y0046479D01*
X0067537Y0046788D01*
X0067549Y0047097D01*
X0067568Y0047405D01*
X0067595Y0047713D01*
X0074937Y0132358D02*
X0074940Y0132600D01*
X0074949Y0132841D01*
X0074964Y0133082D01*
X0074984Y0133323D01*
X0075011Y0133563D01*
X0075044Y0133802D01*
X0075082Y0134041D01*
X0075126Y0134278D01*
X0075176Y0134515D01*
X0075232Y0134750D01*
X0075294Y0134983D01*
X0075361Y0135215D01*
X0075434Y0135446D01*
X0075512Y0135674D01*
X0075597Y0135900D01*
X0075686Y0136125D01*
X0075781Y0136347D01*
X0075882Y0136566D01*
X0075988Y0136784D01*
X0076099Y0136998D01*
X0076216Y0137210D01*
X0076337Y0137418D01*
X0076464Y0137624D01*
X0076596Y0137826D01*
X0076733Y0138026D01*
X0076874Y0138221D01*
X0077020Y0138414D01*
X0077171Y0138602D01*
X0077327Y0138787D01*
X0077487Y0138968D01*
X0077651Y0139145D01*
X0077820Y0139318D01*
X0077993Y0139487D01*
X0078170Y0139651D01*
X0078351Y0139811D01*
X0078536Y0139967D01*
X0078724Y0140118D01*
X0078917Y0140264D01*
X0079112Y0140405D01*
X0079312Y0140542D01*
X0079514Y0140674D01*
X0079720Y0140801D01*
X0079928Y0140922D01*
X0080140Y0141039D01*
X0080354Y0141150D01*
X0080572Y0141256D01*
X0080791Y0141357D01*
X0081013Y0141452D01*
X0081238Y0141541D01*
X0081464Y0141626D01*
X0081692Y0141704D01*
X0081923Y0141777D01*
X0082155Y0141844D01*
X0082388Y0141906D01*
X0082623Y0141962D01*
X0082860Y0142012D01*
X0083097Y0142056D01*
X0083336Y0142094D01*
X0083575Y0142127D01*
X0083815Y0142154D01*
X0084056Y0142174D01*
X0084297Y0142189D01*
X0084538Y0142198D01*
X0084780Y0142201D01*
X0085022Y0142198D01*
X0085263Y0142189D01*
X0085504Y0142174D01*
X0085745Y0142154D01*
X0085985Y0142127D01*
X0086224Y0142094D01*
X0086463Y0142056D01*
X0086700Y0142012D01*
X0086937Y0141962D01*
X0087172Y0141906D01*
X0087405Y0141844D01*
X0087637Y0141777D01*
X0087868Y0141704D01*
X0088096Y0141626D01*
X0088322Y0141541D01*
X0088547Y0141452D01*
X0088769Y0141357D01*
X0088988Y0141256D01*
X0089206Y0141150D01*
X0089420Y0141039D01*
X0089632Y0140922D01*
X0089840Y0140801D01*
X0090046Y0140674D01*
X0090248Y0140542D01*
X0090448Y0140405D01*
X0090643Y0140264D01*
X0090836Y0140118D01*
X0091024Y0139967D01*
X0091209Y0139811D01*
X0091390Y0139651D01*
X0091567Y0139487D01*
X0091740Y0139318D01*
X0091909Y0139145D01*
X0092073Y0138968D01*
X0092233Y0138787D01*
X0092389Y0138602D01*
X0092540Y0138414D01*
X0092686Y0138221D01*
X0092827Y0138026D01*
X0092964Y0137826D01*
X0093096Y0137624D01*
X0093223Y0137418D01*
X0093344Y0137210D01*
X0093461Y0136998D01*
X0093572Y0136784D01*
X0093678Y0136566D01*
X0093779Y0136347D01*
X0093874Y0136125D01*
X0093963Y0135900D01*
X0094048Y0135674D01*
X0094126Y0135446D01*
X0094199Y0135215D01*
X0094266Y0134983D01*
X0094328Y0134750D01*
X0094384Y0134515D01*
X0094434Y0134278D01*
X0094478Y0134041D01*
X0094516Y0133802D01*
X0094549Y0133563D01*
X0094576Y0133323D01*
X0094596Y0133082D01*
X0094611Y0132841D01*
X0094620Y0132600D01*
X0094623Y0132358D01*
X0094620Y0132116D01*
X0094611Y0131875D01*
X0094596Y0131634D01*
X0094576Y0131393D01*
X0094549Y0131153D01*
X0094516Y0130914D01*
X0094478Y0130675D01*
X0094434Y0130438D01*
X0094384Y0130201D01*
X0094328Y0129966D01*
X0094266Y0129733D01*
X0094199Y0129501D01*
X0094126Y0129270D01*
X0094048Y0129042D01*
X0093963Y0128816D01*
X0093874Y0128591D01*
X0093779Y0128369D01*
X0093678Y0128150D01*
X0093572Y0127932D01*
X0093461Y0127718D01*
X0093344Y0127506D01*
X0093223Y0127298D01*
X0093096Y0127092D01*
X0092964Y0126890D01*
X0092827Y0126690D01*
X0092686Y0126495D01*
X0092540Y0126302D01*
X0092389Y0126114D01*
X0092233Y0125929D01*
X0092073Y0125748D01*
X0091909Y0125571D01*
X0091740Y0125398D01*
X0091567Y0125229D01*
X0091390Y0125065D01*
X0091209Y0124905D01*
X0091024Y0124749D01*
X0090836Y0124598D01*
X0090643Y0124452D01*
X0090448Y0124311D01*
X0090248Y0124174D01*
X0090046Y0124042D01*
X0089840Y0123915D01*
X0089632Y0123794D01*
X0089420Y0123677D01*
X0089206Y0123566D01*
X0088988Y0123460D01*
X0088769Y0123359D01*
X0088547Y0123264D01*
X0088322Y0123175D01*
X0088096Y0123090D01*
X0087868Y0123012D01*
X0087637Y0122939D01*
X0087405Y0122872D01*
X0087172Y0122810D01*
X0086937Y0122754D01*
X0086700Y0122704D01*
X0086463Y0122660D01*
X0086224Y0122622D01*
X0085985Y0122589D01*
X0085745Y0122562D01*
X0085504Y0122542D01*
X0085263Y0122527D01*
X0085022Y0122518D01*
X0084780Y0122515D01*
X0084538Y0122518D01*
X0084297Y0122527D01*
X0084056Y0122542D01*
X0083815Y0122562D01*
X0083575Y0122589D01*
X0083336Y0122622D01*
X0083097Y0122660D01*
X0082860Y0122704D01*
X0082623Y0122754D01*
X0082388Y0122810D01*
X0082155Y0122872D01*
X0081923Y0122939D01*
X0081692Y0123012D01*
X0081464Y0123090D01*
X0081238Y0123175D01*
X0081013Y0123264D01*
X0080791Y0123359D01*
X0080572Y0123460D01*
X0080354Y0123566D01*
X0080140Y0123677D01*
X0079928Y0123794D01*
X0079720Y0123915D01*
X0079514Y0124042D01*
X0079312Y0124174D01*
X0079112Y0124311D01*
X0078917Y0124452D01*
X0078724Y0124598D01*
X0078536Y0124749D01*
X0078351Y0124905D01*
X0078170Y0125065D01*
X0077993Y0125229D01*
X0077820Y0125398D01*
X0077651Y0125571D01*
X0077487Y0125748D01*
X0077327Y0125929D01*
X0077171Y0126114D01*
X0077020Y0126302D01*
X0076874Y0126495D01*
X0076733Y0126690D01*
X0076596Y0126890D01*
X0076464Y0127092D01*
X0076337Y0127298D01*
X0076216Y0127506D01*
X0076099Y0127718D01*
X0075988Y0127932D01*
X0075882Y0128150D01*
X0075781Y0128369D01*
X0075686Y0128591D01*
X0075597Y0128816D01*
X0075512Y0129042D01*
X0075434Y0129270D01*
X0075361Y0129501D01*
X0075294Y0129733D01*
X0075232Y0129966D01*
X0075176Y0130201D01*
X0075126Y0130438D01*
X0075082Y0130675D01*
X0075044Y0130914D01*
X0075011Y0131153D01*
X0074984Y0131393D01*
X0074964Y0131634D01*
X0074949Y0131875D01*
X0074940Y0132116D01*
X0074937Y0132358D01*
X0285488Y0132358D02*
X0285491Y0132600D01*
X0285500Y0132841D01*
X0285515Y0133082D01*
X0285535Y0133323D01*
X0285562Y0133563D01*
X0285595Y0133802D01*
X0285633Y0134041D01*
X0285677Y0134278D01*
X0285727Y0134515D01*
X0285783Y0134750D01*
X0285845Y0134983D01*
X0285912Y0135215D01*
X0285985Y0135446D01*
X0286063Y0135674D01*
X0286148Y0135900D01*
X0286237Y0136125D01*
X0286332Y0136347D01*
X0286433Y0136566D01*
X0286539Y0136784D01*
X0286650Y0136998D01*
X0286767Y0137210D01*
X0286888Y0137418D01*
X0287015Y0137624D01*
X0287147Y0137826D01*
X0287284Y0138026D01*
X0287425Y0138221D01*
X0287571Y0138414D01*
X0287722Y0138602D01*
X0287878Y0138787D01*
X0288038Y0138968D01*
X0288202Y0139145D01*
X0288371Y0139318D01*
X0288544Y0139487D01*
X0288721Y0139651D01*
X0288902Y0139811D01*
X0289087Y0139967D01*
X0289275Y0140118D01*
X0289468Y0140264D01*
X0289663Y0140405D01*
X0289863Y0140542D01*
X0290065Y0140674D01*
X0290271Y0140801D01*
X0290479Y0140922D01*
X0290691Y0141039D01*
X0290905Y0141150D01*
X0291123Y0141256D01*
X0291342Y0141357D01*
X0291564Y0141452D01*
X0291789Y0141541D01*
X0292015Y0141626D01*
X0292243Y0141704D01*
X0292474Y0141777D01*
X0292706Y0141844D01*
X0292939Y0141906D01*
X0293174Y0141962D01*
X0293411Y0142012D01*
X0293648Y0142056D01*
X0293887Y0142094D01*
X0294126Y0142127D01*
X0294366Y0142154D01*
X0294607Y0142174D01*
X0294848Y0142189D01*
X0295089Y0142198D01*
X0295331Y0142201D01*
X0295573Y0142198D01*
X0295814Y0142189D01*
X0296055Y0142174D01*
X0296296Y0142154D01*
X0296536Y0142127D01*
X0296775Y0142094D01*
X0297014Y0142056D01*
X0297251Y0142012D01*
X0297488Y0141962D01*
X0297723Y0141906D01*
X0297956Y0141844D01*
X0298188Y0141777D01*
X0298419Y0141704D01*
X0298647Y0141626D01*
X0298873Y0141541D01*
X0299098Y0141452D01*
X0299320Y0141357D01*
X0299539Y0141256D01*
X0299757Y0141150D01*
X0299971Y0141039D01*
X0300183Y0140922D01*
X0300391Y0140801D01*
X0300597Y0140674D01*
X0300799Y0140542D01*
X0300999Y0140405D01*
X0301194Y0140264D01*
X0301387Y0140118D01*
X0301575Y0139967D01*
X0301760Y0139811D01*
X0301941Y0139651D01*
X0302118Y0139487D01*
X0302291Y0139318D01*
X0302460Y0139145D01*
X0302624Y0138968D01*
X0302784Y0138787D01*
X0302940Y0138602D01*
X0303091Y0138414D01*
X0303237Y0138221D01*
X0303378Y0138026D01*
X0303515Y0137826D01*
X0303647Y0137624D01*
X0303774Y0137418D01*
X0303895Y0137210D01*
X0304012Y0136998D01*
X0304123Y0136784D01*
X0304229Y0136566D01*
X0304330Y0136347D01*
X0304425Y0136125D01*
X0304514Y0135900D01*
X0304599Y0135674D01*
X0304677Y0135446D01*
X0304750Y0135215D01*
X0304817Y0134983D01*
X0304879Y0134750D01*
X0304935Y0134515D01*
X0304985Y0134278D01*
X0305029Y0134041D01*
X0305067Y0133802D01*
X0305100Y0133563D01*
X0305127Y0133323D01*
X0305147Y0133082D01*
X0305162Y0132841D01*
X0305171Y0132600D01*
X0305174Y0132358D01*
X0305171Y0132116D01*
X0305162Y0131875D01*
X0305147Y0131634D01*
X0305127Y0131393D01*
X0305100Y0131153D01*
X0305067Y0130914D01*
X0305029Y0130675D01*
X0304985Y0130438D01*
X0304935Y0130201D01*
X0304879Y0129966D01*
X0304817Y0129733D01*
X0304750Y0129501D01*
X0304677Y0129270D01*
X0304599Y0129042D01*
X0304514Y0128816D01*
X0304425Y0128591D01*
X0304330Y0128369D01*
X0304229Y0128150D01*
X0304123Y0127932D01*
X0304012Y0127718D01*
X0303895Y0127506D01*
X0303774Y0127298D01*
X0303647Y0127092D01*
X0303515Y0126890D01*
X0303378Y0126690D01*
X0303237Y0126495D01*
X0303091Y0126302D01*
X0302940Y0126114D01*
X0302784Y0125929D01*
X0302624Y0125748D01*
X0302460Y0125571D01*
X0302291Y0125398D01*
X0302118Y0125229D01*
X0301941Y0125065D01*
X0301760Y0124905D01*
X0301575Y0124749D01*
X0301387Y0124598D01*
X0301194Y0124452D01*
X0300999Y0124311D01*
X0300799Y0124174D01*
X0300597Y0124042D01*
X0300391Y0123915D01*
X0300183Y0123794D01*
X0299971Y0123677D01*
X0299757Y0123566D01*
X0299539Y0123460D01*
X0299320Y0123359D01*
X0299098Y0123264D01*
X0298873Y0123175D01*
X0298647Y0123090D01*
X0298419Y0123012D01*
X0298188Y0122939D01*
X0297956Y0122872D01*
X0297723Y0122810D01*
X0297488Y0122754D01*
X0297251Y0122704D01*
X0297014Y0122660D01*
X0296775Y0122622D01*
X0296536Y0122589D01*
X0296296Y0122562D01*
X0296055Y0122542D01*
X0295814Y0122527D01*
X0295573Y0122518D01*
X0295331Y0122515D01*
X0295089Y0122518D01*
X0294848Y0122527D01*
X0294607Y0122542D01*
X0294366Y0122562D01*
X0294126Y0122589D01*
X0293887Y0122622D01*
X0293648Y0122660D01*
X0293411Y0122704D01*
X0293174Y0122754D01*
X0292939Y0122810D01*
X0292706Y0122872D01*
X0292474Y0122939D01*
X0292243Y0123012D01*
X0292015Y0123090D01*
X0291789Y0123175D01*
X0291564Y0123264D01*
X0291342Y0123359D01*
X0291123Y0123460D01*
X0290905Y0123566D01*
X0290691Y0123677D01*
X0290479Y0123794D01*
X0290271Y0123915D01*
X0290065Y0124042D01*
X0289863Y0124174D01*
X0289663Y0124311D01*
X0289468Y0124452D01*
X0289275Y0124598D01*
X0289087Y0124749D01*
X0288902Y0124905D01*
X0288721Y0125065D01*
X0288544Y0125229D01*
X0288371Y0125398D01*
X0288202Y0125571D01*
X0288038Y0125748D01*
X0287878Y0125929D01*
X0287722Y0126114D01*
X0287571Y0126302D01*
X0287425Y0126495D01*
X0287284Y0126690D01*
X0287147Y0126890D01*
X0287015Y0127092D01*
X0286888Y0127298D01*
X0286767Y0127506D01*
X0286650Y0127718D01*
X0286539Y0127932D01*
X0286433Y0128150D01*
X0286332Y0128369D01*
X0286237Y0128591D01*
X0286148Y0128816D01*
X0286063Y0129042D01*
X0285985Y0129270D01*
X0285912Y0129501D01*
X0285845Y0129733D01*
X0285783Y0129966D01*
X0285727Y0130201D01*
X0285677Y0130438D01*
X0285633Y0130675D01*
X0285595Y0130914D01*
X0285562Y0131153D01*
X0285535Y0131393D01*
X0285515Y0131634D01*
X0285500Y0131875D01*
X0285491Y0132116D01*
X0285488Y0132358D01*
D11*
X0283786Y0078211D03*
X0283786Y0078211D03*
X0283786Y0078211D03*
X0299376Y0078211D03*
X0299376Y0078211D03*
X0299376Y0078211D03*
X0268195Y0078211D03*
X0268195Y0078211D03*
X0268195Y0078211D03*
X0252605Y0078211D03*
X0252605Y0078211D03*
X0252605Y0078211D03*
X0237014Y0078211D03*
X0237014Y0078211D03*
X0237014Y0078211D03*
X0221424Y0078211D03*
X0221424Y0078211D03*
X0221424Y0078211D03*
X0205833Y0078211D03*
X0205833Y0078211D03*
X0205833Y0078211D03*
X0190243Y0078211D03*
X0190243Y0078211D03*
X0190243Y0078211D03*
X0174652Y0078211D03*
X0174652Y0078211D03*
X0174652Y0078211D03*
X0159061Y0078211D03*
X0159061Y0078211D03*
X0159061Y0078211D03*
X0143471Y0078211D03*
X0143471Y0078211D03*
X0143471Y0078211D03*
X0127880Y0078211D03*
X0127880Y0078211D03*
X0127880Y0078211D03*
X0112290Y0078211D03*
X0112290Y0078211D03*
X0112290Y0078211D03*
X0096699Y0078211D03*
X0096699Y0078211D03*
X0096699Y0078211D03*
X0081109Y0078211D03*
X0081109Y0078211D03*
X0081109Y0078211D03*
D12*
X0077014Y0074688D02*
X0077014Y0036734D01*
X0077014Y0074688D02*
X0085204Y0074688D01*
X0085204Y0036734D01*
X0077014Y0036734D01*
X0077014Y0038780D02*
X0085204Y0038780D01*
X0085204Y0040826D02*
X0077014Y0040826D01*
X0077014Y0042872D02*
X0085204Y0042872D01*
X0085204Y0044918D02*
X0077014Y0044918D01*
X0077014Y0046964D02*
X0085204Y0046964D01*
X0085204Y0049010D02*
X0077014Y0049010D01*
X0077014Y0051056D02*
X0085204Y0051056D01*
X0085204Y0053102D02*
X0077014Y0053102D01*
X0077014Y0055148D02*
X0085204Y0055148D01*
X0085204Y0057194D02*
X0077014Y0057194D01*
X0077014Y0059240D02*
X0085204Y0059240D01*
X0085204Y0061286D02*
X0077014Y0061286D01*
X0077014Y0063332D02*
X0085204Y0063332D01*
X0085204Y0065378D02*
X0077014Y0065378D01*
X0077014Y0067424D02*
X0085204Y0067424D01*
X0085204Y0069470D02*
X0077014Y0069470D01*
X0077014Y0071516D02*
X0085204Y0071516D01*
X0085204Y0073562D02*
X0077014Y0073562D01*
X0077014Y0074688D02*
X0077014Y0036734D01*
X0077014Y0074688D02*
X0085204Y0074688D01*
X0085204Y0036734D01*
X0077014Y0036734D01*
X0077014Y0038780D02*
X0085204Y0038780D01*
X0085204Y0040826D02*
X0077014Y0040826D01*
X0077014Y0042872D02*
X0085204Y0042872D01*
X0085204Y0044918D02*
X0077014Y0044918D01*
X0077014Y0046964D02*
X0085204Y0046964D01*
X0085204Y0049010D02*
X0077014Y0049010D01*
X0077014Y0051056D02*
X0085204Y0051056D01*
X0085204Y0053102D02*
X0077014Y0053102D01*
X0077014Y0055148D02*
X0085204Y0055148D01*
X0085204Y0057194D02*
X0077014Y0057194D01*
X0077014Y0059240D02*
X0085204Y0059240D01*
X0085204Y0061286D02*
X0077014Y0061286D01*
X0077014Y0063332D02*
X0085204Y0063332D01*
X0085204Y0065378D02*
X0077014Y0065378D01*
X0077014Y0067424D02*
X0085204Y0067424D01*
X0085204Y0069470D02*
X0077014Y0069470D01*
X0077014Y0071516D02*
X0085204Y0071516D01*
X0085204Y0073562D02*
X0077014Y0073562D01*
X0077014Y0074688D02*
X0077014Y0036734D01*
X0077014Y0074688D02*
X0085204Y0074688D01*
X0085204Y0036734D01*
X0077014Y0036734D01*
X0077014Y0038780D02*
X0085204Y0038780D01*
X0085204Y0040826D02*
X0077014Y0040826D01*
X0077014Y0042872D02*
X0085204Y0042872D01*
X0085204Y0044918D02*
X0077014Y0044918D01*
X0077014Y0046964D02*
X0085204Y0046964D01*
X0085204Y0049010D02*
X0077014Y0049010D01*
X0077014Y0051056D02*
X0085204Y0051056D01*
X0085204Y0053102D02*
X0077014Y0053102D01*
X0077014Y0055148D02*
X0085204Y0055148D01*
X0085204Y0057194D02*
X0077014Y0057194D01*
X0077014Y0059240D02*
X0085204Y0059240D01*
X0085204Y0061286D02*
X0077014Y0061286D01*
X0077014Y0063332D02*
X0085204Y0063332D01*
X0085204Y0065378D02*
X0077014Y0065378D01*
X0077014Y0067424D02*
X0085204Y0067424D01*
X0085204Y0069470D02*
X0077014Y0069470D01*
X0077014Y0071516D02*
X0085204Y0071516D01*
X0085204Y0073562D02*
X0077014Y0073562D01*
X0092604Y0074688D02*
X0092604Y0036734D01*
X0092604Y0074688D02*
X0100794Y0074688D01*
X0100794Y0036734D01*
X0092604Y0036734D01*
X0092604Y0038780D02*
X0100794Y0038780D01*
X0100794Y0040826D02*
X0092604Y0040826D01*
X0092604Y0042872D02*
X0100794Y0042872D01*
X0100794Y0044918D02*
X0092604Y0044918D01*
X0092604Y0046964D02*
X0100794Y0046964D01*
X0100794Y0049010D02*
X0092604Y0049010D01*
X0092604Y0051056D02*
X0100794Y0051056D01*
X0100794Y0053102D02*
X0092604Y0053102D01*
X0092604Y0055148D02*
X0100794Y0055148D01*
X0100794Y0057194D02*
X0092604Y0057194D01*
X0092604Y0059240D02*
X0100794Y0059240D01*
X0100794Y0061286D02*
X0092604Y0061286D01*
X0092604Y0063332D02*
X0100794Y0063332D01*
X0100794Y0065378D02*
X0092604Y0065378D01*
X0092604Y0067424D02*
X0100794Y0067424D01*
X0100794Y0069470D02*
X0092604Y0069470D01*
X0092604Y0071516D02*
X0100794Y0071516D01*
X0100794Y0073562D02*
X0092604Y0073562D01*
X0092604Y0074688D02*
X0092604Y0036734D01*
X0092604Y0074688D02*
X0100794Y0074688D01*
X0100794Y0036734D01*
X0092604Y0036734D01*
X0092604Y0038780D02*
X0100794Y0038780D01*
X0100794Y0040826D02*
X0092604Y0040826D01*
X0092604Y0042872D02*
X0100794Y0042872D01*
X0100794Y0044918D02*
X0092604Y0044918D01*
X0092604Y0046964D02*
X0100794Y0046964D01*
X0100794Y0049010D02*
X0092604Y0049010D01*
X0092604Y0051056D02*
X0100794Y0051056D01*
X0100794Y0053102D02*
X0092604Y0053102D01*
X0092604Y0055148D02*
X0100794Y0055148D01*
X0100794Y0057194D02*
X0092604Y0057194D01*
X0092604Y0059240D02*
X0100794Y0059240D01*
X0100794Y0061286D02*
X0092604Y0061286D01*
X0092604Y0063332D02*
X0100794Y0063332D01*
X0100794Y0065378D02*
X0092604Y0065378D01*
X0092604Y0067424D02*
X0100794Y0067424D01*
X0100794Y0069470D02*
X0092604Y0069470D01*
X0092604Y0071516D02*
X0100794Y0071516D01*
X0100794Y0073562D02*
X0092604Y0073562D01*
X0092604Y0074688D02*
X0092604Y0036734D01*
X0092604Y0074688D02*
X0100794Y0074688D01*
X0100794Y0036734D01*
X0092604Y0036734D01*
X0092604Y0038780D02*
X0100794Y0038780D01*
X0100794Y0040826D02*
X0092604Y0040826D01*
X0092604Y0042872D02*
X0100794Y0042872D01*
X0100794Y0044918D02*
X0092604Y0044918D01*
X0092604Y0046964D02*
X0100794Y0046964D01*
X0100794Y0049010D02*
X0092604Y0049010D01*
X0092604Y0051056D02*
X0100794Y0051056D01*
X0100794Y0053102D02*
X0092604Y0053102D01*
X0092604Y0055148D02*
X0100794Y0055148D01*
X0100794Y0057194D02*
X0092604Y0057194D01*
X0092604Y0059240D02*
X0100794Y0059240D01*
X0100794Y0061286D02*
X0092604Y0061286D01*
X0092604Y0063332D02*
X0100794Y0063332D01*
X0100794Y0065378D02*
X0092604Y0065378D01*
X0092604Y0067424D02*
X0100794Y0067424D01*
X0100794Y0069470D02*
X0092604Y0069470D01*
X0092604Y0071516D02*
X0100794Y0071516D01*
X0100794Y0073562D02*
X0092604Y0073562D01*
X0108195Y0074688D02*
X0108195Y0036734D01*
X0108195Y0074688D02*
X0116385Y0074688D01*
X0116385Y0036734D01*
X0108195Y0036734D01*
X0108195Y0038780D02*
X0116385Y0038780D01*
X0116385Y0040826D02*
X0108195Y0040826D01*
X0108195Y0042872D02*
X0116385Y0042872D01*
X0116385Y0044918D02*
X0108195Y0044918D01*
X0108195Y0046964D02*
X0116385Y0046964D01*
X0116385Y0049010D02*
X0108195Y0049010D01*
X0108195Y0051056D02*
X0116385Y0051056D01*
X0116385Y0053102D02*
X0108195Y0053102D01*
X0108195Y0055148D02*
X0116385Y0055148D01*
X0116385Y0057194D02*
X0108195Y0057194D01*
X0108195Y0059240D02*
X0116385Y0059240D01*
X0116385Y0061286D02*
X0108195Y0061286D01*
X0108195Y0063332D02*
X0116385Y0063332D01*
X0116385Y0065378D02*
X0108195Y0065378D01*
X0108195Y0067424D02*
X0116385Y0067424D01*
X0116385Y0069470D02*
X0108195Y0069470D01*
X0108195Y0071516D02*
X0116385Y0071516D01*
X0116385Y0073562D02*
X0108195Y0073562D01*
X0108195Y0074688D02*
X0108195Y0036734D01*
X0108195Y0074688D02*
X0116385Y0074688D01*
X0116385Y0036734D01*
X0108195Y0036734D01*
X0108195Y0038780D02*
X0116385Y0038780D01*
X0116385Y0040826D02*
X0108195Y0040826D01*
X0108195Y0042872D02*
X0116385Y0042872D01*
X0116385Y0044918D02*
X0108195Y0044918D01*
X0108195Y0046964D02*
X0116385Y0046964D01*
X0116385Y0049010D02*
X0108195Y0049010D01*
X0108195Y0051056D02*
X0116385Y0051056D01*
X0116385Y0053102D02*
X0108195Y0053102D01*
X0108195Y0055148D02*
X0116385Y0055148D01*
X0116385Y0057194D02*
X0108195Y0057194D01*
X0108195Y0059240D02*
X0116385Y0059240D01*
X0116385Y0061286D02*
X0108195Y0061286D01*
X0108195Y0063332D02*
X0116385Y0063332D01*
X0116385Y0065378D02*
X0108195Y0065378D01*
X0108195Y0067424D02*
X0116385Y0067424D01*
X0116385Y0069470D02*
X0108195Y0069470D01*
X0108195Y0071516D02*
X0116385Y0071516D01*
X0116385Y0073562D02*
X0108195Y0073562D01*
X0108195Y0074688D02*
X0108195Y0036734D01*
X0108195Y0074688D02*
X0116385Y0074688D01*
X0116385Y0036734D01*
X0108195Y0036734D01*
X0108195Y0038780D02*
X0116385Y0038780D01*
X0116385Y0040826D02*
X0108195Y0040826D01*
X0108195Y0042872D02*
X0116385Y0042872D01*
X0116385Y0044918D02*
X0108195Y0044918D01*
X0108195Y0046964D02*
X0116385Y0046964D01*
X0116385Y0049010D02*
X0108195Y0049010D01*
X0108195Y0051056D02*
X0116385Y0051056D01*
X0116385Y0053102D02*
X0108195Y0053102D01*
X0108195Y0055148D02*
X0116385Y0055148D01*
X0116385Y0057194D02*
X0108195Y0057194D01*
X0108195Y0059240D02*
X0116385Y0059240D01*
X0116385Y0061286D02*
X0108195Y0061286D01*
X0108195Y0063332D02*
X0116385Y0063332D01*
X0116385Y0065378D02*
X0108195Y0065378D01*
X0108195Y0067424D02*
X0116385Y0067424D01*
X0116385Y0069470D02*
X0108195Y0069470D01*
X0108195Y0071516D02*
X0116385Y0071516D01*
X0116385Y0073562D02*
X0108195Y0073562D01*
X0123785Y0074688D02*
X0123785Y0036734D01*
X0123785Y0074688D02*
X0131975Y0074688D01*
X0131975Y0036734D01*
X0123785Y0036734D01*
X0123785Y0038780D02*
X0131975Y0038780D01*
X0131975Y0040826D02*
X0123785Y0040826D01*
X0123785Y0042872D02*
X0131975Y0042872D01*
X0131975Y0044918D02*
X0123785Y0044918D01*
X0123785Y0046964D02*
X0131975Y0046964D01*
X0131975Y0049010D02*
X0123785Y0049010D01*
X0123785Y0051056D02*
X0131975Y0051056D01*
X0131975Y0053102D02*
X0123785Y0053102D01*
X0123785Y0055148D02*
X0131975Y0055148D01*
X0131975Y0057194D02*
X0123785Y0057194D01*
X0123785Y0059240D02*
X0131975Y0059240D01*
X0131975Y0061286D02*
X0123785Y0061286D01*
X0123785Y0063332D02*
X0131975Y0063332D01*
X0131975Y0065378D02*
X0123785Y0065378D01*
X0123785Y0067424D02*
X0131975Y0067424D01*
X0131975Y0069470D02*
X0123785Y0069470D01*
X0123785Y0071516D02*
X0131975Y0071516D01*
X0131975Y0073562D02*
X0123785Y0073562D01*
X0123785Y0074688D02*
X0123785Y0036734D01*
X0123785Y0074688D02*
X0131975Y0074688D01*
X0131975Y0036734D01*
X0123785Y0036734D01*
X0123785Y0038780D02*
X0131975Y0038780D01*
X0131975Y0040826D02*
X0123785Y0040826D01*
X0123785Y0042872D02*
X0131975Y0042872D01*
X0131975Y0044918D02*
X0123785Y0044918D01*
X0123785Y0046964D02*
X0131975Y0046964D01*
X0131975Y0049010D02*
X0123785Y0049010D01*
X0123785Y0051056D02*
X0131975Y0051056D01*
X0131975Y0053102D02*
X0123785Y0053102D01*
X0123785Y0055148D02*
X0131975Y0055148D01*
X0131975Y0057194D02*
X0123785Y0057194D01*
X0123785Y0059240D02*
X0131975Y0059240D01*
X0131975Y0061286D02*
X0123785Y0061286D01*
X0123785Y0063332D02*
X0131975Y0063332D01*
X0131975Y0065378D02*
X0123785Y0065378D01*
X0123785Y0067424D02*
X0131975Y0067424D01*
X0131975Y0069470D02*
X0123785Y0069470D01*
X0123785Y0071516D02*
X0131975Y0071516D01*
X0131975Y0073562D02*
X0123785Y0073562D01*
X0123785Y0074688D02*
X0123785Y0036734D01*
X0123785Y0074688D02*
X0131975Y0074688D01*
X0131975Y0036734D01*
X0123785Y0036734D01*
X0123785Y0038780D02*
X0131975Y0038780D01*
X0131975Y0040826D02*
X0123785Y0040826D01*
X0123785Y0042872D02*
X0131975Y0042872D01*
X0131975Y0044918D02*
X0123785Y0044918D01*
X0123785Y0046964D02*
X0131975Y0046964D01*
X0131975Y0049010D02*
X0123785Y0049010D01*
X0123785Y0051056D02*
X0131975Y0051056D01*
X0131975Y0053102D02*
X0123785Y0053102D01*
X0123785Y0055148D02*
X0131975Y0055148D01*
X0131975Y0057194D02*
X0123785Y0057194D01*
X0123785Y0059240D02*
X0131975Y0059240D01*
X0131975Y0061286D02*
X0123785Y0061286D01*
X0123785Y0063332D02*
X0131975Y0063332D01*
X0131975Y0065378D02*
X0123785Y0065378D01*
X0123785Y0067424D02*
X0131975Y0067424D01*
X0131975Y0069470D02*
X0123785Y0069470D01*
X0123785Y0071516D02*
X0131975Y0071516D01*
X0131975Y0073562D02*
X0123785Y0073562D01*
X0139376Y0074688D02*
X0139376Y0036734D01*
X0139376Y0074688D02*
X0147566Y0074688D01*
X0147566Y0036734D01*
X0139376Y0036734D01*
X0139376Y0038780D02*
X0147566Y0038780D01*
X0147566Y0040826D02*
X0139376Y0040826D01*
X0139376Y0042872D02*
X0147566Y0042872D01*
X0147566Y0044918D02*
X0139376Y0044918D01*
X0139376Y0046964D02*
X0147566Y0046964D01*
X0147566Y0049010D02*
X0139376Y0049010D01*
X0139376Y0051056D02*
X0147566Y0051056D01*
X0147566Y0053102D02*
X0139376Y0053102D01*
X0139376Y0055148D02*
X0147566Y0055148D01*
X0147566Y0057194D02*
X0139376Y0057194D01*
X0139376Y0059240D02*
X0147566Y0059240D01*
X0147566Y0061286D02*
X0139376Y0061286D01*
X0139376Y0063332D02*
X0147566Y0063332D01*
X0147566Y0065378D02*
X0139376Y0065378D01*
X0139376Y0067424D02*
X0147566Y0067424D01*
X0147566Y0069470D02*
X0139376Y0069470D01*
X0139376Y0071516D02*
X0147566Y0071516D01*
X0147566Y0073562D02*
X0139376Y0073562D01*
X0139376Y0074688D02*
X0139376Y0036734D01*
X0139376Y0074688D02*
X0147566Y0074688D01*
X0147566Y0036734D01*
X0139376Y0036734D01*
X0139376Y0038780D02*
X0147566Y0038780D01*
X0147566Y0040826D02*
X0139376Y0040826D01*
X0139376Y0042872D02*
X0147566Y0042872D01*
X0147566Y0044918D02*
X0139376Y0044918D01*
X0139376Y0046964D02*
X0147566Y0046964D01*
X0147566Y0049010D02*
X0139376Y0049010D01*
X0139376Y0051056D02*
X0147566Y0051056D01*
X0147566Y0053102D02*
X0139376Y0053102D01*
X0139376Y0055148D02*
X0147566Y0055148D01*
X0147566Y0057194D02*
X0139376Y0057194D01*
X0139376Y0059240D02*
X0147566Y0059240D01*
X0147566Y0061286D02*
X0139376Y0061286D01*
X0139376Y0063332D02*
X0147566Y0063332D01*
X0147566Y0065378D02*
X0139376Y0065378D01*
X0139376Y0067424D02*
X0147566Y0067424D01*
X0147566Y0069470D02*
X0139376Y0069470D01*
X0139376Y0071516D02*
X0147566Y0071516D01*
X0147566Y0073562D02*
X0139376Y0073562D01*
X0139376Y0074688D02*
X0139376Y0036734D01*
X0139376Y0074688D02*
X0147566Y0074688D01*
X0147566Y0036734D01*
X0139376Y0036734D01*
X0139376Y0038780D02*
X0147566Y0038780D01*
X0147566Y0040826D02*
X0139376Y0040826D01*
X0139376Y0042872D02*
X0147566Y0042872D01*
X0147566Y0044918D02*
X0139376Y0044918D01*
X0139376Y0046964D02*
X0147566Y0046964D01*
X0147566Y0049010D02*
X0139376Y0049010D01*
X0139376Y0051056D02*
X0147566Y0051056D01*
X0147566Y0053102D02*
X0139376Y0053102D01*
X0139376Y0055148D02*
X0147566Y0055148D01*
X0147566Y0057194D02*
X0139376Y0057194D01*
X0139376Y0059240D02*
X0147566Y0059240D01*
X0147566Y0061286D02*
X0139376Y0061286D01*
X0139376Y0063332D02*
X0147566Y0063332D01*
X0147566Y0065378D02*
X0139376Y0065378D01*
X0139376Y0067424D02*
X0147566Y0067424D01*
X0147566Y0069470D02*
X0139376Y0069470D01*
X0139376Y0071516D02*
X0147566Y0071516D01*
X0147566Y0073562D02*
X0139376Y0073562D01*
X0154966Y0074688D02*
X0154966Y0036734D01*
X0154966Y0074688D02*
X0163156Y0074688D01*
X0163156Y0036734D01*
X0154966Y0036734D01*
X0154966Y0038780D02*
X0163156Y0038780D01*
X0163156Y0040826D02*
X0154966Y0040826D01*
X0154966Y0042872D02*
X0163156Y0042872D01*
X0163156Y0044918D02*
X0154966Y0044918D01*
X0154966Y0046964D02*
X0163156Y0046964D01*
X0163156Y0049010D02*
X0154966Y0049010D01*
X0154966Y0051056D02*
X0163156Y0051056D01*
X0163156Y0053102D02*
X0154966Y0053102D01*
X0154966Y0055148D02*
X0163156Y0055148D01*
X0163156Y0057194D02*
X0154966Y0057194D01*
X0154966Y0059240D02*
X0163156Y0059240D01*
X0163156Y0061286D02*
X0154966Y0061286D01*
X0154966Y0063332D02*
X0163156Y0063332D01*
X0163156Y0065378D02*
X0154966Y0065378D01*
X0154966Y0067424D02*
X0163156Y0067424D01*
X0163156Y0069470D02*
X0154966Y0069470D01*
X0154966Y0071516D02*
X0163156Y0071516D01*
X0163156Y0073562D02*
X0154966Y0073562D01*
X0154966Y0074688D02*
X0154966Y0036734D01*
X0154966Y0074688D02*
X0163156Y0074688D01*
X0163156Y0036734D01*
X0154966Y0036734D01*
X0154966Y0038780D02*
X0163156Y0038780D01*
X0163156Y0040826D02*
X0154966Y0040826D01*
X0154966Y0042872D02*
X0163156Y0042872D01*
X0163156Y0044918D02*
X0154966Y0044918D01*
X0154966Y0046964D02*
X0163156Y0046964D01*
X0163156Y0049010D02*
X0154966Y0049010D01*
X0154966Y0051056D02*
X0163156Y0051056D01*
X0163156Y0053102D02*
X0154966Y0053102D01*
X0154966Y0055148D02*
X0163156Y0055148D01*
X0163156Y0057194D02*
X0154966Y0057194D01*
X0154966Y0059240D02*
X0163156Y0059240D01*
X0163156Y0061286D02*
X0154966Y0061286D01*
X0154966Y0063332D02*
X0163156Y0063332D01*
X0163156Y0065378D02*
X0154966Y0065378D01*
X0154966Y0067424D02*
X0163156Y0067424D01*
X0163156Y0069470D02*
X0154966Y0069470D01*
X0154966Y0071516D02*
X0163156Y0071516D01*
X0163156Y0073562D02*
X0154966Y0073562D01*
X0154966Y0074688D02*
X0154966Y0036734D01*
X0154966Y0074688D02*
X0163156Y0074688D01*
X0163156Y0036734D01*
X0154966Y0036734D01*
X0154966Y0038780D02*
X0163156Y0038780D01*
X0163156Y0040826D02*
X0154966Y0040826D01*
X0154966Y0042872D02*
X0163156Y0042872D01*
X0163156Y0044918D02*
X0154966Y0044918D01*
X0154966Y0046964D02*
X0163156Y0046964D01*
X0163156Y0049010D02*
X0154966Y0049010D01*
X0154966Y0051056D02*
X0163156Y0051056D01*
X0163156Y0053102D02*
X0154966Y0053102D01*
X0154966Y0055148D02*
X0163156Y0055148D01*
X0163156Y0057194D02*
X0154966Y0057194D01*
X0154966Y0059240D02*
X0163156Y0059240D01*
X0163156Y0061286D02*
X0154966Y0061286D01*
X0154966Y0063332D02*
X0163156Y0063332D01*
X0163156Y0065378D02*
X0154966Y0065378D01*
X0154966Y0067424D02*
X0163156Y0067424D01*
X0163156Y0069470D02*
X0154966Y0069470D01*
X0154966Y0071516D02*
X0163156Y0071516D01*
X0163156Y0073562D02*
X0154966Y0073562D01*
X0170557Y0074688D02*
X0170557Y0036734D01*
X0170557Y0074688D02*
X0178747Y0074688D01*
X0178747Y0036734D01*
X0170557Y0036734D01*
X0170557Y0038780D02*
X0178747Y0038780D01*
X0178747Y0040826D02*
X0170557Y0040826D01*
X0170557Y0042872D02*
X0178747Y0042872D01*
X0178747Y0044918D02*
X0170557Y0044918D01*
X0170557Y0046964D02*
X0178747Y0046964D01*
X0178747Y0049010D02*
X0170557Y0049010D01*
X0170557Y0051056D02*
X0178747Y0051056D01*
X0178747Y0053102D02*
X0170557Y0053102D01*
X0170557Y0055148D02*
X0178747Y0055148D01*
X0178747Y0057194D02*
X0170557Y0057194D01*
X0170557Y0059240D02*
X0178747Y0059240D01*
X0178747Y0061286D02*
X0170557Y0061286D01*
X0170557Y0063332D02*
X0178747Y0063332D01*
X0178747Y0065378D02*
X0170557Y0065378D01*
X0170557Y0067424D02*
X0178747Y0067424D01*
X0178747Y0069470D02*
X0170557Y0069470D01*
X0170557Y0071516D02*
X0178747Y0071516D01*
X0178747Y0073562D02*
X0170557Y0073562D01*
X0170557Y0074688D02*
X0170557Y0036734D01*
X0170557Y0074688D02*
X0178747Y0074688D01*
X0178747Y0036734D01*
X0170557Y0036734D01*
X0170557Y0038780D02*
X0178747Y0038780D01*
X0178747Y0040826D02*
X0170557Y0040826D01*
X0170557Y0042872D02*
X0178747Y0042872D01*
X0178747Y0044918D02*
X0170557Y0044918D01*
X0170557Y0046964D02*
X0178747Y0046964D01*
X0178747Y0049010D02*
X0170557Y0049010D01*
X0170557Y0051056D02*
X0178747Y0051056D01*
X0178747Y0053102D02*
X0170557Y0053102D01*
X0170557Y0055148D02*
X0178747Y0055148D01*
X0178747Y0057194D02*
X0170557Y0057194D01*
X0170557Y0059240D02*
X0178747Y0059240D01*
X0178747Y0061286D02*
X0170557Y0061286D01*
X0170557Y0063332D02*
X0178747Y0063332D01*
X0178747Y0065378D02*
X0170557Y0065378D01*
X0170557Y0067424D02*
X0178747Y0067424D01*
X0178747Y0069470D02*
X0170557Y0069470D01*
X0170557Y0071516D02*
X0178747Y0071516D01*
X0178747Y0073562D02*
X0170557Y0073562D01*
X0170557Y0074688D02*
X0170557Y0036734D01*
X0170557Y0074688D02*
X0178747Y0074688D01*
X0178747Y0036734D01*
X0170557Y0036734D01*
X0170557Y0038780D02*
X0178747Y0038780D01*
X0178747Y0040826D02*
X0170557Y0040826D01*
X0170557Y0042872D02*
X0178747Y0042872D01*
X0178747Y0044918D02*
X0170557Y0044918D01*
X0170557Y0046964D02*
X0178747Y0046964D01*
X0178747Y0049010D02*
X0170557Y0049010D01*
X0170557Y0051056D02*
X0178747Y0051056D01*
X0178747Y0053102D02*
X0170557Y0053102D01*
X0170557Y0055148D02*
X0178747Y0055148D01*
X0178747Y0057194D02*
X0170557Y0057194D01*
X0170557Y0059240D02*
X0178747Y0059240D01*
X0178747Y0061286D02*
X0170557Y0061286D01*
X0170557Y0063332D02*
X0178747Y0063332D01*
X0178747Y0065378D02*
X0170557Y0065378D01*
X0170557Y0067424D02*
X0178747Y0067424D01*
X0178747Y0069470D02*
X0170557Y0069470D01*
X0170557Y0071516D02*
X0178747Y0071516D01*
X0178747Y0073562D02*
X0170557Y0073562D01*
X0186148Y0074688D02*
X0186148Y0036734D01*
X0186148Y0074688D02*
X0194338Y0074688D01*
X0194338Y0036734D01*
X0186148Y0036734D01*
X0186148Y0038780D02*
X0194338Y0038780D01*
X0194338Y0040826D02*
X0186148Y0040826D01*
X0186148Y0042872D02*
X0194338Y0042872D01*
X0194338Y0044918D02*
X0186148Y0044918D01*
X0186148Y0046964D02*
X0194338Y0046964D01*
X0194338Y0049010D02*
X0186148Y0049010D01*
X0186148Y0051056D02*
X0194338Y0051056D01*
X0194338Y0053102D02*
X0186148Y0053102D01*
X0186148Y0055148D02*
X0194338Y0055148D01*
X0194338Y0057194D02*
X0186148Y0057194D01*
X0186148Y0059240D02*
X0194338Y0059240D01*
X0194338Y0061286D02*
X0186148Y0061286D01*
X0186148Y0063332D02*
X0194338Y0063332D01*
X0194338Y0065378D02*
X0186148Y0065378D01*
X0186148Y0067424D02*
X0194338Y0067424D01*
X0194338Y0069470D02*
X0186148Y0069470D01*
X0186148Y0071516D02*
X0194338Y0071516D01*
X0194338Y0073562D02*
X0186148Y0073562D01*
X0186148Y0074688D02*
X0186148Y0036734D01*
X0186148Y0074688D02*
X0194338Y0074688D01*
X0194338Y0036734D01*
X0186148Y0036734D01*
X0186148Y0038780D02*
X0194338Y0038780D01*
X0194338Y0040826D02*
X0186148Y0040826D01*
X0186148Y0042872D02*
X0194338Y0042872D01*
X0194338Y0044918D02*
X0186148Y0044918D01*
X0186148Y0046964D02*
X0194338Y0046964D01*
X0194338Y0049010D02*
X0186148Y0049010D01*
X0186148Y0051056D02*
X0194338Y0051056D01*
X0194338Y0053102D02*
X0186148Y0053102D01*
X0186148Y0055148D02*
X0194338Y0055148D01*
X0194338Y0057194D02*
X0186148Y0057194D01*
X0186148Y0059240D02*
X0194338Y0059240D01*
X0194338Y0061286D02*
X0186148Y0061286D01*
X0186148Y0063332D02*
X0194338Y0063332D01*
X0194338Y0065378D02*
X0186148Y0065378D01*
X0186148Y0067424D02*
X0194338Y0067424D01*
X0194338Y0069470D02*
X0186148Y0069470D01*
X0186148Y0071516D02*
X0194338Y0071516D01*
X0194338Y0073562D02*
X0186148Y0073562D01*
X0186148Y0074688D02*
X0186148Y0036734D01*
X0186148Y0074688D02*
X0194338Y0074688D01*
X0194338Y0036734D01*
X0186148Y0036734D01*
X0186148Y0038780D02*
X0194338Y0038780D01*
X0194338Y0040826D02*
X0186148Y0040826D01*
X0186148Y0042872D02*
X0194338Y0042872D01*
X0194338Y0044918D02*
X0186148Y0044918D01*
X0186148Y0046964D02*
X0194338Y0046964D01*
X0194338Y0049010D02*
X0186148Y0049010D01*
X0186148Y0051056D02*
X0194338Y0051056D01*
X0194338Y0053102D02*
X0186148Y0053102D01*
X0186148Y0055148D02*
X0194338Y0055148D01*
X0194338Y0057194D02*
X0186148Y0057194D01*
X0186148Y0059240D02*
X0194338Y0059240D01*
X0194338Y0061286D02*
X0186148Y0061286D01*
X0186148Y0063332D02*
X0194338Y0063332D01*
X0194338Y0065378D02*
X0186148Y0065378D01*
X0186148Y0067424D02*
X0194338Y0067424D01*
X0194338Y0069470D02*
X0186148Y0069470D01*
X0186148Y0071516D02*
X0194338Y0071516D01*
X0194338Y0073562D02*
X0186148Y0073562D01*
X0201738Y0074688D02*
X0201738Y0036734D01*
X0201738Y0074688D02*
X0209928Y0074688D01*
X0209928Y0036734D01*
X0201738Y0036734D01*
X0201738Y0038780D02*
X0209928Y0038780D01*
X0209928Y0040826D02*
X0201738Y0040826D01*
X0201738Y0042872D02*
X0209928Y0042872D01*
X0209928Y0044918D02*
X0201738Y0044918D01*
X0201738Y0046964D02*
X0209928Y0046964D01*
X0209928Y0049010D02*
X0201738Y0049010D01*
X0201738Y0051056D02*
X0209928Y0051056D01*
X0209928Y0053102D02*
X0201738Y0053102D01*
X0201738Y0055148D02*
X0209928Y0055148D01*
X0209928Y0057194D02*
X0201738Y0057194D01*
X0201738Y0059240D02*
X0209928Y0059240D01*
X0209928Y0061286D02*
X0201738Y0061286D01*
X0201738Y0063332D02*
X0209928Y0063332D01*
X0209928Y0065378D02*
X0201738Y0065378D01*
X0201738Y0067424D02*
X0209928Y0067424D01*
X0209928Y0069470D02*
X0201738Y0069470D01*
X0201738Y0071516D02*
X0209928Y0071516D01*
X0209928Y0073562D02*
X0201738Y0073562D01*
X0201738Y0074688D02*
X0201738Y0036734D01*
X0201738Y0074688D02*
X0209928Y0074688D01*
X0209928Y0036734D01*
X0201738Y0036734D01*
X0201738Y0038780D02*
X0209928Y0038780D01*
X0209928Y0040826D02*
X0201738Y0040826D01*
X0201738Y0042872D02*
X0209928Y0042872D01*
X0209928Y0044918D02*
X0201738Y0044918D01*
X0201738Y0046964D02*
X0209928Y0046964D01*
X0209928Y0049010D02*
X0201738Y0049010D01*
X0201738Y0051056D02*
X0209928Y0051056D01*
X0209928Y0053102D02*
X0201738Y0053102D01*
X0201738Y0055148D02*
X0209928Y0055148D01*
X0209928Y0057194D02*
X0201738Y0057194D01*
X0201738Y0059240D02*
X0209928Y0059240D01*
X0209928Y0061286D02*
X0201738Y0061286D01*
X0201738Y0063332D02*
X0209928Y0063332D01*
X0209928Y0065378D02*
X0201738Y0065378D01*
X0201738Y0067424D02*
X0209928Y0067424D01*
X0209928Y0069470D02*
X0201738Y0069470D01*
X0201738Y0071516D02*
X0209928Y0071516D01*
X0209928Y0073562D02*
X0201738Y0073562D01*
X0201738Y0074688D02*
X0201738Y0036734D01*
X0201738Y0074688D02*
X0209928Y0074688D01*
X0209928Y0036734D01*
X0201738Y0036734D01*
X0201738Y0038780D02*
X0209928Y0038780D01*
X0209928Y0040826D02*
X0201738Y0040826D01*
X0201738Y0042872D02*
X0209928Y0042872D01*
X0209928Y0044918D02*
X0201738Y0044918D01*
X0201738Y0046964D02*
X0209928Y0046964D01*
X0209928Y0049010D02*
X0201738Y0049010D01*
X0201738Y0051056D02*
X0209928Y0051056D01*
X0209928Y0053102D02*
X0201738Y0053102D01*
X0201738Y0055148D02*
X0209928Y0055148D01*
X0209928Y0057194D02*
X0201738Y0057194D01*
X0201738Y0059240D02*
X0209928Y0059240D01*
X0209928Y0061286D02*
X0201738Y0061286D01*
X0201738Y0063332D02*
X0209928Y0063332D01*
X0209928Y0065378D02*
X0201738Y0065378D01*
X0201738Y0067424D02*
X0209928Y0067424D01*
X0209928Y0069470D02*
X0201738Y0069470D01*
X0201738Y0071516D02*
X0209928Y0071516D01*
X0209928Y0073562D02*
X0201738Y0073562D01*
X0217329Y0074688D02*
X0217329Y0036734D01*
X0217329Y0074688D02*
X0225519Y0074688D01*
X0225519Y0036734D01*
X0217329Y0036734D01*
X0217329Y0038780D02*
X0225519Y0038780D01*
X0225519Y0040826D02*
X0217329Y0040826D01*
X0217329Y0042872D02*
X0225519Y0042872D01*
X0225519Y0044918D02*
X0217329Y0044918D01*
X0217329Y0046964D02*
X0225519Y0046964D01*
X0225519Y0049010D02*
X0217329Y0049010D01*
X0217329Y0051056D02*
X0225519Y0051056D01*
X0225519Y0053102D02*
X0217329Y0053102D01*
X0217329Y0055148D02*
X0225519Y0055148D01*
X0225519Y0057194D02*
X0217329Y0057194D01*
X0217329Y0059240D02*
X0225519Y0059240D01*
X0225519Y0061286D02*
X0217329Y0061286D01*
X0217329Y0063332D02*
X0225519Y0063332D01*
X0225519Y0065378D02*
X0217329Y0065378D01*
X0217329Y0067424D02*
X0225519Y0067424D01*
X0225519Y0069470D02*
X0217329Y0069470D01*
X0217329Y0071516D02*
X0225519Y0071516D01*
X0225519Y0073562D02*
X0217329Y0073562D01*
X0217329Y0074688D02*
X0217329Y0036734D01*
X0217329Y0074688D02*
X0225519Y0074688D01*
X0225519Y0036734D01*
X0217329Y0036734D01*
X0217329Y0038780D02*
X0225519Y0038780D01*
X0225519Y0040826D02*
X0217329Y0040826D01*
X0217329Y0042872D02*
X0225519Y0042872D01*
X0225519Y0044918D02*
X0217329Y0044918D01*
X0217329Y0046964D02*
X0225519Y0046964D01*
X0225519Y0049010D02*
X0217329Y0049010D01*
X0217329Y0051056D02*
X0225519Y0051056D01*
X0225519Y0053102D02*
X0217329Y0053102D01*
X0217329Y0055148D02*
X0225519Y0055148D01*
X0225519Y0057194D02*
X0217329Y0057194D01*
X0217329Y0059240D02*
X0225519Y0059240D01*
X0225519Y0061286D02*
X0217329Y0061286D01*
X0217329Y0063332D02*
X0225519Y0063332D01*
X0225519Y0065378D02*
X0217329Y0065378D01*
X0217329Y0067424D02*
X0225519Y0067424D01*
X0225519Y0069470D02*
X0217329Y0069470D01*
X0217329Y0071516D02*
X0225519Y0071516D01*
X0225519Y0073562D02*
X0217329Y0073562D01*
X0217329Y0074688D02*
X0217329Y0036734D01*
X0217329Y0074688D02*
X0225519Y0074688D01*
X0225519Y0036734D01*
X0217329Y0036734D01*
X0217329Y0038780D02*
X0225519Y0038780D01*
X0225519Y0040826D02*
X0217329Y0040826D01*
X0217329Y0042872D02*
X0225519Y0042872D01*
X0225519Y0044918D02*
X0217329Y0044918D01*
X0217329Y0046964D02*
X0225519Y0046964D01*
X0225519Y0049010D02*
X0217329Y0049010D01*
X0217329Y0051056D02*
X0225519Y0051056D01*
X0225519Y0053102D02*
X0217329Y0053102D01*
X0217329Y0055148D02*
X0225519Y0055148D01*
X0225519Y0057194D02*
X0217329Y0057194D01*
X0217329Y0059240D02*
X0225519Y0059240D01*
X0225519Y0061286D02*
X0217329Y0061286D01*
X0217329Y0063332D02*
X0225519Y0063332D01*
X0225519Y0065378D02*
X0217329Y0065378D01*
X0217329Y0067424D02*
X0225519Y0067424D01*
X0225519Y0069470D02*
X0217329Y0069470D01*
X0217329Y0071516D02*
X0225519Y0071516D01*
X0225519Y0073562D02*
X0217329Y0073562D01*
X0232919Y0074688D02*
X0232919Y0036734D01*
X0232919Y0074688D02*
X0241109Y0074688D01*
X0241109Y0036734D01*
X0232919Y0036734D01*
X0232919Y0038780D02*
X0241109Y0038780D01*
X0241109Y0040826D02*
X0232919Y0040826D01*
X0232919Y0042872D02*
X0241109Y0042872D01*
X0241109Y0044918D02*
X0232919Y0044918D01*
X0232919Y0046964D02*
X0241109Y0046964D01*
X0241109Y0049010D02*
X0232919Y0049010D01*
X0232919Y0051056D02*
X0241109Y0051056D01*
X0241109Y0053102D02*
X0232919Y0053102D01*
X0232919Y0055148D02*
X0241109Y0055148D01*
X0241109Y0057194D02*
X0232919Y0057194D01*
X0232919Y0059240D02*
X0241109Y0059240D01*
X0241109Y0061286D02*
X0232919Y0061286D01*
X0232919Y0063332D02*
X0241109Y0063332D01*
X0241109Y0065378D02*
X0232919Y0065378D01*
X0232919Y0067424D02*
X0241109Y0067424D01*
X0241109Y0069470D02*
X0232919Y0069470D01*
X0232919Y0071516D02*
X0241109Y0071516D01*
X0241109Y0073562D02*
X0232919Y0073562D01*
X0232919Y0074688D02*
X0232919Y0036734D01*
X0232919Y0074688D02*
X0241109Y0074688D01*
X0241109Y0036734D01*
X0232919Y0036734D01*
X0232919Y0038780D02*
X0241109Y0038780D01*
X0241109Y0040826D02*
X0232919Y0040826D01*
X0232919Y0042872D02*
X0241109Y0042872D01*
X0241109Y0044918D02*
X0232919Y0044918D01*
X0232919Y0046964D02*
X0241109Y0046964D01*
X0241109Y0049010D02*
X0232919Y0049010D01*
X0232919Y0051056D02*
X0241109Y0051056D01*
X0241109Y0053102D02*
X0232919Y0053102D01*
X0232919Y0055148D02*
X0241109Y0055148D01*
X0241109Y0057194D02*
X0232919Y0057194D01*
X0232919Y0059240D02*
X0241109Y0059240D01*
X0241109Y0061286D02*
X0232919Y0061286D01*
X0232919Y0063332D02*
X0241109Y0063332D01*
X0241109Y0065378D02*
X0232919Y0065378D01*
X0232919Y0067424D02*
X0241109Y0067424D01*
X0241109Y0069470D02*
X0232919Y0069470D01*
X0232919Y0071516D02*
X0241109Y0071516D01*
X0241109Y0073562D02*
X0232919Y0073562D01*
X0232919Y0074688D02*
X0232919Y0036734D01*
X0232919Y0074688D02*
X0241109Y0074688D01*
X0241109Y0036734D01*
X0232919Y0036734D01*
X0232919Y0038780D02*
X0241109Y0038780D01*
X0241109Y0040826D02*
X0232919Y0040826D01*
X0232919Y0042872D02*
X0241109Y0042872D01*
X0241109Y0044918D02*
X0232919Y0044918D01*
X0232919Y0046964D02*
X0241109Y0046964D01*
X0241109Y0049010D02*
X0232919Y0049010D01*
X0232919Y0051056D02*
X0241109Y0051056D01*
X0241109Y0053102D02*
X0232919Y0053102D01*
X0232919Y0055148D02*
X0241109Y0055148D01*
X0241109Y0057194D02*
X0232919Y0057194D01*
X0232919Y0059240D02*
X0241109Y0059240D01*
X0241109Y0061286D02*
X0232919Y0061286D01*
X0232919Y0063332D02*
X0241109Y0063332D01*
X0241109Y0065378D02*
X0232919Y0065378D01*
X0232919Y0067424D02*
X0241109Y0067424D01*
X0241109Y0069470D02*
X0232919Y0069470D01*
X0232919Y0071516D02*
X0241109Y0071516D01*
X0241109Y0073562D02*
X0232919Y0073562D01*
X0248510Y0074688D02*
X0248510Y0036734D01*
X0248510Y0074688D02*
X0256700Y0074688D01*
X0256700Y0036734D01*
X0248510Y0036734D01*
X0248510Y0038780D02*
X0256700Y0038780D01*
X0256700Y0040826D02*
X0248510Y0040826D01*
X0248510Y0042872D02*
X0256700Y0042872D01*
X0256700Y0044918D02*
X0248510Y0044918D01*
X0248510Y0046964D02*
X0256700Y0046964D01*
X0256700Y0049010D02*
X0248510Y0049010D01*
X0248510Y0051056D02*
X0256700Y0051056D01*
X0256700Y0053102D02*
X0248510Y0053102D01*
X0248510Y0055148D02*
X0256700Y0055148D01*
X0256700Y0057194D02*
X0248510Y0057194D01*
X0248510Y0059240D02*
X0256700Y0059240D01*
X0256700Y0061286D02*
X0248510Y0061286D01*
X0248510Y0063332D02*
X0256700Y0063332D01*
X0256700Y0065378D02*
X0248510Y0065378D01*
X0248510Y0067424D02*
X0256700Y0067424D01*
X0256700Y0069470D02*
X0248510Y0069470D01*
X0248510Y0071516D02*
X0256700Y0071516D01*
X0256700Y0073562D02*
X0248510Y0073562D01*
X0248510Y0074688D02*
X0248510Y0036734D01*
X0248510Y0074688D02*
X0256700Y0074688D01*
X0256700Y0036734D01*
X0248510Y0036734D01*
X0248510Y0038780D02*
X0256700Y0038780D01*
X0256700Y0040826D02*
X0248510Y0040826D01*
X0248510Y0042872D02*
X0256700Y0042872D01*
X0256700Y0044918D02*
X0248510Y0044918D01*
X0248510Y0046964D02*
X0256700Y0046964D01*
X0256700Y0049010D02*
X0248510Y0049010D01*
X0248510Y0051056D02*
X0256700Y0051056D01*
X0256700Y0053102D02*
X0248510Y0053102D01*
X0248510Y0055148D02*
X0256700Y0055148D01*
X0256700Y0057194D02*
X0248510Y0057194D01*
X0248510Y0059240D02*
X0256700Y0059240D01*
X0256700Y0061286D02*
X0248510Y0061286D01*
X0248510Y0063332D02*
X0256700Y0063332D01*
X0256700Y0065378D02*
X0248510Y0065378D01*
X0248510Y0067424D02*
X0256700Y0067424D01*
X0256700Y0069470D02*
X0248510Y0069470D01*
X0248510Y0071516D02*
X0256700Y0071516D01*
X0256700Y0073562D02*
X0248510Y0073562D01*
X0248510Y0074688D02*
X0248510Y0036734D01*
X0248510Y0074688D02*
X0256700Y0074688D01*
X0256700Y0036734D01*
X0248510Y0036734D01*
X0248510Y0038780D02*
X0256700Y0038780D01*
X0256700Y0040826D02*
X0248510Y0040826D01*
X0248510Y0042872D02*
X0256700Y0042872D01*
X0256700Y0044918D02*
X0248510Y0044918D01*
X0248510Y0046964D02*
X0256700Y0046964D01*
X0256700Y0049010D02*
X0248510Y0049010D01*
X0248510Y0051056D02*
X0256700Y0051056D01*
X0256700Y0053102D02*
X0248510Y0053102D01*
X0248510Y0055148D02*
X0256700Y0055148D01*
X0256700Y0057194D02*
X0248510Y0057194D01*
X0248510Y0059240D02*
X0256700Y0059240D01*
X0256700Y0061286D02*
X0248510Y0061286D01*
X0248510Y0063332D02*
X0256700Y0063332D01*
X0256700Y0065378D02*
X0248510Y0065378D01*
X0248510Y0067424D02*
X0256700Y0067424D01*
X0256700Y0069470D02*
X0248510Y0069470D01*
X0248510Y0071516D02*
X0256700Y0071516D01*
X0256700Y0073562D02*
X0248510Y0073562D01*
X0264100Y0074688D02*
X0264100Y0036734D01*
X0264100Y0074688D02*
X0272290Y0074688D01*
X0272290Y0036734D01*
X0264100Y0036734D01*
X0264100Y0038780D02*
X0272290Y0038780D01*
X0272290Y0040826D02*
X0264100Y0040826D01*
X0264100Y0042872D02*
X0272290Y0042872D01*
X0272290Y0044918D02*
X0264100Y0044918D01*
X0264100Y0046964D02*
X0272290Y0046964D01*
X0272290Y0049010D02*
X0264100Y0049010D01*
X0264100Y0051056D02*
X0272290Y0051056D01*
X0272290Y0053102D02*
X0264100Y0053102D01*
X0264100Y0055148D02*
X0272290Y0055148D01*
X0272290Y0057194D02*
X0264100Y0057194D01*
X0264100Y0059240D02*
X0272290Y0059240D01*
X0272290Y0061286D02*
X0264100Y0061286D01*
X0264100Y0063332D02*
X0272290Y0063332D01*
X0272290Y0065378D02*
X0264100Y0065378D01*
X0264100Y0067424D02*
X0272290Y0067424D01*
X0272290Y0069470D02*
X0264100Y0069470D01*
X0264100Y0071516D02*
X0272290Y0071516D01*
X0272290Y0073562D02*
X0264100Y0073562D01*
X0264100Y0074688D02*
X0264100Y0036734D01*
X0264100Y0074688D02*
X0272290Y0074688D01*
X0272290Y0036734D01*
X0264100Y0036734D01*
X0264100Y0038780D02*
X0272290Y0038780D01*
X0272290Y0040826D02*
X0264100Y0040826D01*
X0264100Y0042872D02*
X0272290Y0042872D01*
X0272290Y0044918D02*
X0264100Y0044918D01*
X0264100Y0046964D02*
X0272290Y0046964D01*
X0272290Y0049010D02*
X0264100Y0049010D01*
X0264100Y0051056D02*
X0272290Y0051056D01*
X0272290Y0053102D02*
X0264100Y0053102D01*
X0264100Y0055148D02*
X0272290Y0055148D01*
X0272290Y0057194D02*
X0264100Y0057194D01*
X0264100Y0059240D02*
X0272290Y0059240D01*
X0272290Y0061286D02*
X0264100Y0061286D01*
X0264100Y0063332D02*
X0272290Y0063332D01*
X0272290Y0065378D02*
X0264100Y0065378D01*
X0264100Y0067424D02*
X0272290Y0067424D01*
X0272290Y0069470D02*
X0264100Y0069470D01*
X0264100Y0071516D02*
X0272290Y0071516D01*
X0272290Y0073562D02*
X0264100Y0073562D01*
X0264100Y0074688D02*
X0264100Y0036734D01*
X0264100Y0074688D02*
X0272290Y0074688D01*
X0272290Y0036734D01*
X0264100Y0036734D01*
X0264100Y0038780D02*
X0272290Y0038780D01*
X0272290Y0040826D02*
X0264100Y0040826D01*
X0264100Y0042872D02*
X0272290Y0042872D01*
X0272290Y0044918D02*
X0264100Y0044918D01*
X0264100Y0046964D02*
X0272290Y0046964D01*
X0272290Y0049010D02*
X0264100Y0049010D01*
X0264100Y0051056D02*
X0272290Y0051056D01*
X0272290Y0053102D02*
X0264100Y0053102D01*
X0264100Y0055148D02*
X0272290Y0055148D01*
X0272290Y0057194D02*
X0264100Y0057194D01*
X0264100Y0059240D02*
X0272290Y0059240D01*
X0272290Y0061286D02*
X0264100Y0061286D01*
X0264100Y0063332D02*
X0272290Y0063332D01*
X0272290Y0065378D02*
X0264100Y0065378D01*
X0264100Y0067424D02*
X0272290Y0067424D01*
X0272290Y0069470D02*
X0264100Y0069470D01*
X0264100Y0071516D02*
X0272290Y0071516D01*
X0272290Y0073562D02*
X0264100Y0073562D01*
X0279691Y0074688D02*
X0279691Y0036734D01*
X0279691Y0074688D02*
X0287881Y0074688D01*
X0287881Y0036734D01*
X0279691Y0036734D01*
X0279691Y0038780D02*
X0287881Y0038780D01*
X0287881Y0040826D02*
X0279691Y0040826D01*
X0279691Y0042872D02*
X0287881Y0042872D01*
X0287881Y0044918D02*
X0279691Y0044918D01*
X0279691Y0046964D02*
X0287881Y0046964D01*
X0287881Y0049010D02*
X0279691Y0049010D01*
X0279691Y0051056D02*
X0287881Y0051056D01*
X0287881Y0053102D02*
X0279691Y0053102D01*
X0279691Y0055148D02*
X0287881Y0055148D01*
X0287881Y0057194D02*
X0279691Y0057194D01*
X0279691Y0059240D02*
X0287881Y0059240D01*
X0287881Y0061286D02*
X0279691Y0061286D01*
X0279691Y0063332D02*
X0287881Y0063332D01*
X0287881Y0065378D02*
X0279691Y0065378D01*
X0279691Y0067424D02*
X0287881Y0067424D01*
X0287881Y0069470D02*
X0279691Y0069470D01*
X0279691Y0071516D02*
X0287881Y0071516D01*
X0287881Y0073562D02*
X0279691Y0073562D01*
X0279691Y0074688D02*
X0279691Y0036734D01*
X0279691Y0074688D02*
X0287881Y0074688D01*
X0287881Y0036734D01*
X0279691Y0036734D01*
X0279691Y0038780D02*
X0287881Y0038780D01*
X0287881Y0040826D02*
X0279691Y0040826D01*
X0279691Y0042872D02*
X0287881Y0042872D01*
X0287881Y0044918D02*
X0279691Y0044918D01*
X0279691Y0046964D02*
X0287881Y0046964D01*
X0287881Y0049010D02*
X0279691Y0049010D01*
X0279691Y0051056D02*
X0287881Y0051056D01*
X0287881Y0053102D02*
X0279691Y0053102D01*
X0279691Y0055148D02*
X0287881Y0055148D01*
X0287881Y0057194D02*
X0279691Y0057194D01*
X0279691Y0059240D02*
X0287881Y0059240D01*
X0287881Y0061286D02*
X0279691Y0061286D01*
X0279691Y0063332D02*
X0287881Y0063332D01*
X0287881Y0065378D02*
X0279691Y0065378D01*
X0279691Y0067424D02*
X0287881Y0067424D01*
X0287881Y0069470D02*
X0279691Y0069470D01*
X0279691Y0071516D02*
X0287881Y0071516D01*
X0287881Y0073562D02*
X0279691Y0073562D01*
X0279691Y0074688D02*
X0279691Y0036734D01*
X0279691Y0074688D02*
X0287881Y0074688D01*
X0287881Y0036734D01*
X0279691Y0036734D01*
X0279691Y0038780D02*
X0287881Y0038780D01*
X0287881Y0040826D02*
X0279691Y0040826D01*
X0279691Y0042872D02*
X0287881Y0042872D01*
X0287881Y0044918D02*
X0279691Y0044918D01*
X0279691Y0046964D02*
X0287881Y0046964D01*
X0287881Y0049010D02*
X0279691Y0049010D01*
X0279691Y0051056D02*
X0287881Y0051056D01*
X0287881Y0053102D02*
X0279691Y0053102D01*
X0279691Y0055148D02*
X0287881Y0055148D01*
X0287881Y0057194D02*
X0279691Y0057194D01*
X0279691Y0059240D02*
X0287881Y0059240D01*
X0287881Y0061286D02*
X0279691Y0061286D01*
X0279691Y0063332D02*
X0287881Y0063332D01*
X0287881Y0065378D02*
X0279691Y0065378D01*
X0279691Y0067424D02*
X0287881Y0067424D01*
X0287881Y0069470D02*
X0279691Y0069470D01*
X0279691Y0071516D02*
X0287881Y0071516D01*
X0287881Y0073562D02*
X0279691Y0073562D01*
X0295281Y0074688D02*
X0295281Y0036734D01*
X0295281Y0074688D02*
X0303471Y0074688D01*
X0303471Y0036734D01*
X0295281Y0036734D01*
X0295281Y0038780D02*
X0303471Y0038780D01*
X0303471Y0040826D02*
X0295281Y0040826D01*
X0295281Y0042872D02*
X0303471Y0042872D01*
X0303471Y0044918D02*
X0295281Y0044918D01*
X0295281Y0046964D02*
X0303471Y0046964D01*
X0303471Y0049010D02*
X0295281Y0049010D01*
X0295281Y0051056D02*
X0303471Y0051056D01*
X0303471Y0053102D02*
X0295281Y0053102D01*
X0295281Y0055148D02*
X0303471Y0055148D01*
X0303471Y0057194D02*
X0295281Y0057194D01*
X0295281Y0059240D02*
X0303471Y0059240D01*
X0303471Y0061286D02*
X0295281Y0061286D01*
X0295281Y0063332D02*
X0303471Y0063332D01*
X0303471Y0065378D02*
X0295281Y0065378D01*
X0295281Y0067424D02*
X0303471Y0067424D01*
X0303471Y0069470D02*
X0295281Y0069470D01*
X0295281Y0071516D02*
X0303471Y0071516D01*
X0303471Y0073562D02*
X0295281Y0073562D01*
X0295281Y0074688D02*
X0295281Y0036734D01*
X0295281Y0074688D02*
X0303471Y0074688D01*
X0303471Y0036734D01*
X0295281Y0036734D01*
X0295281Y0038780D02*
X0303471Y0038780D01*
X0303471Y0040826D02*
X0295281Y0040826D01*
X0295281Y0042872D02*
X0303471Y0042872D01*
X0303471Y0044918D02*
X0295281Y0044918D01*
X0295281Y0046964D02*
X0303471Y0046964D01*
X0303471Y0049010D02*
X0295281Y0049010D01*
X0295281Y0051056D02*
X0303471Y0051056D01*
X0303471Y0053102D02*
X0295281Y0053102D01*
X0295281Y0055148D02*
X0303471Y0055148D01*
X0303471Y0057194D02*
X0295281Y0057194D01*
X0295281Y0059240D02*
X0303471Y0059240D01*
X0303471Y0061286D02*
X0295281Y0061286D01*
X0295281Y0063332D02*
X0303471Y0063332D01*
X0303471Y0065378D02*
X0295281Y0065378D01*
X0295281Y0067424D02*
X0303471Y0067424D01*
X0303471Y0069470D02*
X0295281Y0069470D01*
X0295281Y0071516D02*
X0303471Y0071516D01*
X0303471Y0073562D02*
X0295281Y0073562D01*
X0295281Y0074688D02*
X0295281Y0036734D01*
X0295281Y0074688D02*
X0303471Y0074688D01*
X0303471Y0036734D01*
X0295281Y0036734D01*
X0295281Y0038780D02*
X0303471Y0038780D01*
X0303471Y0040826D02*
X0295281Y0040826D01*
X0295281Y0042872D02*
X0303471Y0042872D01*
X0303471Y0044918D02*
X0295281Y0044918D01*
X0295281Y0046964D02*
X0303471Y0046964D01*
X0303471Y0049010D02*
X0295281Y0049010D01*
X0295281Y0051056D02*
X0303471Y0051056D01*
X0303471Y0053102D02*
X0295281Y0053102D01*
X0295281Y0055148D02*
X0303471Y0055148D01*
X0303471Y0057194D02*
X0295281Y0057194D01*
X0295281Y0059240D02*
X0303471Y0059240D01*
X0303471Y0061286D02*
X0295281Y0061286D01*
X0295281Y0063332D02*
X0303471Y0063332D01*
X0303471Y0065378D02*
X0295281Y0065378D01*
X0295281Y0067424D02*
X0303471Y0067424D01*
X0303471Y0069470D02*
X0295281Y0069470D01*
X0295281Y0071516D02*
X0303471Y0071516D01*
X0303471Y0073562D02*
X0295281Y0073562D01*
D13*
X0183343Y0173933D02*
X0176847Y0173933D01*
X0176847Y0183933D02*
X0183343Y0183933D01*
X0183343Y0193933D02*
X0176847Y0193933D01*
X0176847Y0203933D02*
X0183343Y0203933D01*
X0183343Y0213933D02*
X0176847Y0213933D01*
X0176847Y0223933D02*
X0183343Y0223933D01*
X0183343Y0233933D02*
X0176847Y0233933D01*
X0176847Y0243933D02*
X0183343Y0243933D01*
X0183343Y0253933D02*
X0176847Y0253933D01*
X0176847Y0263933D02*
X0183343Y0263933D01*
X0183343Y0273933D02*
X0176847Y0273933D01*
X0176847Y0283933D02*
X0183343Y0283933D01*
X0183343Y0293933D02*
X0176847Y0293933D01*
X0176847Y0303933D02*
X0183343Y0303933D01*
X0183343Y0313933D02*
X0176847Y0313933D01*
X0176847Y0323933D02*
X0183343Y0323933D01*
X0123343Y0323933D02*
X0116847Y0323933D01*
X0116847Y0313933D02*
X0123343Y0313933D01*
X0123343Y0303933D02*
X0116847Y0303933D01*
X0116847Y0293933D02*
X0123343Y0293933D01*
X0123343Y0283933D02*
X0116847Y0283933D01*
X0116847Y0273933D02*
X0123343Y0273933D01*
X0123343Y0263933D02*
X0116847Y0263933D01*
X0116847Y0253933D02*
X0123343Y0253933D01*
X0123343Y0243933D02*
X0116847Y0243933D01*
X0116847Y0233933D02*
X0123343Y0233933D01*
X0123343Y0223933D02*
X0116847Y0223933D01*
X0116847Y0213933D02*
X0123343Y0213933D01*
X0123343Y0203933D02*
X0116847Y0203933D01*
X0116847Y0193933D02*
X0123343Y0193933D01*
X0123343Y0183933D02*
X0116847Y0183933D01*
X0116847Y0173933D02*
X0123343Y0173933D01*
D14*
X0127595Y0153933D03*
X0137595Y0153933D03*
X0260095Y0283933D03*
X0260095Y0293933D03*
X0260095Y0303933D03*
X0260095Y0313933D03*
X0260095Y0323933D03*
X0300095Y0323933D03*
X0300095Y0313933D03*
X0300095Y0303933D03*
X0300095Y0293933D03*
X0300095Y0283933D03*
D15*
X0260095Y0331333D02*
X0260095Y0336533D01*
X0250095Y0336533D02*
X0250095Y0331333D01*
X0240095Y0331333D02*
X0240095Y0336533D01*
X0230095Y0336533D02*
X0230095Y0331333D01*
X0220095Y0331333D02*
X0220095Y0336533D01*
X0220095Y0361333D02*
X0220095Y0366533D01*
X0230095Y0366533D02*
X0230095Y0361333D01*
X0240095Y0361333D02*
X0240095Y0366533D01*
X0250095Y0366533D02*
X0250095Y0361333D01*
X0260095Y0361333D02*
X0260095Y0366533D01*
D16*
X0260095Y0363933D02*
X0255695Y0363933D01*
X0255695Y0360987D01*
X0255803Y0360303D01*
X0256017Y0359644D01*
X0256332Y0359027D01*
X0256739Y0358467D01*
X0257229Y0357977D01*
X0257789Y0357570D01*
X0258406Y0357255D01*
X0259065Y0357041D01*
X0259749Y0356933D01*
X0260095Y0356933D01*
X0260095Y0363933D01*
X0255695Y0363933D01*
X0255695Y0366879D01*
X0255803Y0367563D01*
X0255891Y0367834D01*
X0254299Y0367834D01*
X0254387Y0367563D01*
X0254495Y0366879D01*
X0254495Y0363933D01*
X0250095Y0363933D01*
X0245695Y0363933D01*
X0245695Y0360987D01*
X0245803Y0360303D01*
X0246017Y0359644D01*
X0246332Y0359027D01*
X0246739Y0358467D01*
X0247229Y0357977D01*
X0247789Y0357570D01*
X0248406Y0357255D01*
X0249065Y0357041D01*
X0249749Y0356933D01*
X0250095Y0356933D01*
X0250095Y0363933D01*
X0250095Y0363933D01*
X0250095Y0363933D01*
X0245695Y0363933D01*
X0245695Y0366879D01*
X0245803Y0367563D01*
X0245891Y0367834D01*
X0244299Y0367834D01*
X0244387Y0367563D01*
X0244495Y0366879D01*
X0244495Y0363933D01*
X0240095Y0363933D01*
X0235695Y0363933D01*
X0235695Y0360987D01*
X0235803Y0360303D01*
X0236017Y0359644D01*
X0236332Y0359027D01*
X0236739Y0358467D01*
X0237229Y0357977D01*
X0237789Y0357570D01*
X0238406Y0357255D01*
X0239065Y0357041D01*
X0239749Y0356933D01*
X0240095Y0356933D01*
X0240095Y0363933D01*
X0240095Y0363933D01*
X0240095Y0363933D01*
X0235695Y0363933D01*
X0235695Y0366879D01*
X0235803Y0367563D01*
X0235891Y0367834D01*
X0234299Y0367834D01*
X0234387Y0367563D01*
X0234495Y0366879D01*
X0234495Y0363933D01*
X0230095Y0363933D01*
X0225695Y0363933D01*
X0225695Y0360987D01*
X0225803Y0360303D01*
X0226017Y0359644D01*
X0226332Y0359027D01*
X0226739Y0358467D01*
X0227229Y0357977D01*
X0227789Y0357570D01*
X0228406Y0357255D01*
X0229065Y0357041D01*
X0229749Y0356933D01*
X0230095Y0356933D01*
X0230095Y0363933D01*
X0230095Y0363933D01*
X0230095Y0363933D01*
X0225695Y0363933D01*
X0225695Y0366879D01*
X0225803Y0367563D01*
X0225891Y0367834D01*
X0224299Y0367834D01*
X0224387Y0367563D01*
X0224495Y0366879D01*
X0224495Y0363933D01*
X0220095Y0363933D01*
X0215695Y0363933D01*
X0215695Y0360987D01*
X0215803Y0360303D01*
X0216017Y0359644D01*
X0216332Y0359027D01*
X0216739Y0358467D01*
X0217229Y0357977D01*
X0217789Y0357570D01*
X0218406Y0357255D01*
X0219065Y0357041D01*
X0219749Y0356933D01*
X0220095Y0356933D01*
X0220095Y0363933D01*
X0220095Y0363933D01*
X0220095Y0363933D01*
X0215695Y0363933D01*
X0215695Y0366879D01*
X0215803Y0367563D01*
X0215891Y0367834D01*
X0072395Y0367834D01*
X0072395Y0140192D01*
X0073063Y0141349D01*
X0075789Y0144075D01*
X0079128Y0146003D01*
X0082852Y0147001D01*
X0086708Y0147001D01*
X0090432Y0146003D01*
X0093771Y0144075D01*
X0095895Y0141951D01*
X0095895Y0314929D01*
X0096504Y0316399D01*
X0111504Y0331399D01*
X0112629Y0332524D01*
X0114099Y0333133D01*
X0162541Y0333133D01*
X0162950Y0333541D01*
X0164861Y0334333D01*
X0166929Y0334333D01*
X0168841Y0333541D01*
X0169444Y0332938D01*
X0191304Y0354799D01*
X0192429Y0355924D01*
X0193899Y0356533D01*
X0232691Y0356533D01*
X0234161Y0355924D01*
X0235286Y0354799D01*
X0235286Y0354799D01*
X0248100Y0341985D01*
X0248941Y0342333D01*
X0251249Y0342333D01*
X0253381Y0341450D01*
X0255012Y0339819D01*
X0255095Y0339618D01*
X0255178Y0339819D01*
X0256810Y0341450D01*
X0258941Y0342333D01*
X0261249Y0342333D01*
X0263381Y0341450D01*
X0265012Y0339819D01*
X0265895Y0337687D01*
X0265895Y0330179D01*
X0265012Y0328048D01*
X0264598Y0327633D01*
X0265895Y0326335D01*
X0265895Y0324190D01*
X0267686Y0322399D01*
X0268295Y0320929D01*
X0268295Y0280937D01*
X0267686Y0279467D01*
X0266561Y0278342D01*
X0229295Y0241076D01*
X0229295Y0221487D01*
X0229703Y0221079D01*
X0230495Y0219167D01*
X0230495Y0217099D01*
X0229703Y0215187D01*
X0229101Y0214585D01*
X0248486Y0195199D01*
X0249095Y0193729D01*
X0249095Y0160337D01*
X0248486Y0158867D01*
X0236301Y0146682D01*
X0237503Y0145479D01*
X0238295Y0143567D01*
X0238295Y0142990D01*
X0297374Y0083911D01*
X0302513Y0083911D01*
X0303689Y0083423D01*
X0304589Y0082523D01*
X0305076Y0081347D01*
X0305076Y0078594D01*
X0305863Y0078268D01*
X0307052Y0077079D01*
X0307695Y0075527D01*
X0307695Y0048349D01*
X0307716Y0048422D01*
X0307716Y0124525D01*
X0307048Y0123368D01*
X0304322Y0120641D01*
X0300983Y0118714D01*
X0297259Y0117716D01*
X0293404Y0117716D01*
X0289680Y0118714D01*
X0286341Y0120641D01*
X0283614Y0123368D01*
X0281687Y0126706D01*
X0280689Y0130431D01*
X0280689Y0134286D01*
X0281687Y0138010D01*
X0283614Y0141349D01*
X0286341Y0144075D01*
X0289680Y0146003D01*
X0293404Y0147001D01*
X0297259Y0147001D01*
X0300983Y0146003D01*
X0304322Y0144075D01*
X0307048Y0141349D01*
X0307716Y0140192D01*
X0307716Y0367834D01*
X0264299Y0367834D01*
X0264387Y0367563D01*
X0264495Y0366879D01*
X0264495Y0363933D01*
X0260095Y0363933D01*
X0260095Y0363933D01*
X0260095Y0363933D01*
X0260095Y0356933D01*
X0260441Y0356933D01*
X0261125Y0357041D01*
X0261784Y0357255D01*
X0262401Y0357570D01*
X0262962Y0357977D01*
X0263451Y0358467D01*
X0263858Y0359027D01*
X0264173Y0359644D01*
X0264387Y0360303D01*
X0264495Y0360987D01*
X0264495Y0363933D01*
X0260095Y0363933D01*
X0260095Y0363933D01*
X0260095Y0363226D02*
X0260095Y0363226D01*
X0260095Y0361628D02*
X0260095Y0361628D01*
X0260095Y0360029D02*
X0260095Y0360029D01*
X0260095Y0358431D02*
X0260095Y0358431D01*
X0256775Y0358431D02*
X0253415Y0358431D01*
X0253451Y0358467D02*
X0253858Y0359027D01*
X0254173Y0359644D01*
X0254387Y0360303D01*
X0254495Y0360987D01*
X0254495Y0363933D01*
X0250095Y0363933D01*
X0250095Y0356933D01*
X0250441Y0356933D01*
X0251125Y0357041D01*
X0251784Y0357255D01*
X0252401Y0357570D01*
X0252962Y0357977D01*
X0253451Y0358467D01*
X0254298Y0360029D02*
X0255892Y0360029D01*
X0255695Y0361628D02*
X0254495Y0361628D01*
X0254495Y0363226D02*
X0255695Y0363226D01*
X0255695Y0364825D02*
X0254495Y0364825D01*
X0254495Y0366423D02*
X0255695Y0366423D01*
X0250095Y0363933D02*
X0250095Y0363933D01*
X0250095Y0363226D02*
X0250095Y0363226D01*
X0250095Y0361628D02*
X0250095Y0361628D01*
X0250095Y0360029D02*
X0250095Y0360029D01*
X0250095Y0358431D02*
X0250095Y0358431D01*
X0246775Y0358431D02*
X0243415Y0358431D01*
X0243451Y0358467D02*
X0243858Y0359027D01*
X0244173Y0359644D01*
X0244387Y0360303D01*
X0244495Y0360987D01*
X0244495Y0363933D01*
X0240095Y0363933D01*
X0240095Y0356933D01*
X0240441Y0356933D01*
X0241125Y0357041D01*
X0241784Y0357255D01*
X0242401Y0357570D01*
X0242962Y0357977D01*
X0243451Y0358467D01*
X0244298Y0360029D02*
X0245892Y0360029D01*
X0245695Y0361628D02*
X0244495Y0361628D01*
X0244495Y0363226D02*
X0245695Y0363226D01*
X0245695Y0364825D02*
X0244495Y0364825D01*
X0244495Y0366423D02*
X0245695Y0366423D01*
X0240095Y0363933D02*
X0240095Y0363933D01*
X0240095Y0363226D02*
X0240095Y0363226D01*
X0240095Y0361628D02*
X0240095Y0361628D01*
X0240095Y0360029D02*
X0240095Y0360029D01*
X0240095Y0358431D02*
X0240095Y0358431D01*
X0236775Y0358431D02*
X0233415Y0358431D01*
X0233451Y0358467D02*
X0233858Y0359027D01*
X0234173Y0359644D01*
X0234387Y0360303D01*
X0234495Y0360987D01*
X0234495Y0363933D01*
X0230095Y0363933D01*
X0230095Y0356933D01*
X0230441Y0356933D01*
X0231125Y0357041D01*
X0231784Y0357255D01*
X0232401Y0357570D01*
X0232962Y0357977D01*
X0233451Y0358467D01*
X0234298Y0360029D02*
X0235892Y0360029D01*
X0235695Y0361628D02*
X0234495Y0361628D01*
X0234495Y0363226D02*
X0235695Y0363226D01*
X0235695Y0364825D02*
X0234495Y0364825D01*
X0234495Y0366423D02*
X0235695Y0366423D01*
X0230095Y0363933D02*
X0230095Y0363933D01*
X0230095Y0363226D02*
X0230095Y0363226D01*
X0230095Y0361628D02*
X0230095Y0361628D01*
X0230095Y0360029D02*
X0230095Y0360029D01*
X0230095Y0358431D02*
X0230095Y0358431D01*
X0226775Y0358431D02*
X0223415Y0358431D01*
X0223451Y0358467D02*
X0223858Y0359027D01*
X0224173Y0359644D01*
X0224387Y0360303D01*
X0224495Y0360987D01*
X0224495Y0363933D01*
X0220095Y0363933D01*
X0220095Y0356933D01*
X0220441Y0356933D01*
X0221125Y0357041D01*
X0221784Y0357255D01*
X0222401Y0357570D01*
X0222962Y0357977D01*
X0223451Y0358467D01*
X0224298Y0360029D02*
X0225892Y0360029D01*
X0225695Y0361628D02*
X0224495Y0361628D01*
X0224495Y0363226D02*
X0225695Y0363226D01*
X0225695Y0364825D02*
X0224495Y0364825D01*
X0224495Y0366423D02*
X0225695Y0366423D01*
X0220095Y0363933D02*
X0220095Y0363933D01*
X0220095Y0363226D02*
X0220095Y0363226D01*
X0220095Y0361628D02*
X0220095Y0361628D01*
X0220095Y0360029D02*
X0220095Y0360029D01*
X0220095Y0358431D02*
X0220095Y0358431D01*
X0216775Y0358431D02*
X0072395Y0358431D01*
X0072395Y0360029D02*
X0215892Y0360029D01*
X0215695Y0361628D02*
X0072395Y0361628D01*
X0072395Y0363226D02*
X0215695Y0363226D01*
X0215695Y0364825D02*
X0072395Y0364825D01*
X0072395Y0366423D02*
X0215695Y0366423D01*
X0224095Y0350133D02*
X0239695Y0334533D01*
X0240095Y0333933D01*
X0240295Y0333933D01*
X0240295Y0327333D01*
X0260095Y0307533D01*
X0260095Y0303933D01*
X0260095Y0297933D02*
X0230095Y0327933D01*
X0230095Y0333933D01*
X0229495Y0333933D01*
X0222295Y0341133D01*
X0218695Y0341133D01*
X0196495Y0318933D01*
X0174895Y0318933D01*
X0153895Y0297933D01*
X0153895Y0216333D01*
X0176095Y0194133D01*
X0179695Y0194133D01*
X0180095Y0193933D01*
X0174895Y0198933D02*
X0156295Y0217533D01*
X0156295Y0284133D01*
X0176095Y0303933D01*
X0180095Y0303933D01*
X0188695Y0305733D02*
X0180295Y0314133D01*
X0180095Y0313933D01*
X0188296Y0322933D02*
X0188391Y0323536D01*
X0188391Y0323650D01*
X0180378Y0323650D01*
X0180378Y0324216D01*
X0180378Y0328959D01*
X0179812Y0328394D01*
X0179812Y0324216D01*
X0180378Y0324216D01*
X0188391Y0324216D01*
X0188391Y0324330D01*
X0188267Y0325115D01*
X0188021Y0325871D01*
X0187661Y0326579D01*
X0187194Y0327222D01*
X0186632Y0327783D01*
X0185989Y0328251D01*
X0185281Y0328611D01*
X0184525Y0328857D01*
X0183740Y0328981D01*
X0180400Y0328981D01*
X0197552Y0346133D01*
X0222438Y0346133D01*
X0223684Y0344887D01*
X0223091Y0345133D01*
X0217899Y0345133D01*
X0216429Y0344524D01*
X0215304Y0343399D01*
X0194838Y0322933D01*
X0188296Y0322933D01*
X0188348Y0323264D02*
X0195169Y0323264D01*
X0196767Y0324862D02*
X0188307Y0324862D01*
X0187721Y0326461D02*
X0198366Y0326461D01*
X0199964Y0328059D02*
X0186252Y0328059D01*
X0182675Y0331256D02*
X0203161Y0331256D01*
X0201563Y0329658D02*
X0181077Y0329658D01*
X0180378Y0328059D02*
X0179812Y0328059D01*
X0179812Y0326461D02*
X0180378Y0326461D01*
X0180378Y0324862D02*
X0179812Y0324862D01*
X0184274Y0332855D02*
X0204760Y0332855D01*
X0206358Y0334453D02*
X0185872Y0334453D01*
X0187471Y0336052D02*
X0207957Y0336052D01*
X0209555Y0337650D02*
X0189069Y0337650D01*
X0190668Y0339249D02*
X0211154Y0339249D01*
X0212752Y0340847D02*
X0192266Y0340847D01*
X0193865Y0342446D02*
X0214351Y0342446D01*
X0215949Y0344044D02*
X0195463Y0344044D01*
X0197062Y0345643D02*
X0222929Y0345643D01*
X0224095Y0350133D02*
X0195895Y0350133D01*
X0151495Y0305733D01*
X0151495Y0212133D01*
X0179695Y0183933D01*
X0180095Y0183933D01*
X0187495Y0189333D02*
X0188695Y0188133D01*
X0188695Y0171933D01*
X0166495Y0149733D01*
X0172495Y0152133D02*
X0191095Y0170733D01*
X0191095Y0193533D01*
X0185695Y0198933D01*
X0174895Y0198933D01*
X0180095Y0203933D02*
X0180295Y0203733D01*
X0184495Y0203733D01*
X0193495Y0194733D01*
X0193495Y0167733D01*
X0243295Y0117933D01*
X0250495Y0117933D01*
X0267895Y0100533D01*
X0267895Y0078333D01*
X0268195Y0078211D01*
X0283495Y0078333D02*
X0283786Y0078211D01*
X0283495Y0078333D02*
X0283495Y0088533D01*
X0233095Y0138933D01*
X0231295Y0138933D01*
X0229495Y0140733D01*
X0229495Y0145533D01*
X0245095Y0161133D01*
X0245095Y0192933D01*
X0191095Y0246933D01*
X0191095Y0313533D01*
X0188695Y0305733D02*
X0188695Y0240333D01*
X0180295Y0234333D02*
X0180095Y0233933D01*
X0180295Y0234333D02*
X0232495Y0182133D01*
X0245105Y0198580D02*
X0307716Y0198580D01*
X0307716Y0200178D02*
X0243507Y0200178D01*
X0241908Y0201777D02*
X0307716Y0201777D01*
X0307716Y0203375D02*
X0240310Y0203375D01*
X0238711Y0204974D02*
X0307716Y0204974D01*
X0307716Y0206572D02*
X0237113Y0206572D01*
X0235514Y0208171D02*
X0307716Y0208171D01*
X0307716Y0209769D02*
X0233916Y0209769D01*
X0232317Y0211368D02*
X0307716Y0211368D01*
X0307716Y0212966D02*
X0230719Y0212966D01*
X0229120Y0214565D02*
X0307716Y0214565D01*
X0307716Y0216163D02*
X0230108Y0216163D01*
X0230495Y0217762D02*
X0307716Y0217762D01*
X0307716Y0219360D02*
X0230415Y0219360D01*
X0229753Y0220959D02*
X0307716Y0220959D01*
X0307716Y0222557D02*
X0229295Y0222557D01*
X0229295Y0224156D02*
X0307716Y0224156D01*
X0307716Y0225754D02*
X0229295Y0225754D01*
X0229295Y0227353D02*
X0307716Y0227353D01*
X0307716Y0228951D02*
X0229295Y0228951D01*
X0229295Y0230550D02*
X0307716Y0230550D01*
X0307716Y0232148D02*
X0229295Y0232148D01*
X0229295Y0233747D02*
X0307716Y0233747D01*
X0307716Y0235345D02*
X0229295Y0235345D01*
X0229295Y0236944D02*
X0307716Y0236944D01*
X0307716Y0238543D02*
X0229295Y0238543D01*
X0229295Y0240141D02*
X0307716Y0240141D01*
X0307716Y0241740D02*
X0229958Y0241740D01*
X0231557Y0243338D02*
X0307716Y0243338D01*
X0307716Y0244937D02*
X0233155Y0244937D01*
X0234754Y0246535D02*
X0307716Y0246535D01*
X0307716Y0248134D02*
X0236353Y0248134D01*
X0237951Y0249732D02*
X0307716Y0249732D01*
X0307716Y0251331D02*
X0239550Y0251331D01*
X0241148Y0252929D02*
X0307716Y0252929D01*
X0307716Y0254528D02*
X0242747Y0254528D01*
X0244345Y0256126D02*
X0307716Y0256126D01*
X0307716Y0257725D02*
X0245944Y0257725D01*
X0247542Y0259323D02*
X0307716Y0259323D01*
X0307716Y0260922D02*
X0249141Y0260922D01*
X0250739Y0262520D02*
X0307716Y0262520D01*
X0307716Y0264119D02*
X0252338Y0264119D01*
X0253936Y0265717D02*
X0307716Y0265717D01*
X0307716Y0267316D02*
X0255535Y0267316D01*
X0257133Y0268914D02*
X0307716Y0268914D01*
X0307716Y0270513D02*
X0258732Y0270513D01*
X0260330Y0272111D02*
X0307716Y0272111D01*
X0307716Y0273710D02*
X0261929Y0273710D01*
X0263527Y0275308D02*
X0307716Y0275308D01*
X0307716Y0276907D02*
X0265126Y0276907D01*
X0266724Y0278505D02*
X0297320Y0278505D01*
X0297693Y0278133D02*
X0302498Y0278133D01*
X0305895Y0281531D01*
X0305895Y0286335D01*
X0304695Y0287535D01*
X0304695Y0290331D01*
X0305895Y0291531D01*
X0305895Y0296335D01*
X0304695Y0297535D01*
X0304695Y0300331D01*
X0305895Y0301531D01*
X0305895Y0306335D01*
X0304695Y0307535D01*
X0304695Y0310331D01*
X0305895Y0311531D01*
X0305895Y0316335D01*
X0304695Y0317535D01*
X0304695Y0320331D01*
X0305895Y0321531D01*
X0305895Y0326335D01*
X0302498Y0329733D01*
X0297693Y0329733D01*
X0294295Y0326335D01*
X0294295Y0321531D01*
X0295895Y0319931D01*
X0295895Y0317935D01*
X0294295Y0316335D01*
X0294295Y0311531D01*
X0295895Y0309931D01*
X0295895Y0307935D01*
X0294295Y0306335D01*
X0294295Y0301531D01*
X0295895Y0299931D01*
X0295895Y0297935D01*
X0294295Y0296335D01*
X0294295Y0291531D01*
X0295895Y0289931D01*
X0295895Y0287935D01*
X0294295Y0286335D01*
X0294295Y0281531D01*
X0297693Y0278133D01*
X0295722Y0280104D02*
X0267950Y0280104D01*
X0268295Y0281702D02*
X0294295Y0281702D01*
X0294295Y0283301D02*
X0268295Y0283301D01*
X0268295Y0284899D02*
X0294295Y0284899D01*
X0294458Y0286498D02*
X0268295Y0286498D01*
X0268295Y0288096D02*
X0295895Y0288096D01*
X0295895Y0289695D02*
X0268295Y0289695D01*
X0268295Y0291293D02*
X0294532Y0291293D01*
X0294295Y0292892D02*
X0268295Y0292892D01*
X0268295Y0294490D02*
X0294295Y0294490D01*
X0294295Y0296089D02*
X0268295Y0296089D01*
X0268295Y0297687D02*
X0295647Y0297687D01*
X0295895Y0299286D02*
X0268295Y0299286D01*
X0268295Y0300884D02*
X0294941Y0300884D01*
X0294295Y0302483D02*
X0268295Y0302483D01*
X0268295Y0304081D02*
X0294295Y0304081D01*
X0294295Y0305680D02*
X0268295Y0305680D01*
X0268295Y0307279D02*
X0295238Y0307279D01*
X0295895Y0308877D02*
X0268295Y0308877D01*
X0268295Y0310476D02*
X0295350Y0310476D01*
X0294295Y0312074D02*
X0268295Y0312074D01*
X0268295Y0313673D02*
X0294295Y0313673D01*
X0294295Y0315271D02*
X0268295Y0315271D01*
X0268295Y0316870D02*
X0294829Y0316870D01*
X0295895Y0318468D02*
X0268295Y0318468D01*
X0268295Y0320067D02*
X0295759Y0320067D01*
X0294295Y0321665D02*
X0267990Y0321665D01*
X0266821Y0323264D02*
X0294295Y0323264D01*
X0294295Y0324862D02*
X0265895Y0324862D01*
X0265770Y0326461D02*
X0294420Y0326461D01*
X0296019Y0328059D02*
X0265017Y0328059D01*
X0265679Y0329658D02*
X0297617Y0329658D01*
X0302573Y0329658D02*
X0307716Y0329658D01*
X0307716Y0331256D02*
X0265895Y0331256D01*
X0265895Y0332855D02*
X0307716Y0332855D01*
X0307716Y0334453D02*
X0265895Y0334453D01*
X0265895Y0336052D02*
X0307716Y0336052D01*
X0307716Y0337650D02*
X0265895Y0337650D01*
X0265248Y0339249D02*
X0307716Y0339249D01*
X0307716Y0340847D02*
X0263983Y0340847D01*
X0256207Y0340847D02*
X0253983Y0340847D01*
X0249895Y0334533D02*
X0250095Y0333933D01*
X0250495Y0333933D01*
X0250495Y0327333D01*
X0260095Y0317733D01*
X0260095Y0313933D01*
X0264295Y0320133D02*
X0260695Y0323733D01*
X0260095Y0323933D01*
X0260095Y0333933D01*
X0249895Y0334533D02*
X0231895Y0352533D01*
X0194695Y0352533D01*
X0147295Y0305133D01*
X0147295Y0250533D01*
X0141295Y0252933D02*
X0141295Y0245133D01*
X0134095Y0237933D01*
X0137695Y0246933D02*
X0120295Y0264333D01*
X0120095Y0263933D01*
X0120095Y0273933D02*
X0120295Y0273933D01*
X0141295Y0252933D01*
X0143695Y0260733D02*
X0120295Y0284133D01*
X0120095Y0283933D01*
X0111895Y0285933D02*
X0119695Y0293733D01*
X0120095Y0293933D01*
X0120095Y0303933D02*
X0119695Y0303933D01*
X0108295Y0292533D01*
X0108295Y0249933D01*
X0111895Y0248133D02*
X0111895Y0285933D01*
X0104695Y0299133D02*
X0119695Y0314133D01*
X0120095Y0313933D01*
X0119695Y0323733D02*
X0120095Y0323933D01*
X0119695Y0323733D02*
X0102295Y0306333D01*
X0102295Y0157533D01*
X0143695Y0116133D01*
X0143695Y0078333D01*
X0143471Y0078211D01*
X0136495Y0086733D02*
X0128095Y0078333D01*
X0127880Y0078211D01*
X0112495Y0078333D02*
X0112290Y0078211D01*
X0112495Y0078333D02*
X0140095Y0105933D01*
X0158695Y0104733D02*
X0104695Y0158733D01*
X0104695Y0299133D01*
X0095895Y0299286D02*
X0072395Y0299286D01*
X0072395Y0300884D02*
X0095895Y0300884D01*
X0095895Y0302483D02*
X0072395Y0302483D01*
X0072395Y0304081D02*
X0095895Y0304081D01*
X0095895Y0305680D02*
X0072395Y0305680D01*
X0072395Y0307279D02*
X0095895Y0307279D01*
X0095895Y0308877D02*
X0072395Y0308877D01*
X0072395Y0310476D02*
X0095895Y0310476D01*
X0095895Y0312074D02*
X0072395Y0312074D01*
X0072395Y0313673D02*
X0095895Y0313673D01*
X0096037Y0315271D02*
X0072395Y0315271D01*
X0072395Y0316870D02*
X0096975Y0316870D01*
X0098573Y0318468D02*
X0072395Y0318468D01*
X0072395Y0320067D02*
X0100172Y0320067D01*
X0101770Y0321665D02*
X0072395Y0321665D01*
X0072395Y0323264D02*
X0103369Y0323264D01*
X0104967Y0324862D02*
X0072395Y0324862D01*
X0072395Y0326461D02*
X0106566Y0326461D01*
X0108164Y0328059D02*
X0072395Y0328059D01*
X0072395Y0329658D02*
X0109763Y0329658D01*
X0111361Y0331256D02*
X0072395Y0331256D01*
X0072395Y0332855D02*
X0113427Y0332855D01*
X0114895Y0329133D02*
X0165895Y0329133D01*
X0170958Y0334453D02*
X0072395Y0334453D01*
X0072395Y0336052D02*
X0172557Y0336052D01*
X0174155Y0337650D02*
X0072395Y0337650D01*
X0072395Y0339249D02*
X0175754Y0339249D01*
X0177352Y0340847D02*
X0072395Y0340847D01*
X0072395Y0342446D02*
X0178951Y0342446D01*
X0180549Y0344044D02*
X0072395Y0344044D01*
X0072395Y0345643D02*
X0182148Y0345643D01*
X0183747Y0347241D02*
X0072395Y0347241D01*
X0072395Y0348840D02*
X0185345Y0348840D01*
X0186944Y0350438D02*
X0072395Y0350438D01*
X0072395Y0352037D02*
X0188542Y0352037D01*
X0190141Y0353635D02*
X0072395Y0353635D01*
X0072395Y0355234D02*
X0191739Y0355234D01*
X0220095Y0333933D02*
X0220495Y0333933D01*
X0220495Y0327333D01*
X0260095Y0287733D01*
X0260095Y0283933D01*
X0264295Y0281733D02*
X0264295Y0320133D01*
X0260095Y0297933D02*
X0260095Y0293933D01*
X0264295Y0281733D02*
X0225295Y0242733D01*
X0225295Y0218133D01*
X0246704Y0196981D02*
X0307716Y0196981D01*
X0307716Y0195383D02*
X0248302Y0195383D01*
X0249072Y0193784D02*
X0307716Y0193784D01*
X0307716Y0192186D02*
X0249095Y0192186D01*
X0249095Y0190587D02*
X0307716Y0190587D01*
X0307716Y0188989D02*
X0249095Y0188989D01*
X0249095Y0187390D02*
X0307716Y0187390D01*
X0307716Y0185792D02*
X0249095Y0185792D01*
X0249095Y0184193D02*
X0307716Y0184193D01*
X0307716Y0182595D02*
X0249095Y0182595D01*
X0249095Y0180996D02*
X0307716Y0180996D01*
X0307716Y0179398D02*
X0249095Y0179398D01*
X0249095Y0177799D02*
X0307716Y0177799D01*
X0307716Y0176201D02*
X0249095Y0176201D01*
X0249095Y0174602D02*
X0307716Y0174602D01*
X0307716Y0173004D02*
X0249095Y0173004D01*
X0249095Y0171405D02*
X0307716Y0171405D01*
X0307716Y0169807D02*
X0249095Y0169807D01*
X0249095Y0168208D02*
X0307716Y0168208D01*
X0307716Y0166610D02*
X0249095Y0166610D01*
X0249095Y0165011D02*
X0307716Y0165011D01*
X0307716Y0163412D02*
X0249095Y0163412D01*
X0249095Y0161814D02*
X0307716Y0161814D01*
X0307716Y0160215D02*
X0249045Y0160215D01*
X0248236Y0158617D02*
X0307716Y0158617D01*
X0307716Y0157018D02*
X0246637Y0157018D01*
X0245039Y0155420D02*
X0307716Y0155420D01*
X0307716Y0153821D02*
X0243440Y0153821D01*
X0241842Y0152223D02*
X0307716Y0152223D01*
X0307716Y0150624D02*
X0240243Y0150624D01*
X0238645Y0149026D02*
X0307716Y0149026D01*
X0307716Y0147427D02*
X0237046Y0147427D01*
X0237153Y0145829D02*
X0289378Y0145829D01*
X0286609Y0144230D02*
X0238021Y0144230D01*
X0238653Y0142632D02*
X0284897Y0142632D01*
X0283432Y0141033D02*
X0240252Y0141033D01*
X0241850Y0139435D02*
X0282509Y0139435D01*
X0281640Y0137836D02*
X0243449Y0137836D01*
X0245047Y0136238D02*
X0281212Y0136238D01*
X0280784Y0134639D02*
X0246646Y0134639D01*
X0248244Y0133041D02*
X0280689Y0133041D01*
X0280689Y0131442D02*
X0249843Y0131442D01*
X0251441Y0129844D02*
X0280846Y0129844D01*
X0281274Y0128245D02*
X0253040Y0128245D01*
X0254638Y0126647D02*
X0281721Y0126647D01*
X0282644Y0125048D02*
X0256237Y0125048D01*
X0257835Y0123450D02*
X0283567Y0123450D01*
X0285131Y0121851D02*
X0259434Y0121851D01*
X0261032Y0120253D02*
X0287014Y0120253D01*
X0289901Y0118654D02*
X0262631Y0118654D01*
X0264229Y0117056D02*
X0307716Y0117056D01*
X0307716Y0118654D02*
X0300761Y0118654D01*
X0303649Y0120253D02*
X0307716Y0120253D01*
X0307716Y0121851D02*
X0305532Y0121851D01*
X0307096Y0123450D02*
X0307716Y0123450D01*
X0307716Y0115457D02*
X0265828Y0115457D01*
X0267426Y0113859D02*
X0307716Y0113859D01*
X0307716Y0112260D02*
X0269025Y0112260D01*
X0270623Y0110662D02*
X0307716Y0110662D01*
X0307716Y0109063D02*
X0272222Y0109063D01*
X0273820Y0107465D02*
X0307716Y0107465D01*
X0307716Y0105866D02*
X0275419Y0105866D01*
X0277017Y0104268D02*
X0307716Y0104268D01*
X0307716Y0102669D02*
X0278616Y0102669D01*
X0280215Y0101071D02*
X0307716Y0101071D01*
X0307716Y0099472D02*
X0281813Y0099472D01*
X0283412Y0097874D02*
X0307716Y0097874D01*
X0307716Y0096275D02*
X0285010Y0096275D01*
X0286609Y0094677D02*
X0307716Y0094677D01*
X0307716Y0093078D02*
X0288207Y0093078D01*
X0289806Y0091479D02*
X0307716Y0091479D01*
X0307716Y0089881D02*
X0291404Y0089881D01*
X0293003Y0088282D02*
X0307716Y0088282D01*
X0307716Y0086684D02*
X0294601Y0086684D01*
X0296200Y0085085D02*
X0307716Y0085085D01*
X0307716Y0083487D02*
X0303536Y0083487D01*
X0304852Y0081888D02*
X0307716Y0081888D01*
X0307716Y0080290D02*
X0305076Y0080290D01*
X0305076Y0078691D02*
X0307716Y0078691D01*
X0307716Y0077093D02*
X0307038Y0077093D01*
X0307695Y0075494D02*
X0307716Y0075494D01*
X0307695Y0073896D02*
X0307716Y0073896D01*
X0307695Y0072297D02*
X0307716Y0072297D01*
X0307695Y0070699D02*
X0307716Y0070699D01*
X0307695Y0069100D02*
X0307716Y0069100D01*
X0307695Y0067502D02*
X0307716Y0067502D01*
X0307695Y0065903D02*
X0307716Y0065903D01*
X0307695Y0064305D02*
X0307716Y0064305D01*
X0307695Y0062706D02*
X0307716Y0062706D01*
X0307695Y0061108D02*
X0307716Y0061108D01*
X0307695Y0059509D02*
X0307716Y0059509D01*
X0307695Y0057911D02*
X0307716Y0057911D01*
X0307695Y0056312D02*
X0307716Y0056312D01*
X0307695Y0054714D02*
X0307716Y0054714D01*
X0307695Y0053115D02*
X0307716Y0053115D01*
X0307695Y0051517D02*
X0307716Y0051517D01*
X0307695Y0049918D02*
X0307716Y0049918D01*
X0299376Y0078211D02*
X0299095Y0078333D01*
X0297295Y0078333D01*
X0233095Y0142533D01*
X0245095Y0121533D02*
X0195895Y0170733D01*
X0195895Y0198333D01*
X0180295Y0213933D01*
X0180095Y0213933D01*
X0180095Y0223933D02*
X0180295Y0224133D01*
X0241495Y0162933D01*
X0248695Y0114333D02*
X0215095Y0114333D01*
X0194695Y0134733D01*
X0170695Y0134733D01*
X0139495Y0165933D01*
X0139495Y0211533D01*
X0127495Y0223533D01*
X0120295Y0223533D01*
X0120095Y0223933D01*
X0120095Y0213933D02*
X0133495Y0213933D01*
X0137095Y0210333D01*
X0137095Y0164733D01*
X0169495Y0132333D01*
X0193495Y0132333D01*
X0247495Y0078333D01*
X0252295Y0078333D01*
X0252605Y0078211D01*
X0221424Y0078211D02*
X0221095Y0078333D01*
X0221095Y0101133D01*
X0192295Y0129933D01*
X0168295Y0129933D01*
X0134695Y0163533D01*
X0134695Y0207333D01*
X0132295Y0209733D01*
X0127495Y0209133D02*
X0132295Y0204333D01*
X0132295Y0152733D01*
X0158695Y0126333D01*
X0158695Y0119133D01*
X0162295Y0110133D02*
X0110695Y0161733D01*
X0110695Y0241533D01*
X0107095Y0243333D02*
X0111895Y0248133D01*
X0107095Y0243333D02*
X0107095Y0159933D01*
X0188695Y0078333D01*
X0189895Y0078333D01*
X0190243Y0078211D01*
X0205495Y0078333D02*
X0205833Y0078211D01*
X0205495Y0078333D02*
X0205495Y0111333D01*
X0174652Y0078211D02*
X0174295Y0078333D01*
X0162295Y0090333D01*
X0158695Y0078333D02*
X0158695Y0104733D01*
X0158695Y0078333D02*
X0159061Y0078211D01*
X0172495Y0138333D02*
X0172495Y0152133D01*
X0165295Y0173133D02*
X0165295Y0194733D01*
X0143695Y0216333D01*
X0143695Y0260733D01*
X0120295Y0234333D02*
X0120095Y0233933D01*
X0120295Y0234333D02*
X0161695Y0192933D01*
X0161695Y0182133D01*
X0099895Y0126933D02*
X0099895Y0314133D01*
X0114895Y0329133D01*
X0095895Y0297687D02*
X0072395Y0297687D01*
X0072395Y0296089D02*
X0095895Y0296089D01*
X0095895Y0294490D02*
X0072395Y0294490D01*
X0072395Y0292892D02*
X0095895Y0292892D01*
X0095895Y0291293D02*
X0072395Y0291293D01*
X0072395Y0289695D02*
X0095895Y0289695D01*
X0095895Y0288096D02*
X0072395Y0288096D01*
X0072395Y0286498D02*
X0095895Y0286498D01*
X0095895Y0284899D02*
X0072395Y0284899D01*
X0072395Y0283301D02*
X0095895Y0283301D01*
X0095895Y0281702D02*
X0072395Y0281702D01*
X0072395Y0280104D02*
X0095895Y0280104D01*
X0095895Y0278505D02*
X0072395Y0278505D01*
X0072395Y0276907D02*
X0095895Y0276907D01*
X0095895Y0275308D02*
X0072395Y0275308D01*
X0072395Y0273710D02*
X0095895Y0273710D01*
X0095895Y0272111D02*
X0072395Y0272111D01*
X0072395Y0270513D02*
X0095895Y0270513D01*
X0095895Y0268914D02*
X0072395Y0268914D01*
X0072395Y0267316D02*
X0095895Y0267316D01*
X0095895Y0265717D02*
X0072395Y0265717D01*
X0072395Y0264119D02*
X0095895Y0264119D01*
X0095895Y0262520D02*
X0072395Y0262520D01*
X0072395Y0260922D02*
X0095895Y0260922D01*
X0095895Y0259323D02*
X0072395Y0259323D01*
X0072395Y0257725D02*
X0095895Y0257725D01*
X0095895Y0256126D02*
X0072395Y0256126D01*
X0072395Y0254528D02*
X0095895Y0254528D01*
X0095895Y0252929D02*
X0072395Y0252929D01*
X0072395Y0251331D02*
X0095895Y0251331D01*
X0095895Y0249732D02*
X0072395Y0249732D01*
X0072395Y0248134D02*
X0095895Y0248134D01*
X0095895Y0246535D02*
X0072395Y0246535D01*
X0072395Y0244937D02*
X0095895Y0244937D01*
X0095895Y0243338D02*
X0072395Y0243338D01*
X0072395Y0241740D02*
X0095895Y0241740D01*
X0095895Y0240141D02*
X0072395Y0240141D01*
X0072395Y0238543D02*
X0095895Y0238543D01*
X0095895Y0236944D02*
X0072395Y0236944D01*
X0072395Y0235345D02*
X0095895Y0235345D01*
X0095895Y0233747D02*
X0072395Y0233747D01*
X0072395Y0232148D02*
X0095895Y0232148D01*
X0095895Y0230550D02*
X0072395Y0230550D01*
X0072395Y0228951D02*
X0095895Y0228951D01*
X0095895Y0227353D02*
X0072395Y0227353D01*
X0072395Y0225754D02*
X0095895Y0225754D01*
X0095895Y0224156D02*
X0072395Y0224156D01*
X0072395Y0222557D02*
X0095895Y0222557D01*
X0095895Y0220959D02*
X0072395Y0220959D01*
X0072395Y0219360D02*
X0095895Y0219360D01*
X0095895Y0217762D02*
X0072395Y0217762D01*
X0072395Y0216163D02*
X0095895Y0216163D01*
X0095895Y0214565D02*
X0072395Y0214565D01*
X0072395Y0212966D02*
X0095895Y0212966D01*
X0095895Y0211368D02*
X0072395Y0211368D01*
X0072395Y0209769D02*
X0095895Y0209769D01*
X0095895Y0208171D02*
X0072395Y0208171D01*
X0072395Y0206572D02*
X0095895Y0206572D01*
X0095895Y0204974D02*
X0072395Y0204974D01*
X0072395Y0203375D02*
X0095895Y0203375D01*
X0095895Y0201777D02*
X0072395Y0201777D01*
X0072395Y0200178D02*
X0095895Y0200178D01*
X0095895Y0198580D02*
X0072395Y0198580D01*
X0072395Y0196981D02*
X0095895Y0196981D01*
X0095895Y0195383D02*
X0072395Y0195383D01*
X0072395Y0193784D02*
X0095895Y0193784D01*
X0095895Y0192186D02*
X0072395Y0192186D01*
X0072395Y0190587D02*
X0095895Y0190587D01*
X0095895Y0188989D02*
X0072395Y0188989D01*
X0072395Y0187390D02*
X0095895Y0187390D01*
X0095895Y0185792D02*
X0072395Y0185792D01*
X0072395Y0184193D02*
X0095895Y0184193D01*
X0095895Y0182595D02*
X0072395Y0182595D01*
X0072395Y0180996D02*
X0095895Y0180996D01*
X0095895Y0179398D02*
X0072395Y0179398D01*
X0072395Y0177799D02*
X0095895Y0177799D01*
X0095895Y0176201D02*
X0072395Y0176201D01*
X0072395Y0174602D02*
X0095895Y0174602D01*
X0095895Y0173004D02*
X0072395Y0173004D01*
X0072395Y0171405D02*
X0095895Y0171405D01*
X0095895Y0169807D02*
X0072395Y0169807D01*
X0072395Y0168208D02*
X0095895Y0168208D01*
X0095895Y0166610D02*
X0072395Y0166610D01*
X0072395Y0165011D02*
X0095895Y0165011D01*
X0095895Y0163412D02*
X0072395Y0163412D01*
X0072395Y0161814D02*
X0095895Y0161814D01*
X0095895Y0160215D02*
X0072395Y0160215D01*
X0072395Y0158617D02*
X0095895Y0158617D01*
X0095895Y0157018D02*
X0072395Y0157018D01*
X0072395Y0155420D02*
X0095895Y0155420D01*
X0095895Y0153821D02*
X0072395Y0153821D01*
X0072395Y0152223D02*
X0095895Y0152223D01*
X0095895Y0150624D02*
X0072395Y0150624D01*
X0072395Y0149026D02*
X0095895Y0149026D01*
X0095895Y0147427D02*
X0072395Y0147427D01*
X0072395Y0145829D02*
X0078827Y0145829D01*
X0076058Y0144230D02*
X0072395Y0144230D01*
X0072395Y0142632D02*
X0074346Y0142632D01*
X0072881Y0141033D02*
X0072395Y0141033D01*
X0090733Y0145829D02*
X0095895Y0145829D01*
X0095895Y0144230D02*
X0093502Y0144230D01*
X0095214Y0142632D02*
X0095895Y0142632D01*
X0099895Y0126933D02*
X0096895Y0123933D01*
X0096895Y0078333D01*
X0096699Y0078211D01*
X0301285Y0145829D02*
X0307716Y0145829D01*
X0307716Y0144230D02*
X0304053Y0144230D01*
X0305765Y0142632D02*
X0307716Y0142632D01*
X0307716Y0141033D02*
X0307231Y0141033D01*
X0307716Y0278505D02*
X0302870Y0278505D01*
X0304468Y0280104D02*
X0307716Y0280104D01*
X0307716Y0281702D02*
X0305895Y0281702D01*
X0305895Y0283301D02*
X0307716Y0283301D01*
X0307716Y0284899D02*
X0305895Y0284899D01*
X0305733Y0286498D02*
X0307716Y0286498D01*
X0307716Y0288096D02*
X0304695Y0288096D01*
X0304695Y0289695D02*
X0307716Y0289695D01*
X0307716Y0291293D02*
X0305658Y0291293D01*
X0305895Y0292892D02*
X0307716Y0292892D01*
X0307716Y0294490D02*
X0305895Y0294490D01*
X0305895Y0296089D02*
X0307716Y0296089D01*
X0307716Y0297687D02*
X0304695Y0297687D01*
X0304695Y0299286D02*
X0307716Y0299286D01*
X0307716Y0300884D02*
X0305249Y0300884D01*
X0305895Y0302483D02*
X0307716Y0302483D01*
X0307716Y0304081D02*
X0305895Y0304081D01*
X0305895Y0305680D02*
X0307716Y0305680D01*
X0307716Y0307279D02*
X0304952Y0307279D01*
X0304695Y0308877D02*
X0307716Y0308877D01*
X0307716Y0310476D02*
X0304840Y0310476D01*
X0305895Y0312074D02*
X0307716Y0312074D01*
X0307716Y0313673D02*
X0305895Y0313673D01*
X0305895Y0315271D02*
X0307716Y0315271D01*
X0307716Y0316870D02*
X0305361Y0316870D01*
X0304695Y0318468D02*
X0307716Y0318468D01*
X0307716Y0320067D02*
X0304695Y0320067D01*
X0305895Y0321665D02*
X0307716Y0321665D01*
X0307716Y0323264D02*
X0305895Y0323264D01*
X0305895Y0324862D02*
X0307716Y0324862D01*
X0307716Y0326461D02*
X0305770Y0326461D01*
X0304171Y0328059D02*
X0307716Y0328059D01*
X0307716Y0342446D02*
X0247639Y0342446D01*
X0246041Y0344044D02*
X0307716Y0344044D01*
X0307716Y0345643D02*
X0244442Y0345643D01*
X0242844Y0347241D02*
X0307716Y0347241D01*
X0307716Y0348840D02*
X0241245Y0348840D01*
X0239647Y0350438D02*
X0307716Y0350438D01*
X0307716Y0352037D02*
X0238048Y0352037D01*
X0236450Y0353635D02*
X0307716Y0353635D01*
X0307716Y0355234D02*
X0234851Y0355234D01*
X0263415Y0358431D02*
X0307716Y0358431D01*
X0307716Y0360029D02*
X0264298Y0360029D01*
X0264495Y0361628D02*
X0307716Y0361628D01*
X0307716Y0363226D02*
X0264495Y0363226D01*
X0264495Y0364825D02*
X0307716Y0364825D01*
X0307716Y0366423D02*
X0264495Y0366423D01*
X0307716Y0356832D02*
X0072395Y0356832D01*
D17*
X0108295Y0249933D03*
X0110695Y0241533D03*
X0134095Y0237933D03*
X0137695Y0246933D03*
X0147295Y0250533D03*
X0132295Y0209733D03*
X0127495Y0209133D03*
X0161695Y0182133D03*
X0165295Y0173133D03*
X0166495Y0149733D03*
X0172495Y0138333D03*
X0158695Y0119133D03*
X0162295Y0110133D03*
X0162295Y0090333D03*
X0140095Y0105933D03*
X0136495Y0086733D03*
X0205495Y0111333D03*
X0233095Y0142533D03*
X0245095Y0121533D03*
X0248695Y0114333D03*
X0241495Y0162933D03*
X0232495Y0182133D03*
X0225295Y0218133D03*
X0188695Y0240333D03*
X0187495Y0189333D03*
X0191095Y0313533D03*
X0165895Y0329133D03*
X0202495Y0346533D03*
D18*
X0180295Y0324333D01*
X0180095Y0323933D01*
X0220095Y0363933D02*
X0230095Y0363933D01*
X0240095Y0363933D01*
X0250095Y0363933D01*
X0260095Y0363933D01*
X0300095Y0323933D02*
X0300295Y0323733D01*
X0300295Y0314733D01*
X0300095Y0313933D01*
X0300295Y0313533D01*
X0300295Y0304533D01*
X0300095Y0303933D01*
X0300295Y0303933D01*
X0300295Y0294933D01*
X0300095Y0293933D01*
X0300295Y0293733D01*
X0300295Y0284133D01*
X0300095Y0283933D01*
X0120295Y0183933D02*
X0120295Y0174333D01*
X0120095Y0173933D01*
X0120095Y0183933D02*
X0120295Y0183933D01*
M02*
