G75*
%MOIN*%
%OFA0B0*%
%FSLAX25Y25*%
%IPPOS*%
%LPD*%
%AMOC8*
5,1,8,0,0,1.08239X$1,22.5*
%
%ADD10C,0.00000*%
%ADD11R,0.05150X0.05150*%
%ADD12C,0.05150*%
%ADD13R,0.05937X0.05937*%
%ADD14C,0.05937*%
%ADD15C,0.06000*%
%ADD16OC8,0.06300*%
%ADD17C,0.02400*%
%ADD18C,0.01600*%
%ADD19C,0.04000*%
D10*
X0126800Y0001800D02*
X0126800Y0249300D01*
X0046800Y0249300D01*
X0046800Y0224300D01*
X0001800Y0224300D01*
X0001800Y0284300D01*
X0246800Y0284300D01*
X0246800Y0051800D01*
X0221800Y0051800D01*
X0221800Y0001800D01*
X0126800Y0001800D01*
X0138300Y0014300D02*
X0138302Y0014418D01*
X0138308Y0014536D01*
X0138318Y0014654D01*
X0138332Y0014771D01*
X0138350Y0014888D01*
X0138372Y0015005D01*
X0138397Y0015120D01*
X0138427Y0015234D01*
X0138461Y0015348D01*
X0138498Y0015460D01*
X0138539Y0015571D01*
X0138584Y0015680D01*
X0138632Y0015788D01*
X0138684Y0015894D01*
X0138740Y0015999D01*
X0138799Y0016101D01*
X0138861Y0016201D01*
X0138927Y0016299D01*
X0138996Y0016395D01*
X0139069Y0016489D01*
X0139144Y0016580D01*
X0139223Y0016668D01*
X0139304Y0016754D01*
X0139389Y0016837D01*
X0139476Y0016917D01*
X0139565Y0016994D01*
X0139658Y0017068D01*
X0139752Y0017138D01*
X0139849Y0017206D01*
X0139949Y0017270D01*
X0140050Y0017331D01*
X0140153Y0017388D01*
X0140259Y0017442D01*
X0140366Y0017493D01*
X0140474Y0017539D01*
X0140584Y0017582D01*
X0140696Y0017621D01*
X0140809Y0017657D01*
X0140923Y0017688D01*
X0141038Y0017716D01*
X0141153Y0017740D01*
X0141270Y0017760D01*
X0141387Y0017776D01*
X0141505Y0017788D01*
X0141623Y0017796D01*
X0141741Y0017800D01*
X0141859Y0017800D01*
X0141977Y0017796D01*
X0142095Y0017788D01*
X0142213Y0017776D01*
X0142330Y0017760D01*
X0142447Y0017740D01*
X0142562Y0017716D01*
X0142677Y0017688D01*
X0142791Y0017657D01*
X0142904Y0017621D01*
X0143016Y0017582D01*
X0143126Y0017539D01*
X0143234Y0017493D01*
X0143341Y0017442D01*
X0143447Y0017388D01*
X0143550Y0017331D01*
X0143651Y0017270D01*
X0143751Y0017206D01*
X0143848Y0017138D01*
X0143942Y0017068D01*
X0144035Y0016994D01*
X0144124Y0016917D01*
X0144211Y0016837D01*
X0144296Y0016754D01*
X0144377Y0016668D01*
X0144456Y0016580D01*
X0144531Y0016489D01*
X0144604Y0016395D01*
X0144673Y0016299D01*
X0144739Y0016201D01*
X0144801Y0016101D01*
X0144860Y0015999D01*
X0144916Y0015894D01*
X0144968Y0015788D01*
X0145016Y0015680D01*
X0145061Y0015571D01*
X0145102Y0015460D01*
X0145139Y0015348D01*
X0145173Y0015234D01*
X0145203Y0015120D01*
X0145228Y0015005D01*
X0145250Y0014888D01*
X0145268Y0014771D01*
X0145282Y0014654D01*
X0145292Y0014536D01*
X0145298Y0014418D01*
X0145300Y0014300D01*
X0145298Y0014182D01*
X0145292Y0014064D01*
X0145282Y0013946D01*
X0145268Y0013829D01*
X0145250Y0013712D01*
X0145228Y0013595D01*
X0145203Y0013480D01*
X0145173Y0013366D01*
X0145139Y0013252D01*
X0145102Y0013140D01*
X0145061Y0013029D01*
X0145016Y0012920D01*
X0144968Y0012812D01*
X0144916Y0012706D01*
X0144860Y0012601D01*
X0144801Y0012499D01*
X0144739Y0012399D01*
X0144673Y0012301D01*
X0144604Y0012205D01*
X0144531Y0012111D01*
X0144456Y0012020D01*
X0144377Y0011932D01*
X0144296Y0011846D01*
X0144211Y0011763D01*
X0144124Y0011683D01*
X0144035Y0011606D01*
X0143942Y0011532D01*
X0143848Y0011462D01*
X0143751Y0011394D01*
X0143651Y0011330D01*
X0143550Y0011269D01*
X0143447Y0011212D01*
X0143341Y0011158D01*
X0143234Y0011107D01*
X0143126Y0011061D01*
X0143016Y0011018D01*
X0142904Y0010979D01*
X0142791Y0010943D01*
X0142677Y0010912D01*
X0142562Y0010884D01*
X0142447Y0010860D01*
X0142330Y0010840D01*
X0142213Y0010824D01*
X0142095Y0010812D01*
X0141977Y0010804D01*
X0141859Y0010800D01*
X0141741Y0010800D01*
X0141623Y0010804D01*
X0141505Y0010812D01*
X0141387Y0010824D01*
X0141270Y0010840D01*
X0141153Y0010860D01*
X0141038Y0010884D01*
X0140923Y0010912D01*
X0140809Y0010943D01*
X0140696Y0010979D01*
X0140584Y0011018D01*
X0140474Y0011061D01*
X0140366Y0011107D01*
X0140259Y0011158D01*
X0140153Y0011212D01*
X0140050Y0011269D01*
X0139949Y0011330D01*
X0139849Y0011394D01*
X0139752Y0011462D01*
X0139658Y0011532D01*
X0139565Y0011606D01*
X0139476Y0011683D01*
X0139389Y0011763D01*
X0139304Y0011846D01*
X0139223Y0011932D01*
X0139144Y0012020D01*
X0139069Y0012111D01*
X0138996Y0012205D01*
X0138927Y0012301D01*
X0138861Y0012399D01*
X0138799Y0012499D01*
X0138740Y0012601D01*
X0138684Y0012706D01*
X0138632Y0012812D01*
X0138584Y0012920D01*
X0138539Y0013029D01*
X0138498Y0013140D01*
X0138461Y0013252D01*
X0138427Y0013366D01*
X0138397Y0013480D01*
X0138372Y0013595D01*
X0138350Y0013712D01*
X0138332Y0013829D01*
X0138318Y0013946D01*
X0138308Y0014064D01*
X0138302Y0014182D01*
X0138300Y0014300D01*
X0198300Y0014300D02*
X0198302Y0014418D01*
X0198308Y0014536D01*
X0198318Y0014654D01*
X0198332Y0014771D01*
X0198350Y0014888D01*
X0198372Y0015005D01*
X0198397Y0015120D01*
X0198427Y0015234D01*
X0198461Y0015348D01*
X0198498Y0015460D01*
X0198539Y0015571D01*
X0198584Y0015680D01*
X0198632Y0015788D01*
X0198684Y0015894D01*
X0198740Y0015999D01*
X0198799Y0016101D01*
X0198861Y0016201D01*
X0198927Y0016299D01*
X0198996Y0016395D01*
X0199069Y0016489D01*
X0199144Y0016580D01*
X0199223Y0016668D01*
X0199304Y0016754D01*
X0199389Y0016837D01*
X0199476Y0016917D01*
X0199565Y0016994D01*
X0199658Y0017068D01*
X0199752Y0017138D01*
X0199849Y0017206D01*
X0199949Y0017270D01*
X0200050Y0017331D01*
X0200153Y0017388D01*
X0200259Y0017442D01*
X0200366Y0017493D01*
X0200474Y0017539D01*
X0200584Y0017582D01*
X0200696Y0017621D01*
X0200809Y0017657D01*
X0200923Y0017688D01*
X0201038Y0017716D01*
X0201153Y0017740D01*
X0201270Y0017760D01*
X0201387Y0017776D01*
X0201505Y0017788D01*
X0201623Y0017796D01*
X0201741Y0017800D01*
X0201859Y0017800D01*
X0201977Y0017796D01*
X0202095Y0017788D01*
X0202213Y0017776D01*
X0202330Y0017760D01*
X0202447Y0017740D01*
X0202562Y0017716D01*
X0202677Y0017688D01*
X0202791Y0017657D01*
X0202904Y0017621D01*
X0203016Y0017582D01*
X0203126Y0017539D01*
X0203234Y0017493D01*
X0203341Y0017442D01*
X0203447Y0017388D01*
X0203550Y0017331D01*
X0203651Y0017270D01*
X0203751Y0017206D01*
X0203848Y0017138D01*
X0203942Y0017068D01*
X0204035Y0016994D01*
X0204124Y0016917D01*
X0204211Y0016837D01*
X0204296Y0016754D01*
X0204377Y0016668D01*
X0204456Y0016580D01*
X0204531Y0016489D01*
X0204604Y0016395D01*
X0204673Y0016299D01*
X0204739Y0016201D01*
X0204801Y0016101D01*
X0204860Y0015999D01*
X0204916Y0015894D01*
X0204968Y0015788D01*
X0205016Y0015680D01*
X0205061Y0015571D01*
X0205102Y0015460D01*
X0205139Y0015348D01*
X0205173Y0015234D01*
X0205203Y0015120D01*
X0205228Y0015005D01*
X0205250Y0014888D01*
X0205268Y0014771D01*
X0205282Y0014654D01*
X0205292Y0014536D01*
X0205298Y0014418D01*
X0205300Y0014300D01*
X0205298Y0014182D01*
X0205292Y0014064D01*
X0205282Y0013946D01*
X0205268Y0013829D01*
X0205250Y0013712D01*
X0205228Y0013595D01*
X0205203Y0013480D01*
X0205173Y0013366D01*
X0205139Y0013252D01*
X0205102Y0013140D01*
X0205061Y0013029D01*
X0205016Y0012920D01*
X0204968Y0012812D01*
X0204916Y0012706D01*
X0204860Y0012601D01*
X0204801Y0012499D01*
X0204739Y0012399D01*
X0204673Y0012301D01*
X0204604Y0012205D01*
X0204531Y0012111D01*
X0204456Y0012020D01*
X0204377Y0011932D01*
X0204296Y0011846D01*
X0204211Y0011763D01*
X0204124Y0011683D01*
X0204035Y0011606D01*
X0203942Y0011532D01*
X0203848Y0011462D01*
X0203751Y0011394D01*
X0203651Y0011330D01*
X0203550Y0011269D01*
X0203447Y0011212D01*
X0203341Y0011158D01*
X0203234Y0011107D01*
X0203126Y0011061D01*
X0203016Y0011018D01*
X0202904Y0010979D01*
X0202791Y0010943D01*
X0202677Y0010912D01*
X0202562Y0010884D01*
X0202447Y0010860D01*
X0202330Y0010840D01*
X0202213Y0010824D01*
X0202095Y0010812D01*
X0201977Y0010804D01*
X0201859Y0010800D01*
X0201741Y0010800D01*
X0201623Y0010804D01*
X0201505Y0010812D01*
X0201387Y0010824D01*
X0201270Y0010840D01*
X0201153Y0010860D01*
X0201038Y0010884D01*
X0200923Y0010912D01*
X0200809Y0010943D01*
X0200696Y0010979D01*
X0200584Y0011018D01*
X0200474Y0011061D01*
X0200366Y0011107D01*
X0200259Y0011158D01*
X0200153Y0011212D01*
X0200050Y0011269D01*
X0199949Y0011330D01*
X0199849Y0011394D01*
X0199752Y0011462D01*
X0199658Y0011532D01*
X0199565Y0011606D01*
X0199476Y0011683D01*
X0199389Y0011763D01*
X0199304Y0011846D01*
X0199223Y0011932D01*
X0199144Y0012020D01*
X0199069Y0012111D01*
X0198996Y0012205D01*
X0198927Y0012301D01*
X0198861Y0012399D01*
X0198799Y0012499D01*
X0198740Y0012601D01*
X0198684Y0012706D01*
X0198632Y0012812D01*
X0198584Y0012920D01*
X0198539Y0013029D01*
X0198498Y0013140D01*
X0198461Y0013252D01*
X0198427Y0013366D01*
X0198397Y0013480D01*
X0198372Y0013595D01*
X0198350Y0013712D01*
X0198332Y0013829D01*
X0198318Y0013946D01*
X0198308Y0014064D01*
X0198302Y0014182D01*
X0198300Y0014300D01*
X0198300Y0174300D02*
X0198302Y0174418D01*
X0198308Y0174536D01*
X0198318Y0174654D01*
X0198332Y0174771D01*
X0198350Y0174888D01*
X0198372Y0175005D01*
X0198397Y0175120D01*
X0198427Y0175234D01*
X0198461Y0175348D01*
X0198498Y0175460D01*
X0198539Y0175571D01*
X0198584Y0175680D01*
X0198632Y0175788D01*
X0198684Y0175894D01*
X0198740Y0175999D01*
X0198799Y0176101D01*
X0198861Y0176201D01*
X0198927Y0176299D01*
X0198996Y0176395D01*
X0199069Y0176489D01*
X0199144Y0176580D01*
X0199223Y0176668D01*
X0199304Y0176754D01*
X0199389Y0176837D01*
X0199476Y0176917D01*
X0199565Y0176994D01*
X0199658Y0177068D01*
X0199752Y0177138D01*
X0199849Y0177206D01*
X0199949Y0177270D01*
X0200050Y0177331D01*
X0200153Y0177388D01*
X0200259Y0177442D01*
X0200366Y0177493D01*
X0200474Y0177539D01*
X0200584Y0177582D01*
X0200696Y0177621D01*
X0200809Y0177657D01*
X0200923Y0177688D01*
X0201038Y0177716D01*
X0201153Y0177740D01*
X0201270Y0177760D01*
X0201387Y0177776D01*
X0201505Y0177788D01*
X0201623Y0177796D01*
X0201741Y0177800D01*
X0201859Y0177800D01*
X0201977Y0177796D01*
X0202095Y0177788D01*
X0202213Y0177776D01*
X0202330Y0177760D01*
X0202447Y0177740D01*
X0202562Y0177716D01*
X0202677Y0177688D01*
X0202791Y0177657D01*
X0202904Y0177621D01*
X0203016Y0177582D01*
X0203126Y0177539D01*
X0203234Y0177493D01*
X0203341Y0177442D01*
X0203447Y0177388D01*
X0203550Y0177331D01*
X0203651Y0177270D01*
X0203751Y0177206D01*
X0203848Y0177138D01*
X0203942Y0177068D01*
X0204035Y0176994D01*
X0204124Y0176917D01*
X0204211Y0176837D01*
X0204296Y0176754D01*
X0204377Y0176668D01*
X0204456Y0176580D01*
X0204531Y0176489D01*
X0204604Y0176395D01*
X0204673Y0176299D01*
X0204739Y0176201D01*
X0204801Y0176101D01*
X0204860Y0175999D01*
X0204916Y0175894D01*
X0204968Y0175788D01*
X0205016Y0175680D01*
X0205061Y0175571D01*
X0205102Y0175460D01*
X0205139Y0175348D01*
X0205173Y0175234D01*
X0205203Y0175120D01*
X0205228Y0175005D01*
X0205250Y0174888D01*
X0205268Y0174771D01*
X0205282Y0174654D01*
X0205292Y0174536D01*
X0205298Y0174418D01*
X0205300Y0174300D01*
X0205298Y0174182D01*
X0205292Y0174064D01*
X0205282Y0173946D01*
X0205268Y0173829D01*
X0205250Y0173712D01*
X0205228Y0173595D01*
X0205203Y0173480D01*
X0205173Y0173366D01*
X0205139Y0173252D01*
X0205102Y0173140D01*
X0205061Y0173029D01*
X0205016Y0172920D01*
X0204968Y0172812D01*
X0204916Y0172706D01*
X0204860Y0172601D01*
X0204801Y0172499D01*
X0204739Y0172399D01*
X0204673Y0172301D01*
X0204604Y0172205D01*
X0204531Y0172111D01*
X0204456Y0172020D01*
X0204377Y0171932D01*
X0204296Y0171846D01*
X0204211Y0171763D01*
X0204124Y0171683D01*
X0204035Y0171606D01*
X0203942Y0171532D01*
X0203848Y0171462D01*
X0203751Y0171394D01*
X0203651Y0171330D01*
X0203550Y0171269D01*
X0203447Y0171212D01*
X0203341Y0171158D01*
X0203234Y0171107D01*
X0203126Y0171061D01*
X0203016Y0171018D01*
X0202904Y0170979D01*
X0202791Y0170943D01*
X0202677Y0170912D01*
X0202562Y0170884D01*
X0202447Y0170860D01*
X0202330Y0170840D01*
X0202213Y0170824D01*
X0202095Y0170812D01*
X0201977Y0170804D01*
X0201859Y0170800D01*
X0201741Y0170800D01*
X0201623Y0170804D01*
X0201505Y0170812D01*
X0201387Y0170824D01*
X0201270Y0170840D01*
X0201153Y0170860D01*
X0201038Y0170884D01*
X0200923Y0170912D01*
X0200809Y0170943D01*
X0200696Y0170979D01*
X0200584Y0171018D01*
X0200474Y0171061D01*
X0200366Y0171107D01*
X0200259Y0171158D01*
X0200153Y0171212D01*
X0200050Y0171269D01*
X0199949Y0171330D01*
X0199849Y0171394D01*
X0199752Y0171462D01*
X0199658Y0171532D01*
X0199565Y0171606D01*
X0199476Y0171683D01*
X0199389Y0171763D01*
X0199304Y0171846D01*
X0199223Y0171932D01*
X0199144Y0172020D01*
X0199069Y0172111D01*
X0198996Y0172205D01*
X0198927Y0172301D01*
X0198861Y0172399D01*
X0198799Y0172499D01*
X0198740Y0172601D01*
X0198684Y0172706D01*
X0198632Y0172812D01*
X0198584Y0172920D01*
X0198539Y0173029D01*
X0198498Y0173140D01*
X0198461Y0173252D01*
X0198427Y0173366D01*
X0198397Y0173480D01*
X0198372Y0173595D01*
X0198350Y0173712D01*
X0198332Y0173829D01*
X0198318Y0173946D01*
X0198308Y0174064D01*
X0198302Y0174182D01*
X0198300Y0174300D01*
X0138300Y0174300D02*
X0138302Y0174418D01*
X0138308Y0174536D01*
X0138318Y0174654D01*
X0138332Y0174771D01*
X0138350Y0174888D01*
X0138372Y0175005D01*
X0138397Y0175120D01*
X0138427Y0175234D01*
X0138461Y0175348D01*
X0138498Y0175460D01*
X0138539Y0175571D01*
X0138584Y0175680D01*
X0138632Y0175788D01*
X0138684Y0175894D01*
X0138740Y0175999D01*
X0138799Y0176101D01*
X0138861Y0176201D01*
X0138927Y0176299D01*
X0138996Y0176395D01*
X0139069Y0176489D01*
X0139144Y0176580D01*
X0139223Y0176668D01*
X0139304Y0176754D01*
X0139389Y0176837D01*
X0139476Y0176917D01*
X0139565Y0176994D01*
X0139658Y0177068D01*
X0139752Y0177138D01*
X0139849Y0177206D01*
X0139949Y0177270D01*
X0140050Y0177331D01*
X0140153Y0177388D01*
X0140259Y0177442D01*
X0140366Y0177493D01*
X0140474Y0177539D01*
X0140584Y0177582D01*
X0140696Y0177621D01*
X0140809Y0177657D01*
X0140923Y0177688D01*
X0141038Y0177716D01*
X0141153Y0177740D01*
X0141270Y0177760D01*
X0141387Y0177776D01*
X0141505Y0177788D01*
X0141623Y0177796D01*
X0141741Y0177800D01*
X0141859Y0177800D01*
X0141977Y0177796D01*
X0142095Y0177788D01*
X0142213Y0177776D01*
X0142330Y0177760D01*
X0142447Y0177740D01*
X0142562Y0177716D01*
X0142677Y0177688D01*
X0142791Y0177657D01*
X0142904Y0177621D01*
X0143016Y0177582D01*
X0143126Y0177539D01*
X0143234Y0177493D01*
X0143341Y0177442D01*
X0143447Y0177388D01*
X0143550Y0177331D01*
X0143651Y0177270D01*
X0143751Y0177206D01*
X0143848Y0177138D01*
X0143942Y0177068D01*
X0144035Y0176994D01*
X0144124Y0176917D01*
X0144211Y0176837D01*
X0144296Y0176754D01*
X0144377Y0176668D01*
X0144456Y0176580D01*
X0144531Y0176489D01*
X0144604Y0176395D01*
X0144673Y0176299D01*
X0144739Y0176201D01*
X0144801Y0176101D01*
X0144860Y0175999D01*
X0144916Y0175894D01*
X0144968Y0175788D01*
X0145016Y0175680D01*
X0145061Y0175571D01*
X0145102Y0175460D01*
X0145139Y0175348D01*
X0145173Y0175234D01*
X0145203Y0175120D01*
X0145228Y0175005D01*
X0145250Y0174888D01*
X0145268Y0174771D01*
X0145282Y0174654D01*
X0145292Y0174536D01*
X0145298Y0174418D01*
X0145300Y0174300D01*
X0145298Y0174182D01*
X0145292Y0174064D01*
X0145282Y0173946D01*
X0145268Y0173829D01*
X0145250Y0173712D01*
X0145228Y0173595D01*
X0145203Y0173480D01*
X0145173Y0173366D01*
X0145139Y0173252D01*
X0145102Y0173140D01*
X0145061Y0173029D01*
X0145016Y0172920D01*
X0144968Y0172812D01*
X0144916Y0172706D01*
X0144860Y0172601D01*
X0144801Y0172499D01*
X0144739Y0172399D01*
X0144673Y0172301D01*
X0144604Y0172205D01*
X0144531Y0172111D01*
X0144456Y0172020D01*
X0144377Y0171932D01*
X0144296Y0171846D01*
X0144211Y0171763D01*
X0144124Y0171683D01*
X0144035Y0171606D01*
X0143942Y0171532D01*
X0143848Y0171462D01*
X0143751Y0171394D01*
X0143651Y0171330D01*
X0143550Y0171269D01*
X0143447Y0171212D01*
X0143341Y0171158D01*
X0143234Y0171107D01*
X0143126Y0171061D01*
X0143016Y0171018D01*
X0142904Y0170979D01*
X0142791Y0170943D01*
X0142677Y0170912D01*
X0142562Y0170884D01*
X0142447Y0170860D01*
X0142330Y0170840D01*
X0142213Y0170824D01*
X0142095Y0170812D01*
X0141977Y0170804D01*
X0141859Y0170800D01*
X0141741Y0170800D01*
X0141623Y0170804D01*
X0141505Y0170812D01*
X0141387Y0170824D01*
X0141270Y0170840D01*
X0141153Y0170860D01*
X0141038Y0170884D01*
X0140923Y0170912D01*
X0140809Y0170943D01*
X0140696Y0170979D01*
X0140584Y0171018D01*
X0140474Y0171061D01*
X0140366Y0171107D01*
X0140259Y0171158D01*
X0140153Y0171212D01*
X0140050Y0171269D01*
X0139949Y0171330D01*
X0139849Y0171394D01*
X0139752Y0171462D01*
X0139658Y0171532D01*
X0139565Y0171606D01*
X0139476Y0171683D01*
X0139389Y0171763D01*
X0139304Y0171846D01*
X0139223Y0171932D01*
X0139144Y0172020D01*
X0139069Y0172111D01*
X0138996Y0172205D01*
X0138927Y0172301D01*
X0138861Y0172399D01*
X0138799Y0172499D01*
X0138740Y0172601D01*
X0138684Y0172706D01*
X0138632Y0172812D01*
X0138584Y0172920D01*
X0138539Y0173029D01*
X0138498Y0173140D01*
X0138461Y0173252D01*
X0138427Y0173366D01*
X0138397Y0173480D01*
X0138372Y0173595D01*
X0138350Y0173712D01*
X0138332Y0173829D01*
X0138318Y0173946D01*
X0138308Y0174064D01*
X0138302Y0174182D01*
X0138300Y0174300D01*
D11*
X0141800Y0024300D03*
D12*
X0141800Y0034300D03*
X0141800Y0044300D03*
X0141800Y0054300D03*
X0141800Y0064300D03*
X0141800Y0074300D03*
X0141800Y0084300D03*
X0141800Y0094300D03*
X0141800Y0104300D03*
X0141800Y0114300D03*
X0141800Y0124300D03*
X0141800Y0134300D03*
X0141800Y0144300D03*
X0141800Y0154300D03*
X0141800Y0164300D03*
X0201800Y0164300D03*
X0201800Y0154300D03*
X0201800Y0144300D03*
X0201800Y0134300D03*
X0201800Y0124300D03*
X0201800Y0114300D03*
X0201800Y0104300D03*
X0201800Y0094300D03*
X0201800Y0084300D03*
X0201800Y0074300D03*
X0201800Y0064300D03*
X0201800Y0054300D03*
X0201800Y0044300D03*
X0201800Y0034300D03*
X0201800Y0024300D03*
D13*
X0009300Y0241800D03*
D14*
X0009300Y0251800D03*
X0009300Y0261800D03*
X0009300Y0271800D03*
D15*
X0153500Y0235700D02*
X0159500Y0235700D01*
X0159500Y0217900D02*
X0153500Y0217900D01*
X0153500Y0208200D02*
X0159500Y0208200D01*
X0159500Y0190400D02*
X0153500Y0190400D01*
X0179100Y0190400D02*
X0185100Y0190400D01*
X0185100Y0208200D02*
X0179100Y0208200D01*
X0179100Y0217900D02*
X0185100Y0217900D01*
X0185100Y0235700D02*
X0179100Y0235700D01*
X0205400Y0222600D02*
X0205400Y0216600D01*
X0205400Y0197000D02*
X0205400Y0191000D01*
X0223200Y0191000D02*
X0223200Y0197000D01*
X0223200Y0216600D02*
X0223200Y0222600D01*
X0231600Y0257900D02*
X0237600Y0257900D01*
X0237600Y0275700D02*
X0231600Y0275700D01*
X0212000Y0275700D02*
X0206000Y0275700D01*
X0206000Y0257900D02*
X0212000Y0257900D01*
D16*
X0194300Y0246800D03*
X0194300Y0236800D03*
X0194300Y0226800D03*
X0194300Y0216800D03*
X0194300Y0206800D03*
X0194300Y0196800D03*
X0234300Y0196800D03*
X0234300Y0206800D03*
X0234300Y0216800D03*
X0234300Y0226800D03*
X0234300Y0236800D03*
X0194300Y0276800D03*
X0184300Y0276800D03*
X0174300Y0276800D03*
X0164300Y0276800D03*
X0154300Y0276800D03*
X0154300Y0246800D03*
X0164300Y0246800D03*
X0174300Y0246800D03*
X0184300Y0246800D03*
X0024300Y0246800D03*
X0024300Y0256800D03*
X0024300Y0266800D03*
X0024300Y0276800D03*
X0024300Y0236800D03*
D17*
X0019024Y0234694D02*
X0022469Y0231249D01*
X0041170Y0231249D01*
X0041170Y0251426D01*
X0055934Y0266190D01*
X0145009Y0266190D01*
X0145009Y0183513D01*
X0150914Y0177607D01*
X0150914Y0143158D01*
X0142056Y0134300D01*
X0141800Y0134300D01*
X0148454Y0208611D02*
X0148454Y0227804D01*
X0156328Y0235678D01*
X0156500Y0235700D01*
X0155835Y0236662D01*
X0148946Y0243552D01*
X0148946Y0271603D01*
X0147961Y0272095D01*
X0024438Y0272095D01*
X0024438Y0267174D01*
X0024300Y0266800D01*
X0024438Y0265698D01*
X0024438Y0256839D01*
X0024300Y0256800D01*
X0019024Y0242076D02*
X0019024Y0234694D01*
X0019024Y0242076D02*
X0009300Y0251800D01*
X0024438Y0272095D02*
X0024438Y0276524D01*
X0024300Y0276800D01*
X0148946Y0271603D02*
X0153375Y0276032D01*
X0154300Y0276800D01*
X0154359Y0277017D01*
X0164202Y0277017D01*
X0164300Y0276800D01*
X0165186Y0277017D01*
X0174044Y0277017D01*
X0174300Y0276800D01*
X0175520Y0276524D01*
X0183887Y0276524D01*
X0184300Y0276800D01*
X0226209Y0267174D02*
X0234576Y0275540D01*
X0234600Y0275700D01*
X0226209Y0267174D02*
X0226209Y0222883D01*
X0223749Y0220422D01*
X0223200Y0219600D01*
X0223257Y0219438D01*
X0223257Y0194339D01*
X0223200Y0194000D01*
X0156500Y0208200D02*
X0156328Y0208611D01*
X0148454Y0208611D01*
D18*
X0149409Y0205665D02*
X0149839Y0205073D01*
X0150373Y0204539D01*
X0150984Y0204095D01*
X0151657Y0203752D01*
X0152376Y0203518D01*
X0153122Y0203400D01*
X0156300Y0203400D01*
X0156300Y0208000D01*
X0156700Y0208000D01*
X0156700Y0203400D01*
X0159217Y0203400D01*
X0159217Y0200926D01*
X0159826Y0199455D01*
X0160202Y0199080D01*
X0160202Y0196600D01*
X0152267Y0196600D01*
X0149988Y0195656D01*
X0149409Y0195077D01*
X0149409Y0205665D01*
X0149409Y0204160D02*
X0150894Y0204160D01*
X0149409Y0202562D02*
X0159217Y0202562D01*
X0159217Y0200963D02*
X0149409Y0200963D01*
X0149409Y0199365D02*
X0159917Y0199365D01*
X0160202Y0197766D02*
X0149409Y0197766D01*
X0149409Y0196168D02*
X0151223Y0196168D01*
X0156300Y0204160D02*
X0156700Y0204160D01*
X0156700Y0205759D02*
X0156300Y0205759D01*
X0156300Y0207357D02*
X0156700Y0207357D01*
X0156700Y0208400D02*
X0156300Y0208400D01*
X0156300Y0211700D01*
X0156700Y0211700D01*
X0156700Y0208400D01*
X0156700Y0208956D02*
X0156300Y0208956D01*
X0156300Y0210554D02*
X0156700Y0210554D01*
X0163217Y0205166D02*
X0164202Y0206150D01*
X0164202Y0240107D01*
X0159280Y0245028D01*
X0159280Y0248965D01*
X0162233Y0251918D01*
X0174044Y0251918D01*
X0174044Y0246997D01*
X0174300Y0246800D01*
X0174044Y0246013D01*
X0174044Y0230757D01*
X0180442Y0230757D01*
X0194221Y0216977D01*
X0194300Y0216800D01*
X0199143Y0221898D02*
X0198650Y0222391D01*
X0199143Y0222883D01*
X0199143Y0241583D01*
X0189300Y0241583D01*
X0184379Y0246505D01*
X0184300Y0246800D01*
X0189300Y0250780D02*
X0186930Y0253150D01*
X0181670Y0253150D01*
X0179300Y0250780D01*
X0178044Y0252036D01*
X0178044Y0252714D01*
X0177435Y0254184D01*
X0176310Y0255309D01*
X0174840Y0255918D01*
X0161437Y0255918D01*
X0159967Y0255309D01*
X0158842Y0254184D01*
X0157369Y0252711D01*
X0156930Y0253150D01*
X0151670Y0253150D01*
X0149409Y0250889D01*
X0149409Y0267065D01*
X0148739Y0268682D01*
X0147501Y0269920D01*
X0145884Y0270590D01*
X0055059Y0270590D01*
X0053441Y0269920D01*
X0052204Y0268682D01*
X0037440Y0253918D01*
X0036770Y0252301D01*
X0036770Y0235649D01*
X0029250Y0235649D01*
X0029250Y0236700D01*
X0024400Y0236700D01*
X0024400Y0236900D01*
X0024200Y0236900D01*
X0024200Y0241750D01*
X0023424Y0241750D01*
X0023424Y0241850D01*
X0024200Y0241850D01*
X0024200Y0246700D01*
X0024400Y0246700D01*
X0024400Y0246900D01*
X0024200Y0246900D01*
X0024200Y0251750D01*
X0022250Y0251750D01*
X0019350Y0248850D01*
X0019350Y0247973D01*
X0015468Y0251854D01*
X0015468Y0253027D01*
X0014529Y0255294D01*
X0013024Y0256800D01*
X0014529Y0258306D01*
X0015468Y0260573D01*
X0015468Y0263027D01*
X0014529Y0265294D01*
X0013024Y0266800D01*
X0014529Y0268306D01*
X0015468Y0270573D01*
X0015468Y0273027D01*
X0014529Y0275294D01*
X0012794Y0277029D01*
X0010527Y0277968D01*
X0008073Y0277968D01*
X0006600Y0277358D01*
X0006600Y0279500D01*
X0020000Y0279500D01*
X0019350Y0278850D01*
X0019350Y0276900D01*
X0024200Y0276900D01*
X0024200Y0276700D01*
X0024400Y0276700D01*
X0024400Y0276900D01*
X0029250Y0276900D01*
X0029250Y0278850D01*
X0028600Y0279500D01*
X0150000Y0279500D01*
X0149350Y0278850D01*
X0149350Y0276900D01*
X0154200Y0276900D01*
X0154200Y0279500D01*
X0154400Y0279500D01*
X0154400Y0276900D01*
X0154200Y0276900D01*
X0154200Y0276700D01*
X0154400Y0276700D01*
X0154400Y0276900D01*
X0159250Y0276900D01*
X0159250Y0278850D01*
X0158600Y0279500D01*
X0160000Y0279500D01*
X0159350Y0278850D01*
X0159350Y0276900D01*
X0164200Y0276900D01*
X0164200Y0279500D01*
X0164400Y0279500D01*
X0164400Y0276900D01*
X0164200Y0276900D01*
X0164200Y0276700D01*
X0164400Y0276700D01*
X0164400Y0276900D01*
X0169250Y0276900D01*
X0169250Y0278850D01*
X0168600Y0279500D01*
X0170000Y0279500D01*
X0169350Y0278850D01*
X0169350Y0276900D01*
X0174200Y0276900D01*
X0174200Y0276700D01*
X0174400Y0276700D01*
X0174400Y0276900D01*
X0179250Y0276900D01*
X0179250Y0278850D01*
X0178600Y0279500D01*
X0180000Y0279500D01*
X0179350Y0278850D01*
X0179350Y0276900D01*
X0184200Y0276900D01*
X0184200Y0276700D01*
X0184400Y0276700D01*
X0184400Y0276900D01*
X0189250Y0276900D01*
X0189250Y0278850D01*
X0188600Y0279500D01*
X0190000Y0279500D01*
X0189350Y0278850D01*
X0189350Y0276900D01*
X0194200Y0276900D01*
X0194200Y0276700D01*
X0194400Y0276700D01*
X0194400Y0276900D01*
X0199250Y0276900D01*
X0199250Y0278850D01*
X0198600Y0279500D01*
X0203064Y0279500D01*
X0202873Y0279361D01*
X0202339Y0278827D01*
X0201895Y0278216D01*
X0201552Y0277543D01*
X0201318Y0276824D01*
X0201200Y0276078D01*
X0201200Y0275900D01*
X0208800Y0275900D01*
X0208800Y0275500D01*
X0209200Y0275500D01*
X0209200Y0275900D01*
X0216800Y0275900D01*
X0216800Y0276078D01*
X0216682Y0276824D01*
X0216448Y0277543D01*
X0216105Y0278216D01*
X0215661Y0278827D01*
X0215127Y0279361D01*
X0214936Y0279500D01*
X0228664Y0279500D01*
X0228473Y0279361D01*
X0227939Y0278827D01*
X0227495Y0278216D01*
X0227152Y0277543D01*
X0226918Y0276824D01*
X0226800Y0276078D01*
X0226800Y0275900D01*
X0234400Y0275900D01*
X0234400Y0275500D01*
X0234800Y0275500D01*
X0234800Y0270900D01*
X0237978Y0270900D01*
X0238724Y0271018D01*
X0239443Y0271252D01*
X0240116Y0271595D01*
X0240727Y0272039D01*
X0241261Y0272573D01*
X0241705Y0273184D01*
X0242000Y0273763D01*
X0242000Y0262268D01*
X0241112Y0263156D01*
X0238833Y0264100D01*
X0230367Y0264100D01*
X0228088Y0263156D01*
X0226344Y0261412D01*
X0225400Y0259133D01*
X0225400Y0256667D01*
X0226344Y0254388D01*
X0228088Y0252644D01*
X0230367Y0251700D01*
X0238833Y0251700D01*
X0241112Y0252644D01*
X0242000Y0253532D01*
X0242000Y0056600D01*
X0220845Y0056600D01*
X0219081Y0055869D01*
X0217731Y0054519D01*
X0217000Y0052755D01*
X0217000Y0006600D01*
X0204899Y0006600D01*
X0206502Y0007264D01*
X0208836Y0009598D01*
X0210100Y0012649D01*
X0210100Y0015951D01*
X0208836Y0019002D01*
X0206729Y0021109D01*
X0207575Y0023151D01*
X0207575Y0025449D01*
X0206696Y0027571D01*
X0205071Y0029196D01*
X0204819Y0029300D01*
X0205071Y0029404D01*
X0206696Y0031029D01*
X0207575Y0033151D01*
X0207575Y0035449D01*
X0206696Y0037571D01*
X0205071Y0039196D01*
X0204819Y0039300D01*
X0205071Y0039404D01*
X0206696Y0041029D01*
X0207575Y0043151D01*
X0207575Y0045449D01*
X0206696Y0047571D01*
X0205071Y0049196D01*
X0204819Y0049300D01*
X0205071Y0049404D01*
X0206696Y0051029D01*
X0207575Y0053151D01*
X0207575Y0054398D01*
X0217648Y0064472D01*
X0218774Y0065597D01*
X0219383Y0067067D01*
X0219383Y0188088D01*
X0219539Y0187873D01*
X0220073Y0187339D01*
X0220684Y0186895D01*
X0221357Y0186552D01*
X0222076Y0186318D01*
X0222822Y0186200D01*
X0223000Y0186200D01*
X0223000Y0193800D01*
X0223400Y0193800D01*
X0223400Y0194200D01*
X0223000Y0194200D01*
X0223000Y0201800D01*
X0222822Y0201800D01*
X0222076Y0201682D01*
X0221357Y0201448D01*
X0220684Y0201105D01*
X0220073Y0200661D01*
X0219539Y0200127D01*
X0219383Y0199912D01*
X0219383Y0213688D01*
X0219539Y0213473D01*
X0220073Y0212939D01*
X0220684Y0212495D01*
X0221357Y0212152D01*
X0222076Y0211918D01*
X0222822Y0211800D01*
X0223000Y0211800D01*
X0223000Y0219400D01*
X0223400Y0219400D01*
X0223400Y0219800D01*
X0223000Y0219800D01*
X0223000Y0227400D01*
X0222822Y0227400D01*
X0222076Y0227282D01*
X0221357Y0227048D01*
X0220684Y0226705D01*
X0220073Y0226261D01*
X0219539Y0225727D01*
X0219383Y0225512D01*
X0219383Y0229584D01*
X0218774Y0231054D01*
X0201057Y0248771D01*
X0200650Y0249178D01*
X0200650Y0249430D01*
X0196930Y0253150D01*
X0191670Y0253150D01*
X0189300Y0250780D01*
X0187965Y0252116D02*
X0190635Y0252116D01*
X0194300Y0246800D02*
X0194713Y0246505D01*
X0197666Y0246505D01*
X0215383Y0228788D01*
X0215383Y0067863D01*
X0202095Y0054576D01*
X0201800Y0054300D01*
X0197174Y0056052D02*
X0201111Y0059989D01*
X0204064Y0059989D01*
X0204064Y0060481D01*
X0212922Y0069339D01*
X0212922Y0186465D01*
X0205540Y0193847D01*
X0205400Y0194000D01*
X0205540Y0194339D01*
X0205540Y0219438D01*
X0205400Y0219600D01*
X0199143Y0221898D02*
X0199143Y0190402D01*
X0210461Y0179083D01*
X0210461Y0072784D01*
X0202095Y0064418D01*
X0201800Y0064300D01*
X0197174Y0056052D02*
X0197174Y0049162D01*
X0201603Y0044733D01*
X0201800Y0044300D01*
X0205162Y0049105D02*
X0217000Y0049105D01*
X0217000Y0050703D02*
X0206370Y0050703D01*
X0207223Y0052302D02*
X0217000Y0052302D01*
X0217474Y0053900D02*
X0207575Y0053900D01*
X0208675Y0055499D02*
X0218711Y0055499D01*
X0213471Y0060294D02*
X0242000Y0060294D01*
X0242000Y0058696D02*
X0211872Y0058696D01*
X0210274Y0057097D02*
X0242000Y0057097D01*
X0242000Y0061893D02*
X0215069Y0061893D01*
X0216668Y0063491D02*
X0242000Y0063491D01*
X0242000Y0065090D02*
X0218266Y0065090D01*
X0219226Y0066688D02*
X0242000Y0066688D01*
X0242000Y0068287D02*
X0219383Y0068287D01*
X0219383Y0069885D02*
X0242000Y0069885D01*
X0242000Y0071484D02*
X0219383Y0071484D01*
X0219383Y0073082D02*
X0242000Y0073082D01*
X0242000Y0074681D02*
X0219383Y0074681D01*
X0219383Y0076279D02*
X0242000Y0076279D01*
X0242000Y0077878D02*
X0219383Y0077878D01*
X0219383Y0079476D02*
X0242000Y0079476D01*
X0242000Y0081075D02*
X0219383Y0081075D01*
X0219383Y0082673D02*
X0242000Y0082673D01*
X0242000Y0084272D02*
X0219383Y0084272D01*
X0219383Y0085870D02*
X0242000Y0085870D01*
X0242000Y0087469D02*
X0219383Y0087469D01*
X0219383Y0089068D02*
X0242000Y0089068D01*
X0242000Y0090666D02*
X0219383Y0090666D01*
X0219383Y0092265D02*
X0242000Y0092265D01*
X0242000Y0093863D02*
X0219383Y0093863D01*
X0219383Y0095462D02*
X0242000Y0095462D01*
X0242000Y0097060D02*
X0219383Y0097060D01*
X0219383Y0098659D02*
X0242000Y0098659D01*
X0242000Y0100257D02*
X0219383Y0100257D01*
X0219383Y0101856D02*
X0242000Y0101856D01*
X0242000Y0103454D02*
X0219383Y0103454D01*
X0219383Y0105053D02*
X0242000Y0105053D01*
X0242000Y0106651D02*
X0219383Y0106651D01*
X0219383Y0108250D02*
X0242000Y0108250D01*
X0242000Y0109848D02*
X0219383Y0109848D01*
X0219383Y0111447D02*
X0242000Y0111447D01*
X0242000Y0113045D02*
X0219383Y0113045D01*
X0219383Y0114644D02*
X0242000Y0114644D01*
X0242000Y0116242D02*
X0219383Y0116242D01*
X0219383Y0117841D02*
X0242000Y0117841D01*
X0242000Y0119439D02*
X0219383Y0119439D01*
X0219383Y0121038D02*
X0242000Y0121038D01*
X0242000Y0122636D02*
X0219383Y0122636D01*
X0219383Y0124235D02*
X0242000Y0124235D01*
X0242000Y0125833D02*
X0219383Y0125833D01*
X0219383Y0127432D02*
X0242000Y0127432D01*
X0242000Y0129030D02*
X0219383Y0129030D01*
X0219383Y0130629D02*
X0242000Y0130629D01*
X0242000Y0132227D02*
X0219383Y0132227D01*
X0219383Y0133826D02*
X0242000Y0133826D01*
X0242000Y0135424D02*
X0219383Y0135424D01*
X0219383Y0137023D02*
X0242000Y0137023D01*
X0242000Y0138621D02*
X0219383Y0138621D01*
X0219383Y0140220D02*
X0242000Y0140220D01*
X0242000Y0141818D02*
X0219383Y0141818D01*
X0219383Y0143417D02*
X0242000Y0143417D01*
X0242000Y0145015D02*
X0219383Y0145015D01*
X0219383Y0146614D02*
X0242000Y0146614D01*
X0242000Y0148212D02*
X0219383Y0148212D01*
X0219383Y0149811D02*
X0242000Y0149811D01*
X0242000Y0151409D02*
X0219383Y0151409D01*
X0219383Y0153008D02*
X0242000Y0153008D01*
X0242000Y0154606D02*
X0219383Y0154606D01*
X0219383Y0156205D02*
X0242000Y0156205D01*
X0242000Y0157803D02*
X0219383Y0157803D01*
X0219383Y0159402D02*
X0242000Y0159402D01*
X0242000Y0161001D02*
X0219383Y0161001D01*
X0219383Y0162599D02*
X0242000Y0162599D01*
X0242000Y0164198D02*
X0219383Y0164198D01*
X0219383Y0165796D02*
X0242000Y0165796D01*
X0242000Y0167395D02*
X0219383Y0167395D01*
X0219383Y0168993D02*
X0242000Y0168993D01*
X0242000Y0170592D02*
X0219383Y0170592D01*
X0219383Y0172190D02*
X0242000Y0172190D01*
X0242000Y0173789D02*
X0219383Y0173789D01*
X0219383Y0175387D02*
X0242000Y0175387D01*
X0242000Y0176986D02*
X0219383Y0176986D01*
X0219383Y0178584D02*
X0242000Y0178584D01*
X0242000Y0180183D02*
X0219383Y0180183D01*
X0219383Y0181781D02*
X0242000Y0181781D01*
X0242000Y0183380D02*
X0219383Y0183380D01*
X0219383Y0184978D02*
X0242000Y0184978D01*
X0242000Y0186577D02*
X0225092Y0186577D01*
X0225043Y0186552D02*
X0225716Y0186895D01*
X0226327Y0187339D01*
X0226861Y0187873D01*
X0227305Y0188484D01*
X0227648Y0189157D01*
X0227882Y0189876D01*
X0228000Y0190622D01*
X0228000Y0193800D01*
X0223400Y0193800D01*
X0223400Y0186200D01*
X0223578Y0186200D01*
X0224324Y0186318D01*
X0225043Y0186552D01*
X0223400Y0186577D02*
X0223000Y0186577D01*
X0223000Y0188175D02*
X0223400Y0188175D01*
X0223400Y0189774D02*
X0223000Y0189774D01*
X0223000Y0191372D02*
X0223400Y0191372D01*
X0223400Y0192971D02*
X0223000Y0192971D01*
X0223400Y0194200D02*
X0227950Y0194200D01*
X0227950Y0194170D01*
X0231670Y0190450D01*
X0236930Y0190450D01*
X0240650Y0194170D01*
X0240650Y0199430D01*
X0238280Y0201800D01*
X0240650Y0204170D01*
X0240650Y0209430D01*
X0238280Y0211800D01*
X0240650Y0214170D01*
X0240650Y0219430D01*
X0238280Y0221800D01*
X0240650Y0224170D01*
X0240650Y0229430D01*
X0238280Y0231800D01*
X0240650Y0234170D01*
X0240650Y0239430D01*
X0236930Y0243150D01*
X0231670Y0243150D01*
X0227950Y0239430D01*
X0227950Y0234170D01*
X0230320Y0231800D01*
X0227950Y0229430D01*
X0227950Y0224170D01*
X0230320Y0221800D01*
X0227950Y0219430D01*
X0227950Y0219400D01*
X0223400Y0219400D01*
X0223400Y0211800D01*
X0223578Y0211800D01*
X0224324Y0211918D01*
X0225043Y0212152D01*
X0225716Y0212495D01*
X0226327Y0212939D01*
X0226861Y0213473D01*
X0227305Y0214084D01*
X0227648Y0214757D01*
X0227882Y0215476D01*
X0227950Y0215907D01*
X0227950Y0214170D01*
X0230320Y0211800D01*
X0227950Y0209430D01*
X0227950Y0204170D01*
X0230320Y0201800D01*
X0227950Y0199430D01*
X0227950Y0197693D01*
X0227882Y0198124D01*
X0227648Y0198843D01*
X0227305Y0199516D01*
X0226861Y0200127D01*
X0226327Y0200661D01*
X0225716Y0201105D01*
X0225043Y0201448D01*
X0224324Y0201682D01*
X0223578Y0201800D01*
X0223400Y0201800D01*
X0223400Y0194200D01*
X0223400Y0194569D02*
X0223000Y0194569D01*
X0223000Y0196168D02*
X0223400Y0196168D01*
X0223400Y0197766D02*
X0223000Y0197766D01*
X0223000Y0199365D02*
X0223400Y0199365D01*
X0223400Y0200963D02*
X0223000Y0200963D01*
X0220489Y0200963D02*
X0219383Y0200963D01*
X0219383Y0202562D02*
X0229558Y0202562D01*
X0229483Y0200963D02*
X0225911Y0200963D01*
X0227382Y0199365D02*
X0227950Y0199365D01*
X0227938Y0197766D02*
X0227950Y0197766D01*
X0228000Y0192971D02*
X0229149Y0192971D01*
X0228000Y0191372D02*
X0230748Y0191372D01*
X0227849Y0189774D02*
X0242000Y0189774D01*
X0242000Y0191372D02*
X0237852Y0191372D01*
X0239451Y0192971D02*
X0242000Y0192971D01*
X0242000Y0194569D02*
X0240650Y0194569D01*
X0240650Y0196168D02*
X0242000Y0196168D01*
X0242000Y0197766D02*
X0240650Y0197766D01*
X0240650Y0199365D02*
X0242000Y0199365D01*
X0242000Y0200963D02*
X0239117Y0200963D01*
X0239042Y0202562D02*
X0242000Y0202562D01*
X0242000Y0204160D02*
X0240641Y0204160D01*
X0240650Y0205759D02*
X0242000Y0205759D01*
X0242000Y0207357D02*
X0240650Y0207357D01*
X0240650Y0208956D02*
X0242000Y0208956D01*
X0242000Y0210554D02*
X0239526Y0210554D01*
X0238633Y0212153D02*
X0242000Y0212153D01*
X0242000Y0213751D02*
X0240232Y0213751D01*
X0240650Y0215350D02*
X0242000Y0215350D01*
X0242000Y0216948D02*
X0240650Y0216948D01*
X0240650Y0218547D02*
X0242000Y0218547D01*
X0242000Y0220145D02*
X0239935Y0220145D01*
X0238336Y0221744D02*
X0242000Y0221744D01*
X0242000Y0223342D02*
X0239823Y0223342D01*
X0240650Y0224941D02*
X0242000Y0224941D01*
X0242000Y0226539D02*
X0240650Y0226539D01*
X0240650Y0228138D02*
X0242000Y0228138D01*
X0242000Y0229737D02*
X0240344Y0229737D01*
X0238745Y0231335D02*
X0242000Y0231335D01*
X0242000Y0232934D02*
X0239414Y0232934D01*
X0240650Y0234532D02*
X0242000Y0234532D01*
X0242000Y0236131D02*
X0240650Y0236131D01*
X0240650Y0237729D02*
X0242000Y0237729D01*
X0242000Y0239328D02*
X0240650Y0239328D01*
X0242000Y0240926D02*
X0239154Y0240926D01*
X0237556Y0242525D02*
X0242000Y0242525D01*
X0242000Y0244123D02*
X0205705Y0244123D01*
X0207303Y0242525D02*
X0231044Y0242525D01*
X0229446Y0240926D02*
X0208902Y0240926D01*
X0210500Y0239328D02*
X0227950Y0239328D01*
X0227950Y0237729D02*
X0212099Y0237729D01*
X0213697Y0236131D02*
X0227950Y0236131D01*
X0227950Y0234532D02*
X0215296Y0234532D01*
X0216894Y0232934D02*
X0229186Y0232934D01*
X0229855Y0231335D02*
X0218493Y0231335D01*
X0219319Y0229737D02*
X0228256Y0229737D01*
X0227950Y0228138D02*
X0219383Y0228138D01*
X0219383Y0226539D02*
X0220456Y0226539D01*
X0223000Y0226539D02*
X0223400Y0226539D01*
X0223400Y0227400D02*
X0223400Y0219800D01*
X0228000Y0219800D01*
X0228000Y0222978D01*
X0227882Y0223724D01*
X0227648Y0224443D01*
X0227305Y0225116D01*
X0226861Y0225727D01*
X0226327Y0226261D01*
X0225716Y0226705D01*
X0225043Y0227048D01*
X0224324Y0227282D01*
X0223578Y0227400D01*
X0223400Y0227400D01*
X0223400Y0224941D02*
X0223000Y0224941D01*
X0223000Y0223342D02*
X0223400Y0223342D01*
X0223400Y0221744D02*
X0223000Y0221744D01*
X0223000Y0220145D02*
X0223400Y0220145D01*
X0223400Y0218547D02*
X0223000Y0218547D01*
X0223000Y0216948D02*
X0223400Y0216948D01*
X0223400Y0215350D02*
X0223000Y0215350D01*
X0223000Y0213751D02*
X0223400Y0213751D01*
X0223400Y0212153D02*
X0223000Y0212153D01*
X0221355Y0212153D02*
X0219383Y0212153D01*
X0219383Y0210554D02*
X0229074Y0210554D01*
X0229967Y0212153D02*
X0225045Y0212153D01*
X0227063Y0213751D02*
X0228368Y0213751D01*
X0227950Y0215350D02*
X0227841Y0215350D01*
X0228000Y0220145D02*
X0228665Y0220145D01*
X0228000Y0221744D02*
X0230264Y0221744D01*
X0228777Y0223342D02*
X0227942Y0223342D01*
X0227950Y0224941D02*
X0227394Y0224941D01*
X0227950Y0226539D02*
X0225944Y0226539D01*
X0227950Y0208956D02*
X0219383Y0208956D01*
X0219383Y0207357D02*
X0227950Y0207357D01*
X0227950Y0205759D02*
X0219383Y0205759D01*
X0219383Y0204160D02*
X0227959Y0204160D01*
X0227081Y0188175D02*
X0242000Y0188175D01*
X0221308Y0186577D02*
X0219383Y0186577D01*
X0194300Y0196800D02*
X0194221Y0196800D01*
X0193237Y0195816D01*
X0193237Y0102804D01*
X0201603Y0094438D01*
X0201800Y0094300D01*
X0199635Y0090501D02*
X0183887Y0106249D01*
X0183887Y0188434D01*
X0182410Y0189910D01*
X0182100Y0190400D01*
X0186333Y0196600D02*
X0187950Y0195930D01*
X0187950Y0199430D01*
X0190320Y0201800D01*
X0187950Y0204170D01*
X0187950Y0204338D01*
X0187616Y0204095D01*
X0186943Y0203752D01*
X0186224Y0203518D01*
X0185478Y0203400D01*
X0182300Y0203400D01*
X0182300Y0208000D01*
X0181900Y0208000D01*
X0181900Y0203400D01*
X0178722Y0203400D01*
X0178044Y0203507D01*
X0178044Y0196600D01*
X0186333Y0196600D01*
X0187377Y0196168D02*
X0187950Y0196168D01*
X0187950Y0197766D02*
X0178044Y0197766D01*
X0178044Y0199365D02*
X0187950Y0199365D01*
X0189483Y0200963D02*
X0178044Y0200963D01*
X0178044Y0202562D02*
X0189558Y0202562D01*
X0187959Y0204160D02*
X0187706Y0204160D01*
X0182300Y0204160D02*
X0181900Y0204160D01*
X0181900Y0205759D02*
X0182300Y0205759D01*
X0182300Y0207357D02*
X0181900Y0207357D01*
X0174044Y0210087D02*
X0181918Y0217961D01*
X0182100Y0217900D01*
X0174044Y0210087D02*
X0174044Y0134300D01*
X0179950Y0128394D01*
X0166662Y0119536D02*
X0166662Y0244536D01*
X0164694Y0246505D01*
X0164300Y0246800D01*
X0158372Y0253714D02*
X0149409Y0253714D01*
X0149409Y0252116D02*
X0150635Y0252116D01*
X0149409Y0255313D02*
X0159976Y0255313D01*
X0149409Y0256911D02*
X0199800Y0256911D01*
X0199800Y0256667D02*
X0200744Y0254388D01*
X0202488Y0252644D01*
X0204767Y0251700D01*
X0213233Y0251700D01*
X0215512Y0252644D01*
X0217256Y0254388D01*
X0218200Y0256667D01*
X0218200Y0259133D01*
X0217256Y0261412D01*
X0215512Y0263156D01*
X0213233Y0264100D01*
X0204767Y0264100D01*
X0202488Y0263156D01*
X0200744Y0261412D01*
X0199800Y0259133D01*
X0199800Y0256667D01*
X0200361Y0255313D02*
X0176301Y0255313D01*
X0177630Y0253714D02*
X0201418Y0253714D01*
X0203763Y0252116D02*
X0197965Y0252116D01*
X0199563Y0250517D02*
X0242000Y0250517D01*
X0242000Y0248919D02*
X0200909Y0248919D01*
X0202508Y0247320D02*
X0242000Y0247320D01*
X0242000Y0245722D02*
X0204106Y0245722D01*
X0214237Y0252116D02*
X0229363Y0252116D01*
X0227018Y0253714D02*
X0216582Y0253714D01*
X0217639Y0255313D02*
X0225961Y0255313D01*
X0225400Y0256911D02*
X0218200Y0256911D01*
X0218200Y0258510D02*
X0225400Y0258510D01*
X0225804Y0260108D02*
X0217796Y0260108D01*
X0216961Y0261707D02*
X0226639Y0261707D01*
X0228448Y0263305D02*
X0215152Y0263305D01*
X0213124Y0271018D02*
X0213843Y0271252D01*
X0214516Y0271595D01*
X0215127Y0272039D01*
X0215661Y0272573D01*
X0216105Y0273184D01*
X0216448Y0273857D01*
X0216682Y0274576D01*
X0216800Y0275322D01*
X0216800Y0275500D01*
X0209200Y0275500D01*
X0209200Y0270900D01*
X0212378Y0270900D01*
X0213124Y0271018D01*
X0213933Y0271298D02*
X0229667Y0271298D01*
X0229757Y0271252D02*
X0230476Y0271018D01*
X0231222Y0270900D01*
X0234400Y0270900D01*
X0234400Y0275500D01*
X0226800Y0275500D01*
X0226800Y0275322D01*
X0226918Y0274576D01*
X0227152Y0273857D01*
X0227495Y0273184D01*
X0227939Y0272573D01*
X0228473Y0272039D01*
X0229084Y0271595D01*
X0229757Y0271252D01*
X0227704Y0272896D02*
X0215896Y0272896D01*
X0216655Y0274495D02*
X0226945Y0274495D01*
X0226802Y0276093D02*
X0216798Y0276093D01*
X0216372Y0277692D02*
X0227228Y0277692D01*
X0228402Y0279290D02*
X0215198Y0279290D01*
X0209200Y0274495D02*
X0208800Y0274495D01*
X0208800Y0275500D02*
X0208800Y0270900D01*
X0205622Y0270900D01*
X0204876Y0271018D01*
X0204157Y0271252D01*
X0203484Y0271595D01*
X0202873Y0272039D01*
X0202339Y0272573D01*
X0201895Y0273184D01*
X0201552Y0273857D01*
X0201318Y0274576D01*
X0201200Y0275322D01*
X0201200Y0275500D01*
X0208800Y0275500D01*
X0208800Y0272896D02*
X0209200Y0272896D01*
X0209200Y0271298D02*
X0208800Y0271298D01*
X0204067Y0271298D02*
X0026803Y0271298D01*
X0026350Y0271750D02*
X0024400Y0271750D01*
X0024400Y0266900D01*
X0029250Y0266900D01*
X0029250Y0268850D01*
X0026350Y0271750D01*
X0026350Y0271850D02*
X0029250Y0274750D01*
X0029250Y0276700D01*
X0024400Y0276700D01*
X0024400Y0271850D01*
X0026350Y0271850D01*
X0027397Y0272896D02*
X0151203Y0272896D01*
X0152250Y0271850D02*
X0149350Y0274750D01*
X0149350Y0276700D01*
X0154200Y0276700D01*
X0154200Y0271850D01*
X0152250Y0271850D01*
X0154400Y0271850D02*
X0154400Y0276700D01*
X0159250Y0276700D01*
X0159250Y0274750D01*
X0156350Y0271850D01*
X0154400Y0271850D01*
X0154400Y0272896D02*
X0154200Y0272896D01*
X0154200Y0274495D02*
X0154400Y0274495D01*
X0154400Y0276093D02*
X0154200Y0276093D01*
X0154200Y0277692D02*
X0154400Y0277692D01*
X0154400Y0279290D02*
X0154200Y0279290D01*
X0158810Y0279290D02*
X0159790Y0279290D01*
X0159350Y0277692D02*
X0159250Y0277692D01*
X0159350Y0276700D02*
X0159350Y0274750D01*
X0162250Y0271850D01*
X0164200Y0271850D01*
X0164200Y0276700D01*
X0159350Y0276700D01*
X0159350Y0276093D02*
X0159250Y0276093D01*
X0158995Y0274495D02*
X0159605Y0274495D01*
X0161203Y0272896D02*
X0157397Y0272896D01*
X0164200Y0272896D02*
X0164400Y0272896D01*
X0164400Y0271850D02*
X0166350Y0271850D01*
X0169250Y0274750D01*
X0169250Y0276700D01*
X0164400Y0276700D01*
X0164400Y0271850D01*
X0164400Y0274495D02*
X0164200Y0274495D01*
X0164200Y0276093D02*
X0164400Y0276093D01*
X0164400Y0277692D02*
X0164200Y0277692D01*
X0164200Y0279290D02*
X0164400Y0279290D01*
X0168810Y0279290D02*
X0169790Y0279290D01*
X0169350Y0277692D02*
X0169250Y0277692D01*
X0169350Y0276700D02*
X0169350Y0274750D01*
X0172250Y0271850D01*
X0174200Y0271850D01*
X0174200Y0276700D01*
X0169350Y0276700D01*
X0169350Y0276093D02*
X0169250Y0276093D01*
X0168995Y0274495D02*
X0169605Y0274495D01*
X0171203Y0272896D02*
X0167397Y0272896D01*
X0174200Y0272896D02*
X0174400Y0272896D01*
X0174400Y0271850D02*
X0176350Y0271850D01*
X0179250Y0274750D01*
X0179250Y0276700D01*
X0174400Y0276700D01*
X0174400Y0271850D01*
X0174400Y0274495D02*
X0174200Y0274495D01*
X0174200Y0276093D02*
X0174400Y0276093D01*
X0177397Y0272896D02*
X0181203Y0272896D01*
X0182250Y0271850D02*
X0179350Y0274750D01*
X0179350Y0276700D01*
X0184200Y0276700D01*
X0184200Y0271850D01*
X0182250Y0271850D01*
X0184400Y0271850D02*
X0184400Y0276700D01*
X0189250Y0276700D01*
X0189250Y0274750D01*
X0186350Y0271850D01*
X0184400Y0271850D01*
X0184400Y0272896D02*
X0184200Y0272896D01*
X0184200Y0274495D02*
X0184400Y0274495D01*
X0184400Y0276093D02*
X0184200Y0276093D01*
X0187397Y0272896D02*
X0191203Y0272896D01*
X0192250Y0271850D02*
X0189350Y0274750D01*
X0189350Y0276700D01*
X0194200Y0276700D01*
X0194200Y0271850D01*
X0192250Y0271850D01*
X0194400Y0271850D02*
X0194400Y0276700D01*
X0199250Y0276700D01*
X0199250Y0274750D01*
X0196350Y0271850D01*
X0194400Y0271850D01*
X0194400Y0272896D02*
X0194200Y0272896D01*
X0194200Y0274495D02*
X0194400Y0274495D01*
X0194400Y0276093D02*
X0194200Y0276093D01*
X0197397Y0272896D02*
X0202104Y0272896D01*
X0201345Y0274495D02*
X0198995Y0274495D01*
X0199250Y0276093D02*
X0201202Y0276093D01*
X0201628Y0277692D02*
X0199250Y0277692D01*
X0198810Y0279290D02*
X0202802Y0279290D01*
X0189790Y0279290D02*
X0188810Y0279290D01*
X0189250Y0277692D02*
X0189350Y0277692D01*
X0189350Y0276093D02*
X0189250Y0276093D01*
X0188995Y0274495D02*
X0189605Y0274495D01*
X0179605Y0274495D02*
X0178995Y0274495D01*
X0179250Y0276093D02*
X0179350Y0276093D01*
X0179350Y0277692D02*
X0179250Y0277692D01*
X0178810Y0279290D02*
X0179790Y0279290D01*
X0201039Y0261707D02*
X0149409Y0261707D01*
X0149409Y0263305D02*
X0202848Y0263305D01*
X0200204Y0260108D02*
X0149409Y0260108D01*
X0149409Y0258510D02*
X0199800Y0258510D01*
X0180635Y0252116D02*
X0178044Y0252116D01*
X0156700Y0235500D02*
X0156700Y0230900D01*
X0159878Y0230900D01*
X0160202Y0230951D01*
X0160202Y0224100D01*
X0152267Y0224100D01*
X0149988Y0223156D01*
X0149409Y0222577D01*
X0149409Y0233165D01*
X0149839Y0232573D01*
X0150373Y0232039D01*
X0150984Y0231595D01*
X0151657Y0231252D01*
X0152376Y0231018D01*
X0153122Y0230900D01*
X0156300Y0230900D01*
X0156300Y0235500D01*
X0156700Y0235500D01*
X0156700Y0234532D02*
X0156300Y0234532D01*
X0156300Y0232934D02*
X0156700Y0232934D01*
X0156700Y0231335D02*
X0156300Y0231335D01*
X0160202Y0229737D02*
X0149409Y0229737D01*
X0149409Y0231335D02*
X0151494Y0231335D01*
X0149577Y0232934D02*
X0149409Y0232934D01*
X0149409Y0228138D02*
X0160202Y0228138D01*
X0160202Y0226539D02*
X0149409Y0226539D01*
X0149409Y0224941D02*
X0160202Y0224941D01*
X0150438Y0223342D02*
X0149409Y0223342D01*
X0163217Y0205166D02*
X0163217Y0201721D01*
X0164202Y0200737D01*
X0164202Y0112154D01*
X0201603Y0074753D01*
X0201800Y0074300D01*
X0201800Y0084300D02*
X0201603Y0084595D01*
X0166662Y0119536D01*
X0141564Y0104772D02*
X0141800Y0104300D01*
X0141564Y0104772D02*
X0131721Y0114615D01*
X0131721Y0251426D01*
X0121387Y0261761D01*
X0147722Y0269699D02*
X0242000Y0269699D01*
X0242000Y0268101D02*
X0148980Y0268101D01*
X0149409Y0266502D02*
X0242000Y0266502D01*
X0242000Y0264904D02*
X0149409Y0264904D01*
X0149605Y0274495D02*
X0028995Y0274495D01*
X0029250Y0276093D02*
X0149350Y0276093D01*
X0149350Y0277692D02*
X0029250Y0277692D01*
X0028810Y0279290D02*
X0149790Y0279290D01*
X0194300Y0226800D02*
X0194713Y0226328D01*
X0198650Y0222391D01*
X0239837Y0252116D02*
X0242000Y0252116D01*
X0242000Y0263305D02*
X0240752Y0263305D01*
X0239533Y0271298D02*
X0242000Y0271298D01*
X0242000Y0272896D02*
X0241496Y0272896D01*
X0234800Y0272896D02*
X0234400Y0272896D01*
X0234400Y0271298D02*
X0234800Y0271298D01*
X0234800Y0274495D02*
X0234400Y0274495D01*
X0146514Y0160847D02*
X0146514Y0147753D01*
X0145071Y0149196D01*
X0142951Y0150074D01*
X0143479Y0150246D01*
X0144093Y0150558D01*
X0144650Y0150963D01*
X0145137Y0151450D01*
X0145542Y0152007D01*
X0145854Y0152621D01*
X0146067Y0153276D01*
X0146175Y0153956D01*
X0146175Y0154300D01*
X0146175Y0154644D01*
X0146067Y0155324D01*
X0145854Y0155979D01*
X0145542Y0156593D01*
X0145137Y0157150D01*
X0144650Y0157637D01*
X0144093Y0158042D01*
X0143479Y0158354D01*
X0142951Y0158526D01*
X0145071Y0159404D01*
X0146514Y0160847D01*
X0146514Y0159402D02*
X0145065Y0159402D01*
X0144421Y0157803D02*
X0146514Y0157803D01*
X0146514Y0156205D02*
X0145739Y0156205D01*
X0146175Y0154606D02*
X0146514Y0154606D01*
X0146175Y0154300D02*
X0141800Y0154300D01*
X0141800Y0154300D01*
X0146175Y0154300D01*
X0145980Y0153008D02*
X0146514Y0153008D01*
X0146514Y0151409D02*
X0145096Y0151409D01*
X0146514Y0149811D02*
X0143586Y0149811D01*
X0146054Y0148212D02*
X0146514Y0148212D01*
X0140649Y0150074D02*
X0138529Y0149196D01*
X0136904Y0147571D01*
X0136025Y0145449D01*
X0136025Y0143151D01*
X0136904Y0141029D01*
X0138529Y0139404D01*
X0138781Y0139300D01*
X0138529Y0139196D01*
X0136904Y0137571D01*
X0136025Y0135449D01*
X0136025Y0133151D01*
X0136904Y0131029D01*
X0138529Y0129404D01*
X0138781Y0129300D01*
X0138529Y0129196D01*
X0136904Y0127571D01*
X0136025Y0125449D01*
X0136025Y0123151D01*
X0136904Y0121029D01*
X0138529Y0119404D01*
X0138781Y0119300D01*
X0138529Y0119196D01*
X0136904Y0117571D01*
X0136177Y0115816D01*
X0135721Y0116272D01*
X0135721Y0168641D01*
X0136871Y0167491D01*
X0136025Y0165449D01*
X0136025Y0163151D01*
X0136904Y0161029D01*
X0138529Y0159404D01*
X0140649Y0158526D01*
X0140121Y0158354D01*
X0139507Y0158042D01*
X0138950Y0157637D01*
X0138463Y0157150D01*
X0138058Y0156593D01*
X0137746Y0155979D01*
X0137533Y0155324D01*
X0137425Y0154644D01*
X0137425Y0154300D01*
X0141800Y0154300D01*
X0141800Y0154300D01*
X0137425Y0154300D01*
X0137425Y0153956D01*
X0137533Y0153276D01*
X0137746Y0152621D01*
X0138058Y0152007D01*
X0138463Y0151450D01*
X0138950Y0150963D01*
X0139507Y0150558D01*
X0140121Y0150246D01*
X0140649Y0150074D01*
X0140014Y0149811D02*
X0135721Y0149811D01*
X0135721Y0151409D02*
X0138504Y0151409D01*
X0137620Y0153008D02*
X0135721Y0153008D01*
X0135721Y0154606D02*
X0137425Y0154606D01*
X0137861Y0156205D02*
X0135721Y0156205D01*
X0135721Y0157803D02*
X0139179Y0157803D01*
X0138534Y0159402D02*
X0135721Y0159402D01*
X0135721Y0161001D02*
X0136933Y0161001D01*
X0136254Y0162599D02*
X0135721Y0162599D01*
X0135721Y0164198D02*
X0136025Y0164198D01*
X0136169Y0165796D02*
X0135721Y0165796D01*
X0135721Y0167395D02*
X0136831Y0167395D01*
X0137546Y0148212D02*
X0135721Y0148212D01*
X0135721Y0146614D02*
X0136508Y0146614D01*
X0136025Y0145015D02*
X0135721Y0145015D01*
X0135721Y0143417D02*
X0136025Y0143417D01*
X0135721Y0141818D02*
X0136577Y0141818D01*
X0135721Y0140220D02*
X0137713Y0140220D01*
X0137955Y0138621D02*
X0135721Y0138621D01*
X0135721Y0137023D02*
X0136677Y0137023D01*
X0136025Y0135424D02*
X0135721Y0135424D01*
X0135721Y0133826D02*
X0136025Y0133826D01*
X0135721Y0132227D02*
X0136408Y0132227D01*
X0135721Y0130629D02*
X0137304Y0130629D01*
X0138363Y0129030D02*
X0135721Y0129030D01*
X0135721Y0127432D02*
X0136847Y0127432D01*
X0136185Y0125833D02*
X0135721Y0125833D01*
X0135721Y0124235D02*
X0136025Y0124235D01*
X0136239Y0122636D02*
X0135721Y0122636D01*
X0135721Y0121038D02*
X0136901Y0121038D01*
X0135721Y0119439D02*
X0138494Y0119439D01*
X0137174Y0117841D02*
X0135721Y0117841D01*
X0135751Y0116242D02*
X0136354Y0116242D01*
X0197237Y0127904D02*
X0197237Y0140696D01*
X0198529Y0139404D01*
X0200649Y0138526D01*
X0200121Y0138354D01*
X0199507Y0138042D01*
X0198950Y0137637D01*
X0198463Y0137150D01*
X0198058Y0136593D01*
X0197746Y0135979D01*
X0197533Y0135324D01*
X0197425Y0134644D01*
X0197425Y0134300D01*
X0201800Y0134300D01*
X0206175Y0134300D01*
X0206175Y0134644D01*
X0206067Y0135324D01*
X0205854Y0135979D01*
X0205542Y0136593D01*
X0205137Y0137150D01*
X0204650Y0137637D01*
X0204093Y0138042D01*
X0203479Y0138354D01*
X0202951Y0138526D01*
X0205071Y0139404D01*
X0206461Y0140795D01*
X0206461Y0127805D01*
X0205071Y0129196D01*
X0202951Y0130074D01*
X0203479Y0130246D01*
X0204093Y0130558D01*
X0204650Y0130963D01*
X0205137Y0131450D01*
X0205542Y0132007D01*
X0205854Y0132621D01*
X0206067Y0133276D01*
X0206175Y0133956D01*
X0206175Y0134300D01*
X0201800Y0134300D01*
X0201800Y0134300D01*
X0201800Y0134300D01*
X0197425Y0134300D01*
X0197425Y0133956D01*
X0197533Y0133276D01*
X0197746Y0132621D01*
X0198058Y0132007D01*
X0198463Y0131450D01*
X0198950Y0130963D01*
X0199507Y0130558D01*
X0200121Y0130246D01*
X0200649Y0130074D01*
X0198529Y0129196D01*
X0197237Y0127904D01*
X0197237Y0129030D02*
X0198363Y0129030D01*
X0199410Y0130629D02*
X0197237Y0130629D01*
X0197237Y0132227D02*
X0197946Y0132227D01*
X0197446Y0133826D02*
X0197237Y0133826D01*
X0197237Y0135424D02*
X0197565Y0135424D01*
X0197237Y0137023D02*
X0198371Y0137023D01*
X0197237Y0138621D02*
X0200419Y0138621D01*
X0203181Y0138621D02*
X0206461Y0138621D01*
X0206461Y0137023D02*
X0205229Y0137023D01*
X0206035Y0135424D02*
X0206461Y0135424D01*
X0206461Y0133826D02*
X0206154Y0133826D01*
X0206461Y0132227D02*
X0205654Y0132227D01*
X0206461Y0130629D02*
X0204190Y0130629D01*
X0205237Y0129030D02*
X0206461Y0129030D01*
X0206461Y0140220D02*
X0205887Y0140220D01*
X0197713Y0140220D02*
X0197237Y0140220D01*
X0201800Y0114300D02*
X0202095Y0114123D01*
X0206032Y0110186D01*
X0206032Y0092469D01*
X0203572Y0090009D01*
X0199635Y0090009D01*
X0199635Y0090501D01*
X0206723Y0047506D02*
X0217000Y0047506D01*
X0217000Y0045908D02*
X0207385Y0045908D01*
X0207575Y0044309D02*
X0217000Y0044309D01*
X0217000Y0042711D02*
X0207392Y0042711D01*
X0206730Y0041112D02*
X0217000Y0041112D01*
X0217000Y0039514D02*
X0205180Y0039514D01*
X0206352Y0037915D02*
X0217000Y0037915D01*
X0217000Y0036317D02*
X0207215Y0036317D01*
X0207575Y0034718D02*
X0217000Y0034718D01*
X0217000Y0033120D02*
X0207562Y0033120D01*
X0206900Y0031521D02*
X0217000Y0031521D01*
X0217000Y0029923D02*
X0205589Y0029923D01*
X0205943Y0028324D02*
X0217000Y0028324D01*
X0217000Y0026726D02*
X0207046Y0026726D01*
X0207575Y0025127D02*
X0217000Y0025127D01*
X0217000Y0023529D02*
X0207575Y0023529D01*
X0207069Y0021930D02*
X0217000Y0021930D01*
X0217000Y0020332D02*
X0207506Y0020332D01*
X0208948Y0018733D02*
X0217000Y0018733D01*
X0217000Y0017134D02*
X0209610Y0017134D01*
X0210100Y0015536D02*
X0217000Y0015536D01*
X0217000Y0013937D02*
X0210100Y0013937D01*
X0209972Y0012339D02*
X0217000Y0012339D01*
X0217000Y0010740D02*
X0209309Y0010740D01*
X0208380Y0009142D02*
X0217000Y0009142D01*
X0217000Y0007543D02*
X0206781Y0007543D01*
X0018396Y0229100D02*
X0006600Y0229100D01*
X0006600Y0237031D01*
X0009116Y0237031D01*
X0009116Y0241616D01*
X0009484Y0241616D01*
X0009484Y0237031D01*
X0012505Y0237031D01*
X0012963Y0237154D01*
X0013374Y0237391D01*
X0013709Y0237726D01*
X0013946Y0238137D01*
X0014068Y0238595D01*
X0014068Y0240809D01*
X0014624Y0240253D01*
X0014624Y0233818D01*
X0015294Y0232201D01*
X0018396Y0229100D01*
X0017759Y0229737D02*
X0006600Y0229737D01*
X0006600Y0231335D02*
X0016161Y0231335D01*
X0014991Y0232934D02*
X0006600Y0232934D01*
X0006600Y0234532D02*
X0014624Y0234532D01*
X0014624Y0236131D02*
X0006600Y0236131D01*
X0009116Y0237729D02*
X0009484Y0237729D01*
X0009484Y0239328D02*
X0009116Y0239328D01*
X0009116Y0240926D02*
X0009484Y0240926D01*
X0014068Y0239328D02*
X0014624Y0239328D01*
X0014624Y0237729D02*
X0013710Y0237729D01*
X0024200Y0237729D02*
X0024400Y0237729D01*
X0024400Y0236900D02*
X0024400Y0241750D01*
X0026350Y0241750D01*
X0029250Y0238850D01*
X0029250Y0236900D01*
X0024400Y0236900D01*
X0024400Y0239328D02*
X0024200Y0239328D01*
X0024200Y0240926D02*
X0024400Y0240926D01*
X0024400Y0241850D02*
X0026350Y0241850D01*
X0029250Y0244750D01*
X0029250Y0246700D01*
X0024400Y0246700D01*
X0024400Y0241850D01*
X0024400Y0242525D02*
X0024200Y0242525D01*
X0024200Y0244123D02*
X0024400Y0244123D01*
X0024400Y0245722D02*
X0024200Y0245722D01*
X0024400Y0246900D02*
X0029250Y0246900D01*
X0029250Y0248850D01*
X0026350Y0251750D01*
X0024400Y0251750D01*
X0024400Y0246900D01*
X0024400Y0247320D02*
X0024200Y0247320D01*
X0024200Y0248919D02*
X0024400Y0248919D01*
X0024400Y0250517D02*
X0024200Y0250517D01*
X0024200Y0251850D02*
X0022250Y0251850D01*
X0019350Y0254750D01*
X0019350Y0256700D01*
X0024200Y0256700D01*
X0024400Y0256700D01*
X0024400Y0256900D01*
X0029250Y0256900D01*
X0029250Y0258850D01*
X0026350Y0261750D01*
X0024400Y0261750D01*
X0024400Y0256900D01*
X0024200Y0256900D01*
X0024200Y0261750D01*
X0022250Y0261750D01*
X0019350Y0258850D01*
X0019350Y0256900D01*
X0024200Y0256900D01*
X0024200Y0256700D01*
X0024200Y0251850D01*
X0024400Y0251850D02*
X0026350Y0251850D01*
X0029250Y0254750D01*
X0029250Y0256700D01*
X0024400Y0256700D01*
X0024400Y0251850D01*
X0024400Y0252116D02*
X0024200Y0252116D01*
X0024200Y0253714D02*
X0024400Y0253714D01*
X0024400Y0255313D02*
X0024200Y0255313D01*
X0024200Y0256911D02*
X0024400Y0256911D01*
X0024400Y0258510D02*
X0024200Y0258510D01*
X0024200Y0260108D02*
X0024400Y0260108D01*
X0024400Y0261707D02*
X0024200Y0261707D01*
X0024200Y0261850D02*
X0024200Y0266700D01*
X0024400Y0266700D01*
X0024400Y0266900D01*
X0024200Y0266900D01*
X0024200Y0271750D01*
X0022250Y0271750D01*
X0019350Y0268850D01*
X0019350Y0266900D01*
X0024200Y0266900D01*
X0024200Y0266700D01*
X0019350Y0266700D01*
X0019350Y0264750D01*
X0022250Y0261850D01*
X0024200Y0261850D01*
X0024400Y0261850D02*
X0026350Y0261850D01*
X0029250Y0264750D01*
X0029250Y0266700D01*
X0024400Y0266700D01*
X0024400Y0261850D01*
X0024400Y0263305D02*
X0024200Y0263305D01*
X0024200Y0264904D02*
X0024400Y0264904D01*
X0024400Y0266502D02*
X0024200Y0266502D01*
X0024200Y0268101D02*
X0024400Y0268101D01*
X0024400Y0269699D02*
X0024200Y0269699D01*
X0024200Y0271298D02*
X0024400Y0271298D01*
X0024200Y0271850D02*
X0022250Y0271850D01*
X0019350Y0274750D01*
X0019350Y0276700D01*
X0024200Y0276700D01*
X0024200Y0271850D01*
X0024200Y0272896D02*
X0024400Y0272896D01*
X0024400Y0274495D02*
X0024200Y0274495D01*
X0024200Y0276093D02*
X0024400Y0276093D01*
X0021203Y0272896D02*
X0015468Y0272896D01*
X0015468Y0271298D02*
X0021797Y0271298D01*
X0020199Y0269699D02*
X0015107Y0269699D01*
X0014324Y0268101D02*
X0019350Y0268101D01*
X0019350Y0266502D02*
X0013321Y0266502D01*
X0014691Y0264904D02*
X0019350Y0264904D01*
X0020794Y0263305D02*
X0015353Y0263305D01*
X0015468Y0261707D02*
X0022206Y0261707D01*
X0020608Y0260108D02*
X0015276Y0260108D01*
X0014614Y0258510D02*
X0019350Y0258510D01*
X0019350Y0256911D02*
X0013135Y0256911D01*
X0014511Y0255313D02*
X0019350Y0255313D01*
X0020385Y0253714D02*
X0015184Y0253714D01*
X0015468Y0252116D02*
X0021984Y0252116D01*
X0021017Y0250517D02*
X0016805Y0250517D01*
X0018404Y0248919D02*
X0019418Y0248919D01*
X0026616Y0252116D02*
X0036770Y0252116D01*
X0036770Y0250517D02*
X0027583Y0250517D01*
X0029182Y0248919D02*
X0036770Y0248919D01*
X0036770Y0247320D02*
X0029250Y0247320D01*
X0029250Y0245722D02*
X0036770Y0245722D01*
X0036770Y0244123D02*
X0028623Y0244123D01*
X0027025Y0242525D02*
X0036770Y0242525D01*
X0036770Y0240926D02*
X0027174Y0240926D01*
X0028773Y0239328D02*
X0036770Y0239328D01*
X0036770Y0237729D02*
X0029250Y0237729D01*
X0029250Y0236131D02*
X0036770Y0236131D01*
X0037355Y0253714D02*
X0028215Y0253714D01*
X0029250Y0255313D02*
X0038834Y0255313D01*
X0040433Y0256911D02*
X0029250Y0256911D01*
X0029250Y0258510D02*
X0042031Y0258510D01*
X0043630Y0260108D02*
X0027992Y0260108D01*
X0026394Y0261707D02*
X0045228Y0261707D01*
X0046827Y0263305D02*
X0027806Y0263305D01*
X0029250Y0264904D02*
X0048425Y0264904D01*
X0050024Y0266502D02*
X0029250Y0266502D01*
X0029250Y0268101D02*
X0051622Y0268101D01*
X0053221Y0269699D02*
X0028401Y0269699D01*
X0019605Y0274495D02*
X0014861Y0274495D01*
X0013730Y0276093D02*
X0019350Y0276093D01*
X0019350Y0277692D02*
X0011195Y0277692D01*
X0007405Y0277692D02*
X0006600Y0277692D01*
X0006600Y0279290D02*
X0019790Y0279290D01*
D19*
X0121387Y0261761D03*
X0179950Y0128394D03*
M02*
