G75*
%MOIN*%
%OFA0B0*%
%FSLAX25Y25*%
%IPPOS*%
%LPD*%
%AMOC8*
5,1,8,0,0,1.08239X$1,22.5*
%
%ADD10C,0.00400*%
%ADD11C,0.00000*%
%ADD12C,0.00500*%
%ADD13C,0.00200*%
%ADD14C,0.00600*%
D10*
X0216996Y0070787D02*
X0220065Y0070787D01*
X0221600Y0072322D01*
X0220065Y0073857D01*
X0216996Y0073857D01*
X0216996Y0075391D02*
X0216996Y0076926D01*
X0216996Y0076159D02*
X0221600Y0076159D01*
X0221600Y0076926D02*
X0221600Y0075391D01*
X0224496Y0075008D02*
X0229100Y0075008D01*
X0229100Y0075775D02*
X0229100Y0074240D01*
X0229100Y0071171D02*
X0224496Y0071171D01*
X0224496Y0069636D02*
X0224496Y0072706D01*
X0224496Y0074240D02*
X0224496Y0075775D01*
X0224496Y0077310D02*
X0224496Y0079612D01*
X0225263Y0080379D01*
X0226798Y0080379D01*
X0227565Y0079612D01*
X0227565Y0077310D01*
X0227565Y0078844D02*
X0229100Y0080379D01*
X0228333Y0081914D02*
X0229100Y0082681D01*
X0229100Y0084216D01*
X0228333Y0084983D01*
X0225263Y0084983D01*
X0224496Y0084216D01*
X0224496Y0082681D01*
X0225263Y0081914D01*
X0228333Y0081914D01*
X0229100Y0086517D02*
X0224496Y0086517D01*
X0226031Y0088052D01*
X0224496Y0089587D01*
X0229100Y0089587D01*
X0232763Y0093040D02*
X0231996Y0093807D01*
X0231996Y0095342D01*
X0232763Y0096109D01*
X0233531Y0096109D01*
X0236600Y0093040D01*
X0236600Y0096109D01*
X0235833Y0097644D02*
X0236600Y0098411D01*
X0236600Y0099946D01*
X0235833Y0100713D01*
X0232763Y0100713D01*
X0235833Y0097644D01*
X0232763Y0097644D01*
X0231996Y0098411D01*
X0231996Y0099946D01*
X0232763Y0100713D01*
X0233531Y0102248D02*
X0231996Y0103782D01*
X0236600Y0103782D01*
X0236600Y0102248D02*
X0236600Y0105317D01*
X0235833Y0106852D02*
X0236600Y0107619D01*
X0236600Y0109154D01*
X0235833Y0109921D01*
X0235065Y0109921D01*
X0234298Y0109154D01*
X0234298Y0107619D01*
X0233531Y0106852D01*
X0232763Y0106852D01*
X0231996Y0107619D01*
X0231996Y0109154D01*
X0232763Y0109921D01*
X0233531Y0109921D01*
X0234298Y0109154D01*
X0234298Y0107619D02*
X0235065Y0106852D01*
X0235833Y0106852D01*
X0229100Y0108002D02*
X0227565Y0106468D01*
X0227565Y0107235D02*
X0227565Y0104933D01*
X0229100Y0104933D02*
X0224496Y0104933D01*
X0224496Y0107235D01*
X0225263Y0108002D01*
X0226798Y0108002D01*
X0227565Y0107235D01*
X0224496Y0109537D02*
X0224496Y0112606D01*
X0224496Y0111072D02*
X0229100Y0111072D01*
X0231996Y0116059D02*
X0236600Y0116059D01*
X0235065Y0117594D01*
X0236600Y0119129D01*
X0231996Y0119129D01*
X0231996Y0120663D02*
X0231996Y0122198D01*
X0231996Y0121431D02*
X0236600Y0121431D01*
X0236600Y0122198D02*
X0236600Y0120663D01*
X0236600Y0123733D02*
X0236600Y0126802D01*
X0235833Y0128337D02*
X0236600Y0129104D01*
X0236600Y0130638D01*
X0235833Y0131406D01*
X0235833Y0132940D02*
X0232763Y0132940D01*
X0231996Y0133708D01*
X0231996Y0135242D01*
X0232763Y0136010D01*
X0235833Y0136010D01*
X0236600Y0135242D01*
X0236600Y0133708D01*
X0235833Y0132940D01*
X0232763Y0131406D02*
X0231996Y0130638D01*
X0231996Y0129104D01*
X0232763Y0128337D01*
X0235833Y0128337D01*
X0236600Y0123733D02*
X0231996Y0123733D01*
X0229100Y0124116D02*
X0229100Y0123349D01*
X0228333Y0123349D01*
X0228333Y0124116D01*
X0229100Y0124116D01*
X0229100Y0125651D02*
X0229100Y0128720D01*
X0229100Y0127185D02*
X0224496Y0127185D01*
X0226031Y0125651D01*
X0221600Y0125267D02*
X0220833Y0124500D01*
X0217763Y0127569D01*
X0220833Y0127569D01*
X0221600Y0126802D01*
X0221600Y0125267D01*
X0220833Y0124500D02*
X0217763Y0124500D01*
X0216996Y0125267D01*
X0216996Y0126802D01*
X0217763Y0127569D01*
X0217763Y0129104D02*
X0216996Y0129871D01*
X0216996Y0131406D01*
X0217763Y0132173D01*
X0220833Y0129104D01*
X0221600Y0129871D01*
X0221600Y0131406D01*
X0220833Y0132173D01*
X0217763Y0132173D01*
X0217763Y0129104D02*
X0220833Y0129104D01*
X0221600Y0133708D02*
X0216996Y0136777D01*
X0217763Y0138312D02*
X0220833Y0138312D01*
X0221600Y0139079D01*
X0221600Y0140614D01*
X0220833Y0141381D01*
X0217763Y0141381D01*
X0216996Y0140614D01*
X0216996Y0139079D01*
X0217763Y0138312D01*
X0216996Y0142916D02*
X0216996Y0145218D01*
X0217763Y0145985D01*
X0220833Y0145985D01*
X0221600Y0145218D01*
X0221600Y0142916D01*
X0216996Y0142916D01*
X0216996Y0147520D02*
X0216996Y0149054D01*
X0216996Y0148287D02*
X0221600Y0148287D01*
X0221600Y0147520D02*
X0221600Y0149054D01*
X0220833Y0150589D02*
X0221600Y0151356D01*
X0221600Y0152891D01*
X0220833Y0153658D01*
X0220065Y0153658D01*
X0219298Y0152891D01*
X0219298Y0151356D01*
X0218531Y0150589D01*
X0217763Y0150589D01*
X0216996Y0151356D01*
X0216996Y0152891D01*
X0217763Y0153658D01*
X0217763Y0155193D02*
X0218531Y0155193D01*
X0219298Y0155960D01*
X0219298Y0157495D01*
X0220065Y0158262D01*
X0220833Y0158262D01*
X0221600Y0157495D01*
X0221600Y0155960D01*
X0220833Y0155193D01*
X0217763Y0155193D02*
X0216996Y0155960D01*
X0216996Y0157495D01*
X0217763Y0158262D01*
X0216996Y0159797D02*
X0221600Y0159797D01*
X0221600Y0162866D01*
X0219298Y0161331D02*
X0219298Y0159797D01*
X0216996Y0159797D02*
X0216996Y0162866D01*
X0216996Y0164401D02*
X0217763Y0164401D01*
X0219298Y0165935D01*
X0221600Y0165935D01*
X0219298Y0165935D02*
X0217763Y0167470D01*
X0216996Y0167470D01*
X0217763Y0173608D02*
X0216996Y0174376D01*
X0216996Y0175910D01*
X0217763Y0176678D01*
X0218531Y0176678D01*
X0221600Y0173608D01*
X0221600Y0176678D01*
X0224496Y0177061D02*
X0224496Y0174759D01*
X0229100Y0174759D01*
X0229100Y0177061D01*
X0228333Y0177829D01*
X0225263Y0177829D01*
X0224496Y0177061D01*
X0224496Y0179363D02*
X0224496Y0181665D01*
X0225263Y0182433D01*
X0228333Y0182433D01*
X0229100Y0181665D01*
X0229100Y0179363D01*
X0224496Y0179363D01*
X0225263Y0183967D02*
X0228333Y0183967D01*
X0229100Y0184735D01*
X0229100Y0186269D01*
X0228333Y0187036D01*
X0225263Y0187036D01*
X0224496Y0186269D01*
X0224496Y0184735D01*
X0225263Y0183967D01*
X0224496Y0188571D02*
X0229100Y0191640D01*
X0224496Y0191640D01*
X0224496Y0188571D02*
X0229100Y0188571D01*
X0229100Y0173225D02*
X0226031Y0173225D01*
X0224496Y0171690D01*
X0226031Y0170155D01*
X0229100Y0170155D01*
X0226798Y0170155D02*
X0226798Y0173225D01*
X0225263Y0164017D02*
X0224496Y0164017D01*
X0225263Y0164017D02*
X0226798Y0162482D01*
X0229100Y0162482D01*
X0226798Y0162482D02*
X0225263Y0160948D01*
X0224496Y0160948D01*
X0226031Y0159413D02*
X0229100Y0159413D01*
X0226798Y0159413D02*
X0226798Y0156344D01*
X0226031Y0156344D02*
X0224496Y0157878D01*
X0226031Y0159413D01*
X0226031Y0156344D02*
X0229100Y0156344D01*
X0229100Y0154809D02*
X0229100Y0151740D01*
X0224496Y0151740D01*
X0225263Y0150205D02*
X0226798Y0150205D01*
X0227565Y0149438D01*
X0227565Y0147136D01*
X0227565Y0145601D02*
X0228333Y0145601D01*
X0229100Y0144834D01*
X0229100Y0143299D01*
X0228333Y0142532D01*
X0229100Y0140997D02*
X0229100Y0139463D01*
X0229100Y0140230D02*
X0224496Y0140230D01*
X0224496Y0139463D02*
X0224496Y0140997D01*
X0225263Y0142532D02*
X0226031Y0142532D01*
X0226798Y0143299D01*
X0226798Y0144834D01*
X0227565Y0145601D01*
X0229100Y0147136D02*
X0224496Y0147136D01*
X0224496Y0149438D01*
X0225263Y0150205D01*
X0225263Y0145601D02*
X0224496Y0144834D01*
X0224496Y0143299D01*
X0225263Y0142532D01*
X0225263Y0137928D02*
X0224496Y0137161D01*
X0224496Y0134859D01*
X0229100Y0134859D01*
X0229100Y0137161D01*
X0228333Y0137928D01*
X0225263Y0137928D01*
X0231996Y0138312D02*
X0232763Y0137544D01*
X0231996Y0138312D02*
X0231996Y0139846D01*
X0232763Y0140614D01*
X0233531Y0140614D01*
X0236600Y0137544D01*
X0236600Y0140614D01*
X0235833Y0142148D02*
X0232763Y0145218D01*
X0235833Y0145218D01*
X0236600Y0144450D01*
X0236600Y0142916D01*
X0235833Y0142148D01*
X0232763Y0142148D01*
X0231996Y0142916D01*
X0231996Y0144450D01*
X0232763Y0145218D01*
X0232763Y0146752D02*
X0231996Y0147520D01*
X0231996Y0149054D01*
X0232763Y0149822D01*
X0235833Y0146752D01*
X0236600Y0147520D01*
X0236600Y0149054D01*
X0235833Y0149822D01*
X0232763Y0149822D01*
X0232763Y0151356D02*
X0233531Y0151356D01*
X0234298Y0152123D01*
X0234298Y0154425D01*
X0235833Y0154425D02*
X0232763Y0154425D01*
X0231996Y0153658D01*
X0231996Y0152123D01*
X0232763Y0151356D01*
X0235833Y0151356D02*
X0236600Y0152123D01*
X0236600Y0153658D01*
X0235833Y0154425D01*
X0235833Y0146752D02*
X0232763Y0146752D01*
X0229100Y0121814D02*
X0229100Y0118745D01*
X0229100Y0120280D02*
X0224496Y0120280D01*
X0226031Y0118745D01*
X0221600Y0120663D02*
X0221600Y0122198D01*
X0220833Y0122965D01*
X0217763Y0122965D01*
X0220833Y0119896D01*
X0221600Y0120663D01*
X0220833Y0119896D02*
X0217763Y0119896D01*
X0216996Y0120663D01*
X0216996Y0122198D01*
X0217763Y0122965D01*
X0217763Y0118361D02*
X0220833Y0115292D01*
X0221600Y0115292D01*
X0220833Y0113757D02*
X0221600Y0112990D01*
X0221600Y0111455D01*
X0220833Y0110688D01*
X0217763Y0110688D01*
X0216996Y0111455D01*
X0216996Y0112990D01*
X0217763Y0113757D01*
X0219298Y0113757D02*
X0219298Y0112223D01*
X0219298Y0113757D02*
X0220833Y0113757D01*
X0216996Y0115292D02*
X0216996Y0118361D01*
X0217763Y0118361D01*
X0217763Y0104550D02*
X0216996Y0103782D01*
X0216996Y0102248D01*
X0217763Y0101480D01*
X0220833Y0101480D01*
X0221600Y0102248D01*
X0221600Y0103782D01*
X0220833Y0104550D01*
X0224496Y0101864D02*
X0226031Y0100329D01*
X0229100Y0100329D01*
X0228333Y0098795D02*
X0229100Y0098027D01*
X0229100Y0096493D01*
X0228333Y0095725D01*
X0225263Y0095725D01*
X0224496Y0096493D01*
X0224496Y0098027D01*
X0225263Y0098795D01*
X0226798Y0100329D02*
X0226798Y0103399D01*
X0226031Y0103399D02*
X0229100Y0103399D01*
X0226031Y0103399D02*
X0224496Y0101864D01*
X0221600Y0099946D02*
X0218531Y0099946D01*
X0216996Y0098411D01*
X0218531Y0096876D01*
X0221600Y0096876D01*
X0219298Y0096876D02*
X0219298Y0099946D01*
X0219298Y0095342D02*
X0217763Y0095342D01*
X0216996Y0094574D01*
X0216996Y0092272D01*
X0221600Y0092272D01*
X0220065Y0092272D02*
X0220065Y0094574D01*
X0219298Y0095342D01*
X0217763Y0090738D02*
X0216996Y0089970D01*
X0216996Y0088436D01*
X0217763Y0087668D01*
X0220833Y0087668D01*
X0221600Y0088436D01*
X0221600Y0089970D01*
X0220833Y0090738D01*
X0217763Y0090738D01*
X0216996Y0086134D02*
X0216996Y0083065D01*
X0221600Y0083065D01*
X0221600Y0086134D01*
X0219298Y0084599D02*
X0219298Y0083065D01*
X0220833Y0081530D02*
X0217763Y0081530D01*
X0216996Y0080763D01*
X0216996Y0078461D01*
X0221600Y0078461D01*
X0221600Y0080763D01*
X0220833Y0081530D01*
X0224496Y0077310D02*
X0229100Y0077310D01*
X0229100Y0068102D02*
X0229100Y0065032D01*
X0224496Y0065032D01*
X0224496Y0063498D02*
X0228333Y0063498D01*
X0229100Y0062731D01*
X0229100Y0061196D01*
X0228333Y0060429D01*
X0224496Y0060429D01*
X0224496Y0058894D02*
X0229100Y0058894D01*
X0229100Y0055825D02*
X0224496Y0055825D01*
X0226031Y0057359D01*
X0224496Y0058894D01*
D11*
X0126800Y0001800D02*
X0126800Y0249300D01*
X0046800Y0249300D01*
X0046800Y0224300D01*
X0001800Y0224300D01*
X0001800Y0284300D01*
X0246800Y0284300D01*
X0246800Y0051800D01*
X0221800Y0051800D01*
X0221800Y0001800D01*
X0126800Y0001800D01*
X0138300Y0014300D02*
X0138302Y0014418D01*
X0138308Y0014536D01*
X0138318Y0014654D01*
X0138332Y0014771D01*
X0138350Y0014888D01*
X0138372Y0015005D01*
X0138397Y0015120D01*
X0138427Y0015234D01*
X0138461Y0015348D01*
X0138498Y0015460D01*
X0138539Y0015571D01*
X0138584Y0015680D01*
X0138632Y0015788D01*
X0138684Y0015894D01*
X0138740Y0015999D01*
X0138799Y0016101D01*
X0138861Y0016201D01*
X0138927Y0016299D01*
X0138996Y0016395D01*
X0139069Y0016489D01*
X0139144Y0016580D01*
X0139223Y0016668D01*
X0139304Y0016754D01*
X0139389Y0016837D01*
X0139476Y0016917D01*
X0139565Y0016994D01*
X0139658Y0017068D01*
X0139752Y0017138D01*
X0139849Y0017206D01*
X0139949Y0017270D01*
X0140050Y0017331D01*
X0140153Y0017388D01*
X0140259Y0017442D01*
X0140366Y0017493D01*
X0140474Y0017539D01*
X0140584Y0017582D01*
X0140696Y0017621D01*
X0140809Y0017657D01*
X0140923Y0017688D01*
X0141038Y0017716D01*
X0141153Y0017740D01*
X0141270Y0017760D01*
X0141387Y0017776D01*
X0141505Y0017788D01*
X0141623Y0017796D01*
X0141741Y0017800D01*
X0141859Y0017800D01*
X0141977Y0017796D01*
X0142095Y0017788D01*
X0142213Y0017776D01*
X0142330Y0017760D01*
X0142447Y0017740D01*
X0142562Y0017716D01*
X0142677Y0017688D01*
X0142791Y0017657D01*
X0142904Y0017621D01*
X0143016Y0017582D01*
X0143126Y0017539D01*
X0143234Y0017493D01*
X0143341Y0017442D01*
X0143447Y0017388D01*
X0143550Y0017331D01*
X0143651Y0017270D01*
X0143751Y0017206D01*
X0143848Y0017138D01*
X0143942Y0017068D01*
X0144035Y0016994D01*
X0144124Y0016917D01*
X0144211Y0016837D01*
X0144296Y0016754D01*
X0144377Y0016668D01*
X0144456Y0016580D01*
X0144531Y0016489D01*
X0144604Y0016395D01*
X0144673Y0016299D01*
X0144739Y0016201D01*
X0144801Y0016101D01*
X0144860Y0015999D01*
X0144916Y0015894D01*
X0144968Y0015788D01*
X0145016Y0015680D01*
X0145061Y0015571D01*
X0145102Y0015460D01*
X0145139Y0015348D01*
X0145173Y0015234D01*
X0145203Y0015120D01*
X0145228Y0015005D01*
X0145250Y0014888D01*
X0145268Y0014771D01*
X0145282Y0014654D01*
X0145292Y0014536D01*
X0145298Y0014418D01*
X0145300Y0014300D01*
X0145298Y0014182D01*
X0145292Y0014064D01*
X0145282Y0013946D01*
X0145268Y0013829D01*
X0145250Y0013712D01*
X0145228Y0013595D01*
X0145203Y0013480D01*
X0145173Y0013366D01*
X0145139Y0013252D01*
X0145102Y0013140D01*
X0145061Y0013029D01*
X0145016Y0012920D01*
X0144968Y0012812D01*
X0144916Y0012706D01*
X0144860Y0012601D01*
X0144801Y0012499D01*
X0144739Y0012399D01*
X0144673Y0012301D01*
X0144604Y0012205D01*
X0144531Y0012111D01*
X0144456Y0012020D01*
X0144377Y0011932D01*
X0144296Y0011846D01*
X0144211Y0011763D01*
X0144124Y0011683D01*
X0144035Y0011606D01*
X0143942Y0011532D01*
X0143848Y0011462D01*
X0143751Y0011394D01*
X0143651Y0011330D01*
X0143550Y0011269D01*
X0143447Y0011212D01*
X0143341Y0011158D01*
X0143234Y0011107D01*
X0143126Y0011061D01*
X0143016Y0011018D01*
X0142904Y0010979D01*
X0142791Y0010943D01*
X0142677Y0010912D01*
X0142562Y0010884D01*
X0142447Y0010860D01*
X0142330Y0010840D01*
X0142213Y0010824D01*
X0142095Y0010812D01*
X0141977Y0010804D01*
X0141859Y0010800D01*
X0141741Y0010800D01*
X0141623Y0010804D01*
X0141505Y0010812D01*
X0141387Y0010824D01*
X0141270Y0010840D01*
X0141153Y0010860D01*
X0141038Y0010884D01*
X0140923Y0010912D01*
X0140809Y0010943D01*
X0140696Y0010979D01*
X0140584Y0011018D01*
X0140474Y0011061D01*
X0140366Y0011107D01*
X0140259Y0011158D01*
X0140153Y0011212D01*
X0140050Y0011269D01*
X0139949Y0011330D01*
X0139849Y0011394D01*
X0139752Y0011462D01*
X0139658Y0011532D01*
X0139565Y0011606D01*
X0139476Y0011683D01*
X0139389Y0011763D01*
X0139304Y0011846D01*
X0139223Y0011932D01*
X0139144Y0012020D01*
X0139069Y0012111D01*
X0138996Y0012205D01*
X0138927Y0012301D01*
X0138861Y0012399D01*
X0138799Y0012499D01*
X0138740Y0012601D01*
X0138684Y0012706D01*
X0138632Y0012812D01*
X0138584Y0012920D01*
X0138539Y0013029D01*
X0138498Y0013140D01*
X0138461Y0013252D01*
X0138427Y0013366D01*
X0138397Y0013480D01*
X0138372Y0013595D01*
X0138350Y0013712D01*
X0138332Y0013829D01*
X0138318Y0013946D01*
X0138308Y0014064D01*
X0138302Y0014182D01*
X0138300Y0014300D01*
X0198300Y0014300D02*
X0198302Y0014418D01*
X0198308Y0014536D01*
X0198318Y0014654D01*
X0198332Y0014771D01*
X0198350Y0014888D01*
X0198372Y0015005D01*
X0198397Y0015120D01*
X0198427Y0015234D01*
X0198461Y0015348D01*
X0198498Y0015460D01*
X0198539Y0015571D01*
X0198584Y0015680D01*
X0198632Y0015788D01*
X0198684Y0015894D01*
X0198740Y0015999D01*
X0198799Y0016101D01*
X0198861Y0016201D01*
X0198927Y0016299D01*
X0198996Y0016395D01*
X0199069Y0016489D01*
X0199144Y0016580D01*
X0199223Y0016668D01*
X0199304Y0016754D01*
X0199389Y0016837D01*
X0199476Y0016917D01*
X0199565Y0016994D01*
X0199658Y0017068D01*
X0199752Y0017138D01*
X0199849Y0017206D01*
X0199949Y0017270D01*
X0200050Y0017331D01*
X0200153Y0017388D01*
X0200259Y0017442D01*
X0200366Y0017493D01*
X0200474Y0017539D01*
X0200584Y0017582D01*
X0200696Y0017621D01*
X0200809Y0017657D01*
X0200923Y0017688D01*
X0201038Y0017716D01*
X0201153Y0017740D01*
X0201270Y0017760D01*
X0201387Y0017776D01*
X0201505Y0017788D01*
X0201623Y0017796D01*
X0201741Y0017800D01*
X0201859Y0017800D01*
X0201977Y0017796D01*
X0202095Y0017788D01*
X0202213Y0017776D01*
X0202330Y0017760D01*
X0202447Y0017740D01*
X0202562Y0017716D01*
X0202677Y0017688D01*
X0202791Y0017657D01*
X0202904Y0017621D01*
X0203016Y0017582D01*
X0203126Y0017539D01*
X0203234Y0017493D01*
X0203341Y0017442D01*
X0203447Y0017388D01*
X0203550Y0017331D01*
X0203651Y0017270D01*
X0203751Y0017206D01*
X0203848Y0017138D01*
X0203942Y0017068D01*
X0204035Y0016994D01*
X0204124Y0016917D01*
X0204211Y0016837D01*
X0204296Y0016754D01*
X0204377Y0016668D01*
X0204456Y0016580D01*
X0204531Y0016489D01*
X0204604Y0016395D01*
X0204673Y0016299D01*
X0204739Y0016201D01*
X0204801Y0016101D01*
X0204860Y0015999D01*
X0204916Y0015894D01*
X0204968Y0015788D01*
X0205016Y0015680D01*
X0205061Y0015571D01*
X0205102Y0015460D01*
X0205139Y0015348D01*
X0205173Y0015234D01*
X0205203Y0015120D01*
X0205228Y0015005D01*
X0205250Y0014888D01*
X0205268Y0014771D01*
X0205282Y0014654D01*
X0205292Y0014536D01*
X0205298Y0014418D01*
X0205300Y0014300D01*
X0205298Y0014182D01*
X0205292Y0014064D01*
X0205282Y0013946D01*
X0205268Y0013829D01*
X0205250Y0013712D01*
X0205228Y0013595D01*
X0205203Y0013480D01*
X0205173Y0013366D01*
X0205139Y0013252D01*
X0205102Y0013140D01*
X0205061Y0013029D01*
X0205016Y0012920D01*
X0204968Y0012812D01*
X0204916Y0012706D01*
X0204860Y0012601D01*
X0204801Y0012499D01*
X0204739Y0012399D01*
X0204673Y0012301D01*
X0204604Y0012205D01*
X0204531Y0012111D01*
X0204456Y0012020D01*
X0204377Y0011932D01*
X0204296Y0011846D01*
X0204211Y0011763D01*
X0204124Y0011683D01*
X0204035Y0011606D01*
X0203942Y0011532D01*
X0203848Y0011462D01*
X0203751Y0011394D01*
X0203651Y0011330D01*
X0203550Y0011269D01*
X0203447Y0011212D01*
X0203341Y0011158D01*
X0203234Y0011107D01*
X0203126Y0011061D01*
X0203016Y0011018D01*
X0202904Y0010979D01*
X0202791Y0010943D01*
X0202677Y0010912D01*
X0202562Y0010884D01*
X0202447Y0010860D01*
X0202330Y0010840D01*
X0202213Y0010824D01*
X0202095Y0010812D01*
X0201977Y0010804D01*
X0201859Y0010800D01*
X0201741Y0010800D01*
X0201623Y0010804D01*
X0201505Y0010812D01*
X0201387Y0010824D01*
X0201270Y0010840D01*
X0201153Y0010860D01*
X0201038Y0010884D01*
X0200923Y0010912D01*
X0200809Y0010943D01*
X0200696Y0010979D01*
X0200584Y0011018D01*
X0200474Y0011061D01*
X0200366Y0011107D01*
X0200259Y0011158D01*
X0200153Y0011212D01*
X0200050Y0011269D01*
X0199949Y0011330D01*
X0199849Y0011394D01*
X0199752Y0011462D01*
X0199658Y0011532D01*
X0199565Y0011606D01*
X0199476Y0011683D01*
X0199389Y0011763D01*
X0199304Y0011846D01*
X0199223Y0011932D01*
X0199144Y0012020D01*
X0199069Y0012111D01*
X0198996Y0012205D01*
X0198927Y0012301D01*
X0198861Y0012399D01*
X0198799Y0012499D01*
X0198740Y0012601D01*
X0198684Y0012706D01*
X0198632Y0012812D01*
X0198584Y0012920D01*
X0198539Y0013029D01*
X0198498Y0013140D01*
X0198461Y0013252D01*
X0198427Y0013366D01*
X0198397Y0013480D01*
X0198372Y0013595D01*
X0198350Y0013712D01*
X0198332Y0013829D01*
X0198318Y0013946D01*
X0198308Y0014064D01*
X0198302Y0014182D01*
X0198300Y0014300D01*
X0198300Y0174300D02*
X0198302Y0174418D01*
X0198308Y0174536D01*
X0198318Y0174654D01*
X0198332Y0174771D01*
X0198350Y0174888D01*
X0198372Y0175005D01*
X0198397Y0175120D01*
X0198427Y0175234D01*
X0198461Y0175348D01*
X0198498Y0175460D01*
X0198539Y0175571D01*
X0198584Y0175680D01*
X0198632Y0175788D01*
X0198684Y0175894D01*
X0198740Y0175999D01*
X0198799Y0176101D01*
X0198861Y0176201D01*
X0198927Y0176299D01*
X0198996Y0176395D01*
X0199069Y0176489D01*
X0199144Y0176580D01*
X0199223Y0176668D01*
X0199304Y0176754D01*
X0199389Y0176837D01*
X0199476Y0176917D01*
X0199565Y0176994D01*
X0199658Y0177068D01*
X0199752Y0177138D01*
X0199849Y0177206D01*
X0199949Y0177270D01*
X0200050Y0177331D01*
X0200153Y0177388D01*
X0200259Y0177442D01*
X0200366Y0177493D01*
X0200474Y0177539D01*
X0200584Y0177582D01*
X0200696Y0177621D01*
X0200809Y0177657D01*
X0200923Y0177688D01*
X0201038Y0177716D01*
X0201153Y0177740D01*
X0201270Y0177760D01*
X0201387Y0177776D01*
X0201505Y0177788D01*
X0201623Y0177796D01*
X0201741Y0177800D01*
X0201859Y0177800D01*
X0201977Y0177796D01*
X0202095Y0177788D01*
X0202213Y0177776D01*
X0202330Y0177760D01*
X0202447Y0177740D01*
X0202562Y0177716D01*
X0202677Y0177688D01*
X0202791Y0177657D01*
X0202904Y0177621D01*
X0203016Y0177582D01*
X0203126Y0177539D01*
X0203234Y0177493D01*
X0203341Y0177442D01*
X0203447Y0177388D01*
X0203550Y0177331D01*
X0203651Y0177270D01*
X0203751Y0177206D01*
X0203848Y0177138D01*
X0203942Y0177068D01*
X0204035Y0176994D01*
X0204124Y0176917D01*
X0204211Y0176837D01*
X0204296Y0176754D01*
X0204377Y0176668D01*
X0204456Y0176580D01*
X0204531Y0176489D01*
X0204604Y0176395D01*
X0204673Y0176299D01*
X0204739Y0176201D01*
X0204801Y0176101D01*
X0204860Y0175999D01*
X0204916Y0175894D01*
X0204968Y0175788D01*
X0205016Y0175680D01*
X0205061Y0175571D01*
X0205102Y0175460D01*
X0205139Y0175348D01*
X0205173Y0175234D01*
X0205203Y0175120D01*
X0205228Y0175005D01*
X0205250Y0174888D01*
X0205268Y0174771D01*
X0205282Y0174654D01*
X0205292Y0174536D01*
X0205298Y0174418D01*
X0205300Y0174300D01*
X0205298Y0174182D01*
X0205292Y0174064D01*
X0205282Y0173946D01*
X0205268Y0173829D01*
X0205250Y0173712D01*
X0205228Y0173595D01*
X0205203Y0173480D01*
X0205173Y0173366D01*
X0205139Y0173252D01*
X0205102Y0173140D01*
X0205061Y0173029D01*
X0205016Y0172920D01*
X0204968Y0172812D01*
X0204916Y0172706D01*
X0204860Y0172601D01*
X0204801Y0172499D01*
X0204739Y0172399D01*
X0204673Y0172301D01*
X0204604Y0172205D01*
X0204531Y0172111D01*
X0204456Y0172020D01*
X0204377Y0171932D01*
X0204296Y0171846D01*
X0204211Y0171763D01*
X0204124Y0171683D01*
X0204035Y0171606D01*
X0203942Y0171532D01*
X0203848Y0171462D01*
X0203751Y0171394D01*
X0203651Y0171330D01*
X0203550Y0171269D01*
X0203447Y0171212D01*
X0203341Y0171158D01*
X0203234Y0171107D01*
X0203126Y0171061D01*
X0203016Y0171018D01*
X0202904Y0170979D01*
X0202791Y0170943D01*
X0202677Y0170912D01*
X0202562Y0170884D01*
X0202447Y0170860D01*
X0202330Y0170840D01*
X0202213Y0170824D01*
X0202095Y0170812D01*
X0201977Y0170804D01*
X0201859Y0170800D01*
X0201741Y0170800D01*
X0201623Y0170804D01*
X0201505Y0170812D01*
X0201387Y0170824D01*
X0201270Y0170840D01*
X0201153Y0170860D01*
X0201038Y0170884D01*
X0200923Y0170912D01*
X0200809Y0170943D01*
X0200696Y0170979D01*
X0200584Y0171018D01*
X0200474Y0171061D01*
X0200366Y0171107D01*
X0200259Y0171158D01*
X0200153Y0171212D01*
X0200050Y0171269D01*
X0199949Y0171330D01*
X0199849Y0171394D01*
X0199752Y0171462D01*
X0199658Y0171532D01*
X0199565Y0171606D01*
X0199476Y0171683D01*
X0199389Y0171763D01*
X0199304Y0171846D01*
X0199223Y0171932D01*
X0199144Y0172020D01*
X0199069Y0172111D01*
X0198996Y0172205D01*
X0198927Y0172301D01*
X0198861Y0172399D01*
X0198799Y0172499D01*
X0198740Y0172601D01*
X0198684Y0172706D01*
X0198632Y0172812D01*
X0198584Y0172920D01*
X0198539Y0173029D01*
X0198498Y0173140D01*
X0198461Y0173252D01*
X0198427Y0173366D01*
X0198397Y0173480D01*
X0198372Y0173595D01*
X0198350Y0173712D01*
X0198332Y0173829D01*
X0198318Y0173946D01*
X0198308Y0174064D01*
X0198302Y0174182D01*
X0198300Y0174300D01*
X0138300Y0174300D02*
X0138302Y0174418D01*
X0138308Y0174536D01*
X0138318Y0174654D01*
X0138332Y0174771D01*
X0138350Y0174888D01*
X0138372Y0175005D01*
X0138397Y0175120D01*
X0138427Y0175234D01*
X0138461Y0175348D01*
X0138498Y0175460D01*
X0138539Y0175571D01*
X0138584Y0175680D01*
X0138632Y0175788D01*
X0138684Y0175894D01*
X0138740Y0175999D01*
X0138799Y0176101D01*
X0138861Y0176201D01*
X0138927Y0176299D01*
X0138996Y0176395D01*
X0139069Y0176489D01*
X0139144Y0176580D01*
X0139223Y0176668D01*
X0139304Y0176754D01*
X0139389Y0176837D01*
X0139476Y0176917D01*
X0139565Y0176994D01*
X0139658Y0177068D01*
X0139752Y0177138D01*
X0139849Y0177206D01*
X0139949Y0177270D01*
X0140050Y0177331D01*
X0140153Y0177388D01*
X0140259Y0177442D01*
X0140366Y0177493D01*
X0140474Y0177539D01*
X0140584Y0177582D01*
X0140696Y0177621D01*
X0140809Y0177657D01*
X0140923Y0177688D01*
X0141038Y0177716D01*
X0141153Y0177740D01*
X0141270Y0177760D01*
X0141387Y0177776D01*
X0141505Y0177788D01*
X0141623Y0177796D01*
X0141741Y0177800D01*
X0141859Y0177800D01*
X0141977Y0177796D01*
X0142095Y0177788D01*
X0142213Y0177776D01*
X0142330Y0177760D01*
X0142447Y0177740D01*
X0142562Y0177716D01*
X0142677Y0177688D01*
X0142791Y0177657D01*
X0142904Y0177621D01*
X0143016Y0177582D01*
X0143126Y0177539D01*
X0143234Y0177493D01*
X0143341Y0177442D01*
X0143447Y0177388D01*
X0143550Y0177331D01*
X0143651Y0177270D01*
X0143751Y0177206D01*
X0143848Y0177138D01*
X0143942Y0177068D01*
X0144035Y0176994D01*
X0144124Y0176917D01*
X0144211Y0176837D01*
X0144296Y0176754D01*
X0144377Y0176668D01*
X0144456Y0176580D01*
X0144531Y0176489D01*
X0144604Y0176395D01*
X0144673Y0176299D01*
X0144739Y0176201D01*
X0144801Y0176101D01*
X0144860Y0175999D01*
X0144916Y0175894D01*
X0144968Y0175788D01*
X0145016Y0175680D01*
X0145061Y0175571D01*
X0145102Y0175460D01*
X0145139Y0175348D01*
X0145173Y0175234D01*
X0145203Y0175120D01*
X0145228Y0175005D01*
X0145250Y0174888D01*
X0145268Y0174771D01*
X0145282Y0174654D01*
X0145292Y0174536D01*
X0145298Y0174418D01*
X0145300Y0174300D01*
X0145298Y0174182D01*
X0145292Y0174064D01*
X0145282Y0173946D01*
X0145268Y0173829D01*
X0145250Y0173712D01*
X0145228Y0173595D01*
X0145203Y0173480D01*
X0145173Y0173366D01*
X0145139Y0173252D01*
X0145102Y0173140D01*
X0145061Y0173029D01*
X0145016Y0172920D01*
X0144968Y0172812D01*
X0144916Y0172706D01*
X0144860Y0172601D01*
X0144801Y0172499D01*
X0144739Y0172399D01*
X0144673Y0172301D01*
X0144604Y0172205D01*
X0144531Y0172111D01*
X0144456Y0172020D01*
X0144377Y0171932D01*
X0144296Y0171846D01*
X0144211Y0171763D01*
X0144124Y0171683D01*
X0144035Y0171606D01*
X0143942Y0171532D01*
X0143848Y0171462D01*
X0143751Y0171394D01*
X0143651Y0171330D01*
X0143550Y0171269D01*
X0143447Y0171212D01*
X0143341Y0171158D01*
X0143234Y0171107D01*
X0143126Y0171061D01*
X0143016Y0171018D01*
X0142904Y0170979D01*
X0142791Y0170943D01*
X0142677Y0170912D01*
X0142562Y0170884D01*
X0142447Y0170860D01*
X0142330Y0170840D01*
X0142213Y0170824D01*
X0142095Y0170812D01*
X0141977Y0170804D01*
X0141859Y0170800D01*
X0141741Y0170800D01*
X0141623Y0170804D01*
X0141505Y0170812D01*
X0141387Y0170824D01*
X0141270Y0170840D01*
X0141153Y0170860D01*
X0141038Y0170884D01*
X0140923Y0170912D01*
X0140809Y0170943D01*
X0140696Y0170979D01*
X0140584Y0171018D01*
X0140474Y0171061D01*
X0140366Y0171107D01*
X0140259Y0171158D01*
X0140153Y0171212D01*
X0140050Y0171269D01*
X0139949Y0171330D01*
X0139849Y0171394D01*
X0139752Y0171462D01*
X0139658Y0171532D01*
X0139565Y0171606D01*
X0139476Y0171683D01*
X0139389Y0171763D01*
X0139304Y0171846D01*
X0139223Y0171932D01*
X0139144Y0172020D01*
X0139069Y0172111D01*
X0138996Y0172205D01*
X0138927Y0172301D01*
X0138861Y0172399D01*
X0138799Y0172499D01*
X0138740Y0172601D01*
X0138684Y0172706D01*
X0138632Y0172812D01*
X0138584Y0172920D01*
X0138539Y0173029D01*
X0138498Y0173140D01*
X0138461Y0173252D01*
X0138427Y0173366D01*
X0138397Y0173480D01*
X0138372Y0173595D01*
X0138350Y0173712D01*
X0138332Y0173829D01*
X0138318Y0173946D01*
X0138308Y0174064D01*
X0138302Y0174182D01*
X0138300Y0174300D01*
D12*
X0137905Y0194550D02*
X0139406Y0194550D01*
X0140156Y0195301D01*
X0140156Y0198303D01*
X0139406Y0199054D01*
X0137905Y0199054D01*
X0137154Y0198303D01*
X0137154Y0195301D01*
X0137905Y0194550D01*
X0135553Y0195301D02*
X0135553Y0198303D01*
X0134802Y0199054D01*
X0132550Y0199054D01*
X0132550Y0194550D01*
X0134802Y0194550D01*
X0135553Y0195301D01*
X0141758Y0194550D02*
X0143259Y0196051D01*
X0144760Y0194550D01*
X0144760Y0199054D01*
X0146362Y0199054D02*
X0149364Y0194550D01*
X0149364Y0199054D01*
X0146362Y0199054D02*
X0146362Y0194550D01*
X0141758Y0194550D02*
X0141758Y0199054D01*
X0137154Y0222050D02*
X0137154Y0226554D01*
X0139406Y0226554D01*
X0140156Y0225803D01*
X0140156Y0224302D01*
X0139406Y0223551D01*
X0137154Y0223551D01*
X0135553Y0222801D02*
X0134802Y0222050D01*
X0133301Y0222050D01*
X0132550Y0222801D01*
X0132550Y0226554D01*
X0135553Y0226554D02*
X0135553Y0222801D01*
X0141800Y0234300D02*
X0024300Y0234300D01*
X0024300Y0279300D01*
X0141800Y0279300D01*
X0141800Y0234300D01*
X0154300Y0232800D02*
X0004300Y0232800D01*
X0004300Y0280800D01*
X0154300Y0280800D01*
X0154300Y0232800D01*
X0182550Y0230303D02*
X0182550Y0229553D01*
X0183301Y0228802D01*
X0184802Y0228802D01*
X0185553Y0228051D01*
X0185553Y0227301D01*
X0184802Y0226550D01*
X0183301Y0226550D01*
X0182550Y0227301D01*
X0182550Y0230303D02*
X0183301Y0231054D01*
X0184802Y0231054D01*
X0185553Y0230303D01*
X0187154Y0230303D02*
X0187905Y0231054D01*
X0189406Y0231054D01*
X0190156Y0230303D01*
X0190156Y0229553D01*
X0189406Y0228802D01*
X0190156Y0228051D01*
X0190156Y0227301D01*
X0189406Y0226550D01*
X0187905Y0226550D01*
X0187154Y0227301D01*
X0188655Y0228802D02*
X0189406Y0228802D01*
X0210050Y0229302D02*
X0211551Y0229302D01*
X0210050Y0231554D02*
X0210050Y0227050D01*
X0213053Y0227050D01*
X0214654Y0227801D02*
X0215405Y0227050D01*
X0216906Y0227050D01*
X0217656Y0227801D01*
X0217656Y0228551D01*
X0216906Y0229302D01*
X0215405Y0229302D01*
X0214654Y0230053D01*
X0214654Y0230803D01*
X0215405Y0231554D01*
X0216906Y0231554D01*
X0217656Y0230803D01*
X0219258Y0230803D02*
X0219258Y0227801D01*
X0220008Y0227050D01*
X0221510Y0227050D01*
X0222260Y0227801D01*
X0222260Y0230803D02*
X0221510Y0231554D01*
X0220008Y0231554D01*
X0219258Y0230803D01*
X0213053Y0231554D02*
X0210050Y0231554D01*
X0210050Y0247050D02*
X0213053Y0247050D01*
X0214654Y0247050D02*
X0214654Y0251554D01*
X0217656Y0247050D01*
X0217656Y0251554D01*
X0219258Y0251554D02*
X0222260Y0251554D01*
X0220759Y0251554D02*
X0220759Y0247050D01*
X0223862Y0247050D02*
X0223862Y0251554D01*
X0226864Y0251554D01*
X0228466Y0251554D02*
X0230718Y0251554D01*
X0231468Y0250803D01*
X0231468Y0249302D01*
X0230718Y0248551D01*
X0228466Y0248551D01*
X0229967Y0248551D02*
X0231468Y0247050D01*
X0228466Y0247050D02*
X0228466Y0251554D01*
X0225363Y0249302D02*
X0223862Y0249302D01*
X0223862Y0247050D02*
X0226864Y0247050D01*
X0213053Y0251554D02*
X0210050Y0251554D01*
X0210050Y0247050D01*
X0210050Y0249302D02*
X0211551Y0249302D01*
X0210801Y0281550D02*
X0210050Y0282301D01*
X0210801Y0281550D02*
X0212302Y0281550D01*
X0213053Y0282301D01*
X0213053Y0283051D01*
X0212302Y0283802D01*
X0210801Y0283802D01*
X0210050Y0284553D01*
X0210050Y0285303D01*
X0210801Y0286054D01*
X0212302Y0286054D01*
X0213053Y0285303D01*
X0214654Y0284553D02*
X0216155Y0286054D01*
X0216155Y0281550D01*
X0214654Y0281550D02*
X0217656Y0281550D01*
X0189406Y0203554D02*
X0187905Y0203554D01*
X0187154Y0202803D01*
X0185553Y0202803D02*
X0184802Y0203554D01*
X0183301Y0203554D01*
X0182550Y0202803D01*
X0182550Y0202053D01*
X0183301Y0201302D01*
X0184802Y0201302D01*
X0185553Y0200551D01*
X0185553Y0199801D01*
X0184802Y0199050D01*
X0183301Y0199050D01*
X0182550Y0199801D01*
X0187154Y0199050D02*
X0190156Y0202053D01*
X0190156Y0202803D01*
X0189406Y0203554D01*
X0190156Y0199050D02*
X0187154Y0199050D01*
X0209842Y0188803D02*
X0209842Y0188053D01*
X0210593Y0187302D01*
X0212094Y0187302D01*
X0212845Y0186551D01*
X0212845Y0185801D01*
X0212094Y0185050D01*
X0210593Y0185050D01*
X0209842Y0185801D01*
X0209842Y0188803D02*
X0210593Y0189554D01*
X0212094Y0189554D01*
X0212845Y0188803D01*
X0214446Y0187302D02*
X0217449Y0187302D01*
X0216698Y0185050D02*
X0216698Y0189554D01*
X0214446Y0187302D01*
X0120300Y0248800D02*
X0031800Y0248800D01*
X0031800Y0270800D01*
X0120300Y0270800D01*
X0120300Y0248800D01*
D13*
X0164300Y0238800D02*
X0164300Y0237800D01*
X0174300Y0237800D01*
X0174300Y0238800D01*
X0173800Y0215800D02*
X0164300Y0215800D01*
X0164300Y0214800D01*
X0164300Y0211300D02*
X0164300Y0210300D01*
X0174300Y0210300D01*
X0174300Y0211300D01*
X0173800Y0214800D02*
X0173800Y0215800D01*
X0173800Y0188300D02*
X0164300Y0188300D01*
X0164300Y0187300D01*
X0173800Y0187300D02*
X0173800Y0188300D01*
X0202300Y0202300D02*
X0203300Y0202300D01*
X0203300Y0211800D01*
X0202300Y0211800D01*
X0225300Y0211800D02*
X0225300Y0201800D01*
X0226300Y0201800D01*
X0226300Y0211800D02*
X0225300Y0211800D01*
X0226300Y0254800D02*
X0226300Y0255800D01*
X0216800Y0255800D01*
X0216800Y0254800D01*
X0216800Y0277800D02*
X0226800Y0277800D01*
X0226800Y0278800D01*
X0216800Y0278800D02*
X0216800Y0277800D01*
X0021793Y0272268D02*
X0021793Y0270400D01*
X0021793Y0271801D02*
X0019925Y0271801D01*
X0019925Y0272268D02*
X0020859Y0273202D01*
X0021793Y0272268D01*
X0019925Y0272268D02*
X0019925Y0270400D01*
X0019031Y0270867D02*
X0019031Y0272735D01*
X0018564Y0273202D01*
X0017162Y0273202D01*
X0017162Y0270400D01*
X0018564Y0270400D01*
X0019031Y0270867D01*
X0016268Y0270867D02*
X0015801Y0270400D01*
X0014867Y0270400D01*
X0014400Y0270867D01*
X0014867Y0271801D02*
X0015801Y0271801D01*
X0016268Y0271334D01*
X0016268Y0270867D01*
X0014867Y0271801D02*
X0014400Y0272268D01*
X0014400Y0272735D01*
X0014867Y0273202D01*
X0015801Y0273202D01*
X0016268Y0272735D01*
X0015801Y0263202D02*
X0014867Y0263202D01*
X0014400Y0262735D01*
X0014400Y0262268D01*
X0014867Y0261801D01*
X0015801Y0261801D01*
X0016268Y0261334D01*
X0016268Y0260867D01*
X0015801Y0260400D01*
X0014867Y0260400D01*
X0014400Y0260867D01*
X0016268Y0262735D02*
X0015801Y0263202D01*
X0017162Y0262735D02*
X0017162Y0260867D01*
X0017629Y0260400D01*
X0018564Y0260400D01*
X0019031Y0260867D01*
X0019925Y0260400D02*
X0019925Y0263202D01*
X0019031Y0262735D02*
X0018564Y0263202D01*
X0017629Y0263202D01*
X0017162Y0262735D01*
X0019925Y0260400D02*
X0021793Y0260400D01*
X0021326Y0253202D02*
X0020392Y0253202D01*
X0019925Y0252735D01*
X0019925Y0250867D01*
X0020392Y0250400D01*
X0021326Y0250400D01*
X0021793Y0250867D01*
X0021793Y0252735D02*
X0021326Y0253202D01*
X0019031Y0252735D02*
X0018564Y0253202D01*
X0017629Y0253202D01*
X0017162Y0252735D01*
X0017162Y0250867D01*
X0017629Y0250400D01*
X0018564Y0250400D01*
X0019031Y0250867D01*
X0016268Y0251334D02*
X0016268Y0253202D01*
X0016268Y0251334D02*
X0015334Y0250400D01*
X0014400Y0251334D01*
X0014400Y0253202D01*
X0014867Y0243202D02*
X0014400Y0242735D01*
X0014400Y0240867D01*
X0014867Y0240400D01*
X0015801Y0240400D01*
X0016268Y0240867D01*
X0016268Y0241801D01*
X0015334Y0241801D01*
X0016268Y0242735D02*
X0015801Y0243202D01*
X0014867Y0243202D01*
X0017162Y0243202D02*
X0017162Y0240400D01*
X0019031Y0240400D02*
X0017162Y0243202D01*
X0019031Y0243202D02*
X0019031Y0240400D01*
X0019925Y0240400D02*
X0019925Y0243202D01*
X0021326Y0243202D01*
X0021793Y0242735D01*
X0021793Y0240867D01*
X0021326Y0240400D01*
X0019925Y0240400D01*
D14*
X0021300Y0239800D02*
X0021300Y0238800D01*
X0021300Y0239800D02*
X0022300Y0239800D01*
X0021300Y0234800D02*
X0021300Y0233800D01*
X0022300Y0233800D01*
X0026300Y0233800D02*
X0027300Y0233800D01*
X0027300Y0234800D01*
X0027300Y0238800D02*
X0027300Y0239800D01*
X0026300Y0239800D01*
X0026300Y0243800D02*
X0027300Y0243800D01*
X0027300Y0244800D01*
X0027300Y0248800D02*
X0027300Y0249800D01*
X0026300Y0249800D01*
X0026300Y0253800D02*
X0027300Y0253800D01*
X0027300Y0254800D01*
X0027300Y0258800D02*
X0027300Y0259800D01*
X0026300Y0259800D01*
X0026300Y0263800D02*
X0027300Y0263800D01*
X0027300Y0264800D01*
X0027300Y0268800D02*
X0027300Y0269800D01*
X0026300Y0269800D01*
X0026300Y0273800D02*
X0027300Y0273800D01*
X0027300Y0274800D01*
X0027300Y0278800D02*
X0027300Y0279800D01*
X0026300Y0279800D01*
X0022300Y0279800D02*
X0021300Y0279800D01*
X0021300Y0278800D01*
X0021300Y0274800D02*
X0021300Y0273800D01*
X0022300Y0273800D01*
X0022300Y0269800D02*
X0021300Y0269800D01*
X0021300Y0268800D01*
X0021300Y0264800D02*
X0021300Y0263800D01*
X0022300Y0263800D01*
X0022300Y0259800D02*
X0021300Y0259800D01*
X0021300Y0258800D01*
X0021300Y0254800D02*
X0021300Y0253800D01*
X0022300Y0253800D01*
X0022300Y0249800D02*
X0021300Y0249800D01*
X0021300Y0248800D01*
X0021300Y0244800D02*
X0021300Y0243800D01*
X0022300Y0243800D01*
X0151300Y0243800D02*
X0152300Y0243800D01*
X0151300Y0243800D02*
X0151300Y0244800D01*
X0151300Y0248800D02*
X0151300Y0249800D01*
X0152300Y0249800D01*
X0156300Y0249800D02*
X0157300Y0249800D01*
X0157300Y0248800D01*
X0161300Y0248800D02*
X0161300Y0249800D01*
X0162300Y0249800D01*
X0166300Y0249800D02*
X0167300Y0249800D01*
X0167300Y0248800D01*
X0171300Y0248800D02*
X0171300Y0249800D01*
X0172300Y0249800D01*
X0176300Y0249800D02*
X0177300Y0249800D01*
X0177300Y0248800D01*
X0181300Y0248800D02*
X0181300Y0249800D01*
X0182300Y0249800D01*
X0186300Y0249800D02*
X0187300Y0249800D01*
X0187300Y0248800D01*
X0191300Y0248800D02*
X0191300Y0249800D01*
X0192300Y0249800D01*
X0196300Y0249800D02*
X0197300Y0249800D01*
X0197300Y0248800D01*
X0197300Y0244800D02*
X0197300Y0243800D01*
X0196300Y0243800D01*
X0192300Y0243800D02*
X0191300Y0243800D01*
X0191300Y0244800D01*
X0187300Y0244800D02*
X0187300Y0243800D01*
X0186300Y0243800D01*
X0182300Y0243800D02*
X0181300Y0243800D01*
X0181300Y0244800D01*
X0177300Y0244800D02*
X0177300Y0243800D01*
X0176300Y0243800D01*
X0172300Y0243800D02*
X0171300Y0243800D01*
X0171300Y0244800D01*
X0167300Y0244800D02*
X0167300Y0243800D01*
X0166300Y0243800D01*
X0162300Y0243800D02*
X0161300Y0243800D01*
X0161300Y0244800D01*
X0157300Y0244800D02*
X0157300Y0243800D01*
X0156300Y0243800D01*
X0160800Y0238800D02*
X0164300Y0238800D01*
X0174300Y0238800D01*
X0177800Y0238800D01*
X0181300Y0230800D02*
X0181300Y0229800D01*
X0182300Y0229800D01*
X0182300Y0223800D01*
X0181300Y0223800D01*
X0181300Y0222800D01*
X0177800Y0214800D02*
X0173800Y0214800D01*
X0164300Y0214800D01*
X0160800Y0214800D01*
X0160800Y0211300D02*
X0164300Y0211300D01*
X0174300Y0211300D01*
X0177800Y0211300D01*
X0181300Y0203300D02*
X0181300Y0202300D01*
X0182300Y0202300D01*
X0182300Y0196300D01*
X0181300Y0196300D01*
X0181300Y0195300D01*
X0177800Y0187300D02*
X0173800Y0187300D01*
X0164300Y0187300D01*
X0160800Y0187300D01*
X0157300Y0195300D02*
X0157300Y0196300D01*
X0156300Y0196300D01*
X0156300Y0202300D01*
X0157300Y0202300D01*
X0157300Y0203300D01*
X0168300Y0199300D02*
X0168302Y0199363D01*
X0168308Y0199425D01*
X0168318Y0199487D01*
X0168331Y0199549D01*
X0168349Y0199609D01*
X0168370Y0199668D01*
X0168395Y0199726D01*
X0168424Y0199782D01*
X0168456Y0199836D01*
X0168491Y0199888D01*
X0168529Y0199937D01*
X0168571Y0199985D01*
X0168615Y0200029D01*
X0168663Y0200071D01*
X0168712Y0200109D01*
X0168764Y0200144D01*
X0168818Y0200176D01*
X0168874Y0200205D01*
X0168932Y0200230D01*
X0168991Y0200251D01*
X0169051Y0200269D01*
X0169113Y0200282D01*
X0169175Y0200292D01*
X0169237Y0200298D01*
X0169300Y0200300D01*
X0169363Y0200298D01*
X0169425Y0200292D01*
X0169487Y0200282D01*
X0169549Y0200269D01*
X0169609Y0200251D01*
X0169668Y0200230D01*
X0169726Y0200205D01*
X0169782Y0200176D01*
X0169836Y0200144D01*
X0169888Y0200109D01*
X0169937Y0200071D01*
X0169985Y0200029D01*
X0170029Y0199985D01*
X0170071Y0199937D01*
X0170109Y0199888D01*
X0170144Y0199836D01*
X0170176Y0199782D01*
X0170205Y0199726D01*
X0170230Y0199668D01*
X0170251Y0199609D01*
X0170269Y0199549D01*
X0170282Y0199487D01*
X0170292Y0199425D01*
X0170298Y0199363D01*
X0170300Y0199300D01*
X0170298Y0199237D01*
X0170292Y0199175D01*
X0170282Y0199113D01*
X0170269Y0199051D01*
X0170251Y0198991D01*
X0170230Y0198932D01*
X0170205Y0198874D01*
X0170176Y0198818D01*
X0170144Y0198764D01*
X0170109Y0198712D01*
X0170071Y0198663D01*
X0170029Y0198615D01*
X0169985Y0198571D01*
X0169937Y0198529D01*
X0169888Y0198491D01*
X0169836Y0198456D01*
X0169782Y0198424D01*
X0169726Y0198395D01*
X0169668Y0198370D01*
X0169609Y0198349D01*
X0169549Y0198331D01*
X0169487Y0198318D01*
X0169425Y0198308D01*
X0169363Y0198302D01*
X0169300Y0198300D01*
X0169237Y0198302D01*
X0169175Y0198308D01*
X0169113Y0198318D01*
X0169051Y0198331D01*
X0168991Y0198349D01*
X0168932Y0198370D01*
X0168874Y0198395D01*
X0168818Y0198424D01*
X0168764Y0198456D01*
X0168712Y0198491D01*
X0168663Y0198529D01*
X0168615Y0198571D01*
X0168571Y0198615D01*
X0168529Y0198663D01*
X0168491Y0198712D01*
X0168456Y0198764D01*
X0168424Y0198818D01*
X0168395Y0198874D01*
X0168370Y0198932D01*
X0168349Y0198991D01*
X0168331Y0199051D01*
X0168318Y0199113D01*
X0168308Y0199175D01*
X0168302Y0199237D01*
X0168300Y0199300D01*
X0162300Y0199300D02*
X0162302Y0199472D01*
X0162308Y0199643D01*
X0162319Y0199815D01*
X0162334Y0199986D01*
X0162353Y0200157D01*
X0162376Y0200327D01*
X0162403Y0200497D01*
X0162435Y0200666D01*
X0162470Y0200834D01*
X0162510Y0201001D01*
X0162554Y0201167D01*
X0162601Y0201332D01*
X0162653Y0201496D01*
X0162709Y0201658D01*
X0162769Y0201819D01*
X0162833Y0201979D01*
X0162901Y0202137D01*
X0162972Y0202293D01*
X0163047Y0202447D01*
X0163127Y0202600D01*
X0163209Y0202750D01*
X0163296Y0202899D01*
X0163386Y0203045D01*
X0163480Y0203189D01*
X0163577Y0203331D01*
X0163678Y0203470D01*
X0163782Y0203607D01*
X0163889Y0203741D01*
X0164000Y0203872D01*
X0164113Y0204001D01*
X0164230Y0204127D01*
X0164350Y0204250D01*
X0164473Y0204370D01*
X0164599Y0204487D01*
X0164728Y0204600D01*
X0164859Y0204711D01*
X0164993Y0204818D01*
X0165130Y0204922D01*
X0165269Y0205023D01*
X0165411Y0205120D01*
X0165555Y0205214D01*
X0165701Y0205304D01*
X0165850Y0205391D01*
X0166000Y0205473D01*
X0166153Y0205553D01*
X0166307Y0205628D01*
X0166463Y0205699D01*
X0166621Y0205767D01*
X0166781Y0205831D01*
X0166942Y0205891D01*
X0167104Y0205947D01*
X0167268Y0205999D01*
X0167433Y0206046D01*
X0167599Y0206090D01*
X0167766Y0206130D01*
X0167934Y0206165D01*
X0168103Y0206197D01*
X0168273Y0206224D01*
X0168443Y0206247D01*
X0168614Y0206266D01*
X0168785Y0206281D01*
X0168957Y0206292D01*
X0169128Y0206298D01*
X0169300Y0206300D01*
X0169472Y0206298D01*
X0169643Y0206292D01*
X0169815Y0206281D01*
X0169986Y0206266D01*
X0170157Y0206247D01*
X0170327Y0206224D01*
X0170497Y0206197D01*
X0170666Y0206165D01*
X0170834Y0206130D01*
X0171001Y0206090D01*
X0171167Y0206046D01*
X0171332Y0205999D01*
X0171496Y0205947D01*
X0171658Y0205891D01*
X0171819Y0205831D01*
X0171979Y0205767D01*
X0172137Y0205699D01*
X0172293Y0205628D01*
X0172447Y0205553D01*
X0172600Y0205473D01*
X0172750Y0205391D01*
X0172899Y0205304D01*
X0173045Y0205214D01*
X0173189Y0205120D01*
X0173331Y0205023D01*
X0173470Y0204922D01*
X0173607Y0204818D01*
X0173741Y0204711D01*
X0173872Y0204600D01*
X0174001Y0204487D01*
X0174127Y0204370D01*
X0174250Y0204250D01*
X0174370Y0204127D01*
X0174487Y0204001D01*
X0174600Y0203872D01*
X0174711Y0203741D01*
X0174818Y0203607D01*
X0174922Y0203470D01*
X0175023Y0203331D01*
X0175120Y0203189D01*
X0175214Y0203045D01*
X0175304Y0202899D01*
X0175391Y0202750D01*
X0175473Y0202600D01*
X0175553Y0202447D01*
X0175628Y0202293D01*
X0175699Y0202137D01*
X0175767Y0201979D01*
X0175831Y0201819D01*
X0175891Y0201658D01*
X0175947Y0201496D01*
X0175999Y0201332D01*
X0176046Y0201167D01*
X0176090Y0201001D01*
X0176130Y0200834D01*
X0176165Y0200666D01*
X0176197Y0200497D01*
X0176224Y0200327D01*
X0176247Y0200157D01*
X0176266Y0199986D01*
X0176281Y0199815D01*
X0176292Y0199643D01*
X0176298Y0199472D01*
X0176300Y0199300D01*
X0176298Y0199128D01*
X0176292Y0198957D01*
X0176281Y0198785D01*
X0176266Y0198614D01*
X0176247Y0198443D01*
X0176224Y0198273D01*
X0176197Y0198103D01*
X0176165Y0197934D01*
X0176130Y0197766D01*
X0176090Y0197599D01*
X0176046Y0197433D01*
X0175999Y0197268D01*
X0175947Y0197104D01*
X0175891Y0196942D01*
X0175831Y0196781D01*
X0175767Y0196621D01*
X0175699Y0196463D01*
X0175628Y0196307D01*
X0175553Y0196153D01*
X0175473Y0196000D01*
X0175391Y0195850D01*
X0175304Y0195701D01*
X0175214Y0195555D01*
X0175120Y0195411D01*
X0175023Y0195269D01*
X0174922Y0195130D01*
X0174818Y0194993D01*
X0174711Y0194859D01*
X0174600Y0194728D01*
X0174487Y0194599D01*
X0174370Y0194473D01*
X0174250Y0194350D01*
X0174127Y0194230D01*
X0174001Y0194113D01*
X0173872Y0194000D01*
X0173741Y0193889D01*
X0173607Y0193782D01*
X0173470Y0193678D01*
X0173331Y0193577D01*
X0173189Y0193480D01*
X0173045Y0193386D01*
X0172899Y0193296D01*
X0172750Y0193209D01*
X0172600Y0193127D01*
X0172447Y0193047D01*
X0172293Y0192972D01*
X0172137Y0192901D01*
X0171979Y0192833D01*
X0171819Y0192769D01*
X0171658Y0192709D01*
X0171496Y0192653D01*
X0171332Y0192601D01*
X0171167Y0192554D01*
X0171001Y0192510D01*
X0170834Y0192470D01*
X0170666Y0192435D01*
X0170497Y0192403D01*
X0170327Y0192376D01*
X0170157Y0192353D01*
X0169986Y0192334D01*
X0169815Y0192319D01*
X0169643Y0192308D01*
X0169472Y0192302D01*
X0169300Y0192300D01*
X0169128Y0192302D01*
X0168957Y0192308D01*
X0168785Y0192319D01*
X0168614Y0192334D01*
X0168443Y0192353D01*
X0168273Y0192376D01*
X0168103Y0192403D01*
X0167934Y0192435D01*
X0167766Y0192470D01*
X0167599Y0192510D01*
X0167433Y0192554D01*
X0167268Y0192601D01*
X0167104Y0192653D01*
X0166942Y0192709D01*
X0166781Y0192769D01*
X0166621Y0192833D01*
X0166463Y0192901D01*
X0166307Y0192972D01*
X0166153Y0193047D01*
X0166000Y0193127D01*
X0165850Y0193209D01*
X0165701Y0193296D01*
X0165555Y0193386D01*
X0165411Y0193480D01*
X0165269Y0193577D01*
X0165130Y0193678D01*
X0164993Y0193782D01*
X0164859Y0193889D01*
X0164728Y0194000D01*
X0164599Y0194113D01*
X0164473Y0194230D01*
X0164350Y0194350D01*
X0164230Y0194473D01*
X0164113Y0194599D01*
X0164000Y0194728D01*
X0163889Y0194859D01*
X0163782Y0194993D01*
X0163678Y0195130D01*
X0163577Y0195269D01*
X0163480Y0195411D01*
X0163386Y0195555D01*
X0163296Y0195701D01*
X0163209Y0195850D01*
X0163127Y0196000D01*
X0163047Y0196153D01*
X0162972Y0196307D01*
X0162901Y0196463D01*
X0162833Y0196621D01*
X0162769Y0196781D01*
X0162709Y0196942D01*
X0162653Y0197104D01*
X0162601Y0197268D01*
X0162554Y0197433D01*
X0162510Y0197599D01*
X0162470Y0197766D01*
X0162435Y0197934D01*
X0162403Y0198103D01*
X0162376Y0198273D01*
X0162353Y0198443D01*
X0162334Y0198614D01*
X0162319Y0198785D01*
X0162308Y0198957D01*
X0162302Y0199128D01*
X0162300Y0199300D01*
X0157300Y0222800D02*
X0157300Y0223800D01*
X0156300Y0223800D01*
X0156300Y0229800D01*
X0157300Y0229800D01*
X0157300Y0230800D01*
X0168300Y0226800D02*
X0168302Y0226863D01*
X0168308Y0226925D01*
X0168318Y0226987D01*
X0168331Y0227049D01*
X0168349Y0227109D01*
X0168370Y0227168D01*
X0168395Y0227226D01*
X0168424Y0227282D01*
X0168456Y0227336D01*
X0168491Y0227388D01*
X0168529Y0227437D01*
X0168571Y0227485D01*
X0168615Y0227529D01*
X0168663Y0227571D01*
X0168712Y0227609D01*
X0168764Y0227644D01*
X0168818Y0227676D01*
X0168874Y0227705D01*
X0168932Y0227730D01*
X0168991Y0227751D01*
X0169051Y0227769D01*
X0169113Y0227782D01*
X0169175Y0227792D01*
X0169237Y0227798D01*
X0169300Y0227800D01*
X0169363Y0227798D01*
X0169425Y0227792D01*
X0169487Y0227782D01*
X0169549Y0227769D01*
X0169609Y0227751D01*
X0169668Y0227730D01*
X0169726Y0227705D01*
X0169782Y0227676D01*
X0169836Y0227644D01*
X0169888Y0227609D01*
X0169937Y0227571D01*
X0169985Y0227529D01*
X0170029Y0227485D01*
X0170071Y0227437D01*
X0170109Y0227388D01*
X0170144Y0227336D01*
X0170176Y0227282D01*
X0170205Y0227226D01*
X0170230Y0227168D01*
X0170251Y0227109D01*
X0170269Y0227049D01*
X0170282Y0226987D01*
X0170292Y0226925D01*
X0170298Y0226863D01*
X0170300Y0226800D01*
X0170298Y0226737D01*
X0170292Y0226675D01*
X0170282Y0226613D01*
X0170269Y0226551D01*
X0170251Y0226491D01*
X0170230Y0226432D01*
X0170205Y0226374D01*
X0170176Y0226318D01*
X0170144Y0226264D01*
X0170109Y0226212D01*
X0170071Y0226163D01*
X0170029Y0226115D01*
X0169985Y0226071D01*
X0169937Y0226029D01*
X0169888Y0225991D01*
X0169836Y0225956D01*
X0169782Y0225924D01*
X0169726Y0225895D01*
X0169668Y0225870D01*
X0169609Y0225849D01*
X0169549Y0225831D01*
X0169487Y0225818D01*
X0169425Y0225808D01*
X0169363Y0225802D01*
X0169300Y0225800D01*
X0169237Y0225802D01*
X0169175Y0225808D01*
X0169113Y0225818D01*
X0169051Y0225831D01*
X0168991Y0225849D01*
X0168932Y0225870D01*
X0168874Y0225895D01*
X0168818Y0225924D01*
X0168764Y0225956D01*
X0168712Y0225991D01*
X0168663Y0226029D01*
X0168615Y0226071D01*
X0168571Y0226115D01*
X0168529Y0226163D01*
X0168491Y0226212D01*
X0168456Y0226264D01*
X0168424Y0226318D01*
X0168395Y0226374D01*
X0168370Y0226432D01*
X0168349Y0226491D01*
X0168331Y0226551D01*
X0168318Y0226613D01*
X0168308Y0226675D01*
X0168302Y0226737D01*
X0168300Y0226800D01*
X0162300Y0226800D02*
X0162302Y0226972D01*
X0162308Y0227143D01*
X0162319Y0227315D01*
X0162334Y0227486D01*
X0162353Y0227657D01*
X0162376Y0227827D01*
X0162403Y0227997D01*
X0162435Y0228166D01*
X0162470Y0228334D01*
X0162510Y0228501D01*
X0162554Y0228667D01*
X0162601Y0228832D01*
X0162653Y0228996D01*
X0162709Y0229158D01*
X0162769Y0229319D01*
X0162833Y0229479D01*
X0162901Y0229637D01*
X0162972Y0229793D01*
X0163047Y0229947D01*
X0163127Y0230100D01*
X0163209Y0230250D01*
X0163296Y0230399D01*
X0163386Y0230545D01*
X0163480Y0230689D01*
X0163577Y0230831D01*
X0163678Y0230970D01*
X0163782Y0231107D01*
X0163889Y0231241D01*
X0164000Y0231372D01*
X0164113Y0231501D01*
X0164230Y0231627D01*
X0164350Y0231750D01*
X0164473Y0231870D01*
X0164599Y0231987D01*
X0164728Y0232100D01*
X0164859Y0232211D01*
X0164993Y0232318D01*
X0165130Y0232422D01*
X0165269Y0232523D01*
X0165411Y0232620D01*
X0165555Y0232714D01*
X0165701Y0232804D01*
X0165850Y0232891D01*
X0166000Y0232973D01*
X0166153Y0233053D01*
X0166307Y0233128D01*
X0166463Y0233199D01*
X0166621Y0233267D01*
X0166781Y0233331D01*
X0166942Y0233391D01*
X0167104Y0233447D01*
X0167268Y0233499D01*
X0167433Y0233546D01*
X0167599Y0233590D01*
X0167766Y0233630D01*
X0167934Y0233665D01*
X0168103Y0233697D01*
X0168273Y0233724D01*
X0168443Y0233747D01*
X0168614Y0233766D01*
X0168785Y0233781D01*
X0168957Y0233792D01*
X0169128Y0233798D01*
X0169300Y0233800D01*
X0169472Y0233798D01*
X0169643Y0233792D01*
X0169815Y0233781D01*
X0169986Y0233766D01*
X0170157Y0233747D01*
X0170327Y0233724D01*
X0170497Y0233697D01*
X0170666Y0233665D01*
X0170834Y0233630D01*
X0171001Y0233590D01*
X0171167Y0233546D01*
X0171332Y0233499D01*
X0171496Y0233447D01*
X0171658Y0233391D01*
X0171819Y0233331D01*
X0171979Y0233267D01*
X0172137Y0233199D01*
X0172293Y0233128D01*
X0172447Y0233053D01*
X0172600Y0232973D01*
X0172750Y0232891D01*
X0172899Y0232804D01*
X0173045Y0232714D01*
X0173189Y0232620D01*
X0173331Y0232523D01*
X0173470Y0232422D01*
X0173607Y0232318D01*
X0173741Y0232211D01*
X0173872Y0232100D01*
X0174001Y0231987D01*
X0174127Y0231870D01*
X0174250Y0231750D01*
X0174370Y0231627D01*
X0174487Y0231501D01*
X0174600Y0231372D01*
X0174711Y0231241D01*
X0174818Y0231107D01*
X0174922Y0230970D01*
X0175023Y0230831D01*
X0175120Y0230689D01*
X0175214Y0230545D01*
X0175304Y0230399D01*
X0175391Y0230250D01*
X0175473Y0230100D01*
X0175553Y0229947D01*
X0175628Y0229793D01*
X0175699Y0229637D01*
X0175767Y0229479D01*
X0175831Y0229319D01*
X0175891Y0229158D01*
X0175947Y0228996D01*
X0175999Y0228832D01*
X0176046Y0228667D01*
X0176090Y0228501D01*
X0176130Y0228334D01*
X0176165Y0228166D01*
X0176197Y0227997D01*
X0176224Y0227827D01*
X0176247Y0227657D01*
X0176266Y0227486D01*
X0176281Y0227315D01*
X0176292Y0227143D01*
X0176298Y0226972D01*
X0176300Y0226800D01*
X0176298Y0226628D01*
X0176292Y0226457D01*
X0176281Y0226285D01*
X0176266Y0226114D01*
X0176247Y0225943D01*
X0176224Y0225773D01*
X0176197Y0225603D01*
X0176165Y0225434D01*
X0176130Y0225266D01*
X0176090Y0225099D01*
X0176046Y0224933D01*
X0175999Y0224768D01*
X0175947Y0224604D01*
X0175891Y0224442D01*
X0175831Y0224281D01*
X0175767Y0224121D01*
X0175699Y0223963D01*
X0175628Y0223807D01*
X0175553Y0223653D01*
X0175473Y0223500D01*
X0175391Y0223350D01*
X0175304Y0223201D01*
X0175214Y0223055D01*
X0175120Y0222911D01*
X0175023Y0222769D01*
X0174922Y0222630D01*
X0174818Y0222493D01*
X0174711Y0222359D01*
X0174600Y0222228D01*
X0174487Y0222099D01*
X0174370Y0221973D01*
X0174250Y0221850D01*
X0174127Y0221730D01*
X0174001Y0221613D01*
X0173872Y0221500D01*
X0173741Y0221389D01*
X0173607Y0221282D01*
X0173470Y0221178D01*
X0173331Y0221077D01*
X0173189Y0220980D01*
X0173045Y0220886D01*
X0172899Y0220796D01*
X0172750Y0220709D01*
X0172600Y0220627D01*
X0172447Y0220547D01*
X0172293Y0220472D01*
X0172137Y0220401D01*
X0171979Y0220333D01*
X0171819Y0220269D01*
X0171658Y0220209D01*
X0171496Y0220153D01*
X0171332Y0220101D01*
X0171167Y0220054D01*
X0171001Y0220010D01*
X0170834Y0219970D01*
X0170666Y0219935D01*
X0170497Y0219903D01*
X0170327Y0219876D01*
X0170157Y0219853D01*
X0169986Y0219834D01*
X0169815Y0219819D01*
X0169643Y0219808D01*
X0169472Y0219802D01*
X0169300Y0219800D01*
X0169128Y0219802D01*
X0168957Y0219808D01*
X0168785Y0219819D01*
X0168614Y0219834D01*
X0168443Y0219853D01*
X0168273Y0219876D01*
X0168103Y0219903D01*
X0167934Y0219935D01*
X0167766Y0219970D01*
X0167599Y0220010D01*
X0167433Y0220054D01*
X0167268Y0220101D01*
X0167104Y0220153D01*
X0166942Y0220209D01*
X0166781Y0220269D01*
X0166621Y0220333D01*
X0166463Y0220401D01*
X0166307Y0220472D01*
X0166153Y0220547D01*
X0166000Y0220627D01*
X0165850Y0220709D01*
X0165701Y0220796D01*
X0165555Y0220886D01*
X0165411Y0220980D01*
X0165269Y0221077D01*
X0165130Y0221178D01*
X0164993Y0221282D01*
X0164859Y0221389D01*
X0164728Y0221500D01*
X0164599Y0221613D01*
X0164473Y0221730D01*
X0164350Y0221850D01*
X0164230Y0221973D01*
X0164113Y0222099D01*
X0164000Y0222228D01*
X0163889Y0222359D01*
X0163782Y0222493D01*
X0163678Y0222630D01*
X0163577Y0222769D01*
X0163480Y0222911D01*
X0163386Y0223055D01*
X0163296Y0223201D01*
X0163209Y0223350D01*
X0163127Y0223500D01*
X0163047Y0223653D01*
X0162972Y0223807D01*
X0162901Y0223963D01*
X0162833Y0224121D01*
X0162769Y0224281D01*
X0162709Y0224442D01*
X0162653Y0224604D01*
X0162601Y0224768D01*
X0162554Y0224933D01*
X0162510Y0225099D01*
X0162470Y0225266D01*
X0162435Y0225434D01*
X0162403Y0225603D01*
X0162376Y0225773D01*
X0162353Y0225943D01*
X0162334Y0226114D01*
X0162319Y0226285D01*
X0162308Y0226457D01*
X0162302Y0226628D01*
X0162300Y0226800D01*
X0191300Y0224800D02*
X0191300Y0223800D01*
X0192300Y0223800D01*
X0192300Y0219800D02*
X0191300Y0219800D01*
X0191300Y0218800D01*
X0191300Y0214800D02*
X0191300Y0213800D01*
X0192300Y0213800D01*
X0192300Y0209800D02*
X0191300Y0209800D01*
X0191300Y0208800D01*
X0191300Y0204800D02*
X0191300Y0203800D01*
X0192300Y0203800D01*
X0192300Y0199800D02*
X0191300Y0199800D01*
X0191300Y0198800D01*
X0191300Y0194800D02*
X0191300Y0193800D01*
X0192300Y0193800D01*
X0196300Y0193800D02*
X0197300Y0193800D01*
X0197300Y0194800D01*
X0197300Y0198800D02*
X0197300Y0199800D01*
X0196300Y0199800D01*
X0196300Y0203800D02*
X0197300Y0203800D01*
X0197300Y0204800D01*
X0197300Y0208800D02*
X0197300Y0209800D01*
X0196300Y0209800D01*
X0196300Y0213800D02*
X0197300Y0213800D01*
X0197300Y0214800D01*
X0197300Y0218800D02*
X0197300Y0219800D01*
X0196300Y0219800D01*
X0196300Y0223800D02*
X0197300Y0223800D01*
X0197300Y0224800D01*
X0197300Y0228800D02*
X0197300Y0229800D01*
X0196300Y0229800D01*
X0196300Y0233800D02*
X0197300Y0233800D01*
X0197300Y0234800D01*
X0197300Y0238800D02*
X0197300Y0239800D01*
X0196300Y0239800D01*
X0192300Y0239800D02*
X0191300Y0239800D01*
X0191300Y0238800D01*
X0191300Y0234800D02*
X0191300Y0233800D01*
X0192300Y0233800D01*
X0192300Y0229800D02*
X0191300Y0229800D01*
X0191300Y0228800D01*
X0202300Y0215300D02*
X0202300Y0211800D01*
X0202300Y0202300D01*
X0202300Y0198300D01*
X0210300Y0194800D02*
X0211300Y0194800D01*
X0211300Y0193800D01*
X0217300Y0193800D01*
X0217300Y0194800D01*
X0218300Y0194800D01*
X0226300Y0198300D02*
X0226300Y0201800D01*
X0226300Y0211800D01*
X0226300Y0215300D01*
X0231300Y0214800D02*
X0231300Y0213800D01*
X0232300Y0213800D01*
X0232300Y0209800D02*
X0231300Y0209800D01*
X0231300Y0208800D01*
X0231300Y0204800D02*
X0231300Y0203800D01*
X0232300Y0203800D01*
X0232300Y0199800D02*
X0231300Y0199800D01*
X0231300Y0198800D01*
X0231300Y0194800D02*
X0231300Y0193800D01*
X0232300Y0193800D01*
X0236300Y0193800D02*
X0237300Y0193800D01*
X0237300Y0194800D01*
X0237300Y0198800D02*
X0237300Y0199800D01*
X0236300Y0199800D01*
X0236300Y0203800D02*
X0237300Y0203800D01*
X0237300Y0204800D01*
X0237300Y0208800D02*
X0237300Y0209800D01*
X0236300Y0209800D01*
X0236300Y0213800D02*
X0237300Y0213800D01*
X0237300Y0214800D01*
X0237300Y0218800D02*
X0237300Y0219800D01*
X0236300Y0219800D01*
X0236300Y0223800D02*
X0237300Y0223800D01*
X0237300Y0224800D01*
X0237300Y0228800D02*
X0237300Y0229800D01*
X0236300Y0229800D01*
X0236300Y0233800D02*
X0237300Y0233800D01*
X0237300Y0234800D01*
X0237300Y0238800D02*
X0237300Y0239800D01*
X0236300Y0239800D01*
X0232300Y0239800D02*
X0231300Y0239800D01*
X0231300Y0238800D01*
X0231300Y0234800D02*
X0231300Y0233800D01*
X0232300Y0233800D01*
X0232300Y0229800D02*
X0231300Y0229800D01*
X0231300Y0228800D01*
X0231300Y0224800D02*
X0231300Y0223800D01*
X0232300Y0223800D01*
X0232300Y0219800D02*
X0231300Y0219800D01*
X0231300Y0218800D01*
X0218300Y0218800D02*
X0217300Y0218800D01*
X0217300Y0219800D01*
X0211300Y0219800D01*
X0211300Y0218800D01*
X0210300Y0218800D01*
X0213300Y0206800D02*
X0213302Y0206863D01*
X0213308Y0206925D01*
X0213318Y0206987D01*
X0213331Y0207049D01*
X0213349Y0207109D01*
X0213370Y0207168D01*
X0213395Y0207226D01*
X0213424Y0207282D01*
X0213456Y0207336D01*
X0213491Y0207388D01*
X0213529Y0207437D01*
X0213571Y0207485D01*
X0213615Y0207529D01*
X0213663Y0207571D01*
X0213712Y0207609D01*
X0213764Y0207644D01*
X0213818Y0207676D01*
X0213874Y0207705D01*
X0213932Y0207730D01*
X0213991Y0207751D01*
X0214051Y0207769D01*
X0214113Y0207782D01*
X0214175Y0207792D01*
X0214237Y0207798D01*
X0214300Y0207800D01*
X0214363Y0207798D01*
X0214425Y0207792D01*
X0214487Y0207782D01*
X0214549Y0207769D01*
X0214609Y0207751D01*
X0214668Y0207730D01*
X0214726Y0207705D01*
X0214782Y0207676D01*
X0214836Y0207644D01*
X0214888Y0207609D01*
X0214937Y0207571D01*
X0214985Y0207529D01*
X0215029Y0207485D01*
X0215071Y0207437D01*
X0215109Y0207388D01*
X0215144Y0207336D01*
X0215176Y0207282D01*
X0215205Y0207226D01*
X0215230Y0207168D01*
X0215251Y0207109D01*
X0215269Y0207049D01*
X0215282Y0206987D01*
X0215292Y0206925D01*
X0215298Y0206863D01*
X0215300Y0206800D01*
X0215298Y0206737D01*
X0215292Y0206675D01*
X0215282Y0206613D01*
X0215269Y0206551D01*
X0215251Y0206491D01*
X0215230Y0206432D01*
X0215205Y0206374D01*
X0215176Y0206318D01*
X0215144Y0206264D01*
X0215109Y0206212D01*
X0215071Y0206163D01*
X0215029Y0206115D01*
X0214985Y0206071D01*
X0214937Y0206029D01*
X0214888Y0205991D01*
X0214836Y0205956D01*
X0214782Y0205924D01*
X0214726Y0205895D01*
X0214668Y0205870D01*
X0214609Y0205849D01*
X0214549Y0205831D01*
X0214487Y0205818D01*
X0214425Y0205808D01*
X0214363Y0205802D01*
X0214300Y0205800D01*
X0214237Y0205802D01*
X0214175Y0205808D01*
X0214113Y0205818D01*
X0214051Y0205831D01*
X0213991Y0205849D01*
X0213932Y0205870D01*
X0213874Y0205895D01*
X0213818Y0205924D01*
X0213764Y0205956D01*
X0213712Y0205991D01*
X0213663Y0206029D01*
X0213615Y0206071D01*
X0213571Y0206115D01*
X0213529Y0206163D01*
X0213491Y0206212D01*
X0213456Y0206264D01*
X0213424Y0206318D01*
X0213395Y0206374D01*
X0213370Y0206432D01*
X0213349Y0206491D01*
X0213331Y0206551D01*
X0213318Y0206613D01*
X0213308Y0206675D01*
X0213302Y0206737D01*
X0213300Y0206800D01*
X0207300Y0206800D02*
X0207302Y0206972D01*
X0207308Y0207143D01*
X0207319Y0207315D01*
X0207334Y0207486D01*
X0207353Y0207657D01*
X0207376Y0207827D01*
X0207403Y0207997D01*
X0207435Y0208166D01*
X0207470Y0208334D01*
X0207510Y0208501D01*
X0207554Y0208667D01*
X0207601Y0208832D01*
X0207653Y0208996D01*
X0207709Y0209158D01*
X0207769Y0209319D01*
X0207833Y0209479D01*
X0207901Y0209637D01*
X0207972Y0209793D01*
X0208047Y0209947D01*
X0208127Y0210100D01*
X0208209Y0210250D01*
X0208296Y0210399D01*
X0208386Y0210545D01*
X0208480Y0210689D01*
X0208577Y0210831D01*
X0208678Y0210970D01*
X0208782Y0211107D01*
X0208889Y0211241D01*
X0209000Y0211372D01*
X0209113Y0211501D01*
X0209230Y0211627D01*
X0209350Y0211750D01*
X0209473Y0211870D01*
X0209599Y0211987D01*
X0209728Y0212100D01*
X0209859Y0212211D01*
X0209993Y0212318D01*
X0210130Y0212422D01*
X0210269Y0212523D01*
X0210411Y0212620D01*
X0210555Y0212714D01*
X0210701Y0212804D01*
X0210850Y0212891D01*
X0211000Y0212973D01*
X0211153Y0213053D01*
X0211307Y0213128D01*
X0211463Y0213199D01*
X0211621Y0213267D01*
X0211781Y0213331D01*
X0211942Y0213391D01*
X0212104Y0213447D01*
X0212268Y0213499D01*
X0212433Y0213546D01*
X0212599Y0213590D01*
X0212766Y0213630D01*
X0212934Y0213665D01*
X0213103Y0213697D01*
X0213273Y0213724D01*
X0213443Y0213747D01*
X0213614Y0213766D01*
X0213785Y0213781D01*
X0213957Y0213792D01*
X0214128Y0213798D01*
X0214300Y0213800D01*
X0214472Y0213798D01*
X0214643Y0213792D01*
X0214815Y0213781D01*
X0214986Y0213766D01*
X0215157Y0213747D01*
X0215327Y0213724D01*
X0215497Y0213697D01*
X0215666Y0213665D01*
X0215834Y0213630D01*
X0216001Y0213590D01*
X0216167Y0213546D01*
X0216332Y0213499D01*
X0216496Y0213447D01*
X0216658Y0213391D01*
X0216819Y0213331D01*
X0216979Y0213267D01*
X0217137Y0213199D01*
X0217293Y0213128D01*
X0217447Y0213053D01*
X0217600Y0212973D01*
X0217750Y0212891D01*
X0217899Y0212804D01*
X0218045Y0212714D01*
X0218189Y0212620D01*
X0218331Y0212523D01*
X0218470Y0212422D01*
X0218607Y0212318D01*
X0218741Y0212211D01*
X0218872Y0212100D01*
X0219001Y0211987D01*
X0219127Y0211870D01*
X0219250Y0211750D01*
X0219370Y0211627D01*
X0219487Y0211501D01*
X0219600Y0211372D01*
X0219711Y0211241D01*
X0219818Y0211107D01*
X0219922Y0210970D01*
X0220023Y0210831D01*
X0220120Y0210689D01*
X0220214Y0210545D01*
X0220304Y0210399D01*
X0220391Y0210250D01*
X0220473Y0210100D01*
X0220553Y0209947D01*
X0220628Y0209793D01*
X0220699Y0209637D01*
X0220767Y0209479D01*
X0220831Y0209319D01*
X0220891Y0209158D01*
X0220947Y0208996D01*
X0220999Y0208832D01*
X0221046Y0208667D01*
X0221090Y0208501D01*
X0221130Y0208334D01*
X0221165Y0208166D01*
X0221197Y0207997D01*
X0221224Y0207827D01*
X0221247Y0207657D01*
X0221266Y0207486D01*
X0221281Y0207315D01*
X0221292Y0207143D01*
X0221298Y0206972D01*
X0221300Y0206800D01*
X0221298Y0206628D01*
X0221292Y0206457D01*
X0221281Y0206285D01*
X0221266Y0206114D01*
X0221247Y0205943D01*
X0221224Y0205773D01*
X0221197Y0205603D01*
X0221165Y0205434D01*
X0221130Y0205266D01*
X0221090Y0205099D01*
X0221046Y0204933D01*
X0220999Y0204768D01*
X0220947Y0204604D01*
X0220891Y0204442D01*
X0220831Y0204281D01*
X0220767Y0204121D01*
X0220699Y0203963D01*
X0220628Y0203807D01*
X0220553Y0203653D01*
X0220473Y0203500D01*
X0220391Y0203350D01*
X0220304Y0203201D01*
X0220214Y0203055D01*
X0220120Y0202911D01*
X0220023Y0202769D01*
X0219922Y0202630D01*
X0219818Y0202493D01*
X0219711Y0202359D01*
X0219600Y0202228D01*
X0219487Y0202099D01*
X0219370Y0201973D01*
X0219250Y0201850D01*
X0219127Y0201730D01*
X0219001Y0201613D01*
X0218872Y0201500D01*
X0218741Y0201389D01*
X0218607Y0201282D01*
X0218470Y0201178D01*
X0218331Y0201077D01*
X0218189Y0200980D01*
X0218045Y0200886D01*
X0217899Y0200796D01*
X0217750Y0200709D01*
X0217600Y0200627D01*
X0217447Y0200547D01*
X0217293Y0200472D01*
X0217137Y0200401D01*
X0216979Y0200333D01*
X0216819Y0200269D01*
X0216658Y0200209D01*
X0216496Y0200153D01*
X0216332Y0200101D01*
X0216167Y0200054D01*
X0216001Y0200010D01*
X0215834Y0199970D01*
X0215666Y0199935D01*
X0215497Y0199903D01*
X0215327Y0199876D01*
X0215157Y0199853D01*
X0214986Y0199834D01*
X0214815Y0199819D01*
X0214643Y0199808D01*
X0214472Y0199802D01*
X0214300Y0199800D01*
X0214128Y0199802D01*
X0213957Y0199808D01*
X0213785Y0199819D01*
X0213614Y0199834D01*
X0213443Y0199853D01*
X0213273Y0199876D01*
X0213103Y0199903D01*
X0212934Y0199935D01*
X0212766Y0199970D01*
X0212599Y0200010D01*
X0212433Y0200054D01*
X0212268Y0200101D01*
X0212104Y0200153D01*
X0211942Y0200209D01*
X0211781Y0200269D01*
X0211621Y0200333D01*
X0211463Y0200401D01*
X0211307Y0200472D01*
X0211153Y0200547D01*
X0211000Y0200627D01*
X0210850Y0200709D01*
X0210701Y0200796D01*
X0210555Y0200886D01*
X0210411Y0200980D01*
X0210269Y0201077D01*
X0210130Y0201178D01*
X0209993Y0201282D01*
X0209859Y0201389D01*
X0209728Y0201500D01*
X0209599Y0201613D01*
X0209473Y0201730D01*
X0209350Y0201850D01*
X0209230Y0201973D01*
X0209113Y0202099D01*
X0209000Y0202228D01*
X0208889Y0202359D01*
X0208782Y0202493D01*
X0208678Y0202630D01*
X0208577Y0202769D01*
X0208480Y0202911D01*
X0208386Y0203055D01*
X0208296Y0203201D01*
X0208209Y0203350D01*
X0208127Y0203500D01*
X0208047Y0203653D01*
X0207972Y0203807D01*
X0207901Y0203963D01*
X0207833Y0204121D01*
X0207769Y0204281D01*
X0207709Y0204442D01*
X0207653Y0204604D01*
X0207601Y0204768D01*
X0207554Y0204933D01*
X0207510Y0205099D01*
X0207470Y0205266D01*
X0207435Y0205434D01*
X0207403Y0205603D01*
X0207376Y0205773D01*
X0207353Y0205943D01*
X0207334Y0206114D01*
X0207319Y0206285D01*
X0207308Y0206457D01*
X0207302Y0206628D01*
X0207300Y0206800D01*
X0213300Y0254800D02*
X0216800Y0254800D01*
X0226300Y0254800D01*
X0230300Y0254800D01*
X0233800Y0262800D02*
X0233800Y0263800D01*
X0234800Y0263800D01*
X0234800Y0269800D01*
X0233800Y0269800D01*
X0233800Y0270800D01*
X0230300Y0278800D02*
X0226800Y0278800D01*
X0216800Y0278800D01*
X0213300Y0278800D01*
X0209800Y0270800D02*
X0209800Y0269800D01*
X0208800Y0269800D01*
X0208800Y0263800D01*
X0209800Y0263800D01*
X0209800Y0262800D01*
X0220800Y0266800D02*
X0220802Y0266863D01*
X0220808Y0266925D01*
X0220818Y0266987D01*
X0220831Y0267049D01*
X0220849Y0267109D01*
X0220870Y0267168D01*
X0220895Y0267226D01*
X0220924Y0267282D01*
X0220956Y0267336D01*
X0220991Y0267388D01*
X0221029Y0267437D01*
X0221071Y0267485D01*
X0221115Y0267529D01*
X0221163Y0267571D01*
X0221212Y0267609D01*
X0221264Y0267644D01*
X0221318Y0267676D01*
X0221374Y0267705D01*
X0221432Y0267730D01*
X0221491Y0267751D01*
X0221551Y0267769D01*
X0221613Y0267782D01*
X0221675Y0267792D01*
X0221737Y0267798D01*
X0221800Y0267800D01*
X0221863Y0267798D01*
X0221925Y0267792D01*
X0221987Y0267782D01*
X0222049Y0267769D01*
X0222109Y0267751D01*
X0222168Y0267730D01*
X0222226Y0267705D01*
X0222282Y0267676D01*
X0222336Y0267644D01*
X0222388Y0267609D01*
X0222437Y0267571D01*
X0222485Y0267529D01*
X0222529Y0267485D01*
X0222571Y0267437D01*
X0222609Y0267388D01*
X0222644Y0267336D01*
X0222676Y0267282D01*
X0222705Y0267226D01*
X0222730Y0267168D01*
X0222751Y0267109D01*
X0222769Y0267049D01*
X0222782Y0266987D01*
X0222792Y0266925D01*
X0222798Y0266863D01*
X0222800Y0266800D01*
X0222798Y0266737D01*
X0222792Y0266675D01*
X0222782Y0266613D01*
X0222769Y0266551D01*
X0222751Y0266491D01*
X0222730Y0266432D01*
X0222705Y0266374D01*
X0222676Y0266318D01*
X0222644Y0266264D01*
X0222609Y0266212D01*
X0222571Y0266163D01*
X0222529Y0266115D01*
X0222485Y0266071D01*
X0222437Y0266029D01*
X0222388Y0265991D01*
X0222336Y0265956D01*
X0222282Y0265924D01*
X0222226Y0265895D01*
X0222168Y0265870D01*
X0222109Y0265849D01*
X0222049Y0265831D01*
X0221987Y0265818D01*
X0221925Y0265808D01*
X0221863Y0265802D01*
X0221800Y0265800D01*
X0221737Y0265802D01*
X0221675Y0265808D01*
X0221613Y0265818D01*
X0221551Y0265831D01*
X0221491Y0265849D01*
X0221432Y0265870D01*
X0221374Y0265895D01*
X0221318Y0265924D01*
X0221264Y0265956D01*
X0221212Y0265991D01*
X0221163Y0266029D01*
X0221115Y0266071D01*
X0221071Y0266115D01*
X0221029Y0266163D01*
X0220991Y0266212D01*
X0220956Y0266264D01*
X0220924Y0266318D01*
X0220895Y0266374D01*
X0220870Y0266432D01*
X0220849Y0266491D01*
X0220831Y0266551D01*
X0220818Y0266613D01*
X0220808Y0266675D01*
X0220802Y0266737D01*
X0220800Y0266800D01*
X0214800Y0266800D02*
X0214802Y0266972D01*
X0214808Y0267143D01*
X0214819Y0267315D01*
X0214834Y0267486D01*
X0214853Y0267657D01*
X0214876Y0267827D01*
X0214903Y0267997D01*
X0214935Y0268166D01*
X0214970Y0268334D01*
X0215010Y0268501D01*
X0215054Y0268667D01*
X0215101Y0268832D01*
X0215153Y0268996D01*
X0215209Y0269158D01*
X0215269Y0269319D01*
X0215333Y0269479D01*
X0215401Y0269637D01*
X0215472Y0269793D01*
X0215547Y0269947D01*
X0215627Y0270100D01*
X0215709Y0270250D01*
X0215796Y0270399D01*
X0215886Y0270545D01*
X0215980Y0270689D01*
X0216077Y0270831D01*
X0216178Y0270970D01*
X0216282Y0271107D01*
X0216389Y0271241D01*
X0216500Y0271372D01*
X0216613Y0271501D01*
X0216730Y0271627D01*
X0216850Y0271750D01*
X0216973Y0271870D01*
X0217099Y0271987D01*
X0217228Y0272100D01*
X0217359Y0272211D01*
X0217493Y0272318D01*
X0217630Y0272422D01*
X0217769Y0272523D01*
X0217911Y0272620D01*
X0218055Y0272714D01*
X0218201Y0272804D01*
X0218350Y0272891D01*
X0218500Y0272973D01*
X0218653Y0273053D01*
X0218807Y0273128D01*
X0218963Y0273199D01*
X0219121Y0273267D01*
X0219281Y0273331D01*
X0219442Y0273391D01*
X0219604Y0273447D01*
X0219768Y0273499D01*
X0219933Y0273546D01*
X0220099Y0273590D01*
X0220266Y0273630D01*
X0220434Y0273665D01*
X0220603Y0273697D01*
X0220773Y0273724D01*
X0220943Y0273747D01*
X0221114Y0273766D01*
X0221285Y0273781D01*
X0221457Y0273792D01*
X0221628Y0273798D01*
X0221800Y0273800D01*
X0221972Y0273798D01*
X0222143Y0273792D01*
X0222315Y0273781D01*
X0222486Y0273766D01*
X0222657Y0273747D01*
X0222827Y0273724D01*
X0222997Y0273697D01*
X0223166Y0273665D01*
X0223334Y0273630D01*
X0223501Y0273590D01*
X0223667Y0273546D01*
X0223832Y0273499D01*
X0223996Y0273447D01*
X0224158Y0273391D01*
X0224319Y0273331D01*
X0224479Y0273267D01*
X0224637Y0273199D01*
X0224793Y0273128D01*
X0224947Y0273053D01*
X0225100Y0272973D01*
X0225250Y0272891D01*
X0225399Y0272804D01*
X0225545Y0272714D01*
X0225689Y0272620D01*
X0225831Y0272523D01*
X0225970Y0272422D01*
X0226107Y0272318D01*
X0226241Y0272211D01*
X0226372Y0272100D01*
X0226501Y0271987D01*
X0226627Y0271870D01*
X0226750Y0271750D01*
X0226870Y0271627D01*
X0226987Y0271501D01*
X0227100Y0271372D01*
X0227211Y0271241D01*
X0227318Y0271107D01*
X0227422Y0270970D01*
X0227523Y0270831D01*
X0227620Y0270689D01*
X0227714Y0270545D01*
X0227804Y0270399D01*
X0227891Y0270250D01*
X0227973Y0270100D01*
X0228053Y0269947D01*
X0228128Y0269793D01*
X0228199Y0269637D01*
X0228267Y0269479D01*
X0228331Y0269319D01*
X0228391Y0269158D01*
X0228447Y0268996D01*
X0228499Y0268832D01*
X0228546Y0268667D01*
X0228590Y0268501D01*
X0228630Y0268334D01*
X0228665Y0268166D01*
X0228697Y0267997D01*
X0228724Y0267827D01*
X0228747Y0267657D01*
X0228766Y0267486D01*
X0228781Y0267315D01*
X0228792Y0267143D01*
X0228798Y0266972D01*
X0228800Y0266800D01*
X0228798Y0266628D01*
X0228792Y0266457D01*
X0228781Y0266285D01*
X0228766Y0266114D01*
X0228747Y0265943D01*
X0228724Y0265773D01*
X0228697Y0265603D01*
X0228665Y0265434D01*
X0228630Y0265266D01*
X0228590Y0265099D01*
X0228546Y0264933D01*
X0228499Y0264768D01*
X0228447Y0264604D01*
X0228391Y0264442D01*
X0228331Y0264281D01*
X0228267Y0264121D01*
X0228199Y0263963D01*
X0228128Y0263807D01*
X0228053Y0263653D01*
X0227973Y0263500D01*
X0227891Y0263350D01*
X0227804Y0263201D01*
X0227714Y0263055D01*
X0227620Y0262911D01*
X0227523Y0262769D01*
X0227422Y0262630D01*
X0227318Y0262493D01*
X0227211Y0262359D01*
X0227100Y0262228D01*
X0226987Y0262099D01*
X0226870Y0261973D01*
X0226750Y0261850D01*
X0226627Y0261730D01*
X0226501Y0261613D01*
X0226372Y0261500D01*
X0226241Y0261389D01*
X0226107Y0261282D01*
X0225970Y0261178D01*
X0225831Y0261077D01*
X0225689Y0260980D01*
X0225545Y0260886D01*
X0225399Y0260796D01*
X0225250Y0260709D01*
X0225100Y0260627D01*
X0224947Y0260547D01*
X0224793Y0260472D01*
X0224637Y0260401D01*
X0224479Y0260333D01*
X0224319Y0260269D01*
X0224158Y0260209D01*
X0223996Y0260153D01*
X0223832Y0260101D01*
X0223667Y0260054D01*
X0223501Y0260010D01*
X0223334Y0259970D01*
X0223166Y0259935D01*
X0222997Y0259903D01*
X0222827Y0259876D01*
X0222657Y0259853D01*
X0222486Y0259834D01*
X0222315Y0259819D01*
X0222143Y0259808D01*
X0221972Y0259802D01*
X0221800Y0259800D01*
X0221628Y0259802D01*
X0221457Y0259808D01*
X0221285Y0259819D01*
X0221114Y0259834D01*
X0220943Y0259853D01*
X0220773Y0259876D01*
X0220603Y0259903D01*
X0220434Y0259935D01*
X0220266Y0259970D01*
X0220099Y0260010D01*
X0219933Y0260054D01*
X0219768Y0260101D01*
X0219604Y0260153D01*
X0219442Y0260209D01*
X0219281Y0260269D01*
X0219121Y0260333D01*
X0218963Y0260401D01*
X0218807Y0260472D01*
X0218653Y0260547D01*
X0218500Y0260627D01*
X0218350Y0260709D01*
X0218201Y0260796D01*
X0218055Y0260886D01*
X0217911Y0260980D01*
X0217769Y0261077D01*
X0217630Y0261178D01*
X0217493Y0261282D01*
X0217359Y0261389D01*
X0217228Y0261500D01*
X0217099Y0261613D01*
X0216973Y0261730D01*
X0216850Y0261850D01*
X0216730Y0261973D01*
X0216613Y0262099D01*
X0216500Y0262228D01*
X0216389Y0262359D01*
X0216282Y0262493D01*
X0216178Y0262630D01*
X0216077Y0262769D01*
X0215980Y0262911D01*
X0215886Y0263055D01*
X0215796Y0263201D01*
X0215709Y0263350D01*
X0215627Y0263500D01*
X0215547Y0263653D01*
X0215472Y0263807D01*
X0215401Y0263963D01*
X0215333Y0264121D01*
X0215269Y0264281D01*
X0215209Y0264442D01*
X0215153Y0264604D01*
X0215101Y0264768D01*
X0215054Y0264933D01*
X0215010Y0265099D01*
X0214970Y0265266D01*
X0214935Y0265434D01*
X0214903Y0265603D01*
X0214876Y0265773D01*
X0214853Y0265943D01*
X0214834Y0266114D01*
X0214819Y0266285D01*
X0214808Y0266457D01*
X0214802Y0266628D01*
X0214800Y0266800D01*
X0197300Y0273800D02*
X0197300Y0274800D01*
X0197300Y0273800D02*
X0196300Y0273800D01*
X0192300Y0273800D02*
X0191300Y0273800D01*
X0191300Y0274800D01*
X0187300Y0274800D02*
X0187300Y0273800D01*
X0186300Y0273800D01*
X0182300Y0273800D02*
X0181300Y0273800D01*
X0181300Y0274800D01*
X0177300Y0274800D02*
X0177300Y0273800D01*
X0176300Y0273800D01*
X0172300Y0273800D02*
X0171300Y0273800D01*
X0171300Y0274800D01*
X0167300Y0274800D02*
X0167300Y0273800D01*
X0166300Y0273800D01*
X0162300Y0273800D02*
X0161300Y0273800D01*
X0161300Y0274800D01*
X0157300Y0274800D02*
X0157300Y0273800D01*
X0156300Y0273800D01*
X0152300Y0273800D02*
X0151300Y0273800D01*
X0151300Y0274800D01*
X0151300Y0278800D02*
X0151300Y0279800D01*
X0152300Y0279800D01*
X0156300Y0279800D02*
X0157300Y0279800D01*
X0157300Y0278800D01*
X0161300Y0278800D02*
X0161300Y0279800D01*
X0162300Y0279800D01*
X0166300Y0279800D02*
X0167300Y0279800D01*
X0167300Y0278800D01*
X0171300Y0278800D02*
X0171300Y0279800D01*
X0172300Y0279800D01*
X0176300Y0279800D02*
X0177300Y0279800D01*
X0177300Y0278800D01*
X0181300Y0278800D02*
X0181300Y0279800D01*
X0182300Y0279800D01*
X0186300Y0279800D02*
X0187300Y0279800D01*
X0187300Y0278800D01*
X0191300Y0278800D02*
X0191300Y0279800D01*
X0192300Y0279800D01*
X0196300Y0279800D02*
X0197300Y0279800D01*
X0197300Y0278800D01*
M02*
