G75*
%MOIN*%
%OFA0B0*%
%FSLAX25Y25*%
%IPPOS*%
%LPD*%
%AMOC8*
5,1,8,0,0,1.08239X$1,22.5*
%
%ADD10C,0.00000*%
%ADD11C,0.00200*%
D10*
X0067595Y0047713D02*
X0067595Y0372634D01*
X0312516Y0372634D01*
X0312516Y0047713D01*
X0312517Y0047713D02*
X0312543Y0047410D01*
X0312563Y0047106D01*
X0312574Y0046802D01*
X0312579Y0046498D01*
X0312576Y0046194D01*
X0312566Y0045889D01*
X0312548Y0045586D01*
X0312524Y0045282D01*
X0312491Y0044980D01*
X0312452Y0044678D01*
X0312405Y0044377D01*
X0312351Y0044078D01*
X0312290Y0043780D01*
X0312221Y0043483D01*
X0312146Y0043189D01*
X0312063Y0042896D01*
X0311973Y0042605D01*
X0311877Y0042317D01*
X0311773Y0042030D01*
X0311663Y0041747D01*
X0311545Y0041466D01*
X0311421Y0041188D01*
X0311290Y0040914D01*
X0311153Y0040642D01*
X0311009Y0040374D01*
X0310859Y0040109D01*
X0310702Y0039849D01*
X0310539Y0039592D01*
X0310370Y0039339D01*
X0310195Y0039090D01*
X0310013Y0038845D01*
X0309826Y0038605D01*
X0309634Y0038370D01*
X0309435Y0038139D01*
X0309231Y0037913D01*
X0309022Y0037692D01*
X0308808Y0037477D01*
X0308588Y0037266D01*
X0308363Y0037061D01*
X0308133Y0036861D01*
X0307899Y0036667D01*
X0307660Y0036479D01*
X0307417Y0036296D01*
X0307169Y0036120D01*
X0306917Y0035949D01*
X0306661Y0035785D01*
X0306401Y0035627D01*
X0306137Y0035475D01*
X0305870Y0035330D01*
X0305599Y0035191D01*
X0305325Y0035058D01*
X0305048Y0034933D01*
X0304768Y0034814D01*
X0304485Y0034702D01*
X0304199Y0034596D01*
X0303911Y0034498D01*
X0303621Y0034407D01*
X0303329Y0034322D01*
X0303034Y0034245D01*
X0302738Y0034175D01*
X0302440Y0034112D01*
X0302141Y0034057D01*
X0301841Y0034008D01*
X0301539Y0033967D01*
X0301237Y0033933D01*
X0078875Y0033933D01*
X0078568Y0033968D01*
X0078262Y0034010D01*
X0077957Y0034059D01*
X0077653Y0034116D01*
X0077351Y0034180D01*
X0077050Y0034252D01*
X0076751Y0034331D01*
X0076455Y0034418D01*
X0076160Y0034512D01*
X0075868Y0034612D01*
X0075578Y0034720D01*
X0075292Y0034836D01*
X0075008Y0034958D01*
X0074727Y0035087D01*
X0074449Y0035223D01*
X0074175Y0035365D01*
X0073905Y0035515D01*
X0073638Y0035671D01*
X0073375Y0035833D01*
X0073116Y0036002D01*
X0072861Y0036177D01*
X0072611Y0036358D01*
X0072365Y0036546D01*
X0072124Y0036739D01*
X0071888Y0036939D01*
X0071657Y0037144D01*
X0071431Y0037354D01*
X0071210Y0037570D01*
X0070994Y0037792D01*
X0070784Y0038018D01*
X0070580Y0038250D01*
X0070381Y0038487D01*
X0070188Y0038729D01*
X0070002Y0038975D01*
X0069821Y0039225D01*
X0069646Y0039480D01*
X0069478Y0039740D01*
X0069316Y0040003D01*
X0069161Y0040270D01*
X0069012Y0040541D01*
X0068870Y0040816D01*
X0068735Y0041094D01*
X0068607Y0041375D01*
X0068485Y0041659D01*
X0068371Y0041946D01*
X0068264Y0042236D01*
X0068164Y0042528D01*
X0068071Y0042823D01*
X0067985Y0043120D01*
X0067907Y0043419D01*
X0067835Y0043720D01*
X0067772Y0044022D01*
X0067716Y0044326D01*
X0067667Y0044631D01*
X0067626Y0044937D01*
X0067592Y0045245D01*
X0067566Y0045553D01*
X0067547Y0045861D01*
X0067536Y0046170D01*
X0067533Y0046479D01*
X0067537Y0046788D01*
X0067549Y0047097D01*
X0067568Y0047405D01*
X0067595Y0047713D01*
X0074937Y0132358D02*
X0074940Y0132600D01*
X0074949Y0132841D01*
X0074964Y0133082D01*
X0074984Y0133323D01*
X0075011Y0133563D01*
X0075044Y0133802D01*
X0075082Y0134041D01*
X0075126Y0134278D01*
X0075176Y0134515D01*
X0075232Y0134750D01*
X0075294Y0134983D01*
X0075361Y0135215D01*
X0075434Y0135446D01*
X0075512Y0135674D01*
X0075597Y0135900D01*
X0075686Y0136125D01*
X0075781Y0136347D01*
X0075882Y0136566D01*
X0075988Y0136784D01*
X0076099Y0136998D01*
X0076216Y0137210D01*
X0076337Y0137418D01*
X0076464Y0137624D01*
X0076596Y0137826D01*
X0076733Y0138026D01*
X0076874Y0138221D01*
X0077020Y0138414D01*
X0077171Y0138602D01*
X0077327Y0138787D01*
X0077487Y0138968D01*
X0077651Y0139145D01*
X0077820Y0139318D01*
X0077993Y0139487D01*
X0078170Y0139651D01*
X0078351Y0139811D01*
X0078536Y0139967D01*
X0078724Y0140118D01*
X0078917Y0140264D01*
X0079112Y0140405D01*
X0079312Y0140542D01*
X0079514Y0140674D01*
X0079720Y0140801D01*
X0079928Y0140922D01*
X0080140Y0141039D01*
X0080354Y0141150D01*
X0080572Y0141256D01*
X0080791Y0141357D01*
X0081013Y0141452D01*
X0081238Y0141541D01*
X0081464Y0141626D01*
X0081692Y0141704D01*
X0081923Y0141777D01*
X0082155Y0141844D01*
X0082388Y0141906D01*
X0082623Y0141962D01*
X0082860Y0142012D01*
X0083097Y0142056D01*
X0083336Y0142094D01*
X0083575Y0142127D01*
X0083815Y0142154D01*
X0084056Y0142174D01*
X0084297Y0142189D01*
X0084538Y0142198D01*
X0084780Y0142201D01*
X0085022Y0142198D01*
X0085263Y0142189D01*
X0085504Y0142174D01*
X0085745Y0142154D01*
X0085985Y0142127D01*
X0086224Y0142094D01*
X0086463Y0142056D01*
X0086700Y0142012D01*
X0086937Y0141962D01*
X0087172Y0141906D01*
X0087405Y0141844D01*
X0087637Y0141777D01*
X0087868Y0141704D01*
X0088096Y0141626D01*
X0088322Y0141541D01*
X0088547Y0141452D01*
X0088769Y0141357D01*
X0088988Y0141256D01*
X0089206Y0141150D01*
X0089420Y0141039D01*
X0089632Y0140922D01*
X0089840Y0140801D01*
X0090046Y0140674D01*
X0090248Y0140542D01*
X0090448Y0140405D01*
X0090643Y0140264D01*
X0090836Y0140118D01*
X0091024Y0139967D01*
X0091209Y0139811D01*
X0091390Y0139651D01*
X0091567Y0139487D01*
X0091740Y0139318D01*
X0091909Y0139145D01*
X0092073Y0138968D01*
X0092233Y0138787D01*
X0092389Y0138602D01*
X0092540Y0138414D01*
X0092686Y0138221D01*
X0092827Y0138026D01*
X0092964Y0137826D01*
X0093096Y0137624D01*
X0093223Y0137418D01*
X0093344Y0137210D01*
X0093461Y0136998D01*
X0093572Y0136784D01*
X0093678Y0136566D01*
X0093779Y0136347D01*
X0093874Y0136125D01*
X0093963Y0135900D01*
X0094048Y0135674D01*
X0094126Y0135446D01*
X0094199Y0135215D01*
X0094266Y0134983D01*
X0094328Y0134750D01*
X0094384Y0134515D01*
X0094434Y0134278D01*
X0094478Y0134041D01*
X0094516Y0133802D01*
X0094549Y0133563D01*
X0094576Y0133323D01*
X0094596Y0133082D01*
X0094611Y0132841D01*
X0094620Y0132600D01*
X0094623Y0132358D01*
X0094620Y0132116D01*
X0094611Y0131875D01*
X0094596Y0131634D01*
X0094576Y0131393D01*
X0094549Y0131153D01*
X0094516Y0130914D01*
X0094478Y0130675D01*
X0094434Y0130438D01*
X0094384Y0130201D01*
X0094328Y0129966D01*
X0094266Y0129733D01*
X0094199Y0129501D01*
X0094126Y0129270D01*
X0094048Y0129042D01*
X0093963Y0128816D01*
X0093874Y0128591D01*
X0093779Y0128369D01*
X0093678Y0128150D01*
X0093572Y0127932D01*
X0093461Y0127718D01*
X0093344Y0127506D01*
X0093223Y0127298D01*
X0093096Y0127092D01*
X0092964Y0126890D01*
X0092827Y0126690D01*
X0092686Y0126495D01*
X0092540Y0126302D01*
X0092389Y0126114D01*
X0092233Y0125929D01*
X0092073Y0125748D01*
X0091909Y0125571D01*
X0091740Y0125398D01*
X0091567Y0125229D01*
X0091390Y0125065D01*
X0091209Y0124905D01*
X0091024Y0124749D01*
X0090836Y0124598D01*
X0090643Y0124452D01*
X0090448Y0124311D01*
X0090248Y0124174D01*
X0090046Y0124042D01*
X0089840Y0123915D01*
X0089632Y0123794D01*
X0089420Y0123677D01*
X0089206Y0123566D01*
X0088988Y0123460D01*
X0088769Y0123359D01*
X0088547Y0123264D01*
X0088322Y0123175D01*
X0088096Y0123090D01*
X0087868Y0123012D01*
X0087637Y0122939D01*
X0087405Y0122872D01*
X0087172Y0122810D01*
X0086937Y0122754D01*
X0086700Y0122704D01*
X0086463Y0122660D01*
X0086224Y0122622D01*
X0085985Y0122589D01*
X0085745Y0122562D01*
X0085504Y0122542D01*
X0085263Y0122527D01*
X0085022Y0122518D01*
X0084780Y0122515D01*
X0084538Y0122518D01*
X0084297Y0122527D01*
X0084056Y0122542D01*
X0083815Y0122562D01*
X0083575Y0122589D01*
X0083336Y0122622D01*
X0083097Y0122660D01*
X0082860Y0122704D01*
X0082623Y0122754D01*
X0082388Y0122810D01*
X0082155Y0122872D01*
X0081923Y0122939D01*
X0081692Y0123012D01*
X0081464Y0123090D01*
X0081238Y0123175D01*
X0081013Y0123264D01*
X0080791Y0123359D01*
X0080572Y0123460D01*
X0080354Y0123566D01*
X0080140Y0123677D01*
X0079928Y0123794D01*
X0079720Y0123915D01*
X0079514Y0124042D01*
X0079312Y0124174D01*
X0079112Y0124311D01*
X0078917Y0124452D01*
X0078724Y0124598D01*
X0078536Y0124749D01*
X0078351Y0124905D01*
X0078170Y0125065D01*
X0077993Y0125229D01*
X0077820Y0125398D01*
X0077651Y0125571D01*
X0077487Y0125748D01*
X0077327Y0125929D01*
X0077171Y0126114D01*
X0077020Y0126302D01*
X0076874Y0126495D01*
X0076733Y0126690D01*
X0076596Y0126890D01*
X0076464Y0127092D01*
X0076337Y0127298D01*
X0076216Y0127506D01*
X0076099Y0127718D01*
X0075988Y0127932D01*
X0075882Y0128150D01*
X0075781Y0128369D01*
X0075686Y0128591D01*
X0075597Y0128816D01*
X0075512Y0129042D01*
X0075434Y0129270D01*
X0075361Y0129501D01*
X0075294Y0129733D01*
X0075232Y0129966D01*
X0075176Y0130201D01*
X0075126Y0130438D01*
X0075082Y0130675D01*
X0075044Y0130914D01*
X0075011Y0131153D01*
X0074984Y0131393D01*
X0074964Y0131634D01*
X0074949Y0131875D01*
X0074940Y0132116D01*
X0074937Y0132358D01*
X0285488Y0132358D02*
X0285491Y0132600D01*
X0285500Y0132841D01*
X0285515Y0133082D01*
X0285535Y0133323D01*
X0285562Y0133563D01*
X0285595Y0133802D01*
X0285633Y0134041D01*
X0285677Y0134278D01*
X0285727Y0134515D01*
X0285783Y0134750D01*
X0285845Y0134983D01*
X0285912Y0135215D01*
X0285985Y0135446D01*
X0286063Y0135674D01*
X0286148Y0135900D01*
X0286237Y0136125D01*
X0286332Y0136347D01*
X0286433Y0136566D01*
X0286539Y0136784D01*
X0286650Y0136998D01*
X0286767Y0137210D01*
X0286888Y0137418D01*
X0287015Y0137624D01*
X0287147Y0137826D01*
X0287284Y0138026D01*
X0287425Y0138221D01*
X0287571Y0138414D01*
X0287722Y0138602D01*
X0287878Y0138787D01*
X0288038Y0138968D01*
X0288202Y0139145D01*
X0288371Y0139318D01*
X0288544Y0139487D01*
X0288721Y0139651D01*
X0288902Y0139811D01*
X0289087Y0139967D01*
X0289275Y0140118D01*
X0289468Y0140264D01*
X0289663Y0140405D01*
X0289863Y0140542D01*
X0290065Y0140674D01*
X0290271Y0140801D01*
X0290479Y0140922D01*
X0290691Y0141039D01*
X0290905Y0141150D01*
X0291123Y0141256D01*
X0291342Y0141357D01*
X0291564Y0141452D01*
X0291789Y0141541D01*
X0292015Y0141626D01*
X0292243Y0141704D01*
X0292474Y0141777D01*
X0292706Y0141844D01*
X0292939Y0141906D01*
X0293174Y0141962D01*
X0293411Y0142012D01*
X0293648Y0142056D01*
X0293887Y0142094D01*
X0294126Y0142127D01*
X0294366Y0142154D01*
X0294607Y0142174D01*
X0294848Y0142189D01*
X0295089Y0142198D01*
X0295331Y0142201D01*
X0295573Y0142198D01*
X0295814Y0142189D01*
X0296055Y0142174D01*
X0296296Y0142154D01*
X0296536Y0142127D01*
X0296775Y0142094D01*
X0297014Y0142056D01*
X0297251Y0142012D01*
X0297488Y0141962D01*
X0297723Y0141906D01*
X0297956Y0141844D01*
X0298188Y0141777D01*
X0298419Y0141704D01*
X0298647Y0141626D01*
X0298873Y0141541D01*
X0299098Y0141452D01*
X0299320Y0141357D01*
X0299539Y0141256D01*
X0299757Y0141150D01*
X0299971Y0141039D01*
X0300183Y0140922D01*
X0300391Y0140801D01*
X0300597Y0140674D01*
X0300799Y0140542D01*
X0300999Y0140405D01*
X0301194Y0140264D01*
X0301387Y0140118D01*
X0301575Y0139967D01*
X0301760Y0139811D01*
X0301941Y0139651D01*
X0302118Y0139487D01*
X0302291Y0139318D01*
X0302460Y0139145D01*
X0302624Y0138968D01*
X0302784Y0138787D01*
X0302940Y0138602D01*
X0303091Y0138414D01*
X0303237Y0138221D01*
X0303378Y0138026D01*
X0303515Y0137826D01*
X0303647Y0137624D01*
X0303774Y0137418D01*
X0303895Y0137210D01*
X0304012Y0136998D01*
X0304123Y0136784D01*
X0304229Y0136566D01*
X0304330Y0136347D01*
X0304425Y0136125D01*
X0304514Y0135900D01*
X0304599Y0135674D01*
X0304677Y0135446D01*
X0304750Y0135215D01*
X0304817Y0134983D01*
X0304879Y0134750D01*
X0304935Y0134515D01*
X0304985Y0134278D01*
X0305029Y0134041D01*
X0305067Y0133802D01*
X0305100Y0133563D01*
X0305127Y0133323D01*
X0305147Y0133082D01*
X0305162Y0132841D01*
X0305171Y0132600D01*
X0305174Y0132358D01*
X0305171Y0132116D01*
X0305162Y0131875D01*
X0305147Y0131634D01*
X0305127Y0131393D01*
X0305100Y0131153D01*
X0305067Y0130914D01*
X0305029Y0130675D01*
X0304985Y0130438D01*
X0304935Y0130201D01*
X0304879Y0129966D01*
X0304817Y0129733D01*
X0304750Y0129501D01*
X0304677Y0129270D01*
X0304599Y0129042D01*
X0304514Y0128816D01*
X0304425Y0128591D01*
X0304330Y0128369D01*
X0304229Y0128150D01*
X0304123Y0127932D01*
X0304012Y0127718D01*
X0303895Y0127506D01*
X0303774Y0127298D01*
X0303647Y0127092D01*
X0303515Y0126890D01*
X0303378Y0126690D01*
X0303237Y0126495D01*
X0303091Y0126302D01*
X0302940Y0126114D01*
X0302784Y0125929D01*
X0302624Y0125748D01*
X0302460Y0125571D01*
X0302291Y0125398D01*
X0302118Y0125229D01*
X0301941Y0125065D01*
X0301760Y0124905D01*
X0301575Y0124749D01*
X0301387Y0124598D01*
X0301194Y0124452D01*
X0300999Y0124311D01*
X0300799Y0124174D01*
X0300597Y0124042D01*
X0300391Y0123915D01*
X0300183Y0123794D01*
X0299971Y0123677D01*
X0299757Y0123566D01*
X0299539Y0123460D01*
X0299320Y0123359D01*
X0299098Y0123264D01*
X0298873Y0123175D01*
X0298647Y0123090D01*
X0298419Y0123012D01*
X0298188Y0122939D01*
X0297956Y0122872D01*
X0297723Y0122810D01*
X0297488Y0122754D01*
X0297251Y0122704D01*
X0297014Y0122660D01*
X0296775Y0122622D01*
X0296536Y0122589D01*
X0296296Y0122562D01*
X0296055Y0122542D01*
X0295814Y0122527D01*
X0295573Y0122518D01*
X0295331Y0122515D01*
X0295089Y0122518D01*
X0294848Y0122527D01*
X0294607Y0122542D01*
X0294366Y0122562D01*
X0294126Y0122589D01*
X0293887Y0122622D01*
X0293648Y0122660D01*
X0293411Y0122704D01*
X0293174Y0122754D01*
X0292939Y0122810D01*
X0292706Y0122872D01*
X0292474Y0122939D01*
X0292243Y0123012D01*
X0292015Y0123090D01*
X0291789Y0123175D01*
X0291564Y0123264D01*
X0291342Y0123359D01*
X0291123Y0123460D01*
X0290905Y0123566D01*
X0290691Y0123677D01*
X0290479Y0123794D01*
X0290271Y0123915D01*
X0290065Y0124042D01*
X0289863Y0124174D01*
X0289663Y0124311D01*
X0289468Y0124452D01*
X0289275Y0124598D01*
X0289087Y0124749D01*
X0288902Y0124905D01*
X0288721Y0125065D01*
X0288544Y0125229D01*
X0288371Y0125398D01*
X0288202Y0125571D01*
X0288038Y0125748D01*
X0287878Y0125929D01*
X0287722Y0126114D01*
X0287571Y0126302D01*
X0287425Y0126495D01*
X0287284Y0126690D01*
X0287147Y0126890D01*
X0287015Y0127092D01*
X0286888Y0127298D01*
X0286767Y0127506D01*
X0286650Y0127718D01*
X0286539Y0127932D01*
X0286433Y0128150D01*
X0286332Y0128369D01*
X0286237Y0128591D01*
X0286148Y0128816D01*
X0286063Y0129042D01*
X0285985Y0129270D01*
X0285912Y0129501D01*
X0285845Y0129733D01*
X0285783Y0129966D01*
X0285727Y0130201D01*
X0285677Y0130438D01*
X0285633Y0130675D01*
X0285595Y0130914D01*
X0285562Y0131153D01*
X0285535Y0131393D01*
X0285515Y0131634D01*
X0285500Y0131875D01*
X0285491Y0132116D01*
X0285488Y0132358D01*
D11*
X0285896Y0083113D02*
X0284795Y0083113D01*
X0284428Y0082746D01*
X0284428Y0082012D01*
X0284795Y0081645D01*
X0285896Y0081645D01*
X0285896Y0080911D02*
X0285896Y0083113D01*
X0283686Y0083113D02*
X0282585Y0083113D01*
X0282218Y0082746D01*
X0282218Y0082012D01*
X0282585Y0081645D01*
X0283686Y0081645D01*
X0283686Y0080911D02*
X0283686Y0083113D01*
X0297809Y0082746D02*
X0297809Y0082012D01*
X0298176Y0081645D01*
X0299276Y0081645D01*
X0298542Y0081645D02*
X0297809Y0080911D01*
X0299276Y0080911D02*
X0299276Y0083113D01*
X0298176Y0083113D01*
X0297809Y0082746D01*
X0300018Y0082746D02*
X0300018Y0082012D01*
X0300385Y0081645D01*
X0301486Y0081645D01*
X0301486Y0080911D02*
X0301486Y0083113D01*
X0300385Y0083113D01*
X0300018Y0082746D01*
X0270305Y0083113D02*
X0270305Y0080911D01*
X0270305Y0081645D02*
X0269204Y0081645D01*
X0268837Y0082012D01*
X0268837Y0082746D01*
X0269204Y0083113D01*
X0270305Y0083113D01*
X0268095Y0083113D02*
X0266627Y0080911D01*
X0266627Y0083113D01*
X0268095Y0083113D02*
X0268095Y0080911D01*
X0254715Y0080911D02*
X0254715Y0083113D01*
X0253614Y0083113D01*
X0253247Y0082746D01*
X0253247Y0082012D01*
X0253614Y0081645D01*
X0254715Y0081645D01*
X0252505Y0080911D02*
X0252505Y0083113D01*
X0251771Y0082379D01*
X0251037Y0083113D01*
X0251037Y0080911D01*
X0239124Y0080911D02*
X0239124Y0083113D01*
X0238023Y0083113D01*
X0237656Y0082746D01*
X0237656Y0082012D01*
X0238023Y0081645D01*
X0239124Y0081645D01*
X0236914Y0080911D02*
X0236914Y0083113D01*
X0236914Y0080911D02*
X0235446Y0080911D01*
X0223534Y0080911D02*
X0223534Y0083113D01*
X0222433Y0083113D01*
X0222066Y0082746D01*
X0222066Y0082012D01*
X0222433Y0081645D01*
X0223534Y0081645D01*
X0221324Y0081645D02*
X0219856Y0083113D01*
X0221324Y0083113D02*
X0221324Y0080911D01*
X0220957Y0082012D02*
X0219856Y0080911D01*
X0207943Y0080911D02*
X0207943Y0083113D01*
X0206842Y0083113D01*
X0206475Y0082746D01*
X0206475Y0082012D01*
X0206842Y0081645D01*
X0207943Y0081645D01*
X0205733Y0081278D02*
X0205366Y0080911D01*
X0204999Y0080911D01*
X0204632Y0081278D01*
X0204632Y0083113D01*
X0204999Y0083113D02*
X0204265Y0083113D01*
X0192352Y0083113D02*
X0192352Y0080911D01*
X0192352Y0081645D02*
X0191252Y0081645D01*
X0190885Y0082012D01*
X0190885Y0082746D01*
X0191252Y0083113D01*
X0192352Y0083113D01*
X0190143Y0083113D02*
X0190143Y0080911D01*
X0190143Y0082012D02*
X0188675Y0082012D01*
X0188675Y0083113D02*
X0188675Y0080911D01*
X0176762Y0080911D02*
X0176762Y0083113D01*
X0175661Y0083113D01*
X0175294Y0082746D01*
X0175294Y0082012D01*
X0175661Y0081645D01*
X0176762Y0081645D01*
X0174552Y0081278D02*
X0174552Y0082746D01*
X0174185Y0083113D01*
X0173451Y0083113D01*
X0173084Y0082746D01*
X0173084Y0082012D02*
X0173818Y0082012D01*
X0173084Y0082012D02*
X0173084Y0081278D01*
X0173451Y0080911D01*
X0174185Y0080911D01*
X0174552Y0081278D01*
X0161171Y0081645D02*
X0160070Y0081645D01*
X0159703Y0082012D01*
X0159703Y0082746D01*
X0160070Y0083113D01*
X0161171Y0083113D01*
X0161171Y0080911D01*
X0158961Y0080911D02*
X0158961Y0083113D01*
X0157494Y0083113D01*
X0158228Y0082012D02*
X0158961Y0082012D01*
X0145581Y0081645D02*
X0144480Y0081645D01*
X0144113Y0082012D01*
X0144113Y0082746D01*
X0144480Y0083113D01*
X0145581Y0083113D01*
X0145581Y0080911D01*
X0143371Y0080911D02*
X0143371Y0083113D01*
X0141903Y0083113D01*
X0142637Y0082012D02*
X0143371Y0082012D01*
X0143371Y0080911D02*
X0141903Y0080911D01*
X0129990Y0080911D02*
X0129990Y0083113D01*
X0128889Y0083113D01*
X0128522Y0082746D01*
X0128522Y0082012D01*
X0128889Y0081645D01*
X0129990Y0081645D01*
X0127780Y0080911D02*
X0127780Y0083113D01*
X0126679Y0083113D01*
X0126312Y0082746D01*
X0126312Y0081278D01*
X0126679Y0080911D01*
X0127780Y0080911D01*
X0114400Y0080911D02*
X0114400Y0083113D01*
X0113299Y0083113D01*
X0112932Y0082746D01*
X0112932Y0082012D01*
X0113299Y0081645D01*
X0114400Y0081645D01*
X0112190Y0081278D02*
X0112190Y0082746D01*
X0111823Y0083113D01*
X0111089Y0083113D01*
X0110722Y0082746D01*
X0110722Y0081278D02*
X0111089Y0080911D01*
X0111823Y0080911D01*
X0112190Y0081278D01*
X0098809Y0081645D02*
X0097708Y0081645D01*
X0097341Y0082012D01*
X0097341Y0082746D01*
X0097708Y0083113D01*
X0098809Y0083113D01*
X0098809Y0080911D01*
X0096599Y0080911D02*
X0096599Y0083113D01*
X0095498Y0083113D01*
X0095131Y0082746D01*
X0095131Y0082379D01*
X0095498Y0082012D01*
X0096599Y0082012D01*
X0095498Y0082012D02*
X0095131Y0081645D01*
X0095131Y0081278D01*
X0095498Y0080911D01*
X0096599Y0080911D01*
X0083219Y0080911D02*
X0083219Y0083113D01*
X0082118Y0083113D01*
X0081751Y0082746D01*
X0081751Y0082012D01*
X0082118Y0081645D01*
X0083219Y0081645D01*
X0081009Y0082012D02*
X0079541Y0082012D01*
X0079541Y0082379D02*
X0079541Y0080911D01*
X0079541Y0082379D02*
X0080275Y0083113D01*
X0081009Y0082379D01*
X0081009Y0080911D01*
M02*
