G75*
%MOIN*%
%OFA0B0*%
%FSLAX25Y25*%
%IPPOS*%
%LPD*%
%AMOC8*
5,1,8,0,0,1.08239X$1,22.5*
%
%ADD10C,0.00000*%
%ADD11R,0.05000X0.05000*%
%ADD12C,0.02047*%
D10*
X0067595Y0047713D02*
X0067595Y0372634D01*
X0312516Y0372634D01*
X0312516Y0047713D01*
X0312517Y0047713D02*
X0312543Y0047410D01*
X0312563Y0047106D01*
X0312574Y0046802D01*
X0312579Y0046498D01*
X0312576Y0046194D01*
X0312566Y0045889D01*
X0312548Y0045586D01*
X0312524Y0045282D01*
X0312491Y0044980D01*
X0312452Y0044678D01*
X0312405Y0044377D01*
X0312351Y0044078D01*
X0312290Y0043780D01*
X0312221Y0043483D01*
X0312146Y0043189D01*
X0312063Y0042896D01*
X0311973Y0042605D01*
X0311877Y0042317D01*
X0311773Y0042030D01*
X0311663Y0041747D01*
X0311545Y0041466D01*
X0311421Y0041188D01*
X0311290Y0040914D01*
X0311153Y0040642D01*
X0311009Y0040374D01*
X0310859Y0040109D01*
X0310702Y0039849D01*
X0310539Y0039592D01*
X0310370Y0039339D01*
X0310195Y0039090D01*
X0310013Y0038845D01*
X0309826Y0038605D01*
X0309634Y0038370D01*
X0309435Y0038139D01*
X0309231Y0037913D01*
X0309022Y0037692D01*
X0308808Y0037477D01*
X0308588Y0037266D01*
X0308363Y0037061D01*
X0308133Y0036861D01*
X0307899Y0036667D01*
X0307660Y0036479D01*
X0307417Y0036296D01*
X0307169Y0036120D01*
X0306917Y0035949D01*
X0306661Y0035785D01*
X0306401Y0035627D01*
X0306137Y0035475D01*
X0305870Y0035330D01*
X0305599Y0035191D01*
X0305325Y0035058D01*
X0305048Y0034933D01*
X0304768Y0034814D01*
X0304485Y0034702D01*
X0304199Y0034596D01*
X0303911Y0034498D01*
X0303621Y0034407D01*
X0303329Y0034322D01*
X0303034Y0034245D01*
X0302738Y0034175D01*
X0302440Y0034112D01*
X0302141Y0034057D01*
X0301841Y0034008D01*
X0301539Y0033967D01*
X0301237Y0033933D01*
X0078875Y0033933D01*
X0078568Y0033968D01*
X0078262Y0034010D01*
X0077957Y0034059D01*
X0077653Y0034116D01*
X0077351Y0034180D01*
X0077050Y0034252D01*
X0076751Y0034331D01*
X0076455Y0034418D01*
X0076160Y0034512D01*
X0075868Y0034612D01*
X0075578Y0034720D01*
X0075292Y0034836D01*
X0075008Y0034958D01*
X0074727Y0035087D01*
X0074449Y0035223D01*
X0074175Y0035365D01*
X0073905Y0035515D01*
X0073638Y0035671D01*
X0073375Y0035833D01*
X0073116Y0036002D01*
X0072861Y0036177D01*
X0072611Y0036358D01*
X0072365Y0036546D01*
X0072124Y0036739D01*
X0071888Y0036939D01*
X0071657Y0037144D01*
X0071431Y0037354D01*
X0071210Y0037570D01*
X0070994Y0037792D01*
X0070784Y0038018D01*
X0070580Y0038250D01*
X0070381Y0038487D01*
X0070188Y0038729D01*
X0070002Y0038975D01*
X0069821Y0039225D01*
X0069646Y0039480D01*
X0069478Y0039740D01*
X0069316Y0040003D01*
X0069161Y0040270D01*
X0069012Y0040541D01*
X0068870Y0040816D01*
X0068735Y0041094D01*
X0068607Y0041375D01*
X0068485Y0041659D01*
X0068371Y0041946D01*
X0068264Y0042236D01*
X0068164Y0042528D01*
X0068071Y0042823D01*
X0067985Y0043120D01*
X0067907Y0043419D01*
X0067835Y0043720D01*
X0067772Y0044022D01*
X0067716Y0044326D01*
X0067667Y0044631D01*
X0067626Y0044937D01*
X0067592Y0045245D01*
X0067566Y0045553D01*
X0067547Y0045861D01*
X0067536Y0046170D01*
X0067533Y0046479D01*
X0067537Y0046788D01*
X0067549Y0047097D01*
X0067568Y0047405D01*
X0067595Y0047713D01*
X0074937Y0132358D02*
X0074940Y0132600D01*
X0074949Y0132841D01*
X0074964Y0133082D01*
X0074984Y0133323D01*
X0075011Y0133563D01*
X0075044Y0133802D01*
X0075082Y0134041D01*
X0075126Y0134278D01*
X0075176Y0134515D01*
X0075232Y0134750D01*
X0075294Y0134983D01*
X0075361Y0135215D01*
X0075434Y0135446D01*
X0075512Y0135674D01*
X0075597Y0135900D01*
X0075686Y0136125D01*
X0075781Y0136347D01*
X0075882Y0136566D01*
X0075988Y0136784D01*
X0076099Y0136998D01*
X0076216Y0137210D01*
X0076337Y0137418D01*
X0076464Y0137624D01*
X0076596Y0137826D01*
X0076733Y0138026D01*
X0076874Y0138221D01*
X0077020Y0138414D01*
X0077171Y0138602D01*
X0077327Y0138787D01*
X0077487Y0138968D01*
X0077651Y0139145D01*
X0077820Y0139318D01*
X0077993Y0139487D01*
X0078170Y0139651D01*
X0078351Y0139811D01*
X0078536Y0139967D01*
X0078724Y0140118D01*
X0078917Y0140264D01*
X0079112Y0140405D01*
X0079312Y0140542D01*
X0079514Y0140674D01*
X0079720Y0140801D01*
X0079928Y0140922D01*
X0080140Y0141039D01*
X0080354Y0141150D01*
X0080572Y0141256D01*
X0080791Y0141357D01*
X0081013Y0141452D01*
X0081238Y0141541D01*
X0081464Y0141626D01*
X0081692Y0141704D01*
X0081923Y0141777D01*
X0082155Y0141844D01*
X0082388Y0141906D01*
X0082623Y0141962D01*
X0082860Y0142012D01*
X0083097Y0142056D01*
X0083336Y0142094D01*
X0083575Y0142127D01*
X0083815Y0142154D01*
X0084056Y0142174D01*
X0084297Y0142189D01*
X0084538Y0142198D01*
X0084780Y0142201D01*
X0085022Y0142198D01*
X0085263Y0142189D01*
X0085504Y0142174D01*
X0085745Y0142154D01*
X0085985Y0142127D01*
X0086224Y0142094D01*
X0086463Y0142056D01*
X0086700Y0142012D01*
X0086937Y0141962D01*
X0087172Y0141906D01*
X0087405Y0141844D01*
X0087637Y0141777D01*
X0087868Y0141704D01*
X0088096Y0141626D01*
X0088322Y0141541D01*
X0088547Y0141452D01*
X0088769Y0141357D01*
X0088988Y0141256D01*
X0089206Y0141150D01*
X0089420Y0141039D01*
X0089632Y0140922D01*
X0089840Y0140801D01*
X0090046Y0140674D01*
X0090248Y0140542D01*
X0090448Y0140405D01*
X0090643Y0140264D01*
X0090836Y0140118D01*
X0091024Y0139967D01*
X0091209Y0139811D01*
X0091390Y0139651D01*
X0091567Y0139487D01*
X0091740Y0139318D01*
X0091909Y0139145D01*
X0092073Y0138968D01*
X0092233Y0138787D01*
X0092389Y0138602D01*
X0092540Y0138414D01*
X0092686Y0138221D01*
X0092827Y0138026D01*
X0092964Y0137826D01*
X0093096Y0137624D01*
X0093223Y0137418D01*
X0093344Y0137210D01*
X0093461Y0136998D01*
X0093572Y0136784D01*
X0093678Y0136566D01*
X0093779Y0136347D01*
X0093874Y0136125D01*
X0093963Y0135900D01*
X0094048Y0135674D01*
X0094126Y0135446D01*
X0094199Y0135215D01*
X0094266Y0134983D01*
X0094328Y0134750D01*
X0094384Y0134515D01*
X0094434Y0134278D01*
X0094478Y0134041D01*
X0094516Y0133802D01*
X0094549Y0133563D01*
X0094576Y0133323D01*
X0094596Y0133082D01*
X0094611Y0132841D01*
X0094620Y0132600D01*
X0094623Y0132358D01*
X0094620Y0132116D01*
X0094611Y0131875D01*
X0094596Y0131634D01*
X0094576Y0131393D01*
X0094549Y0131153D01*
X0094516Y0130914D01*
X0094478Y0130675D01*
X0094434Y0130438D01*
X0094384Y0130201D01*
X0094328Y0129966D01*
X0094266Y0129733D01*
X0094199Y0129501D01*
X0094126Y0129270D01*
X0094048Y0129042D01*
X0093963Y0128816D01*
X0093874Y0128591D01*
X0093779Y0128369D01*
X0093678Y0128150D01*
X0093572Y0127932D01*
X0093461Y0127718D01*
X0093344Y0127506D01*
X0093223Y0127298D01*
X0093096Y0127092D01*
X0092964Y0126890D01*
X0092827Y0126690D01*
X0092686Y0126495D01*
X0092540Y0126302D01*
X0092389Y0126114D01*
X0092233Y0125929D01*
X0092073Y0125748D01*
X0091909Y0125571D01*
X0091740Y0125398D01*
X0091567Y0125229D01*
X0091390Y0125065D01*
X0091209Y0124905D01*
X0091024Y0124749D01*
X0090836Y0124598D01*
X0090643Y0124452D01*
X0090448Y0124311D01*
X0090248Y0124174D01*
X0090046Y0124042D01*
X0089840Y0123915D01*
X0089632Y0123794D01*
X0089420Y0123677D01*
X0089206Y0123566D01*
X0088988Y0123460D01*
X0088769Y0123359D01*
X0088547Y0123264D01*
X0088322Y0123175D01*
X0088096Y0123090D01*
X0087868Y0123012D01*
X0087637Y0122939D01*
X0087405Y0122872D01*
X0087172Y0122810D01*
X0086937Y0122754D01*
X0086700Y0122704D01*
X0086463Y0122660D01*
X0086224Y0122622D01*
X0085985Y0122589D01*
X0085745Y0122562D01*
X0085504Y0122542D01*
X0085263Y0122527D01*
X0085022Y0122518D01*
X0084780Y0122515D01*
X0084538Y0122518D01*
X0084297Y0122527D01*
X0084056Y0122542D01*
X0083815Y0122562D01*
X0083575Y0122589D01*
X0083336Y0122622D01*
X0083097Y0122660D01*
X0082860Y0122704D01*
X0082623Y0122754D01*
X0082388Y0122810D01*
X0082155Y0122872D01*
X0081923Y0122939D01*
X0081692Y0123012D01*
X0081464Y0123090D01*
X0081238Y0123175D01*
X0081013Y0123264D01*
X0080791Y0123359D01*
X0080572Y0123460D01*
X0080354Y0123566D01*
X0080140Y0123677D01*
X0079928Y0123794D01*
X0079720Y0123915D01*
X0079514Y0124042D01*
X0079312Y0124174D01*
X0079112Y0124311D01*
X0078917Y0124452D01*
X0078724Y0124598D01*
X0078536Y0124749D01*
X0078351Y0124905D01*
X0078170Y0125065D01*
X0077993Y0125229D01*
X0077820Y0125398D01*
X0077651Y0125571D01*
X0077487Y0125748D01*
X0077327Y0125929D01*
X0077171Y0126114D01*
X0077020Y0126302D01*
X0076874Y0126495D01*
X0076733Y0126690D01*
X0076596Y0126890D01*
X0076464Y0127092D01*
X0076337Y0127298D01*
X0076216Y0127506D01*
X0076099Y0127718D01*
X0075988Y0127932D01*
X0075882Y0128150D01*
X0075781Y0128369D01*
X0075686Y0128591D01*
X0075597Y0128816D01*
X0075512Y0129042D01*
X0075434Y0129270D01*
X0075361Y0129501D01*
X0075294Y0129733D01*
X0075232Y0129966D01*
X0075176Y0130201D01*
X0075126Y0130438D01*
X0075082Y0130675D01*
X0075044Y0130914D01*
X0075011Y0131153D01*
X0074984Y0131393D01*
X0074964Y0131634D01*
X0074949Y0131875D01*
X0074940Y0132116D01*
X0074937Y0132358D01*
X0285488Y0132358D02*
X0285491Y0132600D01*
X0285500Y0132841D01*
X0285515Y0133082D01*
X0285535Y0133323D01*
X0285562Y0133563D01*
X0285595Y0133802D01*
X0285633Y0134041D01*
X0285677Y0134278D01*
X0285727Y0134515D01*
X0285783Y0134750D01*
X0285845Y0134983D01*
X0285912Y0135215D01*
X0285985Y0135446D01*
X0286063Y0135674D01*
X0286148Y0135900D01*
X0286237Y0136125D01*
X0286332Y0136347D01*
X0286433Y0136566D01*
X0286539Y0136784D01*
X0286650Y0136998D01*
X0286767Y0137210D01*
X0286888Y0137418D01*
X0287015Y0137624D01*
X0287147Y0137826D01*
X0287284Y0138026D01*
X0287425Y0138221D01*
X0287571Y0138414D01*
X0287722Y0138602D01*
X0287878Y0138787D01*
X0288038Y0138968D01*
X0288202Y0139145D01*
X0288371Y0139318D01*
X0288544Y0139487D01*
X0288721Y0139651D01*
X0288902Y0139811D01*
X0289087Y0139967D01*
X0289275Y0140118D01*
X0289468Y0140264D01*
X0289663Y0140405D01*
X0289863Y0140542D01*
X0290065Y0140674D01*
X0290271Y0140801D01*
X0290479Y0140922D01*
X0290691Y0141039D01*
X0290905Y0141150D01*
X0291123Y0141256D01*
X0291342Y0141357D01*
X0291564Y0141452D01*
X0291789Y0141541D01*
X0292015Y0141626D01*
X0292243Y0141704D01*
X0292474Y0141777D01*
X0292706Y0141844D01*
X0292939Y0141906D01*
X0293174Y0141962D01*
X0293411Y0142012D01*
X0293648Y0142056D01*
X0293887Y0142094D01*
X0294126Y0142127D01*
X0294366Y0142154D01*
X0294607Y0142174D01*
X0294848Y0142189D01*
X0295089Y0142198D01*
X0295331Y0142201D01*
X0295573Y0142198D01*
X0295814Y0142189D01*
X0296055Y0142174D01*
X0296296Y0142154D01*
X0296536Y0142127D01*
X0296775Y0142094D01*
X0297014Y0142056D01*
X0297251Y0142012D01*
X0297488Y0141962D01*
X0297723Y0141906D01*
X0297956Y0141844D01*
X0298188Y0141777D01*
X0298419Y0141704D01*
X0298647Y0141626D01*
X0298873Y0141541D01*
X0299098Y0141452D01*
X0299320Y0141357D01*
X0299539Y0141256D01*
X0299757Y0141150D01*
X0299971Y0141039D01*
X0300183Y0140922D01*
X0300391Y0140801D01*
X0300597Y0140674D01*
X0300799Y0140542D01*
X0300999Y0140405D01*
X0301194Y0140264D01*
X0301387Y0140118D01*
X0301575Y0139967D01*
X0301760Y0139811D01*
X0301941Y0139651D01*
X0302118Y0139487D01*
X0302291Y0139318D01*
X0302460Y0139145D01*
X0302624Y0138968D01*
X0302784Y0138787D01*
X0302940Y0138602D01*
X0303091Y0138414D01*
X0303237Y0138221D01*
X0303378Y0138026D01*
X0303515Y0137826D01*
X0303647Y0137624D01*
X0303774Y0137418D01*
X0303895Y0137210D01*
X0304012Y0136998D01*
X0304123Y0136784D01*
X0304229Y0136566D01*
X0304330Y0136347D01*
X0304425Y0136125D01*
X0304514Y0135900D01*
X0304599Y0135674D01*
X0304677Y0135446D01*
X0304750Y0135215D01*
X0304817Y0134983D01*
X0304879Y0134750D01*
X0304935Y0134515D01*
X0304985Y0134278D01*
X0305029Y0134041D01*
X0305067Y0133802D01*
X0305100Y0133563D01*
X0305127Y0133323D01*
X0305147Y0133082D01*
X0305162Y0132841D01*
X0305171Y0132600D01*
X0305174Y0132358D01*
X0305171Y0132116D01*
X0305162Y0131875D01*
X0305147Y0131634D01*
X0305127Y0131393D01*
X0305100Y0131153D01*
X0305067Y0130914D01*
X0305029Y0130675D01*
X0304985Y0130438D01*
X0304935Y0130201D01*
X0304879Y0129966D01*
X0304817Y0129733D01*
X0304750Y0129501D01*
X0304677Y0129270D01*
X0304599Y0129042D01*
X0304514Y0128816D01*
X0304425Y0128591D01*
X0304330Y0128369D01*
X0304229Y0128150D01*
X0304123Y0127932D01*
X0304012Y0127718D01*
X0303895Y0127506D01*
X0303774Y0127298D01*
X0303647Y0127092D01*
X0303515Y0126890D01*
X0303378Y0126690D01*
X0303237Y0126495D01*
X0303091Y0126302D01*
X0302940Y0126114D01*
X0302784Y0125929D01*
X0302624Y0125748D01*
X0302460Y0125571D01*
X0302291Y0125398D01*
X0302118Y0125229D01*
X0301941Y0125065D01*
X0301760Y0124905D01*
X0301575Y0124749D01*
X0301387Y0124598D01*
X0301194Y0124452D01*
X0300999Y0124311D01*
X0300799Y0124174D01*
X0300597Y0124042D01*
X0300391Y0123915D01*
X0300183Y0123794D01*
X0299971Y0123677D01*
X0299757Y0123566D01*
X0299539Y0123460D01*
X0299320Y0123359D01*
X0299098Y0123264D01*
X0298873Y0123175D01*
X0298647Y0123090D01*
X0298419Y0123012D01*
X0298188Y0122939D01*
X0297956Y0122872D01*
X0297723Y0122810D01*
X0297488Y0122754D01*
X0297251Y0122704D01*
X0297014Y0122660D01*
X0296775Y0122622D01*
X0296536Y0122589D01*
X0296296Y0122562D01*
X0296055Y0122542D01*
X0295814Y0122527D01*
X0295573Y0122518D01*
X0295331Y0122515D01*
X0295089Y0122518D01*
X0294848Y0122527D01*
X0294607Y0122542D01*
X0294366Y0122562D01*
X0294126Y0122589D01*
X0293887Y0122622D01*
X0293648Y0122660D01*
X0293411Y0122704D01*
X0293174Y0122754D01*
X0292939Y0122810D01*
X0292706Y0122872D01*
X0292474Y0122939D01*
X0292243Y0123012D01*
X0292015Y0123090D01*
X0291789Y0123175D01*
X0291564Y0123264D01*
X0291342Y0123359D01*
X0291123Y0123460D01*
X0290905Y0123566D01*
X0290691Y0123677D01*
X0290479Y0123794D01*
X0290271Y0123915D01*
X0290065Y0124042D01*
X0289863Y0124174D01*
X0289663Y0124311D01*
X0289468Y0124452D01*
X0289275Y0124598D01*
X0289087Y0124749D01*
X0288902Y0124905D01*
X0288721Y0125065D01*
X0288544Y0125229D01*
X0288371Y0125398D01*
X0288202Y0125571D01*
X0288038Y0125748D01*
X0287878Y0125929D01*
X0287722Y0126114D01*
X0287571Y0126302D01*
X0287425Y0126495D01*
X0287284Y0126690D01*
X0287147Y0126890D01*
X0287015Y0127092D01*
X0286888Y0127298D01*
X0286767Y0127506D01*
X0286650Y0127718D01*
X0286539Y0127932D01*
X0286433Y0128150D01*
X0286332Y0128369D01*
X0286237Y0128591D01*
X0286148Y0128816D01*
X0286063Y0129042D01*
X0285985Y0129270D01*
X0285912Y0129501D01*
X0285845Y0129733D01*
X0285783Y0129966D01*
X0285727Y0130201D01*
X0285677Y0130438D01*
X0285633Y0130675D01*
X0285595Y0130914D01*
X0285562Y0131153D01*
X0285535Y0131393D01*
X0285515Y0131634D01*
X0285500Y0131875D01*
X0285491Y0132116D01*
X0285488Y0132358D01*
D11*
X0283786Y0078211D03*
X0299376Y0078211D03*
X0268195Y0078211D03*
X0252605Y0078211D03*
X0237014Y0078211D03*
X0221424Y0078211D03*
X0205833Y0078211D03*
X0190243Y0078211D03*
X0174652Y0078211D03*
X0159061Y0078211D03*
X0143471Y0078211D03*
X0127880Y0078211D03*
X0112290Y0078211D03*
X0096699Y0078211D03*
X0081109Y0078211D03*
D12*
X0077014Y0074688D02*
X0077014Y0036734D01*
X0077014Y0074688D02*
X0085204Y0074688D01*
X0085204Y0036734D01*
X0077014Y0036734D01*
X0077014Y0038780D02*
X0085204Y0038780D01*
X0085204Y0040826D02*
X0077014Y0040826D01*
X0077014Y0042872D02*
X0085204Y0042872D01*
X0085204Y0044918D02*
X0077014Y0044918D01*
X0077014Y0046964D02*
X0085204Y0046964D01*
X0085204Y0049010D02*
X0077014Y0049010D01*
X0077014Y0051056D02*
X0085204Y0051056D01*
X0085204Y0053102D02*
X0077014Y0053102D01*
X0077014Y0055148D02*
X0085204Y0055148D01*
X0085204Y0057194D02*
X0077014Y0057194D01*
X0077014Y0059240D02*
X0085204Y0059240D01*
X0085204Y0061286D02*
X0077014Y0061286D01*
X0077014Y0063332D02*
X0085204Y0063332D01*
X0085204Y0065378D02*
X0077014Y0065378D01*
X0077014Y0067424D02*
X0085204Y0067424D01*
X0085204Y0069470D02*
X0077014Y0069470D01*
X0077014Y0071516D02*
X0085204Y0071516D01*
X0085204Y0073562D02*
X0077014Y0073562D01*
X0092604Y0074688D02*
X0092604Y0036734D01*
X0092604Y0074688D02*
X0100794Y0074688D01*
X0100794Y0036734D01*
X0092604Y0036734D01*
X0092604Y0038780D02*
X0100794Y0038780D01*
X0100794Y0040826D02*
X0092604Y0040826D01*
X0092604Y0042872D02*
X0100794Y0042872D01*
X0100794Y0044918D02*
X0092604Y0044918D01*
X0092604Y0046964D02*
X0100794Y0046964D01*
X0100794Y0049010D02*
X0092604Y0049010D01*
X0092604Y0051056D02*
X0100794Y0051056D01*
X0100794Y0053102D02*
X0092604Y0053102D01*
X0092604Y0055148D02*
X0100794Y0055148D01*
X0100794Y0057194D02*
X0092604Y0057194D01*
X0092604Y0059240D02*
X0100794Y0059240D01*
X0100794Y0061286D02*
X0092604Y0061286D01*
X0092604Y0063332D02*
X0100794Y0063332D01*
X0100794Y0065378D02*
X0092604Y0065378D01*
X0092604Y0067424D02*
X0100794Y0067424D01*
X0100794Y0069470D02*
X0092604Y0069470D01*
X0092604Y0071516D02*
X0100794Y0071516D01*
X0100794Y0073562D02*
X0092604Y0073562D01*
X0108195Y0074688D02*
X0108195Y0036734D01*
X0108195Y0074688D02*
X0116385Y0074688D01*
X0116385Y0036734D01*
X0108195Y0036734D01*
X0108195Y0038780D02*
X0116385Y0038780D01*
X0116385Y0040826D02*
X0108195Y0040826D01*
X0108195Y0042872D02*
X0116385Y0042872D01*
X0116385Y0044918D02*
X0108195Y0044918D01*
X0108195Y0046964D02*
X0116385Y0046964D01*
X0116385Y0049010D02*
X0108195Y0049010D01*
X0108195Y0051056D02*
X0116385Y0051056D01*
X0116385Y0053102D02*
X0108195Y0053102D01*
X0108195Y0055148D02*
X0116385Y0055148D01*
X0116385Y0057194D02*
X0108195Y0057194D01*
X0108195Y0059240D02*
X0116385Y0059240D01*
X0116385Y0061286D02*
X0108195Y0061286D01*
X0108195Y0063332D02*
X0116385Y0063332D01*
X0116385Y0065378D02*
X0108195Y0065378D01*
X0108195Y0067424D02*
X0116385Y0067424D01*
X0116385Y0069470D02*
X0108195Y0069470D01*
X0108195Y0071516D02*
X0116385Y0071516D01*
X0116385Y0073562D02*
X0108195Y0073562D01*
X0123785Y0074688D02*
X0123785Y0036734D01*
X0123785Y0074688D02*
X0131975Y0074688D01*
X0131975Y0036734D01*
X0123785Y0036734D01*
X0123785Y0038780D02*
X0131975Y0038780D01*
X0131975Y0040826D02*
X0123785Y0040826D01*
X0123785Y0042872D02*
X0131975Y0042872D01*
X0131975Y0044918D02*
X0123785Y0044918D01*
X0123785Y0046964D02*
X0131975Y0046964D01*
X0131975Y0049010D02*
X0123785Y0049010D01*
X0123785Y0051056D02*
X0131975Y0051056D01*
X0131975Y0053102D02*
X0123785Y0053102D01*
X0123785Y0055148D02*
X0131975Y0055148D01*
X0131975Y0057194D02*
X0123785Y0057194D01*
X0123785Y0059240D02*
X0131975Y0059240D01*
X0131975Y0061286D02*
X0123785Y0061286D01*
X0123785Y0063332D02*
X0131975Y0063332D01*
X0131975Y0065378D02*
X0123785Y0065378D01*
X0123785Y0067424D02*
X0131975Y0067424D01*
X0131975Y0069470D02*
X0123785Y0069470D01*
X0123785Y0071516D02*
X0131975Y0071516D01*
X0131975Y0073562D02*
X0123785Y0073562D01*
X0139376Y0074688D02*
X0139376Y0036734D01*
X0139376Y0074688D02*
X0147566Y0074688D01*
X0147566Y0036734D01*
X0139376Y0036734D01*
X0139376Y0038780D02*
X0147566Y0038780D01*
X0147566Y0040826D02*
X0139376Y0040826D01*
X0139376Y0042872D02*
X0147566Y0042872D01*
X0147566Y0044918D02*
X0139376Y0044918D01*
X0139376Y0046964D02*
X0147566Y0046964D01*
X0147566Y0049010D02*
X0139376Y0049010D01*
X0139376Y0051056D02*
X0147566Y0051056D01*
X0147566Y0053102D02*
X0139376Y0053102D01*
X0139376Y0055148D02*
X0147566Y0055148D01*
X0147566Y0057194D02*
X0139376Y0057194D01*
X0139376Y0059240D02*
X0147566Y0059240D01*
X0147566Y0061286D02*
X0139376Y0061286D01*
X0139376Y0063332D02*
X0147566Y0063332D01*
X0147566Y0065378D02*
X0139376Y0065378D01*
X0139376Y0067424D02*
X0147566Y0067424D01*
X0147566Y0069470D02*
X0139376Y0069470D01*
X0139376Y0071516D02*
X0147566Y0071516D01*
X0147566Y0073562D02*
X0139376Y0073562D01*
X0154966Y0074688D02*
X0154966Y0036734D01*
X0154966Y0074688D02*
X0163156Y0074688D01*
X0163156Y0036734D01*
X0154966Y0036734D01*
X0154966Y0038780D02*
X0163156Y0038780D01*
X0163156Y0040826D02*
X0154966Y0040826D01*
X0154966Y0042872D02*
X0163156Y0042872D01*
X0163156Y0044918D02*
X0154966Y0044918D01*
X0154966Y0046964D02*
X0163156Y0046964D01*
X0163156Y0049010D02*
X0154966Y0049010D01*
X0154966Y0051056D02*
X0163156Y0051056D01*
X0163156Y0053102D02*
X0154966Y0053102D01*
X0154966Y0055148D02*
X0163156Y0055148D01*
X0163156Y0057194D02*
X0154966Y0057194D01*
X0154966Y0059240D02*
X0163156Y0059240D01*
X0163156Y0061286D02*
X0154966Y0061286D01*
X0154966Y0063332D02*
X0163156Y0063332D01*
X0163156Y0065378D02*
X0154966Y0065378D01*
X0154966Y0067424D02*
X0163156Y0067424D01*
X0163156Y0069470D02*
X0154966Y0069470D01*
X0154966Y0071516D02*
X0163156Y0071516D01*
X0163156Y0073562D02*
X0154966Y0073562D01*
X0170557Y0074688D02*
X0170557Y0036734D01*
X0170557Y0074688D02*
X0178747Y0074688D01*
X0178747Y0036734D01*
X0170557Y0036734D01*
X0170557Y0038780D02*
X0178747Y0038780D01*
X0178747Y0040826D02*
X0170557Y0040826D01*
X0170557Y0042872D02*
X0178747Y0042872D01*
X0178747Y0044918D02*
X0170557Y0044918D01*
X0170557Y0046964D02*
X0178747Y0046964D01*
X0178747Y0049010D02*
X0170557Y0049010D01*
X0170557Y0051056D02*
X0178747Y0051056D01*
X0178747Y0053102D02*
X0170557Y0053102D01*
X0170557Y0055148D02*
X0178747Y0055148D01*
X0178747Y0057194D02*
X0170557Y0057194D01*
X0170557Y0059240D02*
X0178747Y0059240D01*
X0178747Y0061286D02*
X0170557Y0061286D01*
X0170557Y0063332D02*
X0178747Y0063332D01*
X0178747Y0065378D02*
X0170557Y0065378D01*
X0170557Y0067424D02*
X0178747Y0067424D01*
X0178747Y0069470D02*
X0170557Y0069470D01*
X0170557Y0071516D02*
X0178747Y0071516D01*
X0178747Y0073562D02*
X0170557Y0073562D01*
X0186148Y0074688D02*
X0186148Y0036734D01*
X0186148Y0074688D02*
X0194338Y0074688D01*
X0194338Y0036734D01*
X0186148Y0036734D01*
X0186148Y0038780D02*
X0194338Y0038780D01*
X0194338Y0040826D02*
X0186148Y0040826D01*
X0186148Y0042872D02*
X0194338Y0042872D01*
X0194338Y0044918D02*
X0186148Y0044918D01*
X0186148Y0046964D02*
X0194338Y0046964D01*
X0194338Y0049010D02*
X0186148Y0049010D01*
X0186148Y0051056D02*
X0194338Y0051056D01*
X0194338Y0053102D02*
X0186148Y0053102D01*
X0186148Y0055148D02*
X0194338Y0055148D01*
X0194338Y0057194D02*
X0186148Y0057194D01*
X0186148Y0059240D02*
X0194338Y0059240D01*
X0194338Y0061286D02*
X0186148Y0061286D01*
X0186148Y0063332D02*
X0194338Y0063332D01*
X0194338Y0065378D02*
X0186148Y0065378D01*
X0186148Y0067424D02*
X0194338Y0067424D01*
X0194338Y0069470D02*
X0186148Y0069470D01*
X0186148Y0071516D02*
X0194338Y0071516D01*
X0194338Y0073562D02*
X0186148Y0073562D01*
X0201738Y0074688D02*
X0201738Y0036734D01*
X0201738Y0074688D02*
X0209928Y0074688D01*
X0209928Y0036734D01*
X0201738Y0036734D01*
X0201738Y0038780D02*
X0209928Y0038780D01*
X0209928Y0040826D02*
X0201738Y0040826D01*
X0201738Y0042872D02*
X0209928Y0042872D01*
X0209928Y0044918D02*
X0201738Y0044918D01*
X0201738Y0046964D02*
X0209928Y0046964D01*
X0209928Y0049010D02*
X0201738Y0049010D01*
X0201738Y0051056D02*
X0209928Y0051056D01*
X0209928Y0053102D02*
X0201738Y0053102D01*
X0201738Y0055148D02*
X0209928Y0055148D01*
X0209928Y0057194D02*
X0201738Y0057194D01*
X0201738Y0059240D02*
X0209928Y0059240D01*
X0209928Y0061286D02*
X0201738Y0061286D01*
X0201738Y0063332D02*
X0209928Y0063332D01*
X0209928Y0065378D02*
X0201738Y0065378D01*
X0201738Y0067424D02*
X0209928Y0067424D01*
X0209928Y0069470D02*
X0201738Y0069470D01*
X0201738Y0071516D02*
X0209928Y0071516D01*
X0209928Y0073562D02*
X0201738Y0073562D01*
X0217329Y0074688D02*
X0217329Y0036734D01*
X0217329Y0074688D02*
X0225519Y0074688D01*
X0225519Y0036734D01*
X0217329Y0036734D01*
X0217329Y0038780D02*
X0225519Y0038780D01*
X0225519Y0040826D02*
X0217329Y0040826D01*
X0217329Y0042872D02*
X0225519Y0042872D01*
X0225519Y0044918D02*
X0217329Y0044918D01*
X0217329Y0046964D02*
X0225519Y0046964D01*
X0225519Y0049010D02*
X0217329Y0049010D01*
X0217329Y0051056D02*
X0225519Y0051056D01*
X0225519Y0053102D02*
X0217329Y0053102D01*
X0217329Y0055148D02*
X0225519Y0055148D01*
X0225519Y0057194D02*
X0217329Y0057194D01*
X0217329Y0059240D02*
X0225519Y0059240D01*
X0225519Y0061286D02*
X0217329Y0061286D01*
X0217329Y0063332D02*
X0225519Y0063332D01*
X0225519Y0065378D02*
X0217329Y0065378D01*
X0217329Y0067424D02*
X0225519Y0067424D01*
X0225519Y0069470D02*
X0217329Y0069470D01*
X0217329Y0071516D02*
X0225519Y0071516D01*
X0225519Y0073562D02*
X0217329Y0073562D01*
X0232919Y0074688D02*
X0232919Y0036734D01*
X0232919Y0074688D02*
X0241109Y0074688D01*
X0241109Y0036734D01*
X0232919Y0036734D01*
X0232919Y0038780D02*
X0241109Y0038780D01*
X0241109Y0040826D02*
X0232919Y0040826D01*
X0232919Y0042872D02*
X0241109Y0042872D01*
X0241109Y0044918D02*
X0232919Y0044918D01*
X0232919Y0046964D02*
X0241109Y0046964D01*
X0241109Y0049010D02*
X0232919Y0049010D01*
X0232919Y0051056D02*
X0241109Y0051056D01*
X0241109Y0053102D02*
X0232919Y0053102D01*
X0232919Y0055148D02*
X0241109Y0055148D01*
X0241109Y0057194D02*
X0232919Y0057194D01*
X0232919Y0059240D02*
X0241109Y0059240D01*
X0241109Y0061286D02*
X0232919Y0061286D01*
X0232919Y0063332D02*
X0241109Y0063332D01*
X0241109Y0065378D02*
X0232919Y0065378D01*
X0232919Y0067424D02*
X0241109Y0067424D01*
X0241109Y0069470D02*
X0232919Y0069470D01*
X0232919Y0071516D02*
X0241109Y0071516D01*
X0241109Y0073562D02*
X0232919Y0073562D01*
X0248510Y0074688D02*
X0248510Y0036734D01*
X0248510Y0074688D02*
X0256700Y0074688D01*
X0256700Y0036734D01*
X0248510Y0036734D01*
X0248510Y0038780D02*
X0256700Y0038780D01*
X0256700Y0040826D02*
X0248510Y0040826D01*
X0248510Y0042872D02*
X0256700Y0042872D01*
X0256700Y0044918D02*
X0248510Y0044918D01*
X0248510Y0046964D02*
X0256700Y0046964D01*
X0256700Y0049010D02*
X0248510Y0049010D01*
X0248510Y0051056D02*
X0256700Y0051056D01*
X0256700Y0053102D02*
X0248510Y0053102D01*
X0248510Y0055148D02*
X0256700Y0055148D01*
X0256700Y0057194D02*
X0248510Y0057194D01*
X0248510Y0059240D02*
X0256700Y0059240D01*
X0256700Y0061286D02*
X0248510Y0061286D01*
X0248510Y0063332D02*
X0256700Y0063332D01*
X0256700Y0065378D02*
X0248510Y0065378D01*
X0248510Y0067424D02*
X0256700Y0067424D01*
X0256700Y0069470D02*
X0248510Y0069470D01*
X0248510Y0071516D02*
X0256700Y0071516D01*
X0256700Y0073562D02*
X0248510Y0073562D01*
X0264100Y0074688D02*
X0264100Y0036734D01*
X0264100Y0074688D02*
X0272290Y0074688D01*
X0272290Y0036734D01*
X0264100Y0036734D01*
X0264100Y0038780D02*
X0272290Y0038780D01*
X0272290Y0040826D02*
X0264100Y0040826D01*
X0264100Y0042872D02*
X0272290Y0042872D01*
X0272290Y0044918D02*
X0264100Y0044918D01*
X0264100Y0046964D02*
X0272290Y0046964D01*
X0272290Y0049010D02*
X0264100Y0049010D01*
X0264100Y0051056D02*
X0272290Y0051056D01*
X0272290Y0053102D02*
X0264100Y0053102D01*
X0264100Y0055148D02*
X0272290Y0055148D01*
X0272290Y0057194D02*
X0264100Y0057194D01*
X0264100Y0059240D02*
X0272290Y0059240D01*
X0272290Y0061286D02*
X0264100Y0061286D01*
X0264100Y0063332D02*
X0272290Y0063332D01*
X0272290Y0065378D02*
X0264100Y0065378D01*
X0264100Y0067424D02*
X0272290Y0067424D01*
X0272290Y0069470D02*
X0264100Y0069470D01*
X0264100Y0071516D02*
X0272290Y0071516D01*
X0272290Y0073562D02*
X0264100Y0073562D01*
X0279691Y0074688D02*
X0279691Y0036734D01*
X0279691Y0074688D02*
X0287881Y0074688D01*
X0287881Y0036734D01*
X0279691Y0036734D01*
X0279691Y0038780D02*
X0287881Y0038780D01*
X0287881Y0040826D02*
X0279691Y0040826D01*
X0279691Y0042872D02*
X0287881Y0042872D01*
X0287881Y0044918D02*
X0279691Y0044918D01*
X0279691Y0046964D02*
X0287881Y0046964D01*
X0287881Y0049010D02*
X0279691Y0049010D01*
X0279691Y0051056D02*
X0287881Y0051056D01*
X0287881Y0053102D02*
X0279691Y0053102D01*
X0279691Y0055148D02*
X0287881Y0055148D01*
X0287881Y0057194D02*
X0279691Y0057194D01*
X0279691Y0059240D02*
X0287881Y0059240D01*
X0287881Y0061286D02*
X0279691Y0061286D01*
X0279691Y0063332D02*
X0287881Y0063332D01*
X0287881Y0065378D02*
X0279691Y0065378D01*
X0279691Y0067424D02*
X0287881Y0067424D01*
X0287881Y0069470D02*
X0279691Y0069470D01*
X0279691Y0071516D02*
X0287881Y0071516D01*
X0287881Y0073562D02*
X0279691Y0073562D01*
X0295281Y0074688D02*
X0295281Y0036734D01*
X0295281Y0074688D02*
X0303471Y0074688D01*
X0303471Y0036734D01*
X0295281Y0036734D01*
X0295281Y0038780D02*
X0303471Y0038780D01*
X0303471Y0040826D02*
X0295281Y0040826D01*
X0295281Y0042872D02*
X0303471Y0042872D01*
X0303471Y0044918D02*
X0295281Y0044918D01*
X0295281Y0046964D02*
X0303471Y0046964D01*
X0303471Y0049010D02*
X0295281Y0049010D01*
X0295281Y0051056D02*
X0303471Y0051056D01*
X0303471Y0053102D02*
X0295281Y0053102D01*
X0295281Y0055148D02*
X0303471Y0055148D01*
X0303471Y0057194D02*
X0295281Y0057194D01*
X0295281Y0059240D02*
X0303471Y0059240D01*
X0303471Y0061286D02*
X0295281Y0061286D01*
X0295281Y0063332D02*
X0303471Y0063332D01*
X0303471Y0065378D02*
X0295281Y0065378D01*
X0295281Y0067424D02*
X0303471Y0067424D01*
X0303471Y0069470D02*
X0295281Y0069470D01*
X0295281Y0071516D02*
X0303471Y0071516D01*
X0303471Y0073562D02*
X0295281Y0073562D01*
M02*
