G75*
%MOIN*%
%OFA0B0*%
%FSLAX25Y25*%
%IPPOS*%
%LPD*%
%AMOC8*
5,1,8,0,0,1.08239X$1,22.5*
%
%ADD10C,0.00000*%
%ADD11C,0.00400*%
%ADD12C,0.00200*%
%ADD13C,0.00600*%
%ADD14C,0.01000*%
%ADD15C,0.00500*%
%ADD16C,0.00300*%
%ADD17C,0.00063*%
D10*
X0067595Y0047713D02*
X0067595Y0372634D01*
X0312516Y0372634D01*
X0312516Y0047713D01*
X0312517Y0047713D02*
X0312543Y0047410D01*
X0312563Y0047106D01*
X0312574Y0046802D01*
X0312579Y0046498D01*
X0312576Y0046194D01*
X0312566Y0045889D01*
X0312548Y0045586D01*
X0312524Y0045282D01*
X0312491Y0044980D01*
X0312452Y0044678D01*
X0312405Y0044377D01*
X0312351Y0044078D01*
X0312290Y0043780D01*
X0312221Y0043483D01*
X0312146Y0043189D01*
X0312063Y0042896D01*
X0311973Y0042605D01*
X0311877Y0042317D01*
X0311773Y0042030D01*
X0311663Y0041747D01*
X0311545Y0041466D01*
X0311421Y0041188D01*
X0311290Y0040914D01*
X0311153Y0040642D01*
X0311009Y0040374D01*
X0310859Y0040109D01*
X0310702Y0039849D01*
X0310539Y0039592D01*
X0310370Y0039339D01*
X0310195Y0039090D01*
X0310013Y0038845D01*
X0309826Y0038605D01*
X0309634Y0038370D01*
X0309435Y0038139D01*
X0309231Y0037913D01*
X0309022Y0037692D01*
X0308808Y0037477D01*
X0308588Y0037266D01*
X0308363Y0037061D01*
X0308133Y0036861D01*
X0307899Y0036667D01*
X0307660Y0036479D01*
X0307417Y0036296D01*
X0307169Y0036120D01*
X0306917Y0035949D01*
X0306661Y0035785D01*
X0306401Y0035627D01*
X0306137Y0035475D01*
X0305870Y0035330D01*
X0305599Y0035191D01*
X0305325Y0035058D01*
X0305048Y0034933D01*
X0304768Y0034814D01*
X0304485Y0034702D01*
X0304199Y0034596D01*
X0303911Y0034498D01*
X0303621Y0034407D01*
X0303329Y0034322D01*
X0303034Y0034245D01*
X0302738Y0034175D01*
X0302440Y0034112D01*
X0302141Y0034057D01*
X0301841Y0034008D01*
X0301539Y0033967D01*
X0301237Y0033933D01*
X0078875Y0033933D01*
X0078568Y0033968D01*
X0078262Y0034010D01*
X0077957Y0034059D01*
X0077653Y0034116D01*
X0077351Y0034180D01*
X0077050Y0034252D01*
X0076751Y0034331D01*
X0076455Y0034418D01*
X0076160Y0034512D01*
X0075868Y0034612D01*
X0075578Y0034720D01*
X0075292Y0034836D01*
X0075008Y0034958D01*
X0074727Y0035087D01*
X0074449Y0035223D01*
X0074175Y0035365D01*
X0073905Y0035515D01*
X0073638Y0035671D01*
X0073375Y0035833D01*
X0073116Y0036002D01*
X0072861Y0036177D01*
X0072611Y0036358D01*
X0072365Y0036546D01*
X0072124Y0036739D01*
X0071888Y0036939D01*
X0071657Y0037144D01*
X0071431Y0037354D01*
X0071210Y0037570D01*
X0070994Y0037792D01*
X0070784Y0038018D01*
X0070580Y0038250D01*
X0070381Y0038487D01*
X0070188Y0038729D01*
X0070002Y0038975D01*
X0069821Y0039225D01*
X0069646Y0039480D01*
X0069478Y0039740D01*
X0069316Y0040003D01*
X0069161Y0040270D01*
X0069012Y0040541D01*
X0068870Y0040816D01*
X0068735Y0041094D01*
X0068607Y0041375D01*
X0068485Y0041659D01*
X0068371Y0041946D01*
X0068264Y0042236D01*
X0068164Y0042528D01*
X0068071Y0042823D01*
X0067985Y0043120D01*
X0067907Y0043419D01*
X0067835Y0043720D01*
X0067772Y0044022D01*
X0067716Y0044326D01*
X0067667Y0044631D01*
X0067626Y0044937D01*
X0067592Y0045245D01*
X0067566Y0045553D01*
X0067547Y0045861D01*
X0067536Y0046170D01*
X0067533Y0046479D01*
X0067537Y0046788D01*
X0067549Y0047097D01*
X0067568Y0047405D01*
X0067595Y0047713D01*
X0074937Y0132358D02*
X0074940Y0132600D01*
X0074949Y0132841D01*
X0074964Y0133082D01*
X0074984Y0133323D01*
X0075011Y0133563D01*
X0075044Y0133802D01*
X0075082Y0134041D01*
X0075126Y0134278D01*
X0075176Y0134515D01*
X0075232Y0134750D01*
X0075294Y0134983D01*
X0075361Y0135215D01*
X0075434Y0135446D01*
X0075512Y0135674D01*
X0075597Y0135900D01*
X0075686Y0136125D01*
X0075781Y0136347D01*
X0075882Y0136566D01*
X0075988Y0136784D01*
X0076099Y0136998D01*
X0076216Y0137210D01*
X0076337Y0137418D01*
X0076464Y0137624D01*
X0076596Y0137826D01*
X0076733Y0138026D01*
X0076874Y0138221D01*
X0077020Y0138414D01*
X0077171Y0138602D01*
X0077327Y0138787D01*
X0077487Y0138968D01*
X0077651Y0139145D01*
X0077820Y0139318D01*
X0077993Y0139487D01*
X0078170Y0139651D01*
X0078351Y0139811D01*
X0078536Y0139967D01*
X0078724Y0140118D01*
X0078917Y0140264D01*
X0079112Y0140405D01*
X0079312Y0140542D01*
X0079514Y0140674D01*
X0079720Y0140801D01*
X0079928Y0140922D01*
X0080140Y0141039D01*
X0080354Y0141150D01*
X0080572Y0141256D01*
X0080791Y0141357D01*
X0081013Y0141452D01*
X0081238Y0141541D01*
X0081464Y0141626D01*
X0081692Y0141704D01*
X0081923Y0141777D01*
X0082155Y0141844D01*
X0082388Y0141906D01*
X0082623Y0141962D01*
X0082860Y0142012D01*
X0083097Y0142056D01*
X0083336Y0142094D01*
X0083575Y0142127D01*
X0083815Y0142154D01*
X0084056Y0142174D01*
X0084297Y0142189D01*
X0084538Y0142198D01*
X0084780Y0142201D01*
X0085022Y0142198D01*
X0085263Y0142189D01*
X0085504Y0142174D01*
X0085745Y0142154D01*
X0085985Y0142127D01*
X0086224Y0142094D01*
X0086463Y0142056D01*
X0086700Y0142012D01*
X0086937Y0141962D01*
X0087172Y0141906D01*
X0087405Y0141844D01*
X0087637Y0141777D01*
X0087868Y0141704D01*
X0088096Y0141626D01*
X0088322Y0141541D01*
X0088547Y0141452D01*
X0088769Y0141357D01*
X0088988Y0141256D01*
X0089206Y0141150D01*
X0089420Y0141039D01*
X0089632Y0140922D01*
X0089840Y0140801D01*
X0090046Y0140674D01*
X0090248Y0140542D01*
X0090448Y0140405D01*
X0090643Y0140264D01*
X0090836Y0140118D01*
X0091024Y0139967D01*
X0091209Y0139811D01*
X0091390Y0139651D01*
X0091567Y0139487D01*
X0091740Y0139318D01*
X0091909Y0139145D01*
X0092073Y0138968D01*
X0092233Y0138787D01*
X0092389Y0138602D01*
X0092540Y0138414D01*
X0092686Y0138221D01*
X0092827Y0138026D01*
X0092964Y0137826D01*
X0093096Y0137624D01*
X0093223Y0137418D01*
X0093344Y0137210D01*
X0093461Y0136998D01*
X0093572Y0136784D01*
X0093678Y0136566D01*
X0093779Y0136347D01*
X0093874Y0136125D01*
X0093963Y0135900D01*
X0094048Y0135674D01*
X0094126Y0135446D01*
X0094199Y0135215D01*
X0094266Y0134983D01*
X0094328Y0134750D01*
X0094384Y0134515D01*
X0094434Y0134278D01*
X0094478Y0134041D01*
X0094516Y0133802D01*
X0094549Y0133563D01*
X0094576Y0133323D01*
X0094596Y0133082D01*
X0094611Y0132841D01*
X0094620Y0132600D01*
X0094623Y0132358D01*
X0094620Y0132116D01*
X0094611Y0131875D01*
X0094596Y0131634D01*
X0094576Y0131393D01*
X0094549Y0131153D01*
X0094516Y0130914D01*
X0094478Y0130675D01*
X0094434Y0130438D01*
X0094384Y0130201D01*
X0094328Y0129966D01*
X0094266Y0129733D01*
X0094199Y0129501D01*
X0094126Y0129270D01*
X0094048Y0129042D01*
X0093963Y0128816D01*
X0093874Y0128591D01*
X0093779Y0128369D01*
X0093678Y0128150D01*
X0093572Y0127932D01*
X0093461Y0127718D01*
X0093344Y0127506D01*
X0093223Y0127298D01*
X0093096Y0127092D01*
X0092964Y0126890D01*
X0092827Y0126690D01*
X0092686Y0126495D01*
X0092540Y0126302D01*
X0092389Y0126114D01*
X0092233Y0125929D01*
X0092073Y0125748D01*
X0091909Y0125571D01*
X0091740Y0125398D01*
X0091567Y0125229D01*
X0091390Y0125065D01*
X0091209Y0124905D01*
X0091024Y0124749D01*
X0090836Y0124598D01*
X0090643Y0124452D01*
X0090448Y0124311D01*
X0090248Y0124174D01*
X0090046Y0124042D01*
X0089840Y0123915D01*
X0089632Y0123794D01*
X0089420Y0123677D01*
X0089206Y0123566D01*
X0088988Y0123460D01*
X0088769Y0123359D01*
X0088547Y0123264D01*
X0088322Y0123175D01*
X0088096Y0123090D01*
X0087868Y0123012D01*
X0087637Y0122939D01*
X0087405Y0122872D01*
X0087172Y0122810D01*
X0086937Y0122754D01*
X0086700Y0122704D01*
X0086463Y0122660D01*
X0086224Y0122622D01*
X0085985Y0122589D01*
X0085745Y0122562D01*
X0085504Y0122542D01*
X0085263Y0122527D01*
X0085022Y0122518D01*
X0084780Y0122515D01*
X0084538Y0122518D01*
X0084297Y0122527D01*
X0084056Y0122542D01*
X0083815Y0122562D01*
X0083575Y0122589D01*
X0083336Y0122622D01*
X0083097Y0122660D01*
X0082860Y0122704D01*
X0082623Y0122754D01*
X0082388Y0122810D01*
X0082155Y0122872D01*
X0081923Y0122939D01*
X0081692Y0123012D01*
X0081464Y0123090D01*
X0081238Y0123175D01*
X0081013Y0123264D01*
X0080791Y0123359D01*
X0080572Y0123460D01*
X0080354Y0123566D01*
X0080140Y0123677D01*
X0079928Y0123794D01*
X0079720Y0123915D01*
X0079514Y0124042D01*
X0079312Y0124174D01*
X0079112Y0124311D01*
X0078917Y0124452D01*
X0078724Y0124598D01*
X0078536Y0124749D01*
X0078351Y0124905D01*
X0078170Y0125065D01*
X0077993Y0125229D01*
X0077820Y0125398D01*
X0077651Y0125571D01*
X0077487Y0125748D01*
X0077327Y0125929D01*
X0077171Y0126114D01*
X0077020Y0126302D01*
X0076874Y0126495D01*
X0076733Y0126690D01*
X0076596Y0126890D01*
X0076464Y0127092D01*
X0076337Y0127298D01*
X0076216Y0127506D01*
X0076099Y0127718D01*
X0075988Y0127932D01*
X0075882Y0128150D01*
X0075781Y0128369D01*
X0075686Y0128591D01*
X0075597Y0128816D01*
X0075512Y0129042D01*
X0075434Y0129270D01*
X0075361Y0129501D01*
X0075294Y0129733D01*
X0075232Y0129966D01*
X0075176Y0130201D01*
X0075126Y0130438D01*
X0075082Y0130675D01*
X0075044Y0130914D01*
X0075011Y0131153D01*
X0074984Y0131393D01*
X0074964Y0131634D01*
X0074949Y0131875D01*
X0074940Y0132116D01*
X0074937Y0132358D01*
X0204095Y0133933D02*
X0204097Y0134051D01*
X0204103Y0134169D01*
X0204113Y0134287D01*
X0204127Y0134404D01*
X0204145Y0134521D01*
X0204167Y0134638D01*
X0204192Y0134753D01*
X0204222Y0134867D01*
X0204256Y0134981D01*
X0204293Y0135093D01*
X0204334Y0135204D01*
X0204379Y0135313D01*
X0204427Y0135421D01*
X0204479Y0135527D01*
X0204535Y0135632D01*
X0204594Y0135734D01*
X0204656Y0135834D01*
X0204722Y0135932D01*
X0204791Y0136028D01*
X0204864Y0136122D01*
X0204939Y0136213D01*
X0205018Y0136301D01*
X0205099Y0136387D01*
X0205184Y0136470D01*
X0205271Y0136550D01*
X0205360Y0136627D01*
X0205453Y0136701D01*
X0205547Y0136771D01*
X0205644Y0136839D01*
X0205744Y0136903D01*
X0205845Y0136964D01*
X0205948Y0137021D01*
X0206054Y0137075D01*
X0206161Y0137126D01*
X0206269Y0137172D01*
X0206379Y0137215D01*
X0206491Y0137254D01*
X0206604Y0137290D01*
X0206718Y0137321D01*
X0206833Y0137349D01*
X0206948Y0137373D01*
X0207065Y0137393D01*
X0207182Y0137409D01*
X0207300Y0137421D01*
X0207418Y0137429D01*
X0207536Y0137433D01*
X0207654Y0137433D01*
X0207772Y0137429D01*
X0207890Y0137421D01*
X0208008Y0137409D01*
X0208125Y0137393D01*
X0208242Y0137373D01*
X0208357Y0137349D01*
X0208472Y0137321D01*
X0208586Y0137290D01*
X0208699Y0137254D01*
X0208811Y0137215D01*
X0208921Y0137172D01*
X0209029Y0137126D01*
X0209136Y0137075D01*
X0209242Y0137021D01*
X0209345Y0136964D01*
X0209446Y0136903D01*
X0209546Y0136839D01*
X0209643Y0136771D01*
X0209737Y0136701D01*
X0209830Y0136627D01*
X0209919Y0136550D01*
X0210006Y0136470D01*
X0210091Y0136387D01*
X0210172Y0136301D01*
X0210251Y0136213D01*
X0210326Y0136122D01*
X0210399Y0136028D01*
X0210468Y0135932D01*
X0210534Y0135834D01*
X0210596Y0135734D01*
X0210655Y0135632D01*
X0210711Y0135527D01*
X0210763Y0135421D01*
X0210811Y0135313D01*
X0210856Y0135204D01*
X0210897Y0135093D01*
X0210934Y0134981D01*
X0210968Y0134867D01*
X0210998Y0134753D01*
X0211023Y0134638D01*
X0211045Y0134521D01*
X0211063Y0134404D01*
X0211077Y0134287D01*
X0211087Y0134169D01*
X0211093Y0134051D01*
X0211095Y0133933D01*
X0211093Y0133815D01*
X0211087Y0133697D01*
X0211077Y0133579D01*
X0211063Y0133462D01*
X0211045Y0133345D01*
X0211023Y0133228D01*
X0210998Y0133113D01*
X0210968Y0132999D01*
X0210934Y0132885D01*
X0210897Y0132773D01*
X0210856Y0132662D01*
X0210811Y0132553D01*
X0210763Y0132445D01*
X0210711Y0132339D01*
X0210655Y0132234D01*
X0210596Y0132132D01*
X0210534Y0132032D01*
X0210468Y0131934D01*
X0210399Y0131838D01*
X0210326Y0131744D01*
X0210251Y0131653D01*
X0210172Y0131565D01*
X0210091Y0131479D01*
X0210006Y0131396D01*
X0209919Y0131316D01*
X0209830Y0131239D01*
X0209737Y0131165D01*
X0209643Y0131095D01*
X0209546Y0131027D01*
X0209446Y0130963D01*
X0209345Y0130902D01*
X0209242Y0130845D01*
X0209136Y0130791D01*
X0209029Y0130740D01*
X0208921Y0130694D01*
X0208811Y0130651D01*
X0208699Y0130612D01*
X0208586Y0130576D01*
X0208472Y0130545D01*
X0208357Y0130517D01*
X0208242Y0130493D01*
X0208125Y0130473D01*
X0208008Y0130457D01*
X0207890Y0130445D01*
X0207772Y0130437D01*
X0207654Y0130433D01*
X0207536Y0130433D01*
X0207418Y0130437D01*
X0207300Y0130445D01*
X0207182Y0130457D01*
X0207065Y0130473D01*
X0206948Y0130493D01*
X0206833Y0130517D01*
X0206718Y0130545D01*
X0206604Y0130576D01*
X0206491Y0130612D01*
X0206379Y0130651D01*
X0206269Y0130694D01*
X0206161Y0130740D01*
X0206054Y0130791D01*
X0205948Y0130845D01*
X0205845Y0130902D01*
X0205744Y0130963D01*
X0205644Y0131027D01*
X0205547Y0131095D01*
X0205453Y0131165D01*
X0205360Y0131239D01*
X0205271Y0131316D01*
X0205184Y0131396D01*
X0205099Y0131479D01*
X0205018Y0131565D01*
X0204939Y0131653D01*
X0204864Y0131744D01*
X0204791Y0131838D01*
X0204722Y0131934D01*
X0204656Y0132032D01*
X0204594Y0132132D01*
X0204535Y0132234D01*
X0204479Y0132339D01*
X0204427Y0132445D01*
X0204379Y0132553D01*
X0204334Y0132662D01*
X0204293Y0132773D01*
X0204256Y0132885D01*
X0204222Y0132999D01*
X0204192Y0133113D01*
X0204167Y0133228D01*
X0204145Y0133345D01*
X0204127Y0133462D01*
X0204113Y0133579D01*
X0204103Y0133697D01*
X0204097Y0133815D01*
X0204095Y0133933D01*
X0232405Y0133933D02*
X0232539Y0133933D01*
X0232589Y0133933D02*
X0232589Y0133733D01*
X0232589Y0133633D02*
X0232623Y0133633D01*
X0232623Y0133433D01*
X0232656Y0133433D02*
X0232589Y0133433D01*
X0232589Y0133333D02*
X0232589Y0133133D01*
X0232589Y0133233D02*
X0232623Y0133267D01*
X0232689Y0133267D01*
X0232723Y0133233D01*
X0232723Y0133133D01*
X0232773Y0133166D02*
X0232807Y0133200D01*
X0232907Y0133200D01*
X0232907Y0133233D02*
X0232907Y0133133D01*
X0232807Y0133133D01*
X0232773Y0133166D01*
X0232807Y0133267D02*
X0232873Y0133267D01*
X0232907Y0133233D01*
X0232958Y0133267D02*
X0233058Y0133267D01*
X0233091Y0133233D01*
X0233091Y0133133D01*
X0233142Y0133133D02*
X0233142Y0133333D01*
X0233180Y0133433D02*
X0233214Y0133466D01*
X0233180Y0133500D01*
X0233114Y0133500D01*
X0233080Y0133533D01*
X0233114Y0133567D01*
X0233214Y0133567D01*
X0233264Y0133533D02*
X0233298Y0133567D01*
X0233365Y0133567D01*
X0233398Y0133533D01*
X0233398Y0133500D01*
X0233264Y0133500D01*
X0233264Y0133533D02*
X0233264Y0133466D01*
X0233298Y0133433D01*
X0233365Y0133433D01*
X0233329Y0133267D02*
X0233429Y0133267D01*
X0233395Y0133200D02*
X0233329Y0133200D01*
X0233295Y0133233D01*
X0233329Y0133267D01*
X0233242Y0133267D02*
X0233142Y0133200D01*
X0233242Y0133133D01*
X0233295Y0133133D02*
X0233395Y0133133D01*
X0233429Y0133166D01*
X0233395Y0133200D01*
X0233663Y0133166D02*
X0233697Y0133133D01*
X0233797Y0133133D01*
X0233797Y0133100D02*
X0233764Y0133066D01*
X0233730Y0133066D01*
X0233797Y0133100D02*
X0233797Y0133267D01*
X0233848Y0133233D02*
X0233848Y0133166D01*
X0233881Y0133133D01*
X0233948Y0133133D01*
X0233981Y0133166D01*
X0233981Y0133233D01*
X0233948Y0133267D01*
X0233881Y0133267D01*
X0233848Y0133233D01*
X0233970Y0133366D02*
X0233970Y0133567D01*
X0234070Y0133567D01*
X0234104Y0133533D01*
X0234104Y0133466D01*
X0234070Y0133433D01*
X0233970Y0133433D01*
X0233920Y0133500D02*
X0233786Y0133500D01*
X0233786Y0133533D02*
X0233820Y0133567D01*
X0233886Y0133567D01*
X0233920Y0133533D01*
X0233920Y0133500D01*
X0233886Y0133433D02*
X0233820Y0133433D01*
X0233786Y0133466D01*
X0233786Y0133533D01*
X0233733Y0133567D02*
X0233700Y0133567D01*
X0233633Y0133500D01*
X0233633Y0133433D02*
X0233633Y0133567D01*
X0233610Y0133733D02*
X0233643Y0133766D01*
X0233643Y0133833D01*
X0233610Y0133867D01*
X0233510Y0133867D01*
X0233510Y0133933D02*
X0233510Y0133733D01*
X0233610Y0133733D01*
X0233694Y0133733D02*
X0233694Y0133867D01*
X0233761Y0133867D02*
X0233794Y0133867D01*
X0233761Y0133867D02*
X0233694Y0133800D01*
X0233848Y0133766D02*
X0233881Y0133800D01*
X0233981Y0133800D01*
X0233981Y0133833D02*
X0233981Y0133733D01*
X0233881Y0133733D01*
X0233848Y0133766D01*
X0233881Y0133867D02*
X0233948Y0133867D01*
X0233981Y0133833D01*
X0234032Y0133800D02*
X0234098Y0133867D01*
X0234132Y0133867D01*
X0234185Y0133867D02*
X0234185Y0133766D01*
X0234219Y0133733D01*
X0234319Y0133733D01*
X0234319Y0133700D02*
X0234285Y0133666D01*
X0234252Y0133666D01*
X0234319Y0133700D02*
X0234319Y0133867D01*
X0234554Y0133867D02*
X0234554Y0133766D01*
X0234587Y0133733D01*
X0234620Y0133766D01*
X0234654Y0133733D01*
X0234687Y0133766D01*
X0234687Y0133867D01*
X0234771Y0133867D02*
X0234838Y0133867D01*
X0234871Y0133833D01*
X0234871Y0133733D01*
X0234771Y0133733D01*
X0234738Y0133766D01*
X0234771Y0133800D01*
X0234871Y0133800D01*
X0234922Y0133833D02*
X0234955Y0133867D01*
X0235055Y0133867D01*
X0235022Y0133800D02*
X0234955Y0133800D01*
X0234922Y0133833D01*
X0234922Y0133733D02*
X0235022Y0133733D01*
X0235055Y0133766D01*
X0235022Y0133800D01*
X0234983Y0133567D02*
X0235083Y0133567D01*
X0235117Y0133533D01*
X0235117Y0133433D01*
X0235167Y0133466D02*
X0235201Y0133433D01*
X0235301Y0133433D01*
X0235301Y0133400D02*
X0235267Y0133366D01*
X0235234Y0133366D01*
X0235301Y0133400D02*
X0235301Y0133567D01*
X0235167Y0133567D02*
X0235167Y0133466D01*
X0234983Y0133433D02*
X0234983Y0133567D01*
X0234933Y0133533D02*
X0234933Y0133433D01*
X0234832Y0133433D01*
X0234799Y0133466D01*
X0234832Y0133500D01*
X0234933Y0133500D01*
X0234933Y0133533D02*
X0234899Y0133567D01*
X0234832Y0133567D01*
X0234559Y0133567D02*
X0234492Y0133567D01*
X0234526Y0133600D02*
X0234526Y0133466D01*
X0234559Y0133433D01*
X0234439Y0133567D02*
X0234405Y0133567D01*
X0234339Y0133500D01*
X0234288Y0133533D02*
X0234255Y0133567D01*
X0234188Y0133567D01*
X0234155Y0133533D01*
X0234155Y0133466D01*
X0234188Y0133433D01*
X0234255Y0133433D01*
X0234288Y0133466D01*
X0234288Y0133533D01*
X0234339Y0133567D02*
X0234339Y0133433D01*
X0234339Y0133367D02*
X0234339Y0133233D01*
X0234277Y0133233D02*
X0234277Y0133367D01*
X0234216Y0133367D02*
X0234216Y0133233D01*
X0234165Y0133267D02*
X0234165Y0133133D01*
X0234065Y0133133D01*
X0234032Y0133166D01*
X0234032Y0133267D01*
X0234216Y0133166D02*
X0234216Y0133133D01*
X0234277Y0133133D02*
X0234277Y0133166D01*
X0234339Y0133166D02*
X0234339Y0133133D01*
X0234032Y0133733D02*
X0234032Y0133867D01*
X0233454Y0133733D02*
X0233387Y0133733D01*
X0233421Y0133733D02*
X0233421Y0133867D01*
X0233387Y0133867D01*
X0233421Y0133933D02*
X0233421Y0133967D01*
X0233298Y0133933D02*
X0233298Y0133733D01*
X0233331Y0133733D02*
X0233264Y0133733D01*
X0233264Y0133933D02*
X0233298Y0133933D01*
X0233030Y0133867D02*
X0232930Y0133867D01*
X0232896Y0133833D01*
X0232930Y0133800D01*
X0232996Y0133800D01*
X0233030Y0133766D01*
X0232996Y0133733D01*
X0232896Y0133733D01*
X0232840Y0133733D02*
X0232773Y0133733D01*
X0232807Y0133733D02*
X0232807Y0133867D01*
X0232773Y0133867D01*
X0232723Y0133833D02*
X0232723Y0133733D01*
X0232723Y0133833D02*
X0232689Y0133867D01*
X0232623Y0133867D01*
X0232589Y0133833D01*
X0232472Y0133733D02*
X0232472Y0133933D01*
X0232505Y0133633D02*
X0232539Y0133600D01*
X0232539Y0133533D01*
X0232505Y0133500D01*
X0232405Y0133500D01*
X0232405Y0133433D02*
X0232405Y0133633D01*
X0232505Y0133633D01*
X0232712Y0133533D02*
X0232745Y0133567D01*
X0232812Y0133567D01*
X0232845Y0133533D01*
X0232845Y0133500D01*
X0232712Y0133500D01*
X0232712Y0133533D02*
X0232712Y0133466D01*
X0232745Y0133433D01*
X0232812Y0133433D01*
X0232896Y0133466D02*
X0232930Y0133500D01*
X0233030Y0133500D01*
X0233030Y0133533D02*
X0233030Y0133433D01*
X0232930Y0133433D01*
X0232896Y0133466D01*
X0232930Y0133567D02*
X0232996Y0133567D01*
X0233030Y0133533D01*
X0233080Y0133433D02*
X0233180Y0133433D01*
X0232958Y0133267D02*
X0232958Y0133133D01*
X0232539Y0133333D02*
X0232405Y0133333D01*
X0232472Y0133333D02*
X0232472Y0133133D01*
X0232807Y0133933D02*
X0232807Y0133967D01*
X0233663Y0133267D02*
X0233663Y0133166D01*
X0235290Y0133766D02*
X0235323Y0133733D01*
X0235424Y0133733D01*
X0235474Y0133733D02*
X0235474Y0133867D01*
X0235424Y0133867D02*
X0235323Y0133867D01*
X0235290Y0133833D01*
X0235290Y0133766D01*
X0235474Y0133800D02*
X0235541Y0133867D01*
X0235574Y0133867D01*
X0235628Y0133833D02*
X0235661Y0133867D01*
X0235728Y0133867D01*
X0235761Y0133833D01*
X0235761Y0133800D01*
X0235628Y0133800D01*
X0235628Y0133833D02*
X0235628Y0133766D01*
X0235661Y0133733D01*
X0235728Y0133733D01*
X0235812Y0133766D02*
X0235845Y0133800D01*
X0235945Y0133800D01*
X0235945Y0133833D02*
X0235945Y0133733D01*
X0235845Y0133733D01*
X0235812Y0133766D01*
X0235845Y0133867D02*
X0235912Y0133867D01*
X0235945Y0133833D01*
X0235996Y0133867D02*
X0236063Y0133867D01*
X0236029Y0133900D02*
X0236029Y0133766D01*
X0236063Y0133733D01*
X0236119Y0133766D02*
X0236119Y0133833D01*
X0236152Y0133867D01*
X0236219Y0133867D01*
X0236252Y0133833D01*
X0236252Y0133800D01*
X0236119Y0133800D01*
X0236119Y0133766D02*
X0236152Y0133733D01*
X0236219Y0133733D01*
X0236303Y0133766D02*
X0236303Y0133833D01*
X0236336Y0133867D01*
X0236436Y0133867D01*
X0236436Y0133933D02*
X0236436Y0133733D01*
X0236336Y0133733D01*
X0236303Y0133766D01*
X0236311Y0133567D02*
X0236278Y0133567D01*
X0236211Y0133500D01*
X0236160Y0133533D02*
X0236127Y0133567D01*
X0236060Y0133567D01*
X0236027Y0133533D01*
X0236027Y0133466D01*
X0236060Y0133433D01*
X0236127Y0133433D01*
X0236160Y0133466D01*
X0236160Y0133533D01*
X0236211Y0133567D02*
X0236211Y0133433D01*
X0236364Y0133433D02*
X0236464Y0133433D01*
X0236498Y0133466D01*
X0236464Y0133500D01*
X0236398Y0133500D01*
X0236364Y0133533D01*
X0236398Y0133567D01*
X0236498Y0133567D01*
X0236733Y0133533D02*
X0236733Y0133466D01*
X0236766Y0133433D01*
X0236833Y0133433D01*
X0236866Y0133466D01*
X0236866Y0133533D01*
X0236833Y0133567D01*
X0236766Y0133567D01*
X0236733Y0133533D01*
X0236917Y0133500D02*
X0236984Y0133567D01*
X0237017Y0133567D01*
X0236917Y0133567D02*
X0236917Y0133433D01*
X0236922Y0133666D02*
X0236956Y0133666D01*
X0236989Y0133700D01*
X0236989Y0133867D01*
X0236855Y0133867D02*
X0236855Y0133766D01*
X0236889Y0133733D01*
X0236989Y0133733D01*
X0236805Y0133766D02*
X0236805Y0133833D01*
X0236771Y0133867D01*
X0236671Y0133867D01*
X0236671Y0133933D02*
X0236671Y0133733D01*
X0236771Y0133733D01*
X0236805Y0133766D01*
X0237224Y0133733D02*
X0237357Y0133733D01*
X0237408Y0133733D02*
X0237508Y0133733D01*
X0237541Y0133766D01*
X0237508Y0133800D01*
X0237441Y0133800D01*
X0237408Y0133833D01*
X0237441Y0133867D01*
X0237541Y0133867D01*
X0237592Y0133867D02*
X0237692Y0133867D01*
X0237725Y0133833D01*
X0237725Y0133766D01*
X0237692Y0133733D01*
X0237592Y0133733D01*
X0237592Y0133666D02*
X0237592Y0133867D01*
X0237776Y0133766D02*
X0237810Y0133766D01*
X0237810Y0133733D01*
X0237776Y0133733D01*
X0237776Y0133766D01*
X0237756Y0133567D02*
X0237656Y0133567D01*
X0237623Y0133533D01*
X0237623Y0133466D01*
X0237656Y0133433D01*
X0237756Y0133433D01*
X0237756Y0133400D02*
X0237756Y0133567D01*
X0237807Y0133533D02*
X0237807Y0133466D01*
X0237840Y0133433D01*
X0237940Y0133433D01*
X0237940Y0133400D02*
X0237940Y0133567D01*
X0237840Y0133567D01*
X0237807Y0133533D01*
X0237756Y0133400D02*
X0237723Y0133366D01*
X0237689Y0133366D01*
X0237572Y0133433D02*
X0237572Y0133567D01*
X0237439Y0133567D02*
X0237439Y0133466D01*
X0237472Y0133433D01*
X0237572Y0133433D01*
X0237388Y0133466D02*
X0237355Y0133500D01*
X0237288Y0133500D01*
X0237254Y0133533D01*
X0237288Y0133567D01*
X0237388Y0133567D01*
X0237388Y0133466D02*
X0237355Y0133433D01*
X0237254Y0133433D01*
X0237224Y0133733D02*
X0237224Y0133933D01*
X0237357Y0133933D01*
X0237290Y0133833D02*
X0237224Y0133833D01*
X0237874Y0133366D02*
X0237907Y0133366D01*
X0237940Y0133400D01*
X0237991Y0133466D02*
X0237991Y0133533D01*
X0238024Y0133567D01*
X0238091Y0133567D01*
X0238124Y0133533D01*
X0238124Y0133500D01*
X0237991Y0133500D01*
X0237991Y0133466D02*
X0238024Y0133433D01*
X0238091Y0133433D01*
X0238175Y0133433D02*
X0238275Y0133433D01*
X0238309Y0133466D01*
X0238275Y0133500D01*
X0238209Y0133500D01*
X0238175Y0133533D01*
X0238209Y0133567D01*
X0238309Y0133567D01*
X0238359Y0133567D02*
X0238426Y0133567D01*
X0238393Y0133600D02*
X0238393Y0133466D01*
X0238426Y0133433D01*
X0238482Y0133433D02*
X0238549Y0133433D01*
X0238515Y0133433D02*
X0238515Y0133567D01*
X0238482Y0133567D01*
X0238515Y0133633D02*
X0238515Y0133667D01*
X0238608Y0133733D02*
X0238708Y0133733D01*
X0238758Y0133766D02*
X0238792Y0133733D01*
X0238858Y0133733D01*
X0238892Y0133766D01*
X0238892Y0133833D01*
X0238858Y0133867D01*
X0238792Y0133867D01*
X0238758Y0133833D01*
X0238758Y0133766D01*
X0238708Y0133867D02*
X0238608Y0133867D01*
X0238574Y0133833D01*
X0238574Y0133766D01*
X0238608Y0133733D01*
X0238521Y0133867D02*
X0238487Y0133867D01*
X0238421Y0133800D01*
X0238370Y0133800D02*
X0238270Y0133800D01*
X0238237Y0133766D01*
X0238270Y0133733D01*
X0238370Y0133733D01*
X0238370Y0133833D01*
X0238337Y0133867D01*
X0238270Y0133867D01*
X0238186Y0133933D02*
X0238186Y0133733D01*
X0238052Y0133733D02*
X0238052Y0133933D01*
X0238119Y0133867D01*
X0238186Y0133933D01*
X0238421Y0133867D02*
X0238421Y0133733D01*
X0238605Y0133533D02*
X0238605Y0133466D01*
X0238638Y0133433D01*
X0238705Y0133433D01*
X0238738Y0133466D01*
X0238738Y0133533D01*
X0238705Y0133567D01*
X0238638Y0133567D01*
X0238605Y0133533D01*
X0238789Y0133567D02*
X0238889Y0133567D01*
X0238922Y0133533D01*
X0238922Y0133433D01*
X0238973Y0133433D02*
X0239073Y0133433D01*
X0239107Y0133466D01*
X0239073Y0133500D01*
X0239007Y0133500D01*
X0238973Y0133533D01*
X0239007Y0133567D01*
X0239107Y0133567D01*
X0239127Y0133733D02*
X0239260Y0133733D01*
X0239311Y0133766D02*
X0239344Y0133733D01*
X0239444Y0133733D01*
X0239444Y0133867D01*
X0239495Y0133867D02*
X0239528Y0133867D01*
X0239528Y0133733D01*
X0239495Y0133733D02*
X0239562Y0133733D01*
X0239618Y0133733D02*
X0239718Y0133733D01*
X0239751Y0133766D01*
X0239718Y0133800D01*
X0239651Y0133800D01*
X0239618Y0133833D01*
X0239651Y0133867D01*
X0239751Y0133867D01*
X0239528Y0133933D02*
X0239528Y0133967D01*
X0239311Y0133867D02*
X0239311Y0133766D01*
X0239375Y0133600D02*
X0239375Y0133466D01*
X0239408Y0133433D01*
X0239464Y0133466D02*
X0239498Y0133433D01*
X0239564Y0133433D01*
X0239598Y0133466D01*
X0239598Y0133533D01*
X0239564Y0133567D01*
X0239498Y0133567D01*
X0239464Y0133533D01*
X0239464Y0133466D01*
X0239408Y0133567D02*
X0239341Y0133567D01*
X0239127Y0133733D02*
X0239127Y0133933D01*
X0239076Y0133833D02*
X0238943Y0133833D01*
X0238789Y0133567D02*
X0238789Y0133433D01*
X0239648Y0133433D02*
X0239648Y0133466D01*
X0239682Y0133466D01*
X0239682Y0133433D01*
X0239648Y0133433D01*
X0239648Y0133533D02*
X0239648Y0133567D01*
X0239682Y0133567D01*
X0239682Y0133533D01*
X0239648Y0133533D01*
X0239925Y0133600D02*
X0239991Y0133533D01*
X0239991Y0133433D01*
X0239991Y0133533D02*
X0240058Y0133600D01*
X0240058Y0133633D01*
X0240109Y0133633D02*
X0240109Y0133500D01*
X0240176Y0133433D01*
X0240242Y0133500D01*
X0240242Y0133633D01*
X0240293Y0133567D02*
X0240360Y0133633D01*
X0240360Y0133433D01*
X0240426Y0133433D02*
X0240293Y0133433D01*
X0240477Y0133433D02*
X0240477Y0133633D01*
X0240477Y0133533D02*
X0240611Y0133533D01*
X0240611Y0133633D02*
X0240611Y0133433D01*
X0240661Y0133433D02*
X0240795Y0133633D01*
X0240845Y0133600D02*
X0240879Y0133633D01*
X0240945Y0133633D01*
X0240979Y0133600D01*
X0240979Y0133533D01*
X0240945Y0133500D01*
X0240945Y0133567D01*
X0240879Y0133567D01*
X0240879Y0133500D01*
X0240945Y0133500D01*
X0240979Y0133466D02*
X0240945Y0133433D01*
X0240879Y0133433D01*
X0240845Y0133466D01*
X0240845Y0133600D01*
X0240856Y0133733D02*
X0240723Y0133733D01*
X0240723Y0133933D01*
X0240856Y0133933D01*
X0240907Y0133933D02*
X0241007Y0133933D01*
X0241040Y0133900D01*
X0241040Y0133766D01*
X0241007Y0133733D01*
X0240907Y0133733D01*
X0240907Y0133933D01*
X0240789Y0133833D02*
X0240723Y0133833D01*
X0240672Y0133766D02*
X0240639Y0133733D01*
X0240572Y0133733D01*
X0240538Y0133766D01*
X0240538Y0133900D01*
X0240572Y0133933D01*
X0240639Y0133933D01*
X0240672Y0133900D01*
X0240488Y0133733D02*
X0240354Y0133733D01*
X0240354Y0133933D01*
X0240304Y0133867D02*
X0240304Y0133733D01*
X0240304Y0133833D02*
X0240170Y0133833D01*
X0240170Y0133867D02*
X0240237Y0133933D01*
X0240304Y0133867D01*
X0240170Y0133867D02*
X0240170Y0133733D01*
X0240119Y0133766D02*
X0240086Y0133733D01*
X0240019Y0133733D01*
X0239986Y0133766D01*
X0240019Y0133833D02*
X0240086Y0133833D01*
X0240119Y0133800D01*
X0240119Y0133766D01*
X0240019Y0133833D02*
X0239986Y0133867D01*
X0239986Y0133900D01*
X0240019Y0133933D01*
X0240086Y0133933D01*
X0240119Y0133900D01*
X0239925Y0133633D02*
X0239925Y0133600D01*
X0240661Y0133633D02*
X0240795Y0133433D01*
X0241030Y0133466D02*
X0241063Y0133433D01*
X0241130Y0133433D01*
X0241163Y0133466D01*
X0241214Y0133433D02*
X0241214Y0133567D01*
X0241280Y0133633D01*
X0241347Y0133567D01*
X0241347Y0133433D01*
X0241398Y0133433D02*
X0241398Y0133633D01*
X0241531Y0133433D01*
X0241531Y0133633D01*
X0241582Y0133633D02*
X0241715Y0133633D01*
X0241766Y0133633D02*
X0241766Y0133500D01*
X0241833Y0133433D01*
X0241900Y0133500D01*
X0241900Y0133633D01*
X0241894Y0133733D02*
X0241961Y0133800D01*
X0241961Y0133933D01*
X0242012Y0133867D02*
X0242078Y0133933D01*
X0242145Y0133867D01*
X0242145Y0133733D01*
X0242196Y0133733D02*
X0242196Y0133933D01*
X0242296Y0133933D01*
X0242329Y0133900D01*
X0242329Y0133833D01*
X0242296Y0133800D01*
X0242196Y0133800D01*
X0242145Y0133833D02*
X0242012Y0133833D01*
X0242012Y0133867D02*
X0242012Y0133733D01*
X0242042Y0133633D02*
X0242176Y0133433D01*
X0242176Y0133633D01*
X0242227Y0133633D02*
X0242227Y0133433D01*
X0242360Y0133433D01*
X0242477Y0133433D02*
X0242477Y0133633D01*
X0242411Y0133633D02*
X0242544Y0133633D01*
X0242413Y0133733D02*
X0242380Y0133733D01*
X0242380Y0133766D01*
X0242413Y0133766D01*
X0242413Y0133733D01*
X0242329Y0133733D02*
X0242263Y0133800D01*
X0242227Y0133633D02*
X0242360Y0133633D01*
X0242293Y0133533D02*
X0242227Y0133533D01*
X0242042Y0133433D02*
X0242042Y0133633D01*
X0241984Y0133466D02*
X0241984Y0133433D01*
X0241950Y0133433D01*
X0241950Y0133466D01*
X0241984Y0133466D01*
X0241894Y0133733D02*
X0241828Y0133800D01*
X0241828Y0133933D01*
X0241777Y0133900D02*
X0241743Y0133933D01*
X0241677Y0133933D01*
X0241643Y0133900D01*
X0241643Y0133766D01*
X0241677Y0133733D01*
X0241743Y0133733D01*
X0241777Y0133766D01*
X0241777Y0133900D01*
X0241593Y0133933D02*
X0241459Y0133933D01*
X0241526Y0133933D02*
X0241526Y0133733D01*
X0241649Y0133633D02*
X0241649Y0133433D01*
X0241347Y0133533D02*
X0241214Y0133533D01*
X0241163Y0133600D02*
X0241130Y0133633D01*
X0241063Y0133633D01*
X0241030Y0133600D01*
X0241030Y0133466D01*
X0241124Y0133733D02*
X0241191Y0133733D01*
X0241224Y0133766D01*
X0241224Y0133900D01*
X0241191Y0133933D01*
X0241124Y0133933D01*
X0241091Y0133900D01*
X0241091Y0133766D01*
X0241124Y0133733D01*
X0235973Y0133567D02*
X0235940Y0133567D01*
X0235873Y0133500D01*
X0235873Y0133433D02*
X0235873Y0133567D01*
X0235820Y0133567D02*
X0235787Y0133567D01*
X0235720Y0133500D01*
X0235669Y0133500D02*
X0235536Y0133500D01*
X0235536Y0133533D02*
X0235569Y0133567D01*
X0235636Y0133567D01*
X0235669Y0133533D01*
X0235669Y0133500D01*
X0235636Y0133433D02*
X0235569Y0133433D01*
X0235536Y0133466D01*
X0235536Y0133533D01*
X0235720Y0133567D02*
X0235720Y0133433D01*
X0264095Y0133933D02*
X0264097Y0134051D01*
X0264103Y0134169D01*
X0264113Y0134287D01*
X0264127Y0134404D01*
X0264145Y0134521D01*
X0264167Y0134638D01*
X0264192Y0134753D01*
X0264222Y0134867D01*
X0264256Y0134981D01*
X0264293Y0135093D01*
X0264334Y0135204D01*
X0264379Y0135313D01*
X0264427Y0135421D01*
X0264479Y0135527D01*
X0264535Y0135632D01*
X0264594Y0135734D01*
X0264656Y0135834D01*
X0264722Y0135932D01*
X0264791Y0136028D01*
X0264864Y0136122D01*
X0264939Y0136213D01*
X0265018Y0136301D01*
X0265099Y0136387D01*
X0265184Y0136470D01*
X0265271Y0136550D01*
X0265360Y0136627D01*
X0265453Y0136701D01*
X0265547Y0136771D01*
X0265644Y0136839D01*
X0265744Y0136903D01*
X0265845Y0136964D01*
X0265948Y0137021D01*
X0266054Y0137075D01*
X0266161Y0137126D01*
X0266269Y0137172D01*
X0266379Y0137215D01*
X0266491Y0137254D01*
X0266604Y0137290D01*
X0266718Y0137321D01*
X0266833Y0137349D01*
X0266948Y0137373D01*
X0267065Y0137393D01*
X0267182Y0137409D01*
X0267300Y0137421D01*
X0267418Y0137429D01*
X0267536Y0137433D01*
X0267654Y0137433D01*
X0267772Y0137429D01*
X0267890Y0137421D01*
X0268008Y0137409D01*
X0268125Y0137393D01*
X0268242Y0137373D01*
X0268357Y0137349D01*
X0268472Y0137321D01*
X0268586Y0137290D01*
X0268699Y0137254D01*
X0268811Y0137215D01*
X0268921Y0137172D01*
X0269029Y0137126D01*
X0269136Y0137075D01*
X0269242Y0137021D01*
X0269345Y0136964D01*
X0269446Y0136903D01*
X0269546Y0136839D01*
X0269643Y0136771D01*
X0269737Y0136701D01*
X0269830Y0136627D01*
X0269919Y0136550D01*
X0270006Y0136470D01*
X0270091Y0136387D01*
X0270172Y0136301D01*
X0270251Y0136213D01*
X0270326Y0136122D01*
X0270399Y0136028D01*
X0270468Y0135932D01*
X0270534Y0135834D01*
X0270596Y0135734D01*
X0270655Y0135632D01*
X0270711Y0135527D01*
X0270763Y0135421D01*
X0270811Y0135313D01*
X0270856Y0135204D01*
X0270897Y0135093D01*
X0270934Y0134981D01*
X0270968Y0134867D01*
X0270998Y0134753D01*
X0271023Y0134638D01*
X0271045Y0134521D01*
X0271063Y0134404D01*
X0271077Y0134287D01*
X0271087Y0134169D01*
X0271093Y0134051D01*
X0271095Y0133933D01*
X0271093Y0133815D01*
X0271087Y0133697D01*
X0271077Y0133579D01*
X0271063Y0133462D01*
X0271045Y0133345D01*
X0271023Y0133228D01*
X0270998Y0133113D01*
X0270968Y0132999D01*
X0270934Y0132885D01*
X0270897Y0132773D01*
X0270856Y0132662D01*
X0270811Y0132553D01*
X0270763Y0132445D01*
X0270711Y0132339D01*
X0270655Y0132234D01*
X0270596Y0132132D01*
X0270534Y0132032D01*
X0270468Y0131934D01*
X0270399Y0131838D01*
X0270326Y0131744D01*
X0270251Y0131653D01*
X0270172Y0131565D01*
X0270091Y0131479D01*
X0270006Y0131396D01*
X0269919Y0131316D01*
X0269830Y0131239D01*
X0269737Y0131165D01*
X0269643Y0131095D01*
X0269546Y0131027D01*
X0269446Y0130963D01*
X0269345Y0130902D01*
X0269242Y0130845D01*
X0269136Y0130791D01*
X0269029Y0130740D01*
X0268921Y0130694D01*
X0268811Y0130651D01*
X0268699Y0130612D01*
X0268586Y0130576D01*
X0268472Y0130545D01*
X0268357Y0130517D01*
X0268242Y0130493D01*
X0268125Y0130473D01*
X0268008Y0130457D01*
X0267890Y0130445D01*
X0267772Y0130437D01*
X0267654Y0130433D01*
X0267536Y0130433D01*
X0267418Y0130437D01*
X0267300Y0130445D01*
X0267182Y0130457D01*
X0267065Y0130473D01*
X0266948Y0130493D01*
X0266833Y0130517D01*
X0266718Y0130545D01*
X0266604Y0130576D01*
X0266491Y0130612D01*
X0266379Y0130651D01*
X0266269Y0130694D01*
X0266161Y0130740D01*
X0266054Y0130791D01*
X0265948Y0130845D01*
X0265845Y0130902D01*
X0265744Y0130963D01*
X0265644Y0131027D01*
X0265547Y0131095D01*
X0265453Y0131165D01*
X0265360Y0131239D01*
X0265271Y0131316D01*
X0265184Y0131396D01*
X0265099Y0131479D01*
X0265018Y0131565D01*
X0264939Y0131653D01*
X0264864Y0131744D01*
X0264791Y0131838D01*
X0264722Y0131934D01*
X0264656Y0132032D01*
X0264594Y0132132D01*
X0264535Y0132234D01*
X0264479Y0132339D01*
X0264427Y0132445D01*
X0264379Y0132553D01*
X0264334Y0132662D01*
X0264293Y0132773D01*
X0264256Y0132885D01*
X0264222Y0132999D01*
X0264192Y0133113D01*
X0264167Y0133228D01*
X0264145Y0133345D01*
X0264127Y0133462D01*
X0264113Y0133579D01*
X0264103Y0133697D01*
X0264097Y0133815D01*
X0264095Y0133933D01*
X0285488Y0132358D02*
X0285491Y0132600D01*
X0285500Y0132841D01*
X0285515Y0133082D01*
X0285535Y0133323D01*
X0285562Y0133563D01*
X0285595Y0133802D01*
X0285633Y0134041D01*
X0285677Y0134278D01*
X0285727Y0134515D01*
X0285783Y0134750D01*
X0285845Y0134983D01*
X0285912Y0135215D01*
X0285985Y0135446D01*
X0286063Y0135674D01*
X0286148Y0135900D01*
X0286237Y0136125D01*
X0286332Y0136347D01*
X0286433Y0136566D01*
X0286539Y0136784D01*
X0286650Y0136998D01*
X0286767Y0137210D01*
X0286888Y0137418D01*
X0287015Y0137624D01*
X0287147Y0137826D01*
X0287284Y0138026D01*
X0287425Y0138221D01*
X0287571Y0138414D01*
X0287722Y0138602D01*
X0287878Y0138787D01*
X0288038Y0138968D01*
X0288202Y0139145D01*
X0288371Y0139318D01*
X0288544Y0139487D01*
X0288721Y0139651D01*
X0288902Y0139811D01*
X0289087Y0139967D01*
X0289275Y0140118D01*
X0289468Y0140264D01*
X0289663Y0140405D01*
X0289863Y0140542D01*
X0290065Y0140674D01*
X0290271Y0140801D01*
X0290479Y0140922D01*
X0290691Y0141039D01*
X0290905Y0141150D01*
X0291123Y0141256D01*
X0291342Y0141357D01*
X0291564Y0141452D01*
X0291789Y0141541D01*
X0292015Y0141626D01*
X0292243Y0141704D01*
X0292474Y0141777D01*
X0292706Y0141844D01*
X0292939Y0141906D01*
X0293174Y0141962D01*
X0293411Y0142012D01*
X0293648Y0142056D01*
X0293887Y0142094D01*
X0294126Y0142127D01*
X0294366Y0142154D01*
X0294607Y0142174D01*
X0294848Y0142189D01*
X0295089Y0142198D01*
X0295331Y0142201D01*
X0295573Y0142198D01*
X0295814Y0142189D01*
X0296055Y0142174D01*
X0296296Y0142154D01*
X0296536Y0142127D01*
X0296775Y0142094D01*
X0297014Y0142056D01*
X0297251Y0142012D01*
X0297488Y0141962D01*
X0297723Y0141906D01*
X0297956Y0141844D01*
X0298188Y0141777D01*
X0298419Y0141704D01*
X0298647Y0141626D01*
X0298873Y0141541D01*
X0299098Y0141452D01*
X0299320Y0141357D01*
X0299539Y0141256D01*
X0299757Y0141150D01*
X0299971Y0141039D01*
X0300183Y0140922D01*
X0300391Y0140801D01*
X0300597Y0140674D01*
X0300799Y0140542D01*
X0300999Y0140405D01*
X0301194Y0140264D01*
X0301387Y0140118D01*
X0301575Y0139967D01*
X0301760Y0139811D01*
X0301941Y0139651D01*
X0302118Y0139487D01*
X0302291Y0139318D01*
X0302460Y0139145D01*
X0302624Y0138968D01*
X0302784Y0138787D01*
X0302940Y0138602D01*
X0303091Y0138414D01*
X0303237Y0138221D01*
X0303378Y0138026D01*
X0303515Y0137826D01*
X0303647Y0137624D01*
X0303774Y0137418D01*
X0303895Y0137210D01*
X0304012Y0136998D01*
X0304123Y0136784D01*
X0304229Y0136566D01*
X0304330Y0136347D01*
X0304425Y0136125D01*
X0304514Y0135900D01*
X0304599Y0135674D01*
X0304677Y0135446D01*
X0304750Y0135215D01*
X0304817Y0134983D01*
X0304879Y0134750D01*
X0304935Y0134515D01*
X0304985Y0134278D01*
X0305029Y0134041D01*
X0305067Y0133802D01*
X0305100Y0133563D01*
X0305127Y0133323D01*
X0305147Y0133082D01*
X0305162Y0132841D01*
X0305171Y0132600D01*
X0305174Y0132358D01*
X0305171Y0132116D01*
X0305162Y0131875D01*
X0305147Y0131634D01*
X0305127Y0131393D01*
X0305100Y0131153D01*
X0305067Y0130914D01*
X0305029Y0130675D01*
X0304985Y0130438D01*
X0304935Y0130201D01*
X0304879Y0129966D01*
X0304817Y0129733D01*
X0304750Y0129501D01*
X0304677Y0129270D01*
X0304599Y0129042D01*
X0304514Y0128816D01*
X0304425Y0128591D01*
X0304330Y0128369D01*
X0304229Y0128150D01*
X0304123Y0127932D01*
X0304012Y0127718D01*
X0303895Y0127506D01*
X0303774Y0127298D01*
X0303647Y0127092D01*
X0303515Y0126890D01*
X0303378Y0126690D01*
X0303237Y0126495D01*
X0303091Y0126302D01*
X0302940Y0126114D01*
X0302784Y0125929D01*
X0302624Y0125748D01*
X0302460Y0125571D01*
X0302291Y0125398D01*
X0302118Y0125229D01*
X0301941Y0125065D01*
X0301760Y0124905D01*
X0301575Y0124749D01*
X0301387Y0124598D01*
X0301194Y0124452D01*
X0300999Y0124311D01*
X0300799Y0124174D01*
X0300597Y0124042D01*
X0300391Y0123915D01*
X0300183Y0123794D01*
X0299971Y0123677D01*
X0299757Y0123566D01*
X0299539Y0123460D01*
X0299320Y0123359D01*
X0299098Y0123264D01*
X0298873Y0123175D01*
X0298647Y0123090D01*
X0298419Y0123012D01*
X0298188Y0122939D01*
X0297956Y0122872D01*
X0297723Y0122810D01*
X0297488Y0122754D01*
X0297251Y0122704D01*
X0297014Y0122660D01*
X0296775Y0122622D01*
X0296536Y0122589D01*
X0296296Y0122562D01*
X0296055Y0122542D01*
X0295814Y0122527D01*
X0295573Y0122518D01*
X0295331Y0122515D01*
X0295089Y0122518D01*
X0294848Y0122527D01*
X0294607Y0122542D01*
X0294366Y0122562D01*
X0294126Y0122589D01*
X0293887Y0122622D01*
X0293648Y0122660D01*
X0293411Y0122704D01*
X0293174Y0122754D01*
X0292939Y0122810D01*
X0292706Y0122872D01*
X0292474Y0122939D01*
X0292243Y0123012D01*
X0292015Y0123090D01*
X0291789Y0123175D01*
X0291564Y0123264D01*
X0291342Y0123359D01*
X0291123Y0123460D01*
X0290905Y0123566D01*
X0290691Y0123677D01*
X0290479Y0123794D01*
X0290271Y0123915D01*
X0290065Y0124042D01*
X0289863Y0124174D01*
X0289663Y0124311D01*
X0289468Y0124452D01*
X0289275Y0124598D01*
X0289087Y0124749D01*
X0288902Y0124905D01*
X0288721Y0125065D01*
X0288544Y0125229D01*
X0288371Y0125398D01*
X0288202Y0125571D01*
X0288038Y0125748D01*
X0287878Y0125929D01*
X0287722Y0126114D01*
X0287571Y0126302D01*
X0287425Y0126495D01*
X0287284Y0126690D01*
X0287147Y0126890D01*
X0287015Y0127092D01*
X0286888Y0127298D01*
X0286767Y0127506D01*
X0286650Y0127718D01*
X0286539Y0127932D01*
X0286433Y0128150D01*
X0286332Y0128369D01*
X0286237Y0128591D01*
X0286148Y0128816D01*
X0286063Y0129042D01*
X0285985Y0129270D01*
X0285912Y0129501D01*
X0285845Y0129733D01*
X0285783Y0129966D01*
X0285727Y0130201D01*
X0285677Y0130438D01*
X0285633Y0130675D01*
X0285595Y0130914D01*
X0285562Y0131153D01*
X0285535Y0131393D01*
X0285515Y0131634D01*
X0285500Y0131875D01*
X0285491Y0132116D01*
X0285488Y0132358D01*
X0264095Y0293933D02*
X0264097Y0294051D01*
X0264103Y0294169D01*
X0264113Y0294287D01*
X0264127Y0294404D01*
X0264145Y0294521D01*
X0264167Y0294638D01*
X0264192Y0294753D01*
X0264222Y0294867D01*
X0264256Y0294981D01*
X0264293Y0295093D01*
X0264334Y0295204D01*
X0264379Y0295313D01*
X0264427Y0295421D01*
X0264479Y0295527D01*
X0264535Y0295632D01*
X0264594Y0295734D01*
X0264656Y0295834D01*
X0264722Y0295932D01*
X0264791Y0296028D01*
X0264864Y0296122D01*
X0264939Y0296213D01*
X0265018Y0296301D01*
X0265099Y0296387D01*
X0265184Y0296470D01*
X0265271Y0296550D01*
X0265360Y0296627D01*
X0265453Y0296701D01*
X0265547Y0296771D01*
X0265644Y0296839D01*
X0265744Y0296903D01*
X0265845Y0296964D01*
X0265948Y0297021D01*
X0266054Y0297075D01*
X0266161Y0297126D01*
X0266269Y0297172D01*
X0266379Y0297215D01*
X0266491Y0297254D01*
X0266604Y0297290D01*
X0266718Y0297321D01*
X0266833Y0297349D01*
X0266948Y0297373D01*
X0267065Y0297393D01*
X0267182Y0297409D01*
X0267300Y0297421D01*
X0267418Y0297429D01*
X0267536Y0297433D01*
X0267654Y0297433D01*
X0267772Y0297429D01*
X0267890Y0297421D01*
X0268008Y0297409D01*
X0268125Y0297393D01*
X0268242Y0297373D01*
X0268357Y0297349D01*
X0268472Y0297321D01*
X0268586Y0297290D01*
X0268699Y0297254D01*
X0268811Y0297215D01*
X0268921Y0297172D01*
X0269029Y0297126D01*
X0269136Y0297075D01*
X0269242Y0297021D01*
X0269345Y0296964D01*
X0269446Y0296903D01*
X0269546Y0296839D01*
X0269643Y0296771D01*
X0269737Y0296701D01*
X0269830Y0296627D01*
X0269919Y0296550D01*
X0270006Y0296470D01*
X0270091Y0296387D01*
X0270172Y0296301D01*
X0270251Y0296213D01*
X0270326Y0296122D01*
X0270399Y0296028D01*
X0270468Y0295932D01*
X0270534Y0295834D01*
X0270596Y0295734D01*
X0270655Y0295632D01*
X0270711Y0295527D01*
X0270763Y0295421D01*
X0270811Y0295313D01*
X0270856Y0295204D01*
X0270897Y0295093D01*
X0270934Y0294981D01*
X0270968Y0294867D01*
X0270998Y0294753D01*
X0271023Y0294638D01*
X0271045Y0294521D01*
X0271063Y0294404D01*
X0271077Y0294287D01*
X0271087Y0294169D01*
X0271093Y0294051D01*
X0271095Y0293933D01*
X0271093Y0293815D01*
X0271087Y0293697D01*
X0271077Y0293579D01*
X0271063Y0293462D01*
X0271045Y0293345D01*
X0271023Y0293228D01*
X0270998Y0293113D01*
X0270968Y0292999D01*
X0270934Y0292885D01*
X0270897Y0292773D01*
X0270856Y0292662D01*
X0270811Y0292553D01*
X0270763Y0292445D01*
X0270711Y0292339D01*
X0270655Y0292234D01*
X0270596Y0292132D01*
X0270534Y0292032D01*
X0270468Y0291934D01*
X0270399Y0291838D01*
X0270326Y0291744D01*
X0270251Y0291653D01*
X0270172Y0291565D01*
X0270091Y0291479D01*
X0270006Y0291396D01*
X0269919Y0291316D01*
X0269830Y0291239D01*
X0269737Y0291165D01*
X0269643Y0291095D01*
X0269546Y0291027D01*
X0269446Y0290963D01*
X0269345Y0290902D01*
X0269242Y0290845D01*
X0269136Y0290791D01*
X0269029Y0290740D01*
X0268921Y0290694D01*
X0268811Y0290651D01*
X0268699Y0290612D01*
X0268586Y0290576D01*
X0268472Y0290545D01*
X0268357Y0290517D01*
X0268242Y0290493D01*
X0268125Y0290473D01*
X0268008Y0290457D01*
X0267890Y0290445D01*
X0267772Y0290437D01*
X0267654Y0290433D01*
X0267536Y0290433D01*
X0267418Y0290437D01*
X0267300Y0290445D01*
X0267182Y0290457D01*
X0267065Y0290473D01*
X0266948Y0290493D01*
X0266833Y0290517D01*
X0266718Y0290545D01*
X0266604Y0290576D01*
X0266491Y0290612D01*
X0266379Y0290651D01*
X0266269Y0290694D01*
X0266161Y0290740D01*
X0266054Y0290791D01*
X0265948Y0290845D01*
X0265845Y0290902D01*
X0265744Y0290963D01*
X0265644Y0291027D01*
X0265547Y0291095D01*
X0265453Y0291165D01*
X0265360Y0291239D01*
X0265271Y0291316D01*
X0265184Y0291396D01*
X0265099Y0291479D01*
X0265018Y0291565D01*
X0264939Y0291653D01*
X0264864Y0291744D01*
X0264791Y0291838D01*
X0264722Y0291934D01*
X0264656Y0292032D01*
X0264594Y0292132D01*
X0264535Y0292234D01*
X0264479Y0292339D01*
X0264427Y0292445D01*
X0264379Y0292553D01*
X0264334Y0292662D01*
X0264293Y0292773D01*
X0264256Y0292885D01*
X0264222Y0292999D01*
X0264192Y0293113D01*
X0264167Y0293228D01*
X0264145Y0293345D01*
X0264127Y0293462D01*
X0264113Y0293579D01*
X0264103Y0293697D01*
X0264097Y0293815D01*
X0264095Y0293933D01*
X0204095Y0293933D02*
X0204097Y0294051D01*
X0204103Y0294169D01*
X0204113Y0294287D01*
X0204127Y0294404D01*
X0204145Y0294521D01*
X0204167Y0294638D01*
X0204192Y0294753D01*
X0204222Y0294867D01*
X0204256Y0294981D01*
X0204293Y0295093D01*
X0204334Y0295204D01*
X0204379Y0295313D01*
X0204427Y0295421D01*
X0204479Y0295527D01*
X0204535Y0295632D01*
X0204594Y0295734D01*
X0204656Y0295834D01*
X0204722Y0295932D01*
X0204791Y0296028D01*
X0204864Y0296122D01*
X0204939Y0296213D01*
X0205018Y0296301D01*
X0205099Y0296387D01*
X0205184Y0296470D01*
X0205271Y0296550D01*
X0205360Y0296627D01*
X0205453Y0296701D01*
X0205547Y0296771D01*
X0205644Y0296839D01*
X0205744Y0296903D01*
X0205845Y0296964D01*
X0205948Y0297021D01*
X0206054Y0297075D01*
X0206161Y0297126D01*
X0206269Y0297172D01*
X0206379Y0297215D01*
X0206491Y0297254D01*
X0206604Y0297290D01*
X0206718Y0297321D01*
X0206833Y0297349D01*
X0206948Y0297373D01*
X0207065Y0297393D01*
X0207182Y0297409D01*
X0207300Y0297421D01*
X0207418Y0297429D01*
X0207536Y0297433D01*
X0207654Y0297433D01*
X0207772Y0297429D01*
X0207890Y0297421D01*
X0208008Y0297409D01*
X0208125Y0297393D01*
X0208242Y0297373D01*
X0208357Y0297349D01*
X0208472Y0297321D01*
X0208586Y0297290D01*
X0208699Y0297254D01*
X0208811Y0297215D01*
X0208921Y0297172D01*
X0209029Y0297126D01*
X0209136Y0297075D01*
X0209242Y0297021D01*
X0209345Y0296964D01*
X0209446Y0296903D01*
X0209546Y0296839D01*
X0209643Y0296771D01*
X0209737Y0296701D01*
X0209830Y0296627D01*
X0209919Y0296550D01*
X0210006Y0296470D01*
X0210091Y0296387D01*
X0210172Y0296301D01*
X0210251Y0296213D01*
X0210326Y0296122D01*
X0210399Y0296028D01*
X0210468Y0295932D01*
X0210534Y0295834D01*
X0210596Y0295734D01*
X0210655Y0295632D01*
X0210711Y0295527D01*
X0210763Y0295421D01*
X0210811Y0295313D01*
X0210856Y0295204D01*
X0210897Y0295093D01*
X0210934Y0294981D01*
X0210968Y0294867D01*
X0210998Y0294753D01*
X0211023Y0294638D01*
X0211045Y0294521D01*
X0211063Y0294404D01*
X0211077Y0294287D01*
X0211087Y0294169D01*
X0211093Y0294051D01*
X0211095Y0293933D01*
X0211093Y0293815D01*
X0211087Y0293697D01*
X0211077Y0293579D01*
X0211063Y0293462D01*
X0211045Y0293345D01*
X0211023Y0293228D01*
X0210998Y0293113D01*
X0210968Y0292999D01*
X0210934Y0292885D01*
X0210897Y0292773D01*
X0210856Y0292662D01*
X0210811Y0292553D01*
X0210763Y0292445D01*
X0210711Y0292339D01*
X0210655Y0292234D01*
X0210596Y0292132D01*
X0210534Y0292032D01*
X0210468Y0291934D01*
X0210399Y0291838D01*
X0210326Y0291744D01*
X0210251Y0291653D01*
X0210172Y0291565D01*
X0210091Y0291479D01*
X0210006Y0291396D01*
X0209919Y0291316D01*
X0209830Y0291239D01*
X0209737Y0291165D01*
X0209643Y0291095D01*
X0209546Y0291027D01*
X0209446Y0290963D01*
X0209345Y0290902D01*
X0209242Y0290845D01*
X0209136Y0290791D01*
X0209029Y0290740D01*
X0208921Y0290694D01*
X0208811Y0290651D01*
X0208699Y0290612D01*
X0208586Y0290576D01*
X0208472Y0290545D01*
X0208357Y0290517D01*
X0208242Y0290493D01*
X0208125Y0290473D01*
X0208008Y0290457D01*
X0207890Y0290445D01*
X0207772Y0290437D01*
X0207654Y0290433D01*
X0207536Y0290433D01*
X0207418Y0290437D01*
X0207300Y0290445D01*
X0207182Y0290457D01*
X0207065Y0290473D01*
X0206948Y0290493D01*
X0206833Y0290517D01*
X0206718Y0290545D01*
X0206604Y0290576D01*
X0206491Y0290612D01*
X0206379Y0290651D01*
X0206269Y0290694D01*
X0206161Y0290740D01*
X0206054Y0290791D01*
X0205948Y0290845D01*
X0205845Y0290902D01*
X0205744Y0290963D01*
X0205644Y0291027D01*
X0205547Y0291095D01*
X0205453Y0291165D01*
X0205360Y0291239D01*
X0205271Y0291316D01*
X0205184Y0291396D01*
X0205099Y0291479D01*
X0205018Y0291565D01*
X0204939Y0291653D01*
X0204864Y0291744D01*
X0204791Y0291838D01*
X0204722Y0291934D01*
X0204656Y0292032D01*
X0204594Y0292132D01*
X0204535Y0292234D01*
X0204479Y0292339D01*
X0204427Y0292445D01*
X0204379Y0292553D01*
X0204334Y0292662D01*
X0204293Y0292773D01*
X0204256Y0292885D01*
X0204222Y0292999D01*
X0204192Y0293113D01*
X0204167Y0293228D01*
X0204145Y0293345D01*
X0204127Y0293462D01*
X0204113Y0293579D01*
X0204103Y0293697D01*
X0204097Y0293815D01*
X0204095Y0293933D01*
D11*
X0237395Y0210915D02*
X0237395Y0207846D01*
X0237395Y0209380D02*
X0232791Y0209380D01*
X0234326Y0207846D01*
X0233559Y0206311D02*
X0232791Y0205544D01*
X0232791Y0204009D01*
X0233559Y0203242D01*
X0236628Y0203242D01*
X0237395Y0204009D01*
X0237395Y0205544D01*
X0236628Y0206311D01*
X0233559Y0206311D01*
X0232791Y0201707D02*
X0237395Y0201707D01*
X0232791Y0198638D01*
X0237395Y0198638D01*
X0237395Y0197103D02*
X0234326Y0197103D01*
X0232791Y0195568D01*
X0234326Y0194034D01*
X0237395Y0194034D01*
X0237395Y0192499D02*
X0232791Y0192499D01*
X0235093Y0194034D02*
X0235093Y0197103D01*
X0237395Y0192499D02*
X0232791Y0189430D01*
X0237395Y0189430D01*
X0238162Y0187895D02*
X0238162Y0184826D01*
X0236628Y0183291D02*
X0233559Y0183291D01*
X0232791Y0182524D01*
X0232791Y0180989D01*
X0233559Y0180222D01*
X0236628Y0180222D01*
X0237395Y0180989D01*
X0237395Y0182524D01*
X0236628Y0183291D01*
X0237395Y0178687D02*
X0232791Y0178687D01*
X0232791Y0175618D02*
X0237395Y0178687D01*
X0237395Y0175618D02*
X0232791Y0175618D01*
X0232791Y0174083D02*
X0232791Y0172549D01*
X0232791Y0173316D02*
X0237395Y0173316D01*
X0237395Y0172549D02*
X0237395Y0174083D01*
X0236628Y0171014D02*
X0232791Y0171014D01*
X0232791Y0167945D02*
X0236628Y0167945D01*
X0237395Y0168712D01*
X0237395Y0170247D01*
X0236628Y0171014D01*
X0236628Y0166410D02*
X0233559Y0166410D01*
X0232791Y0165643D01*
X0232791Y0163341D01*
X0237395Y0163341D01*
X0237395Y0165643D01*
X0236628Y0166410D01*
X0237395Y0161806D02*
X0235861Y0160272D01*
X0235861Y0161039D02*
X0235861Y0158737D01*
X0237395Y0158737D02*
X0232791Y0158737D01*
X0232791Y0161039D01*
X0233559Y0161806D01*
X0235093Y0161806D01*
X0235861Y0161039D01*
X0235093Y0157202D02*
X0235093Y0154133D01*
X0234326Y0154133D02*
X0232791Y0155668D01*
X0234326Y0157202D01*
X0237395Y0157202D01*
X0237395Y0154133D02*
X0234326Y0154133D01*
X0286591Y0156475D02*
X0290060Y0156475D01*
X0291795Y0158210D01*
X0290060Y0159945D01*
X0286591Y0159945D01*
X0286591Y0161631D02*
X0286591Y0163366D01*
X0286591Y0162499D02*
X0291795Y0162499D01*
X0291795Y0163366D02*
X0291795Y0161631D01*
X0291795Y0165069D02*
X0291795Y0167671D01*
X0290928Y0168539D01*
X0287458Y0168539D01*
X0286591Y0167671D01*
X0286591Y0165069D01*
X0291795Y0165069D01*
X0291795Y0170225D02*
X0286591Y0170225D01*
X0286591Y0173695D01*
X0287458Y0175382D02*
X0286591Y0176249D01*
X0286591Y0177984D01*
X0287458Y0178851D01*
X0290928Y0178851D01*
X0291795Y0177984D01*
X0291795Y0176249D01*
X0290928Y0175382D01*
X0287458Y0175382D01*
X0289193Y0171960D02*
X0289193Y0170225D01*
X0291795Y0170225D02*
X0291795Y0173695D01*
X0294991Y0174952D02*
X0296726Y0176687D01*
X0294991Y0178422D01*
X0300195Y0178422D01*
X0299328Y0180109D02*
X0300195Y0180976D01*
X0300195Y0182711D01*
X0299328Y0183578D01*
X0294991Y0183578D01*
X0294991Y0185265D02*
X0300195Y0185265D01*
X0300195Y0188735D01*
X0303391Y0189156D02*
X0303391Y0187421D01*
X0304258Y0186554D01*
X0307728Y0186554D01*
X0304258Y0190024D01*
X0307728Y0190024D01*
X0308595Y0189156D01*
X0308595Y0187421D01*
X0307728Y0186554D01*
X0308595Y0184867D02*
X0308595Y0181398D01*
X0305126Y0184867D01*
X0304258Y0184867D01*
X0303391Y0184000D01*
X0303391Y0182265D01*
X0304258Y0181398D01*
X0299328Y0180109D02*
X0294991Y0180109D01*
X0291795Y0180538D02*
X0286591Y0180538D01*
X0286591Y0183140D01*
X0287458Y0184008D01*
X0289193Y0184008D01*
X0290060Y0183140D01*
X0290060Y0180538D01*
X0289193Y0185695D02*
X0289193Y0189164D01*
X0288326Y0189164D02*
X0291795Y0189164D01*
X0290928Y0190851D02*
X0291795Y0191718D01*
X0291795Y0193453D01*
X0290928Y0194321D01*
X0287458Y0194321D02*
X0286591Y0193453D01*
X0286591Y0191718D01*
X0287458Y0190851D01*
X0290928Y0190851D01*
X0288326Y0189164D02*
X0286591Y0187429D01*
X0288326Y0185695D01*
X0291795Y0185695D01*
X0294991Y0190421D02*
X0294991Y0193891D01*
X0294991Y0195578D02*
X0294991Y0197313D01*
X0294991Y0196445D02*
X0300195Y0196445D01*
X0300195Y0195578D02*
X0300195Y0197313D01*
X0300195Y0199015D02*
X0294991Y0199015D01*
X0294991Y0201618D01*
X0295858Y0202485D01*
X0297593Y0202485D01*
X0298460Y0201618D01*
X0298460Y0199015D01*
X0298460Y0200750D02*
X0300195Y0202485D01*
X0299328Y0204172D02*
X0300195Y0205039D01*
X0300195Y0206774D01*
X0299328Y0207641D01*
X0295858Y0207641D01*
X0294991Y0206774D01*
X0294991Y0205039D01*
X0295858Y0204172D01*
X0299328Y0204172D01*
X0303391Y0207180D02*
X0308595Y0207180D01*
X0306860Y0208914D01*
X0308595Y0210649D01*
X0303391Y0210649D01*
X0303391Y0212336D02*
X0303391Y0214071D01*
X0303391Y0213203D02*
X0308595Y0213203D01*
X0308595Y0212336D02*
X0308595Y0214071D01*
X0308595Y0215774D02*
X0303391Y0215774D01*
X0300195Y0212798D02*
X0294991Y0212798D01*
X0296726Y0211063D01*
X0294991Y0209328D01*
X0300195Y0209328D01*
X0304258Y0200336D02*
X0305126Y0200336D01*
X0305993Y0199469D01*
X0305993Y0197734D01*
X0305126Y0196867D01*
X0304258Y0196867D01*
X0303391Y0197734D01*
X0303391Y0199469D01*
X0304258Y0200336D01*
X0305993Y0199469D02*
X0306860Y0200336D01*
X0307728Y0200336D01*
X0308595Y0199469D01*
X0308595Y0197734D01*
X0307728Y0196867D01*
X0306860Y0196867D01*
X0305993Y0197734D01*
X0308595Y0195180D02*
X0308595Y0191710D01*
X0308595Y0193445D02*
X0303391Y0193445D01*
X0305126Y0191710D01*
X0304258Y0190024D02*
X0303391Y0189156D01*
X0300195Y0192156D02*
X0294991Y0192156D01*
X0290928Y0201164D02*
X0287458Y0201164D01*
X0286591Y0202031D01*
X0286591Y0203766D01*
X0287458Y0204633D01*
X0289193Y0204633D02*
X0289193Y0202899D01*
X0289193Y0204633D02*
X0290928Y0204633D01*
X0291795Y0203766D01*
X0291795Y0202031D01*
X0290928Y0201164D01*
X0290928Y0206320D02*
X0291795Y0206320D01*
X0290928Y0206320D02*
X0287458Y0209790D01*
X0286591Y0209790D01*
X0286591Y0206320D01*
X0287458Y0211477D02*
X0286591Y0212344D01*
X0286591Y0214079D01*
X0287458Y0214946D01*
X0290928Y0211477D01*
X0291795Y0212344D01*
X0291795Y0214079D01*
X0290928Y0214946D01*
X0287458Y0214946D01*
X0287458Y0216633D02*
X0286591Y0217500D01*
X0286591Y0219235D01*
X0287458Y0220103D01*
X0290928Y0216633D01*
X0291795Y0217500D01*
X0291795Y0219235D01*
X0290928Y0220103D01*
X0287458Y0220103D01*
X0287458Y0221789D02*
X0286591Y0222657D01*
X0286591Y0224392D01*
X0287458Y0225259D01*
X0290928Y0221789D01*
X0291795Y0222657D01*
X0291795Y0224392D01*
X0290928Y0225259D01*
X0287458Y0225259D01*
X0287458Y0221789D02*
X0290928Y0221789D01*
X0294991Y0222243D02*
X0294991Y0220508D01*
X0295858Y0219641D01*
X0299328Y0219641D01*
X0300195Y0220508D01*
X0300195Y0222243D01*
X0299328Y0223111D01*
X0300195Y0224797D02*
X0296726Y0224797D01*
X0294991Y0226532D01*
X0296726Y0228267D01*
X0300195Y0228267D01*
X0300195Y0229954D02*
X0294991Y0229954D01*
X0294991Y0232556D01*
X0295858Y0233423D01*
X0297593Y0233423D01*
X0298460Y0232556D01*
X0298460Y0229954D01*
X0298460Y0231688D02*
X0300195Y0233423D01*
X0303391Y0233845D02*
X0303391Y0232110D01*
X0304258Y0231243D01*
X0304258Y0229556D02*
X0303391Y0228689D01*
X0303391Y0226954D01*
X0304258Y0226086D01*
X0307728Y0226086D01*
X0308595Y0226954D01*
X0308595Y0228689D01*
X0307728Y0229556D01*
X0304258Y0229556D01*
X0303391Y0233845D02*
X0304258Y0234712D01*
X0305126Y0234712D01*
X0308595Y0231243D01*
X0308595Y0234712D01*
X0307728Y0236399D02*
X0304258Y0239869D01*
X0307728Y0239869D01*
X0308595Y0239001D01*
X0308595Y0237267D01*
X0307728Y0236399D01*
X0304258Y0236399D01*
X0303391Y0237267D01*
X0303391Y0239001D01*
X0304258Y0239869D01*
X0304258Y0241556D02*
X0303391Y0242423D01*
X0303391Y0244158D01*
X0304258Y0245025D01*
X0307728Y0241556D01*
X0308595Y0242423D01*
X0308595Y0244158D01*
X0307728Y0245025D01*
X0304258Y0245025D01*
X0304258Y0246712D02*
X0305126Y0246712D01*
X0305993Y0247579D01*
X0305993Y0250182D01*
X0307728Y0250182D02*
X0304258Y0250182D01*
X0303391Y0249314D01*
X0303391Y0247579D01*
X0304258Y0246712D01*
X0307728Y0246712D02*
X0308595Y0247579D01*
X0308595Y0249314D01*
X0307728Y0250182D01*
X0300195Y0250579D02*
X0300195Y0251447D01*
X0299328Y0251447D01*
X0299328Y0250579D01*
X0300195Y0250579D01*
X0300195Y0248893D02*
X0300195Y0245423D01*
X0300195Y0247158D02*
X0294991Y0247158D01*
X0296726Y0245423D01*
X0291795Y0244150D02*
X0291795Y0242415D01*
X0291795Y0243282D02*
X0286591Y0243282D01*
X0286591Y0242415D02*
X0286591Y0244150D01*
X0287458Y0245853D02*
X0286591Y0246720D01*
X0286591Y0248455D01*
X0287458Y0249322D01*
X0287458Y0251009D02*
X0288326Y0251009D01*
X0289193Y0251876D01*
X0289193Y0253611D01*
X0290060Y0254479D01*
X0290928Y0254479D01*
X0291795Y0253611D01*
X0291795Y0251876D01*
X0290928Y0251009D01*
X0290928Y0249322D02*
X0291795Y0248455D01*
X0291795Y0246720D01*
X0290928Y0245853D01*
X0289193Y0246720D02*
X0289193Y0248455D01*
X0290060Y0249322D01*
X0290928Y0249322D01*
X0289193Y0246720D02*
X0288326Y0245853D01*
X0287458Y0245853D01*
X0287458Y0240728D02*
X0286591Y0239861D01*
X0286591Y0237259D01*
X0291795Y0237259D01*
X0291795Y0239861D01*
X0290928Y0240728D01*
X0287458Y0240728D01*
X0287458Y0235572D02*
X0286591Y0234704D01*
X0286591Y0232970D01*
X0287458Y0232102D01*
X0290928Y0232102D01*
X0291795Y0232970D01*
X0291795Y0234704D01*
X0290928Y0235572D01*
X0287458Y0235572D01*
X0286591Y0230415D02*
X0291795Y0226946D01*
X0295858Y0223111D02*
X0294991Y0222243D01*
X0297593Y0224797D02*
X0297593Y0228267D01*
X0294991Y0235110D02*
X0294991Y0238580D01*
X0294991Y0236845D02*
X0300195Y0236845D01*
X0304258Y0241556D02*
X0307728Y0241556D01*
X0300195Y0253157D02*
X0296726Y0256627D01*
X0295858Y0256627D01*
X0294991Y0255760D01*
X0294991Y0254025D01*
X0295858Y0253157D01*
X0291795Y0256165D02*
X0291795Y0259635D01*
X0289193Y0257900D02*
X0289193Y0256165D01*
X0287458Y0254479D02*
X0286591Y0253611D01*
X0286591Y0251876D01*
X0287458Y0251009D01*
X0286591Y0256165D02*
X0291795Y0256165D01*
X0287458Y0261322D02*
X0289193Y0263057D01*
X0291795Y0263057D01*
X0289193Y0263057D02*
X0287458Y0264791D01*
X0286591Y0264791D01*
X0286591Y0261322D02*
X0287458Y0261322D01*
X0286591Y0259635D02*
X0286591Y0256165D01*
X0287458Y0271635D02*
X0286591Y0272502D01*
X0286591Y0274237D01*
X0287458Y0275104D01*
X0288326Y0275104D01*
X0291795Y0271635D01*
X0291795Y0275104D01*
X0300195Y0256627D02*
X0300195Y0253157D01*
X0304258Y0224400D02*
X0303391Y0223532D01*
X0303391Y0221797D01*
X0304258Y0220930D01*
X0307728Y0220930D01*
X0308595Y0221797D01*
X0308595Y0223532D01*
X0307728Y0224400D01*
X0308595Y0219243D02*
X0308595Y0215774D01*
X0290928Y0216633D02*
X0287458Y0216633D01*
X0287458Y0211477D02*
X0290928Y0211477D01*
X0294991Y0174952D02*
X0300195Y0174952D01*
D12*
X0242846Y0141468D02*
X0242846Y0141101D01*
X0242479Y0140734D01*
X0241378Y0140734D01*
X0240636Y0140734D02*
X0239168Y0140734D01*
X0238062Y0141101D02*
X0238062Y0139633D01*
X0237695Y0139633D02*
X0238429Y0139633D01*
X0238800Y0138235D02*
X0239901Y0138235D01*
X0240268Y0137868D01*
X0240268Y0137501D01*
X0239901Y0137134D01*
X0238800Y0137134D01*
X0238058Y0136767D02*
X0238058Y0136400D01*
X0237691Y0136033D01*
X0236957Y0136033D01*
X0236590Y0136400D01*
X0235848Y0136400D02*
X0235848Y0138235D01*
X0236590Y0137868D02*
X0236590Y0137501D01*
X0236957Y0137134D01*
X0237691Y0137134D01*
X0238058Y0136767D01*
X0238800Y0136033D02*
X0239901Y0136033D01*
X0240268Y0136400D01*
X0240268Y0136767D01*
X0239901Y0137134D01*
X0238800Y0136033D02*
X0238800Y0138235D01*
X0238058Y0137868D02*
X0237691Y0138235D01*
X0236957Y0138235D01*
X0236590Y0137868D01*
X0235848Y0136400D02*
X0235481Y0136033D01*
X0234747Y0136033D01*
X0234380Y0136400D01*
X0234380Y0138235D01*
X0234379Y0139633D02*
X0234379Y0141101D01*
X0234012Y0141101D01*
X0234379Y0141835D02*
X0234379Y0142202D01*
X0233270Y0141835D02*
X0233270Y0139633D01*
X0234012Y0139633D02*
X0234746Y0139633D01*
X0235485Y0139633D02*
X0235485Y0141101D01*
X0236586Y0141101D01*
X0236953Y0140734D01*
X0236953Y0139633D01*
X0237695Y0141101D02*
X0238062Y0141101D01*
X0238062Y0141835D02*
X0238062Y0142202D01*
X0241378Y0141835D02*
X0242479Y0141835D01*
X0242846Y0141468D01*
X0242479Y0140734D02*
X0242846Y0140367D01*
X0242846Y0140000D01*
X0242479Y0139633D01*
X0241378Y0139633D01*
X0241378Y0141835D01*
X0233270Y0141835D02*
X0232536Y0141101D01*
X0231802Y0141835D01*
X0231802Y0139633D01*
X0233815Y0083142D02*
X0234916Y0083142D01*
X0235283Y0082775D01*
X0235283Y0082042D01*
X0234916Y0081675D01*
X0233815Y0081675D01*
X0233815Y0080941D02*
X0233815Y0083142D01*
X0236025Y0082409D02*
X0236759Y0083142D01*
X0236759Y0080941D01*
X0236025Y0080941D02*
X0237493Y0080941D01*
X0238235Y0080941D02*
X0239703Y0080941D01*
X0238969Y0080941D02*
X0238969Y0083142D01*
X0238235Y0082409D01*
X0249406Y0083142D02*
X0249406Y0080941D01*
X0249406Y0081675D02*
X0250507Y0081675D01*
X0250874Y0082042D01*
X0250874Y0082775D01*
X0250507Y0083142D01*
X0249406Y0083142D01*
X0251616Y0082409D02*
X0252350Y0083142D01*
X0252350Y0080941D01*
X0251616Y0080941D02*
X0253084Y0080941D01*
X0253825Y0080941D02*
X0255293Y0082409D01*
X0255293Y0082775D01*
X0254926Y0083142D01*
X0254192Y0083142D01*
X0253825Y0082775D01*
X0253825Y0080941D02*
X0255293Y0080941D01*
X0264996Y0080941D02*
X0264996Y0083142D01*
X0266097Y0083142D01*
X0266464Y0082775D01*
X0266464Y0082042D01*
X0266097Y0081675D01*
X0264996Y0081675D01*
X0267206Y0082409D02*
X0267940Y0083142D01*
X0267940Y0080941D01*
X0267206Y0080941D02*
X0268674Y0080941D01*
X0269416Y0081308D02*
X0269783Y0080941D01*
X0270517Y0080941D01*
X0270884Y0081308D01*
X0270884Y0081675D01*
X0270517Y0082042D01*
X0270150Y0082042D01*
X0270517Y0082042D02*
X0270884Y0082409D01*
X0270884Y0082775D01*
X0270517Y0083142D01*
X0269783Y0083142D01*
X0269416Y0082775D01*
X0280587Y0083142D02*
X0280587Y0080941D01*
X0280587Y0081675D02*
X0281688Y0081675D01*
X0282055Y0082042D01*
X0282055Y0082775D01*
X0281688Y0083142D01*
X0280587Y0083142D01*
X0282797Y0082409D02*
X0283531Y0083142D01*
X0283531Y0080941D01*
X0282797Y0080941D02*
X0284265Y0080941D01*
X0285007Y0082042D02*
X0286474Y0082042D01*
X0286108Y0083142D02*
X0285007Y0082042D01*
X0286108Y0083142D02*
X0286108Y0080941D01*
X0296177Y0080941D02*
X0296177Y0083142D01*
X0297278Y0083142D01*
X0297645Y0082775D01*
X0297645Y0082042D01*
X0297278Y0081675D01*
X0296177Y0081675D01*
X0298387Y0082409D02*
X0299121Y0083142D01*
X0299121Y0080941D01*
X0298387Y0080941D02*
X0299855Y0080941D01*
X0300597Y0081308D02*
X0300964Y0080941D01*
X0301698Y0080941D01*
X0302065Y0081308D01*
X0302065Y0082042D01*
X0301698Y0082409D01*
X0301331Y0082409D01*
X0300597Y0082042D01*
X0300597Y0083142D01*
X0302065Y0083142D01*
X0224112Y0082775D02*
X0224112Y0081308D01*
X0223745Y0080941D01*
X0223011Y0080941D01*
X0222644Y0081308D01*
X0224112Y0082775D01*
X0223745Y0083142D01*
X0223011Y0083142D01*
X0222644Y0082775D01*
X0222644Y0081308D01*
X0221902Y0080941D02*
X0220434Y0080941D01*
X0221168Y0080941D02*
X0221168Y0083142D01*
X0220434Y0082409D01*
X0219693Y0082775D02*
X0219693Y0082042D01*
X0219326Y0081675D01*
X0218225Y0081675D01*
X0218225Y0080941D02*
X0218225Y0083142D01*
X0219326Y0083142D01*
X0219693Y0082775D01*
X0207417Y0082775D02*
X0207417Y0081308D01*
X0207050Y0080941D01*
X0206316Y0080941D01*
X0205949Y0081308D01*
X0206316Y0082042D02*
X0207417Y0082042D01*
X0207417Y0082775D02*
X0207050Y0083142D01*
X0206316Y0083142D01*
X0205949Y0082775D01*
X0205949Y0082409D01*
X0206316Y0082042D01*
X0205207Y0082042D02*
X0204840Y0081675D01*
X0203739Y0081675D01*
X0203739Y0080941D02*
X0203739Y0083142D01*
X0204840Y0083142D01*
X0205207Y0082775D01*
X0205207Y0082042D01*
X0191826Y0082409D02*
X0191459Y0082042D01*
X0190725Y0082042D01*
X0190358Y0082409D01*
X0190358Y0082775D01*
X0190725Y0083142D01*
X0191459Y0083142D01*
X0191826Y0082775D01*
X0191826Y0082409D01*
X0191459Y0082042D02*
X0191826Y0081675D01*
X0191826Y0081308D01*
X0191459Y0080941D01*
X0190725Y0080941D01*
X0190358Y0081308D01*
X0190358Y0081675D01*
X0190725Y0082042D01*
X0189616Y0082042D02*
X0189249Y0081675D01*
X0188148Y0081675D01*
X0188148Y0080941D02*
X0188148Y0083142D01*
X0189249Y0083142D01*
X0189616Y0082775D01*
X0189616Y0082042D01*
X0176236Y0082775D02*
X0174768Y0081308D01*
X0174768Y0080941D01*
X0174026Y0082042D02*
X0173659Y0081675D01*
X0172558Y0081675D01*
X0172558Y0080941D02*
X0172558Y0083142D01*
X0173659Y0083142D01*
X0174026Y0082775D01*
X0174026Y0082042D01*
X0174768Y0083142D02*
X0176236Y0083142D01*
X0176236Y0082775D01*
X0160645Y0083142D02*
X0159911Y0082775D01*
X0159177Y0082042D01*
X0160278Y0082042D01*
X0160645Y0081675D01*
X0160645Y0081308D01*
X0160278Y0080941D01*
X0159544Y0080941D01*
X0159177Y0081308D01*
X0159177Y0082042D01*
X0158435Y0082042D02*
X0158068Y0081675D01*
X0156967Y0081675D01*
X0156967Y0080941D02*
X0156967Y0083142D01*
X0158068Y0083142D01*
X0158435Y0082775D01*
X0158435Y0082042D01*
X0145055Y0082042D02*
X0145055Y0081308D01*
X0144688Y0080941D01*
X0143954Y0080941D01*
X0143587Y0081308D01*
X0143587Y0082042D02*
X0144321Y0082409D01*
X0144688Y0082409D01*
X0145055Y0082042D01*
X0145055Y0083142D02*
X0143587Y0083142D01*
X0143587Y0082042D01*
X0142845Y0082042D02*
X0142478Y0081675D01*
X0141377Y0081675D01*
X0141377Y0080941D02*
X0141377Y0083142D01*
X0142478Y0083142D01*
X0142845Y0082775D01*
X0142845Y0082042D01*
X0129464Y0082042D02*
X0127996Y0082042D01*
X0129097Y0083142D01*
X0129097Y0080941D01*
X0127254Y0082042D02*
X0126887Y0081675D01*
X0125786Y0081675D01*
X0125786Y0080941D02*
X0125786Y0083142D01*
X0126887Y0083142D01*
X0127254Y0082775D01*
X0127254Y0082042D01*
X0113873Y0082409D02*
X0113507Y0082042D01*
X0113873Y0081675D01*
X0113873Y0081308D01*
X0113507Y0080941D01*
X0112773Y0080941D01*
X0112406Y0081308D01*
X0113140Y0082042D02*
X0113507Y0082042D01*
X0113873Y0082409D02*
X0113873Y0082775D01*
X0113507Y0083142D01*
X0112773Y0083142D01*
X0112406Y0082775D01*
X0111664Y0082775D02*
X0111664Y0082042D01*
X0111297Y0081675D01*
X0110196Y0081675D01*
X0110196Y0080941D02*
X0110196Y0083142D01*
X0111297Y0083142D01*
X0111664Y0082775D01*
X0098283Y0082775D02*
X0098283Y0082409D01*
X0096815Y0080941D01*
X0098283Y0080941D01*
X0098283Y0082775D02*
X0097916Y0083142D01*
X0097182Y0083142D01*
X0096815Y0082775D01*
X0096073Y0082775D02*
X0096073Y0082042D01*
X0095706Y0081675D01*
X0094605Y0081675D01*
X0094605Y0080941D02*
X0094605Y0083142D01*
X0095706Y0083142D01*
X0096073Y0082775D01*
X0082692Y0080941D02*
X0081224Y0080941D01*
X0081958Y0080941D02*
X0081958Y0083142D01*
X0081224Y0082409D01*
X0080483Y0082775D02*
X0080483Y0082042D01*
X0080116Y0081675D01*
X0079015Y0081675D01*
X0079015Y0080941D02*
X0079015Y0083142D01*
X0080116Y0083142D01*
X0080483Y0082775D01*
X0079095Y0281433D02*
X0078095Y0281433D01*
X0079095Y0281433D02*
X0079095Y0291433D01*
X0078095Y0291433D01*
X0101095Y0290933D02*
X0101095Y0281433D01*
X0102095Y0281433D01*
X0102095Y0290933D02*
X0101095Y0290933D01*
X0094621Y0327533D02*
X0093220Y0327533D01*
X0093220Y0330335D01*
X0094621Y0330335D01*
X0095088Y0329868D01*
X0095088Y0328000D01*
X0094621Y0327533D01*
X0092326Y0327533D02*
X0092326Y0330335D01*
X0090457Y0330335D02*
X0092326Y0327533D01*
X0090457Y0327533D02*
X0090457Y0330335D01*
X0089563Y0329868D02*
X0089096Y0330335D01*
X0088162Y0330335D01*
X0087695Y0329868D01*
X0087695Y0328000D01*
X0088162Y0327533D01*
X0089096Y0327533D01*
X0089563Y0328000D01*
X0089563Y0328934D01*
X0088629Y0328934D01*
X0088629Y0337533D02*
X0089563Y0338467D01*
X0089563Y0340335D01*
X0090457Y0339868D02*
X0090457Y0338000D01*
X0090925Y0337533D01*
X0091859Y0337533D01*
X0092326Y0338000D01*
X0093220Y0338000D02*
X0093687Y0337533D01*
X0094621Y0337533D01*
X0095088Y0338000D01*
X0093220Y0338000D02*
X0093220Y0339868D01*
X0093687Y0340335D01*
X0094621Y0340335D01*
X0095088Y0339868D01*
X0092326Y0339868D02*
X0091859Y0340335D01*
X0090925Y0340335D01*
X0090457Y0339868D01*
X0087695Y0340335D02*
X0087695Y0338467D01*
X0088629Y0337533D01*
X0088162Y0347533D02*
X0087695Y0348000D01*
X0088162Y0347533D02*
X0089096Y0347533D01*
X0089563Y0348000D01*
X0089563Y0348467D01*
X0089096Y0348934D01*
X0088162Y0348934D01*
X0087695Y0349401D01*
X0087695Y0349868D01*
X0088162Y0350335D01*
X0089096Y0350335D01*
X0089563Y0349868D01*
X0090457Y0349868D02*
X0090457Y0348000D01*
X0090925Y0347533D01*
X0091859Y0347533D01*
X0092326Y0348000D01*
X0093220Y0347533D02*
X0095088Y0347533D01*
X0093220Y0347533D02*
X0093220Y0350335D01*
X0092326Y0349868D02*
X0091859Y0350335D01*
X0090925Y0350335D01*
X0090457Y0349868D01*
X0090457Y0357533D02*
X0091859Y0357533D01*
X0092326Y0358000D01*
X0092326Y0359868D01*
X0091859Y0360335D01*
X0090457Y0360335D01*
X0090457Y0357533D01*
X0089563Y0358000D02*
X0089096Y0357533D01*
X0088162Y0357533D01*
X0087695Y0358000D01*
X0088162Y0358934D02*
X0089096Y0358934D01*
X0089563Y0358467D01*
X0089563Y0358000D01*
X0088162Y0358934D02*
X0087695Y0359401D01*
X0087695Y0359868D01*
X0088162Y0360335D01*
X0089096Y0360335D01*
X0089563Y0359868D01*
X0093220Y0359401D02*
X0094154Y0360335D01*
X0095088Y0359401D01*
X0095088Y0357533D01*
X0095088Y0358934D02*
X0093220Y0358934D01*
X0093220Y0359401D02*
X0093220Y0357533D01*
X0247595Y0347933D02*
X0247595Y0346933D01*
X0247595Y0347933D02*
X0257095Y0347933D01*
X0257095Y0346933D01*
X0257595Y0340933D02*
X0257595Y0339933D01*
X0247595Y0339933D01*
X0247595Y0340933D01*
X0247595Y0317933D02*
X0247595Y0316933D01*
X0247595Y0317933D02*
X0257095Y0317933D01*
X0257095Y0316933D01*
X0287595Y0316933D02*
X0287595Y0317933D01*
X0297095Y0317933D01*
X0297095Y0316933D01*
X0297595Y0339933D02*
X0287595Y0339933D01*
X0287595Y0340933D01*
X0297595Y0340933D02*
X0297595Y0339933D01*
X0257595Y0369933D02*
X0257595Y0370933D01*
X0257595Y0369933D02*
X0247595Y0369933D01*
X0247595Y0370933D01*
D13*
X0244095Y0370933D01*
X0247595Y0370933D02*
X0257595Y0370933D01*
X0261095Y0370933D01*
X0264595Y0362933D02*
X0264595Y0361933D01*
X0265595Y0361933D01*
X0265595Y0355933D01*
X0264595Y0355933D01*
X0264595Y0354933D01*
X0261095Y0346933D02*
X0257095Y0346933D01*
X0247595Y0346933D01*
X0244095Y0346933D01*
X0244095Y0340933D02*
X0247595Y0340933D01*
X0257595Y0340933D01*
X0261095Y0340933D01*
X0264595Y0332933D02*
X0264595Y0331933D01*
X0265595Y0331933D01*
X0265595Y0325933D01*
X0264595Y0325933D01*
X0264595Y0324933D01*
X0261095Y0316933D02*
X0257095Y0316933D01*
X0247595Y0316933D01*
X0244095Y0316933D01*
X0240595Y0324933D02*
X0240595Y0325933D01*
X0239595Y0325933D01*
X0239595Y0331933D01*
X0240595Y0331933D01*
X0240595Y0332933D01*
X0251595Y0328933D02*
X0251597Y0328996D01*
X0251603Y0329058D01*
X0251613Y0329120D01*
X0251626Y0329182D01*
X0251644Y0329242D01*
X0251665Y0329301D01*
X0251690Y0329359D01*
X0251719Y0329415D01*
X0251751Y0329469D01*
X0251786Y0329521D01*
X0251824Y0329570D01*
X0251866Y0329618D01*
X0251910Y0329662D01*
X0251958Y0329704D01*
X0252007Y0329742D01*
X0252059Y0329777D01*
X0252113Y0329809D01*
X0252169Y0329838D01*
X0252227Y0329863D01*
X0252286Y0329884D01*
X0252346Y0329902D01*
X0252408Y0329915D01*
X0252470Y0329925D01*
X0252532Y0329931D01*
X0252595Y0329933D01*
X0252658Y0329931D01*
X0252720Y0329925D01*
X0252782Y0329915D01*
X0252844Y0329902D01*
X0252904Y0329884D01*
X0252963Y0329863D01*
X0253021Y0329838D01*
X0253077Y0329809D01*
X0253131Y0329777D01*
X0253183Y0329742D01*
X0253232Y0329704D01*
X0253280Y0329662D01*
X0253324Y0329618D01*
X0253366Y0329570D01*
X0253404Y0329521D01*
X0253439Y0329469D01*
X0253471Y0329415D01*
X0253500Y0329359D01*
X0253525Y0329301D01*
X0253546Y0329242D01*
X0253564Y0329182D01*
X0253577Y0329120D01*
X0253587Y0329058D01*
X0253593Y0328996D01*
X0253595Y0328933D01*
X0253593Y0328870D01*
X0253587Y0328808D01*
X0253577Y0328746D01*
X0253564Y0328684D01*
X0253546Y0328624D01*
X0253525Y0328565D01*
X0253500Y0328507D01*
X0253471Y0328451D01*
X0253439Y0328397D01*
X0253404Y0328345D01*
X0253366Y0328296D01*
X0253324Y0328248D01*
X0253280Y0328204D01*
X0253232Y0328162D01*
X0253183Y0328124D01*
X0253131Y0328089D01*
X0253077Y0328057D01*
X0253021Y0328028D01*
X0252963Y0328003D01*
X0252904Y0327982D01*
X0252844Y0327964D01*
X0252782Y0327951D01*
X0252720Y0327941D01*
X0252658Y0327935D01*
X0252595Y0327933D01*
X0252532Y0327935D01*
X0252470Y0327941D01*
X0252408Y0327951D01*
X0252346Y0327964D01*
X0252286Y0327982D01*
X0252227Y0328003D01*
X0252169Y0328028D01*
X0252113Y0328057D01*
X0252059Y0328089D01*
X0252007Y0328124D01*
X0251958Y0328162D01*
X0251910Y0328204D01*
X0251866Y0328248D01*
X0251824Y0328296D01*
X0251786Y0328345D01*
X0251751Y0328397D01*
X0251719Y0328451D01*
X0251690Y0328507D01*
X0251665Y0328565D01*
X0251644Y0328624D01*
X0251626Y0328684D01*
X0251613Y0328746D01*
X0251603Y0328808D01*
X0251597Y0328870D01*
X0251595Y0328933D01*
X0245595Y0328933D02*
X0245597Y0329105D01*
X0245603Y0329276D01*
X0245614Y0329448D01*
X0245629Y0329619D01*
X0245648Y0329790D01*
X0245671Y0329960D01*
X0245698Y0330130D01*
X0245730Y0330299D01*
X0245765Y0330467D01*
X0245805Y0330634D01*
X0245849Y0330800D01*
X0245896Y0330965D01*
X0245948Y0331129D01*
X0246004Y0331291D01*
X0246064Y0331452D01*
X0246128Y0331612D01*
X0246196Y0331770D01*
X0246267Y0331926D01*
X0246342Y0332080D01*
X0246422Y0332233D01*
X0246504Y0332383D01*
X0246591Y0332532D01*
X0246681Y0332678D01*
X0246775Y0332822D01*
X0246872Y0332964D01*
X0246973Y0333103D01*
X0247077Y0333240D01*
X0247184Y0333374D01*
X0247295Y0333505D01*
X0247408Y0333634D01*
X0247525Y0333760D01*
X0247645Y0333883D01*
X0247768Y0334003D01*
X0247894Y0334120D01*
X0248023Y0334233D01*
X0248154Y0334344D01*
X0248288Y0334451D01*
X0248425Y0334555D01*
X0248564Y0334656D01*
X0248706Y0334753D01*
X0248850Y0334847D01*
X0248996Y0334937D01*
X0249145Y0335024D01*
X0249295Y0335106D01*
X0249448Y0335186D01*
X0249602Y0335261D01*
X0249758Y0335332D01*
X0249916Y0335400D01*
X0250076Y0335464D01*
X0250237Y0335524D01*
X0250399Y0335580D01*
X0250563Y0335632D01*
X0250728Y0335679D01*
X0250894Y0335723D01*
X0251061Y0335763D01*
X0251229Y0335798D01*
X0251398Y0335830D01*
X0251568Y0335857D01*
X0251738Y0335880D01*
X0251909Y0335899D01*
X0252080Y0335914D01*
X0252252Y0335925D01*
X0252423Y0335931D01*
X0252595Y0335933D01*
X0252767Y0335931D01*
X0252938Y0335925D01*
X0253110Y0335914D01*
X0253281Y0335899D01*
X0253452Y0335880D01*
X0253622Y0335857D01*
X0253792Y0335830D01*
X0253961Y0335798D01*
X0254129Y0335763D01*
X0254296Y0335723D01*
X0254462Y0335679D01*
X0254627Y0335632D01*
X0254791Y0335580D01*
X0254953Y0335524D01*
X0255114Y0335464D01*
X0255274Y0335400D01*
X0255432Y0335332D01*
X0255588Y0335261D01*
X0255742Y0335186D01*
X0255895Y0335106D01*
X0256045Y0335024D01*
X0256194Y0334937D01*
X0256340Y0334847D01*
X0256484Y0334753D01*
X0256626Y0334656D01*
X0256765Y0334555D01*
X0256902Y0334451D01*
X0257036Y0334344D01*
X0257167Y0334233D01*
X0257296Y0334120D01*
X0257422Y0334003D01*
X0257545Y0333883D01*
X0257665Y0333760D01*
X0257782Y0333634D01*
X0257895Y0333505D01*
X0258006Y0333374D01*
X0258113Y0333240D01*
X0258217Y0333103D01*
X0258318Y0332964D01*
X0258415Y0332822D01*
X0258509Y0332678D01*
X0258599Y0332532D01*
X0258686Y0332383D01*
X0258768Y0332233D01*
X0258848Y0332080D01*
X0258923Y0331926D01*
X0258994Y0331770D01*
X0259062Y0331612D01*
X0259126Y0331452D01*
X0259186Y0331291D01*
X0259242Y0331129D01*
X0259294Y0330965D01*
X0259341Y0330800D01*
X0259385Y0330634D01*
X0259425Y0330467D01*
X0259460Y0330299D01*
X0259492Y0330130D01*
X0259519Y0329960D01*
X0259542Y0329790D01*
X0259561Y0329619D01*
X0259576Y0329448D01*
X0259587Y0329276D01*
X0259593Y0329105D01*
X0259595Y0328933D01*
X0259593Y0328761D01*
X0259587Y0328590D01*
X0259576Y0328418D01*
X0259561Y0328247D01*
X0259542Y0328076D01*
X0259519Y0327906D01*
X0259492Y0327736D01*
X0259460Y0327567D01*
X0259425Y0327399D01*
X0259385Y0327232D01*
X0259341Y0327066D01*
X0259294Y0326901D01*
X0259242Y0326737D01*
X0259186Y0326575D01*
X0259126Y0326414D01*
X0259062Y0326254D01*
X0258994Y0326096D01*
X0258923Y0325940D01*
X0258848Y0325786D01*
X0258768Y0325633D01*
X0258686Y0325483D01*
X0258599Y0325334D01*
X0258509Y0325188D01*
X0258415Y0325044D01*
X0258318Y0324902D01*
X0258217Y0324763D01*
X0258113Y0324626D01*
X0258006Y0324492D01*
X0257895Y0324361D01*
X0257782Y0324232D01*
X0257665Y0324106D01*
X0257545Y0323983D01*
X0257422Y0323863D01*
X0257296Y0323746D01*
X0257167Y0323633D01*
X0257036Y0323522D01*
X0256902Y0323415D01*
X0256765Y0323311D01*
X0256626Y0323210D01*
X0256484Y0323113D01*
X0256340Y0323019D01*
X0256194Y0322929D01*
X0256045Y0322842D01*
X0255895Y0322760D01*
X0255742Y0322680D01*
X0255588Y0322605D01*
X0255432Y0322534D01*
X0255274Y0322466D01*
X0255114Y0322402D01*
X0254953Y0322342D01*
X0254791Y0322286D01*
X0254627Y0322234D01*
X0254462Y0322187D01*
X0254296Y0322143D01*
X0254129Y0322103D01*
X0253961Y0322068D01*
X0253792Y0322036D01*
X0253622Y0322009D01*
X0253452Y0321986D01*
X0253281Y0321967D01*
X0253110Y0321952D01*
X0252938Y0321941D01*
X0252767Y0321935D01*
X0252595Y0321933D01*
X0252423Y0321935D01*
X0252252Y0321941D01*
X0252080Y0321952D01*
X0251909Y0321967D01*
X0251738Y0321986D01*
X0251568Y0322009D01*
X0251398Y0322036D01*
X0251229Y0322068D01*
X0251061Y0322103D01*
X0250894Y0322143D01*
X0250728Y0322187D01*
X0250563Y0322234D01*
X0250399Y0322286D01*
X0250237Y0322342D01*
X0250076Y0322402D01*
X0249916Y0322466D01*
X0249758Y0322534D01*
X0249602Y0322605D01*
X0249448Y0322680D01*
X0249295Y0322760D01*
X0249145Y0322842D01*
X0248996Y0322929D01*
X0248850Y0323019D01*
X0248706Y0323113D01*
X0248564Y0323210D01*
X0248425Y0323311D01*
X0248288Y0323415D01*
X0248154Y0323522D01*
X0248023Y0323633D01*
X0247894Y0323746D01*
X0247768Y0323863D01*
X0247645Y0323983D01*
X0247525Y0324106D01*
X0247408Y0324232D01*
X0247295Y0324361D01*
X0247184Y0324492D01*
X0247077Y0324626D01*
X0246973Y0324763D01*
X0246872Y0324902D01*
X0246775Y0325044D01*
X0246681Y0325188D01*
X0246591Y0325334D01*
X0246504Y0325483D01*
X0246422Y0325633D01*
X0246342Y0325786D01*
X0246267Y0325940D01*
X0246196Y0326096D01*
X0246128Y0326254D01*
X0246064Y0326414D01*
X0246004Y0326575D01*
X0245948Y0326737D01*
X0245896Y0326901D01*
X0245849Y0327066D01*
X0245805Y0327232D01*
X0245765Y0327399D01*
X0245730Y0327567D01*
X0245698Y0327736D01*
X0245671Y0327906D01*
X0245648Y0328076D01*
X0245629Y0328247D01*
X0245614Y0328418D01*
X0245603Y0328590D01*
X0245597Y0328761D01*
X0245595Y0328933D01*
X0240595Y0354933D02*
X0240595Y0355933D01*
X0239595Y0355933D01*
X0239595Y0361933D01*
X0240595Y0361933D01*
X0240595Y0362933D01*
X0251595Y0358933D02*
X0251597Y0358996D01*
X0251603Y0359058D01*
X0251613Y0359120D01*
X0251626Y0359182D01*
X0251644Y0359242D01*
X0251665Y0359301D01*
X0251690Y0359359D01*
X0251719Y0359415D01*
X0251751Y0359469D01*
X0251786Y0359521D01*
X0251824Y0359570D01*
X0251866Y0359618D01*
X0251910Y0359662D01*
X0251958Y0359704D01*
X0252007Y0359742D01*
X0252059Y0359777D01*
X0252113Y0359809D01*
X0252169Y0359838D01*
X0252227Y0359863D01*
X0252286Y0359884D01*
X0252346Y0359902D01*
X0252408Y0359915D01*
X0252470Y0359925D01*
X0252532Y0359931D01*
X0252595Y0359933D01*
X0252658Y0359931D01*
X0252720Y0359925D01*
X0252782Y0359915D01*
X0252844Y0359902D01*
X0252904Y0359884D01*
X0252963Y0359863D01*
X0253021Y0359838D01*
X0253077Y0359809D01*
X0253131Y0359777D01*
X0253183Y0359742D01*
X0253232Y0359704D01*
X0253280Y0359662D01*
X0253324Y0359618D01*
X0253366Y0359570D01*
X0253404Y0359521D01*
X0253439Y0359469D01*
X0253471Y0359415D01*
X0253500Y0359359D01*
X0253525Y0359301D01*
X0253546Y0359242D01*
X0253564Y0359182D01*
X0253577Y0359120D01*
X0253587Y0359058D01*
X0253593Y0358996D01*
X0253595Y0358933D01*
X0253593Y0358870D01*
X0253587Y0358808D01*
X0253577Y0358746D01*
X0253564Y0358684D01*
X0253546Y0358624D01*
X0253525Y0358565D01*
X0253500Y0358507D01*
X0253471Y0358451D01*
X0253439Y0358397D01*
X0253404Y0358345D01*
X0253366Y0358296D01*
X0253324Y0358248D01*
X0253280Y0358204D01*
X0253232Y0358162D01*
X0253183Y0358124D01*
X0253131Y0358089D01*
X0253077Y0358057D01*
X0253021Y0358028D01*
X0252963Y0358003D01*
X0252904Y0357982D01*
X0252844Y0357964D01*
X0252782Y0357951D01*
X0252720Y0357941D01*
X0252658Y0357935D01*
X0252595Y0357933D01*
X0252532Y0357935D01*
X0252470Y0357941D01*
X0252408Y0357951D01*
X0252346Y0357964D01*
X0252286Y0357982D01*
X0252227Y0358003D01*
X0252169Y0358028D01*
X0252113Y0358057D01*
X0252059Y0358089D01*
X0252007Y0358124D01*
X0251958Y0358162D01*
X0251910Y0358204D01*
X0251866Y0358248D01*
X0251824Y0358296D01*
X0251786Y0358345D01*
X0251751Y0358397D01*
X0251719Y0358451D01*
X0251690Y0358507D01*
X0251665Y0358565D01*
X0251644Y0358624D01*
X0251626Y0358684D01*
X0251613Y0358746D01*
X0251603Y0358808D01*
X0251597Y0358870D01*
X0251595Y0358933D01*
X0245595Y0358933D02*
X0245597Y0359105D01*
X0245603Y0359276D01*
X0245614Y0359448D01*
X0245629Y0359619D01*
X0245648Y0359790D01*
X0245671Y0359960D01*
X0245698Y0360130D01*
X0245730Y0360299D01*
X0245765Y0360467D01*
X0245805Y0360634D01*
X0245849Y0360800D01*
X0245896Y0360965D01*
X0245948Y0361129D01*
X0246004Y0361291D01*
X0246064Y0361452D01*
X0246128Y0361612D01*
X0246196Y0361770D01*
X0246267Y0361926D01*
X0246342Y0362080D01*
X0246422Y0362233D01*
X0246504Y0362383D01*
X0246591Y0362532D01*
X0246681Y0362678D01*
X0246775Y0362822D01*
X0246872Y0362964D01*
X0246973Y0363103D01*
X0247077Y0363240D01*
X0247184Y0363374D01*
X0247295Y0363505D01*
X0247408Y0363634D01*
X0247525Y0363760D01*
X0247645Y0363883D01*
X0247768Y0364003D01*
X0247894Y0364120D01*
X0248023Y0364233D01*
X0248154Y0364344D01*
X0248288Y0364451D01*
X0248425Y0364555D01*
X0248564Y0364656D01*
X0248706Y0364753D01*
X0248850Y0364847D01*
X0248996Y0364937D01*
X0249145Y0365024D01*
X0249295Y0365106D01*
X0249448Y0365186D01*
X0249602Y0365261D01*
X0249758Y0365332D01*
X0249916Y0365400D01*
X0250076Y0365464D01*
X0250237Y0365524D01*
X0250399Y0365580D01*
X0250563Y0365632D01*
X0250728Y0365679D01*
X0250894Y0365723D01*
X0251061Y0365763D01*
X0251229Y0365798D01*
X0251398Y0365830D01*
X0251568Y0365857D01*
X0251738Y0365880D01*
X0251909Y0365899D01*
X0252080Y0365914D01*
X0252252Y0365925D01*
X0252423Y0365931D01*
X0252595Y0365933D01*
X0252767Y0365931D01*
X0252938Y0365925D01*
X0253110Y0365914D01*
X0253281Y0365899D01*
X0253452Y0365880D01*
X0253622Y0365857D01*
X0253792Y0365830D01*
X0253961Y0365798D01*
X0254129Y0365763D01*
X0254296Y0365723D01*
X0254462Y0365679D01*
X0254627Y0365632D01*
X0254791Y0365580D01*
X0254953Y0365524D01*
X0255114Y0365464D01*
X0255274Y0365400D01*
X0255432Y0365332D01*
X0255588Y0365261D01*
X0255742Y0365186D01*
X0255895Y0365106D01*
X0256045Y0365024D01*
X0256194Y0364937D01*
X0256340Y0364847D01*
X0256484Y0364753D01*
X0256626Y0364656D01*
X0256765Y0364555D01*
X0256902Y0364451D01*
X0257036Y0364344D01*
X0257167Y0364233D01*
X0257296Y0364120D01*
X0257422Y0364003D01*
X0257545Y0363883D01*
X0257665Y0363760D01*
X0257782Y0363634D01*
X0257895Y0363505D01*
X0258006Y0363374D01*
X0258113Y0363240D01*
X0258217Y0363103D01*
X0258318Y0362964D01*
X0258415Y0362822D01*
X0258509Y0362678D01*
X0258599Y0362532D01*
X0258686Y0362383D01*
X0258768Y0362233D01*
X0258848Y0362080D01*
X0258923Y0361926D01*
X0258994Y0361770D01*
X0259062Y0361612D01*
X0259126Y0361452D01*
X0259186Y0361291D01*
X0259242Y0361129D01*
X0259294Y0360965D01*
X0259341Y0360800D01*
X0259385Y0360634D01*
X0259425Y0360467D01*
X0259460Y0360299D01*
X0259492Y0360130D01*
X0259519Y0359960D01*
X0259542Y0359790D01*
X0259561Y0359619D01*
X0259576Y0359448D01*
X0259587Y0359276D01*
X0259593Y0359105D01*
X0259595Y0358933D01*
X0259593Y0358761D01*
X0259587Y0358590D01*
X0259576Y0358418D01*
X0259561Y0358247D01*
X0259542Y0358076D01*
X0259519Y0357906D01*
X0259492Y0357736D01*
X0259460Y0357567D01*
X0259425Y0357399D01*
X0259385Y0357232D01*
X0259341Y0357066D01*
X0259294Y0356901D01*
X0259242Y0356737D01*
X0259186Y0356575D01*
X0259126Y0356414D01*
X0259062Y0356254D01*
X0258994Y0356096D01*
X0258923Y0355940D01*
X0258848Y0355786D01*
X0258768Y0355633D01*
X0258686Y0355483D01*
X0258599Y0355334D01*
X0258509Y0355188D01*
X0258415Y0355044D01*
X0258318Y0354902D01*
X0258217Y0354763D01*
X0258113Y0354626D01*
X0258006Y0354492D01*
X0257895Y0354361D01*
X0257782Y0354232D01*
X0257665Y0354106D01*
X0257545Y0353983D01*
X0257422Y0353863D01*
X0257296Y0353746D01*
X0257167Y0353633D01*
X0257036Y0353522D01*
X0256902Y0353415D01*
X0256765Y0353311D01*
X0256626Y0353210D01*
X0256484Y0353113D01*
X0256340Y0353019D01*
X0256194Y0352929D01*
X0256045Y0352842D01*
X0255895Y0352760D01*
X0255742Y0352680D01*
X0255588Y0352605D01*
X0255432Y0352534D01*
X0255274Y0352466D01*
X0255114Y0352402D01*
X0254953Y0352342D01*
X0254791Y0352286D01*
X0254627Y0352234D01*
X0254462Y0352187D01*
X0254296Y0352143D01*
X0254129Y0352103D01*
X0253961Y0352068D01*
X0253792Y0352036D01*
X0253622Y0352009D01*
X0253452Y0351986D01*
X0253281Y0351967D01*
X0253110Y0351952D01*
X0252938Y0351941D01*
X0252767Y0351935D01*
X0252595Y0351933D01*
X0252423Y0351935D01*
X0252252Y0351941D01*
X0252080Y0351952D01*
X0251909Y0351967D01*
X0251738Y0351986D01*
X0251568Y0352009D01*
X0251398Y0352036D01*
X0251229Y0352068D01*
X0251061Y0352103D01*
X0250894Y0352143D01*
X0250728Y0352187D01*
X0250563Y0352234D01*
X0250399Y0352286D01*
X0250237Y0352342D01*
X0250076Y0352402D01*
X0249916Y0352466D01*
X0249758Y0352534D01*
X0249602Y0352605D01*
X0249448Y0352680D01*
X0249295Y0352760D01*
X0249145Y0352842D01*
X0248996Y0352929D01*
X0248850Y0353019D01*
X0248706Y0353113D01*
X0248564Y0353210D01*
X0248425Y0353311D01*
X0248288Y0353415D01*
X0248154Y0353522D01*
X0248023Y0353633D01*
X0247894Y0353746D01*
X0247768Y0353863D01*
X0247645Y0353983D01*
X0247525Y0354106D01*
X0247408Y0354232D01*
X0247295Y0354361D01*
X0247184Y0354492D01*
X0247077Y0354626D01*
X0246973Y0354763D01*
X0246872Y0354902D01*
X0246775Y0355044D01*
X0246681Y0355188D01*
X0246591Y0355334D01*
X0246504Y0355483D01*
X0246422Y0355633D01*
X0246342Y0355786D01*
X0246267Y0355940D01*
X0246196Y0356096D01*
X0246128Y0356254D01*
X0246064Y0356414D01*
X0246004Y0356575D01*
X0245948Y0356737D01*
X0245896Y0356901D01*
X0245849Y0357066D01*
X0245805Y0357232D01*
X0245765Y0357399D01*
X0245730Y0357567D01*
X0245698Y0357736D01*
X0245671Y0357906D01*
X0245648Y0358076D01*
X0245629Y0358247D01*
X0245614Y0358418D01*
X0245603Y0358590D01*
X0245597Y0358761D01*
X0245595Y0358933D01*
X0279595Y0331933D02*
X0279595Y0325933D01*
X0280595Y0325933D01*
X0280595Y0324933D01*
X0280595Y0331933D02*
X0279595Y0331933D01*
X0280595Y0331933D02*
X0280595Y0332933D01*
X0284095Y0340933D02*
X0287595Y0340933D01*
X0297595Y0340933D01*
X0301095Y0340933D01*
X0304595Y0332933D02*
X0304595Y0331933D01*
X0305595Y0331933D01*
X0305595Y0325933D01*
X0304595Y0325933D01*
X0304595Y0324933D01*
X0301095Y0316933D02*
X0297095Y0316933D01*
X0287595Y0316933D01*
X0284095Y0316933D01*
X0291595Y0328933D02*
X0291597Y0328996D01*
X0291603Y0329058D01*
X0291613Y0329120D01*
X0291626Y0329182D01*
X0291644Y0329242D01*
X0291665Y0329301D01*
X0291690Y0329359D01*
X0291719Y0329415D01*
X0291751Y0329469D01*
X0291786Y0329521D01*
X0291824Y0329570D01*
X0291866Y0329618D01*
X0291910Y0329662D01*
X0291958Y0329704D01*
X0292007Y0329742D01*
X0292059Y0329777D01*
X0292113Y0329809D01*
X0292169Y0329838D01*
X0292227Y0329863D01*
X0292286Y0329884D01*
X0292346Y0329902D01*
X0292408Y0329915D01*
X0292470Y0329925D01*
X0292532Y0329931D01*
X0292595Y0329933D01*
X0292658Y0329931D01*
X0292720Y0329925D01*
X0292782Y0329915D01*
X0292844Y0329902D01*
X0292904Y0329884D01*
X0292963Y0329863D01*
X0293021Y0329838D01*
X0293077Y0329809D01*
X0293131Y0329777D01*
X0293183Y0329742D01*
X0293232Y0329704D01*
X0293280Y0329662D01*
X0293324Y0329618D01*
X0293366Y0329570D01*
X0293404Y0329521D01*
X0293439Y0329469D01*
X0293471Y0329415D01*
X0293500Y0329359D01*
X0293525Y0329301D01*
X0293546Y0329242D01*
X0293564Y0329182D01*
X0293577Y0329120D01*
X0293587Y0329058D01*
X0293593Y0328996D01*
X0293595Y0328933D01*
X0293593Y0328870D01*
X0293587Y0328808D01*
X0293577Y0328746D01*
X0293564Y0328684D01*
X0293546Y0328624D01*
X0293525Y0328565D01*
X0293500Y0328507D01*
X0293471Y0328451D01*
X0293439Y0328397D01*
X0293404Y0328345D01*
X0293366Y0328296D01*
X0293324Y0328248D01*
X0293280Y0328204D01*
X0293232Y0328162D01*
X0293183Y0328124D01*
X0293131Y0328089D01*
X0293077Y0328057D01*
X0293021Y0328028D01*
X0292963Y0328003D01*
X0292904Y0327982D01*
X0292844Y0327964D01*
X0292782Y0327951D01*
X0292720Y0327941D01*
X0292658Y0327935D01*
X0292595Y0327933D01*
X0292532Y0327935D01*
X0292470Y0327941D01*
X0292408Y0327951D01*
X0292346Y0327964D01*
X0292286Y0327982D01*
X0292227Y0328003D01*
X0292169Y0328028D01*
X0292113Y0328057D01*
X0292059Y0328089D01*
X0292007Y0328124D01*
X0291958Y0328162D01*
X0291910Y0328204D01*
X0291866Y0328248D01*
X0291824Y0328296D01*
X0291786Y0328345D01*
X0291751Y0328397D01*
X0291719Y0328451D01*
X0291690Y0328507D01*
X0291665Y0328565D01*
X0291644Y0328624D01*
X0291626Y0328684D01*
X0291613Y0328746D01*
X0291603Y0328808D01*
X0291597Y0328870D01*
X0291595Y0328933D01*
X0285595Y0328933D02*
X0285597Y0329105D01*
X0285603Y0329276D01*
X0285614Y0329448D01*
X0285629Y0329619D01*
X0285648Y0329790D01*
X0285671Y0329960D01*
X0285698Y0330130D01*
X0285730Y0330299D01*
X0285765Y0330467D01*
X0285805Y0330634D01*
X0285849Y0330800D01*
X0285896Y0330965D01*
X0285948Y0331129D01*
X0286004Y0331291D01*
X0286064Y0331452D01*
X0286128Y0331612D01*
X0286196Y0331770D01*
X0286267Y0331926D01*
X0286342Y0332080D01*
X0286422Y0332233D01*
X0286504Y0332383D01*
X0286591Y0332532D01*
X0286681Y0332678D01*
X0286775Y0332822D01*
X0286872Y0332964D01*
X0286973Y0333103D01*
X0287077Y0333240D01*
X0287184Y0333374D01*
X0287295Y0333505D01*
X0287408Y0333634D01*
X0287525Y0333760D01*
X0287645Y0333883D01*
X0287768Y0334003D01*
X0287894Y0334120D01*
X0288023Y0334233D01*
X0288154Y0334344D01*
X0288288Y0334451D01*
X0288425Y0334555D01*
X0288564Y0334656D01*
X0288706Y0334753D01*
X0288850Y0334847D01*
X0288996Y0334937D01*
X0289145Y0335024D01*
X0289295Y0335106D01*
X0289448Y0335186D01*
X0289602Y0335261D01*
X0289758Y0335332D01*
X0289916Y0335400D01*
X0290076Y0335464D01*
X0290237Y0335524D01*
X0290399Y0335580D01*
X0290563Y0335632D01*
X0290728Y0335679D01*
X0290894Y0335723D01*
X0291061Y0335763D01*
X0291229Y0335798D01*
X0291398Y0335830D01*
X0291568Y0335857D01*
X0291738Y0335880D01*
X0291909Y0335899D01*
X0292080Y0335914D01*
X0292252Y0335925D01*
X0292423Y0335931D01*
X0292595Y0335933D01*
X0292767Y0335931D01*
X0292938Y0335925D01*
X0293110Y0335914D01*
X0293281Y0335899D01*
X0293452Y0335880D01*
X0293622Y0335857D01*
X0293792Y0335830D01*
X0293961Y0335798D01*
X0294129Y0335763D01*
X0294296Y0335723D01*
X0294462Y0335679D01*
X0294627Y0335632D01*
X0294791Y0335580D01*
X0294953Y0335524D01*
X0295114Y0335464D01*
X0295274Y0335400D01*
X0295432Y0335332D01*
X0295588Y0335261D01*
X0295742Y0335186D01*
X0295895Y0335106D01*
X0296045Y0335024D01*
X0296194Y0334937D01*
X0296340Y0334847D01*
X0296484Y0334753D01*
X0296626Y0334656D01*
X0296765Y0334555D01*
X0296902Y0334451D01*
X0297036Y0334344D01*
X0297167Y0334233D01*
X0297296Y0334120D01*
X0297422Y0334003D01*
X0297545Y0333883D01*
X0297665Y0333760D01*
X0297782Y0333634D01*
X0297895Y0333505D01*
X0298006Y0333374D01*
X0298113Y0333240D01*
X0298217Y0333103D01*
X0298318Y0332964D01*
X0298415Y0332822D01*
X0298509Y0332678D01*
X0298599Y0332532D01*
X0298686Y0332383D01*
X0298768Y0332233D01*
X0298848Y0332080D01*
X0298923Y0331926D01*
X0298994Y0331770D01*
X0299062Y0331612D01*
X0299126Y0331452D01*
X0299186Y0331291D01*
X0299242Y0331129D01*
X0299294Y0330965D01*
X0299341Y0330800D01*
X0299385Y0330634D01*
X0299425Y0330467D01*
X0299460Y0330299D01*
X0299492Y0330130D01*
X0299519Y0329960D01*
X0299542Y0329790D01*
X0299561Y0329619D01*
X0299576Y0329448D01*
X0299587Y0329276D01*
X0299593Y0329105D01*
X0299595Y0328933D01*
X0299593Y0328761D01*
X0299587Y0328590D01*
X0299576Y0328418D01*
X0299561Y0328247D01*
X0299542Y0328076D01*
X0299519Y0327906D01*
X0299492Y0327736D01*
X0299460Y0327567D01*
X0299425Y0327399D01*
X0299385Y0327232D01*
X0299341Y0327066D01*
X0299294Y0326901D01*
X0299242Y0326737D01*
X0299186Y0326575D01*
X0299126Y0326414D01*
X0299062Y0326254D01*
X0298994Y0326096D01*
X0298923Y0325940D01*
X0298848Y0325786D01*
X0298768Y0325633D01*
X0298686Y0325483D01*
X0298599Y0325334D01*
X0298509Y0325188D01*
X0298415Y0325044D01*
X0298318Y0324902D01*
X0298217Y0324763D01*
X0298113Y0324626D01*
X0298006Y0324492D01*
X0297895Y0324361D01*
X0297782Y0324232D01*
X0297665Y0324106D01*
X0297545Y0323983D01*
X0297422Y0323863D01*
X0297296Y0323746D01*
X0297167Y0323633D01*
X0297036Y0323522D01*
X0296902Y0323415D01*
X0296765Y0323311D01*
X0296626Y0323210D01*
X0296484Y0323113D01*
X0296340Y0323019D01*
X0296194Y0322929D01*
X0296045Y0322842D01*
X0295895Y0322760D01*
X0295742Y0322680D01*
X0295588Y0322605D01*
X0295432Y0322534D01*
X0295274Y0322466D01*
X0295114Y0322402D01*
X0294953Y0322342D01*
X0294791Y0322286D01*
X0294627Y0322234D01*
X0294462Y0322187D01*
X0294296Y0322143D01*
X0294129Y0322103D01*
X0293961Y0322068D01*
X0293792Y0322036D01*
X0293622Y0322009D01*
X0293452Y0321986D01*
X0293281Y0321967D01*
X0293110Y0321952D01*
X0292938Y0321941D01*
X0292767Y0321935D01*
X0292595Y0321933D01*
X0292423Y0321935D01*
X0292252Y0321941D01*
X0292080Y0321952D01*
X0291909Y0321967D01*
X0291738Y0321986D01*
X0291568Y0322009D01*
X0291398Y0322036D01*
X0291229Y0322068D01*
X0291061Y0322103D01*
X0290894Y0322143D01*
X0290728Y0322187D01*
X0290563Y0322234D01*
X0290399Y0322286D01*
X0290237Y0322342D01*
X0290076Y0322402D01*
X0289916Y0322466D01*
X0289758Y0322534D01*
X0289602Y0322605D01*
X0289448Y0322680D01*
X0289295Y0322760D01*
X0289145Y0322842D01*
X0288996Y0322929D01*
X0288850Y0323019D01*
X0288706Y0323113D01*
X0288564Y0323210D01*
X0288425Y0323311D01*
X0288288Y0323415D01*
X0288154Y0323522D01*
X0288023Y0323633D01*
X0287894Y0323746D01*
X0287768Y0323863D01*
X0287645Y0323983D01*
X0287525Y0324106D01*
X0287408Y0324232D01*
X0287295Y0324361D01*
X0287184Y0324492D01*
X0287077Y0324626D01*
X0286973Y0324763D01*
X0286872Y0324902D01*
X0286775Y0325044D01*
X0286681Y0325188D01*
X0286591Y0325334D01*
X0286504Y0325483D01*
X0286422Y0325633D01*
X0286342Y0325786D01*
X0286267Y0325940D01*
X0286196Y0326096D01*
X0286128Y0326254D01*
X0286064Y0326414D01*
X0286004Y0326575D01*
X0285948Y0326737D01*
X0285896Y0326901D01*
X0285849Y0327066D01*
X0285805Y0327232D01*
X0285765Y0327399D01*
X0285730Y0327567D01*
X0285698Y0327736D01*
X0285671Y0327906D01*
X0285648Y0328076D01*
X0285629Y0328247D01*
X0285614Y0328418D01*
X0285603Y0328590D01*
X0285597Y0328761D01*
X0285595Y0328933D01*
X0171595Y0303933D02*
X0118595Y0303933D01*
X0118595Y0143933D01*
X0141095Y0143933D01*
X0141097Y0144059D01*
X0141103Y0144184D01*
X0141113Y0144309D01*
X0141127Y0144434D01*
X0141144Y0144559D01*
X0141166Y0144683D01*
X0141191Y0144806D01*
X0141221Y0144928D01*
X0141254Y0145049D01*
X0141291Y0145169D01*
X0141331Y0145288D01*
X0141376Y0145405D01*
X0141424Y0145522D01*
X0141476Y0145636D01*
X0141531Y0145749D01*
X0141590Y0145860D01*
X0141652Y0145969D01*
X0141718Y0146076D01*
X0141787Y0146181D01*
X0141859Y0146284D01*
X0141934Y0146385D01*
X0142013Y0146483D01*
X0142095Y0146578D01*
X0142179Y0146671D01*
X0142267Y0146761D01*
X0142357Y0146849D01*
X0142450Y0146933D01*
X0142545Y0147015D01*
X0142643Y0147094D01*
X0142744Y0147169D01*
X0142847Y0147241D01*
X0142952Y0147310D01*
X0143059Y0147376D01*
X0143168Y0147438D01*
X0143279Y0147497D01*
X0143392Y0147552D01*
X0143506Y0147604D01*
X0143623Y0147652D01*
X0143740Y0147697D01*
X0143859Y0147737D01*
X0143979Y0147774D01*
X0144100Y0147807D01*
X0144222Y0147837D01*
X0144345Y0147862D01*
X0144469Y0147884D01*
X0144594Y0147901D01*
X0144719Y0147915D01*
X0144844Y0147925D01*
X0144969Y0147931D01*
X0145095Y0147933D01*
X0145221Y0147931D01*
X0145346Y0147925D01*
X0145471Y0147915D01*
X0145596Y0147901D01*
X0145721Y0147884D01*
X0145845Y0147862D01*
X0145968Y0147837D01*
X0146090Y0147807D01*
X0146211Y0147774D01*
X0146331Y0147737D01*
X0146450Y0147697D01*
X0146567Y0147652D01*
X0146684Y0147604D01*
X0146798Y0147552D01*
X0146911Y0147497D01*
X0147022Y0147438D01*
X0147131Y0147376D01*
X0147238Y0147310D01*
X0147343Y0147241D01*
X0147446Y0147169D01*
X0147547Y0147094D01*
X0147645Y0147015D01*
X0147740Y0146933D01*
X0147833Y0146849D01*
X0147923Y0146761D01*
X0148011Y0146671D01*
X0148095Y0146578D01*
X0148177Y0146483D01*
X0148256Y0146385D01*
X0148331Y0146284D01*
X0148403Y0146181D01*
X0148472Y0146076D01*
X0148538Y0145969D01*
X0148600Y0145860D01*
X0148659Y0145749D01*
X0148714Y0145636D01*
X0148766Y0145522D01*
X0148814Y0145405D01*
X0148859Y0145288D01*
X0148899Y0145169D01*
X0148936Y0145049D01*
X0148969Y0144928D01*
X0148999Y0144806D01*
X0149024Y0144683D01*
X0149046Y0144559D01*
X0149063Y0144434D01*
X0149077Y0144309D01*
X0149087Y0144184D01*
X0149093Y0144059D01*
X0149095Y0143933D01*
X0171595Y0143933D01*
X0171595Y0303933D01*
X0148295Y0224310D02*
X0148295Y0220040D01*
X0144025Y0224310D01*
X0142957Y0224310D01*
X0141890Y0223242D01*
X0141890Y0221107D01*
X0142957Y0220040D01*
X0142957Y0217864D02*
X0144025Y0217864D01*
X0145092Y0216797D01*
X0146160Y0217864D01*
X0147228Y0217864D01*
X0148295Y0216797D01*
X0148295Y0214662D01*
X0147228Y0213594D01*
X0148295Y0211419D02*
X0148295Y0207149D01*
X0141890Y0207149D01*
X0141890Y0204987D02*
X0141890Y0202852D01*
X0141890Y0203919D02*
X0148295Y0203919D01*
X0148295Y0202852D02*
X0148295Y0204987D01*
X0147228Y0200676D02*
X0142957Y0200676D01*
X0141890Y0199609D01*
X0141890Y0196406D01*
X0148295Y0196406D01*
X0148295Y0199609D01*
X0147228Y0200676D01*
X0147228Y0194231D02*
X0142957Y0194231D01*
X0147228Y0189961D01*
X0148295Y0191028D01*
X0148295Y0193163D01*
X0147228Y0194231D01*
X0147228Y0189961D02*
X0142957Y0189961D01*
X0141890Y0191028D01*
X0141890Y0193163D01*
X0142957Y0194231D01*
X0145092Y0187785D02*
X0145092Y0183515D01*
X0141890Y0186718D01*
X0148295Y0186718D01*
X0147228Y0181340D02*
X0148295Y0180272D01*
X0148295Y0178137D01*
X0147228Y0177070D01*
X0142957Y0181340D01*
X0147228Y0181340D01*
X0147228Y0177070D02*
X0142957Y0177070D01*
X0141890Y0178137D01*
X0141890Y0180272D01*
X0142957Y0181340D01*
X0141890Y0174894D02*
X0141890Y0170624D01*
X0148295Y0170624D01*
X0147228Y0168449D02*
X0142957Y0168449D01*
X0141890Y0167381D01*
X0141890Y0165246D01*
X0142957Y0164179D01*
X0144025Y0164179D01*
X0145092Y0165246D01*
X0145092Y0168449D01*
X0147228Y0168449D02*
X0148295Y0167381D01*
X0148295Y0165246D01*
X0147228Y0164179D01*
X0148295Y0162003D02*
X0148295Y0157733D01*
X0144025Y0162003D01*
X0142957Y0162003D01*
X0141890Y0160936D01*
X0141890Y0158801D01*
X0142957Y0157733D01*
X0145092Y0170624D02*
X0145092Y0172759D01*
X0154207Y0142139D02*
X0156342Y0142139D01*
X0155275Y0142139D02*
X0155275Y0135733D01*
X0156342Y0135733D02*
X0154207Y0135733D01*
X0158504Y0136801D02*
X0159572Y0135733D01*
X0161707Y0135733D01*
X0162774Y0136801D01*
X0164950Y0136801D02*
X0166017Y0135733D01*
X0168152Y0135733D01*
X0169220Y0136801D01*
X0169220Y0137868D01*
X0168152Y0138936D01*
X0164950Y0138936D01*
X0164950Y0136801D01*
X0164950Y0138936D02*
X0167085Y0141071D01*
X0169220Y0142139D01*
X0162774Y0141071D02*
X0161707Y0142139D01*
X0159572Y0142139D01*
X0158504Y0141071D01*
X0158504Y0136801D01*
X0132095Y0133933D02*
X0132095Y0123933D01*
X0132093Y0123873D01*
X0132088Y0123812D01*
X0132079Y0123753D01*
X0132066Y0123694D01*
X0132050Y0123635D01*
X0132030Y0123578D01*
X0132007Y0123523D01*
X0131980Y0123468D01*
X0131951Y0123416D01*
X0131918Y0123365D01*
X0131882Y0123316D01*
X0131844Y0123270D01*
X0131802Y0123226D01*
X0131758Y0123184D01*
X0131712Y0123146D01*
X0131663Y0123110D01*
X0131612Y0123077D01*
X0131560Y0123048D01*
X0131505Y0123021D01*
X0131450Y0122998D01*
X0131393Y0122978D01*
X0131334Y0122962D01*
X0131275Y0122949D01*
X0131216Y0122940D01*
X0131155Y0122935D01*
X0131095Y0122933D01*
X0114095Y0122933D01*
X0114035Y0122935D01*
X0113974Y0122940D01*
X0113915Y0122949D01*
X0113856Y0122962D01*
X0113797Y0122978D01*
X0113740Y0122998D01*
X0113685Y0123021D01*
X0113630Y0123048D01*
X0113578Y0123077D01*
X0113527Y0123110D01*
X0113478Y0123146D01*
X0113432Y0123184D01*
X0113388Y0123226D01*
X0113346Y0123270D01*
X0113308Y0123316D01*
X0113272Y0123365D01*
X0113239Y0123416D01*
X0113210Y0123468D01*
X0113183Y0123523D01*
X0113160Y0123578D01*
X0113140Y0123635D01*
X0113124Y0123694D01*
X0113111Y0123753D01*
X0113102Y0123812D01*
X0113097Y0123873D01*
X0113095Y0123933D01*
X0113095Y0133933D01*
X0113097Y0133993D01*
X0113102Y0134054D01*
X0113111Y0134113D01*
X0113124Y0134172D01*
X0113140Y0134231D01*
X0113160Y0134288D01*
X0113183Y0134343D01*
X0113210Y0134398D01*
X0113239Y0134450D01*
X0113272Y0134501D01*
X0113308Y0134550D01*
X0113346Y0134596D01*
X0113388Y0134640D01*
X0113432Y0134682D01*
X0113478Y0134720D01*
X0113527Y0134756D01*
X0113578Y0134789D01*
X0113630Y0134818D01*
X0113685Y0134845D01*
X0113740Y0134868D01*
X0113797Y0134888D01*
X0113856Y0134904D01*
X0113915Y0134917D01*
X0113974Y0134926D01*
X0114035Y0134931D01*
X0114095Y0134933D01*
X0131095Y0134933D01*
X0131155Y0134931D01*
X0131216Y0134926D01*
X0131275Y0134917D01*
X0131334Y0134904D01*
X0131393Y0134888D01*
X0131450Y0134868D01*
X0131505Y0134845D01*
X0131560Y0134818D01*
X0131612Y0134789D01*
X0131663Y0134756D01*
X0131712Y0134720D01*
X0131758Y0134682D01*
X0131802Y0134640D01*
X0131844Y0134596D01*
X0131882Y0134550D01*
X0131918Y0134501D01*
X0131951Y0134450D01*
X0131980Y0134398D01*
X0132007Y0134343D01*
X0132030Y0134288D01*
X0132050Y0134231D01*
X0132066Y0134172D01*
X0132079Y0134113D01*
X0132088Y0134054D01*
X0132093Y0133993D01*
X0132095Y0133933D01*
X0124095Y0128933D02*
X0123595Y0128933D01*
X0121595Y0128933D02*
X0121095Y0128933D01*
X0142957Y0213594D02*
X0141890Y0214662D01*
X0141890Y0216797D01*
X0142957Y0217864D01*
X0145092Y0216797D02*
X0145092Y0215729D01*
X0102095Y0277933D02*
X0102095Y0281433D01*
X0102095Y0290933D01*
X0102095Y0294933D01*
X0094095Y0298433D02*
X0093095Y0298433D01*
X0093095Y0299433D01*
X0087095Y0299433D01*
X0087095Y0298433D01*
X0086095Y0298433D01*
X0078095Y0294933D02*
X0078095Y0291433D01*
X0078095Y0281433D01*
X0078095Y0277933D01*
X0086095Y0274433D02*
X0087095Y0274433D01*
X0087095Y0273433D01*
X0093095Y0273433D01*
X0093095Y0274433D01*
X0094095Y0274433D01*
X0089095Y0286433D02*
X0089097Y0286496D01*
X0089103Y0286558D01*
X0089113Y0286620D01*
X0089126Y0286682D01*
X0089144Y0286742D01*
X0089165Y0286801D01*
X0089190Y0286859D01*
X0089219Y0286915D01*
X0089251Y0286969D01*
X0089286Y0287021D01*
X0089324Y0287070D01*
X0089366Y0287118D01*
X0089410Y0287162D01*
X0089458Y0287204D01*
X0089507Y0287242D01*
X0089559Y0287277D01*
X0089613Y0287309D01*
X0089669Y0287338D01*
X0089727Y0287363D01*
X0089786Y0287384D01*
X0089846Y0287402D01*
X0089908Y0287415D01*
X0089970Y0287425D01*
X0090032Y0287431D01*
X0090095Y0287433D01*
X0090158Y0287431D01*
X0090220Y0287425D01*
X0090282Y0287415D01*
X0090344Y0287402D01*
X0090404Y0287384D01*
X0090463Y0287363D01*
X0090521Y0287338D01*
X0090577Y0287309D01*
X0090631Y0287277D01*
X0090683Y0287242D01*
X0090732Y0287204D01*
X0090780Y0287162D01*
X0090824Y0287118D01*
X0090866Y0287070D01*
X0090904Y0287021D01*
X0090939Y0286969D01*
X0090971Y0286915D01*
X0091000Y0286859D01*
X0091025Y0286801D01*
X0091046Y0286742D01*
X0091064Y0286682D01*
X0091077Y0286620D01*
X0091087Y0286558D01*
X0091093Y0286496D01*
X0091095Y0286433D01*
X0091093Y0286370D01*
X0091087Y0286308D01*
X0091077Y0286246D01*
X0091064Y0286184D01*
X0091046Y0286124D01*
X0091025Y0286065D01*
X0091000Y0286007D01*
X0090971Y0285951D01*
X0090939Y0285897D01*
X0090904Y0285845D01*
X0090866Y0285796D01*
X0090824Y0285748D01*
X0090780Y0285704D01*
X0090732Y0285662D01*
X0090683Y0285624D01*
X0090631Y0285589D01*
X0090577Y0285557D01*
X0090521Y0285528D01*
X0090463Y0285503D01*
X0090404Y0285482D01*
X0090344Y0285464D01*
X0090282Y0285451D01*
X0090220Y0285441D01*
X0090158Y0285435D01*
X0090095Y0285433D01*
X0090032Y0285435D01*
X0089970Y0285441D01*
X0089908Y0285451D01*
X0089846Y0285464D01*
X0089786Y0285482D01*
X0089727Y0285503D01*
X0089669Y0285528D01*
X0089613Y0285557D01*
X0089559Y0285589D01*
X0089507Y0285624D01*
X0089458Y0285662D01*
X0089410Y0285704D01*
X0089366Y0285748D01*
X0089324Y0285796D01*
X0089286Y0285845D01*
X0089251Y0285897D01*
X0089219Y0285951D01*
X0089190Y0286007D01*
X0089165Y0286065D01*
X0089144Y0286124D01*
X0089126Y0286184D01*
X0089113Y0286246D01*
X0089103Y0286308D01*
X0089097Y0286370D01*
X0089095Y0286433D01*
X0083095Y0286433D02*
X0083097Y0286605D01*
X0083103Y0286776D01*
X0083114Y0286948D01*
X0083129Y0287119D01*
X0083148Y0287290D01*
X0083171Y0287460D01*
X0083198Y0287630D01*
X0083230Y0287799D01*
X0083265Y0287967D01*
X0083305Y0288134D01*
X0083349Y0288300D01*
X0083396Y0288465D01*
X0083448Y0288629D01*
X0083504Y0288791D01*
X0083564Y0288952D01*
X0083628Y0289112D01*
X0083696Y0289270D01*
X0083767Y0289426D01*
X0083842Y0289580D01*
X0083922Y0289733D01*
X0084004Y0289883D01*
X0084091Y0290032D01*
X0084181Y0290178D01*
X0084275Y0290322D01*
X0084372Y0290464D01*
X0084473Y0290603D01*
X0084577Y0290740D01*
X0084684Y0290874D01*
X0084795Y0291005D01*
X0084908Y0291134D01*
X0085025Y0291260D01*
X0085145Y0291383D01*
X0085268Y0291503D01*
X0085394Y0291620D01*
X0085523Y0291733D01*
X0085654Y0291844D01*
X0085788Y0291951D01*
X0085925Y0292055D01*
X0086064Y0292156D01*
X0086206Y0292253D01*
X0086350Y0292347D01*
X0086496Y0292437D01*
X0086645Y0292524D01*
X0086795Y0292606D01*
X0086948Y0292686D01*
X0087102Y0292761D01*
X0087258Y0292832D01*
X0087416Y0292900D01*
X0087576Y0292964D01*
X0087737Y0293024D01*
X0087899Y0293080D01*
X0088063Y0293132D01*
X0088228Y0293179D01*
X0088394Y0293223D01*
X0088561Y0293263D01*
X0088729Y0293298D01*
X0088898Y0293330D01*
X0089068Y0293357D01*
X0089238Y0293380D01*
X0089409Y0293399D01*
X0089580Y0293414D01*
X0089752Y0293425D01*
X0089923Y0293431D01*
X0090095Y0293433D01*
X0090267Y0293431D01*
X0090438Y0293425D01*
X0090610Y0293414D01*
X0090781Y0293399D01*
X0090952Y0293380D01*
X0091122Y0293357D01*
X0091292Y0293330D01*
X0091461Y0293298D01*
X0091629Y0293263D01*
X0091796Y0293223D01*
X0091962Y0293179D01*
X0092127Y0293132D01*
X0092291Y0293080D01*
X0092453Y0293024D01*
X0092614Y0292964D01*
X0092774Y0292900D01*
X0092932Y0292832D01*
X0093088Y0292761D01*
X0093242Y0292686D01*
X0093395Y0292606D01*
X0093545Y0292524D01*
X0093694Y0292437D01*
X0093840Y0292347D01*
X0093984Y0292253D01*
X0094126Y0292156D01*
X0094265Y0292055D01*
X0094402Y0291951D01*
X0094536Y0291844D01*
X0094667Y0291733D01*
X0094796Y0291620D01*
X0094922Y0291503D01*
X0095045Y0291383D01*
X0095165Y0291260D01*
X0095282Y0291134D01*
X0095395Y0291005D01*
X0095506Y0290874D01*
X0095613Y0290740D01*
X0095717Y0290603D01*
X0095818Y0290464D01*
X0095915Y0290322D01*
X0096009Y0290178D01*
X0096099Y0290032D01*
X0096186Y0289883D01*
X0096268Y0289733D01*
X0096348Y0289580D01*
X0096423Y0289426D01*
X0096494Y0289270D01*
X0096562Y0289112D01*
X0096626Y0288952D01*
X0096686Y0288791D01*
X0096742Y0288629D01*
X0096794Y0288465D01*
X0096841Y0288300D01*
X0096885Y0288134D01*
X0096925Y0287967D01*
X0096960Y0287799D01*
X0096992Y0287630D01*
X0097019Y0287460D01*
X0097042Y0287290D01*
X0097061Y0287119D01*
X0097076Y0286948D01*
X0097087Y0286776D01*
X0097093Y0286605D01*
X0097095Y0286433D01*
X0097093Y0286261D01*
X0097087Y0286090D01*
X0097076Y0285918D01*
X0097061Y0285747D01*
X0097042Y0285576D01*
X0097019Y0285406D01*
X0096992Y0285236D01*
X0096960Y0285067D01*
X0096925Y0284899D01*
X0096885Y0284732D01*
X0096841Y0284566D01*
X0096794Y0284401D01*
X0096742Y0284237D01*
X0096686Y0284075D01*
X0096626Y0283914D01*
X0096562Y0283754D01*
X0096494Y0283596D01*
X0096423Y0283440D01*
X0096348Y0283286D01*
X0096268Y0283133D01*
X0096186Y0282983D01*
X0096099Y0282834D01*
X0096009Y0282688D01*
X0095915Y0282544D01*
X0095818Y0282402D01*
X0095717Y0282263D01*
X0095613Y0282126D01*
X0095506Y0281992D01*
X0095395Y0281861D01*
X0095282Y0281732D01*
X0095165Y0281606D01*
X0095045Y0281483D01*
X0094922Y0281363D01*
X0094796Y0281246D01*
X0094667Y0281133D01*
X0094536Y0281022D01*
X0094402Y0280915D01*
X0094265Y0280811D01*
X0094126Y0280710D01*
X0093984Y0280613D01*
X0093840Y0280519D01*
X0093694Y0280429D01*
X0093545Y0280342D01*
X0093395Y0280260D01*
X0093242Y0280180D01*
X0093088Y0280105D01*
X0092932Y0280034D01*
X0092774Y0279966D01*
X0092614Y0279902D01*
X0092453Y0279842D01*
X0092291Y0279786D01*
X0092127Y0279734D01*
X0091962Y0279687D01*
X0091796Y0279643D01*
X0091629Y0279603D01*
X0091461Y0279568D01*
X0091292Y0279536D01*
X0091122Y0279509D01*
X0090952Y0279486D01*
X0090781Y0279467D01*
X0090610Y0279452D01*
X0090438Y0279441D01*
X0090267Y0279435D01*
X0090095Y0279433D01*
X0089923Y0279435D01*
X0089752Y0279441D01*
X0089580Y0279452D01*
X0089409Y0279467D01*
X0089238Y0279486D01*
X0089068Y0279509D01*
X0088898Y0279536D01*
X0088729Y0279568D01*
X0088561Y0279603D01*
X0088394Y0279643D01*
X0088228Y0279687D01*
X0088063Y0279734D01*
X0087899Y0279786D01*
X0087737Y0279842D01*
X0087576Y0279902D01*
X0087416Y0279966D01*
X0087258Y0280034D01*
X0087102Y0280105D01*
X0086948Y0280180D01*
X0086795Y0280260D01*
X0086645Y0280342D01*
X0086496Y0280429D01*
X0086350Y0280519D01*
X0086206Y0280613D01*
X0086064Y0280710D01*
X0085925Y0280811D01*
X0085788Y0280915D01*
X0085654Y0281022D01*
X0085523Y0281133D01*
X0085394Y0281246D01*
X0085268Y0281363D01*
X0085145Y0281483D01*
X0085025Y0281606D01*
X0084908Y0281732D01*
X0084795Y0281861D01*
X0084684Y0281992D01*
X0084577Y0282126D01*
X0084473Y0282263D01*
X0084372Y0282402D01*
X0084275Y0282544D01*
X0084181Y0282688D01*
X0084091Y0282834D01*
X0084004Y0282983D01*
X0083922Y0283133D01*
X0083842Y0283286D01*
X0083767Y0283440D01*
X0083696Y0283596D01*
X0083628Y0283754D01*
X0083564Y0283914D01*
X0083504Y0284075D01*
X0083448Y0284237D01*
X0083396Y0284401D01*
X0083349Y0284566D01*
X0083305Y0284732D01*
X0083265Y0284899D01*
X0083230Y0285067D01*
X0083198Y0285236D01*
X0083171Y0285406D01*
X0083148Y0285576D01*
X0083129Y0285747D01*
X0083114Y0285918D01*
X0083103Y0286090D01*
X0083097Y0286261D01*
X0083095Y0286433D01*
D14*
X0121595Y0131933D02*
X0121595Y0128933D01*
X0121595Y0125933D01*
X0123595Y0125933D02*
X0123595Y0128933D01*
X0123595Y0131933D01*
D15*
X0121452Y0136683D02*
X0118449Y0136683D01*
X0119950Y0136683D02*
X0119950Y0141187D01*
X0118449Y0139686D01*
X0116848Y0140436D02*
X0116097Y0141187D01*
X0114596Y0141187D01*
X0113845Y0140436D01*
X0113845Y0137434D01*
X0114596Y0136683D01*
X0116097Y0136683D01*
X0116848Y0137434D01*
X0202595Y0128933D02*
X0227595Y0128933D01*
X0227595Y0148933D01*
X0247595Y0148933D01*
X0247595Y0123933D01*
X0227595Y0123933D01*
X0227595Y0128933D01*
X0267595Y0128933D01*
X0272595Y0128933D01*
X0272595Y0133933D01*
X0272595Y0293933D01*
X0272595Y0298933D01*
X0267595Y0298933D01*
X0252595Y0298933D01*
X0252595Y0278933D01*
X0222595Y0278933D01*
X0222595Y0298933D01*
X0252595Y0298933D01*
X0244445Y0293933D02*
X0244447Y0294045D01*
X0244453Y0294156D01*
X0244463Y0294268D01*
X0244477Y0294379D01*
X0244494Y0294489D01*
X0244516Y0294599D01*
X0244542Y0294708D01*
X0244571Y0294816D01*
X0244604Y0294922D01*
X0244641Y0295028D01*
X0244682Y0295132D01*
X0244727Y0295235D01*
X0244775Y0295336D01*
X0244826Y0295435D01*
X0244881Y0295532D01*
X0244940Y0295627D01*
X0245001Y0295721D01*
X0245066Y0295812D01*
X0245135Y0295900D01*
X0245206Y0295986D01*
X0245280Y0296070D01*
X0245358Y0296150D01*
X0245438Y0296228D01*
X0245521Y0296304D01*
X0245606Y0296376D01*
X0245694Y0296445D01*
X0245784Y0296511D01*
X0245877Y0296573D01*
X0245972Y0296633D01*
X0246069Y0296689D01*
X0246167Y0296741D01*
X0246268Y0296790D01*
X0246370Y0296835D01*
X0246474Y0296877D01*
X0246579Y0296915D01*
X0246686Y0296949D01*
X0246793Y0296979D01*
X0246902Y0297006D01*
X0247011Y0297028D01*
X0247122Y0297047D01*
X0247232Y0297062D01*
X0247344Y0297073D01*
X0247455Y0297080D01*
X0247567Y0297083D01*
X0247679Y0297082D01*
X0247791Y0297077D01*
X0247902Y0297068D01*
X0248013Y0297055D01*
X0248124Y0297038D01*
X0248234Y0297018D01*
X0248343Y0296993D01*
X0248451Y0296965D01*
X0248558Y0296932D01*
X0248664Y0296896D01*
X0248768Y0296856D01*
X0248871Y0296813D01*
X0248973Y0296766D01*
X0249072Y0296715D01*
X0249170Y0296661D01*
X0249266Y0296603D01*
X0249360Y0296542D01*
X0249451Y0296478D01*
X0249540Y0296411D01*
X0249627Y0296340D01*
X0249711Y0296266D01*
X0249793Y0296190D01*
X0249871Y0296110D01*
X0249947Y0296028D01*
X0250020Y0295943D01*
X0250090Y0295856D01*
X0250156Y0295766D01*
X0250220Y0295674D01*
X0250280Y0295580D01*
X0250337Y0295484D01*
X0250390Y0295385D01*
X0250440Y0295285D01*
X0250486Y0295184D01*
X0250529Y0295080D01*
X0250568Y0294975D01*
X0250603Y0294869D01*
X0250634Y0294762D01*
X0250662Y0294653D01*
X0250685Y0294544D01*
X0250705Y0294434D01*
X0250721Y0294323D01*
X0250733Y0294212D01*
X0250741Y0294101D01*
X0250745Y0293989D01*
X0250745Y0293877D01*
X0250741Y0293765D01*
X0250733Y0293654D01*
X0250721Y0293543D01*
X0250705Y0293432D01*
X0250685Y0293322D01*
X0250662Y0293213D01*
X0250634Y0293104D01*
X0250603Y0292997D01*
X0250568Y0292891D01*
X0250529Y0292786D01*
X0250486Y0292682D01*
X0250440Y0292581D01*
X0250390Y0292481D01*
X0250337Y0292382D01*
X0250280Y0292286D01*
X0250220Y0292192D01*
X0250156Y0292100D01*
X0250090Y0292010D01*
X0250020Y0291923D01*
X0249947Y0291838D01*
X0249871Y0291756D01*
X0249793Y0291676D01*
X0249711Y0291600D01*
X0249627Y0291526D01*
X0249540Y0291455D01*
X0249451Y0291388D01*
X0249360Y0291324D01*
X0249266Y0291263D01*
X0249170Y0291205D01*
X0249072Y0291151D01*
X0248973Y0291100D01*
X0248871Y0291053D01*
X0248768Y0291010D01*
X0248664Y0290970D01*
X0248558Y0290934D01*
X0248451Y0290901D01*
X0248343Y0290873D01*
X0248234Y0290848D01*
X0248124Y0290828D01*
X0248013Y0290811D01*
X0247902Y0290798D01*
X0247791Y0290789D01*
X0247679Y0290784D01*
X0247567Y0290783D01*
X0247455Y0290786D01*
X0247344Y0290793D01*
X0247232Y0290804D01*
X0247122Y0290819D01*
X0247011Y0290838D01*
X0246902Y0290860D01*
X0246793Y0290887D01*
X0246686Y0290917D01*
X0246579Y0290951D01*
X0246474Y0290989D01*
X0246370Y0291031D01*
X0246268Y0291076D01*
X0246167Y0291125D01*
X0246069Y0291177D01*
X0245972Y0291233D01*
X0245877Y0291293D01*
X0245784Y0291355D01*
X0245694Y0291421D01*
X0245606Y0291490D01*
X0245521Y0291562D01*
X0245438Y0291638D01*
X0245358Y0291716D01*
X0245280Y0291796D01*
X0245206Y0291880D01*
X0245135Y0291966D01*
X0245066Y0292054D01*
X0245001Y0292145D01*
X0244940Y0292239D01*
X0244881Y0292334D01*
X0244826Y0292431D01*
X0244775Y0292530D01*
X0244727Y0292631D01*
X0244682Y0292734D01*
X0244641Y0292838D01*
X0244604Y0292944D01*
X0244571Y0293050D01*
X0244542Y0293158D01*
X0244516Y0293267D01*
X0244494Y0293377D01*
X0244477Y0293487D01*
X0244463Y0293598D01*
X0244453Y0293710D01*
X0244447Y0293821D01*
X0244445Y0293933D01*
X0234445Y0293933D02*
X0234447Y0294045D01*
X0234453Y0294156D01*
X0234463Y0294268D01*
X0234477Y0294379D01*
X0234494Y0294489D01*
X0234516Y0294599D01*
X0234542Y0294708D01*
X0234571Y0294816D01*
X0234604Y0294922D01*
X0234641Y0295028D01*
X0234682Y0295132D01*
X0234727Y0295235D01*
X0234775Y0295336D01*
X0234826Y0295435D01*
X0234881Y0295532D01*
X0234940Y0295627D01*
X0235001Y0295721D01*
X0235066Y0295812D01*
X0235135Y0295900D01*
X0235206Y0295986D01*
X0235280Y0296070D01*
X0235358Y0296150D01*
X0235438Y0296228D01*
X0235521Y0296304D01*
X0235606Y0296376D01*
X0235694Y0296445D01*
X0235784Y0296511D01*
X0235877Y0296573D01*
X0235972Y0296633D01*
X0236069Y0296689D01*
X0236167Y0296741D01*
X0236268Y0296790D01*
X0236370Y0296835D01*
X0236474Y0296877D01*
X0236579Y0296915D01*
X0236686Y0296949D01*
X0236793Y0296979D01*
X0236902Y0297006D01*
X0237011Y0297028D01*
X0237122Y0297047D01*
X0237232Y0297062D01*
X0237344Y0297073D01*
X0237455Y0297080D01*
X0237567Y0297083D01*
X0237679Y0297082D01*
X0237791Y0297077D01*
X0237902Y0297068D01*
X0238013Y0297055D01*
X0238124Y0297038D01*
X0238234Y0297018D01*
X0238343Y0296993D01*
X0238451Y0296965D01*
X0238558Y0296932D01*
X0238664Y0296896D01*
X0238768Y0296856D01*
X0238871Y0296813D01*
X0238973Y0296766D01*
X0239072Y0296715D01*
X0239170Y0296661D01*
X0239266Y0296603D01*
X0239360Y0296542D01*
X0239451Y0296478D01*
X0239540Y0296411D01*
X0239627Y0296340D01*
X0239711Y0296266D01*
X0239793Y0296190D01*
X0239871Y0296110D01*
X0239947Y0296028D01*
X0240020Y0295943D01*
X0240090Y0295856D01*
X0240156Y0295766D01*
X0240220Y0295674D01*
X0240280Y0295580D01*
X0240337Y0295484D01*
X0240390Y0295385D01*
X0240440Y0295285D01*
X0240486Y0295184D01*
X0240529Y0295080D01*
X0240568Y0294975D01*
X0240603Y0294869D01*
X0240634Y0294762D01*
X0240662Y0294653D01*
X0240685Y0294544D01*
X0240705Y0294434D01*
X0240721Y0294323D01*
X0240733Y0294212D01*
X0240741Y0294101D01*
X0240745Y0293989D01*
X0240745Y0293877D01*
X0240741Y0293765D01*
X0240733Y0293654D01*
X0240721Y0293543D01*
X0240705Y0293432D01*
X0240685Y0293322D01*
X0240662Y0293213D01*
X0240634Y0293104D01*
X0240603Y0292997D01*
X0240568Y0292891D01*
X0240529Y0292786D01*
X0240486Y0292682D01*
X0240440Y0292581D01*
X0240390Y0292481D01*
X0240337Y0292382D01*
X0240280Y0292286D01*
X0240220Y0292192D01*
X0240156Y0292100D01*
X0240090Y0292010D01*
X0240020Y0291923D01*
X0239947Y0291838D01*
X0239871Y0291756D01*
X0239793Y0291676D01*
X0239711Y0291600D01*
X0239627Y0291526D01*
X0239540Y0291455D01*
X0239451Y0291388D01*
X0239360Y0291324D01*
X0239266Y0291263D01*
X0239170Y0291205D01*
X0239072Y0291151D01*
X0238973Y0291100D01*
X0238871Y0291053D01*
X0238768Y0291010D01*
X0238664Y0290970D01*
X0238558Y0290934D01*
X0238451Y0290901D01*
X0238343Y0290873D01*
X0238234Y0290848D01*
X0238124Y0290828D01*
X0238013Y0290811D01*
X0237902Y0290798D01*
X0237791Y0290789D01*
X0237679Y0290784D01*
X0237567Y0290783D01*
X0237455Y0290786D01*
X0237344Y0290793D01*
X0237232Y0290804D01*
X0237122Y0290819D01*
X0237011Y0290838D01*
X0236902Y0290860D01*
X0236793Y0290887D01*
X0236686Y0290917D01*
X0236579Y0290951D01*
X0236474Y0290989D01*
X0236370Y0291031D01*
X0236268Y0291076D01*
X0236167Y0291125D01*
X0236069Y0291177D01*
X0235972Y0291233D01*
X0235877Y0291293D01*
X0235784Y0291355D01*
X0235694Y0291421D01*
X0235606Y0291490D01*
X0235521Y0291562D01*
X0235438Y0291638D01*
X0235358Y0291716D01*
X0235280Y0291796D01*
X0235206Y0291880D01*
X0235135Y0291966D01*
X0235066Y0292054D01*
X0235001Y0292145D01*
X0234940Y0292239D01*
X0234881Y0292334D01*
X0234826Y0292431D01*
X0234775Y0292530D01*
X0234727Y0292631D01*
X0234682Y0292734D01*
X0234641Y0292838D01*
X0234604Y0292944D01*
X0234571Y0293050D01*
X0234542Y0293158D01*
X0234516Y0293267D01*
X0234494Y0293377D01*
X0234477Y0293487D01*
X0234463Y0293598D01*
X0234453Y0293710D01*
X0234447Y0293821D01*
X0234445Y0293933D01*
X0234447Y0294045D01*
X0234453Y0294156D01*
X0234463Y0294268D01*
X0234477Y0294379D01*
X0234494Y0294489D01*
X0234516Y0294599D01*
X0234542Y0294708D01*
X0234571Y0294816D01*
X0234604Y0294922D01*
X0234641Y0295028D01*
X0234682Y0295132D01*
X0234727Y0295235D01*
X0234775Y0295336D01*
X0234826Y0295435D01*
X0234881Y0295532D01*
X0234940Y0295627D01*
X0235001Y0295721D01*
X0235066Y0295812D01*
X0235135Y0295900D01*
X0235206Y0295986D01*
X0235280Y0296070D01*
X0235358Y0296150D01*
X0235438Y0296228D01*
X0235521Y0296304D01*
X0235606Y0296376D01*
X0235694Y0296445D01*
X0235784Y0296511D01*
X0235877Y0296573D01*
X0235972Y0296633D01*
X0236069Y0296689D01*
X0236167Y0296741D01*
X0236268Y0296790D01*
X0236370Y0296835D01*
X0236474Y0296877D01*
X0236579Y0296915D01*
X0236686Y0296949D01*
X0236793Y0296979D01*
X0236902Y0297006D01*
X0237011Y0297028D01*
X0237122Y0297047D01*
X0237232Y0297062D01*
X0237344Y0297073D01*
X0237455Y0297080D01*
X0237567Y0297083D01*
X0237679Y0297082D01*
X0237791Y0297077D01*
X0237902Y0297068D01*
X0238013Y0297055D01*
X0238124Y0297038D01*
X0238234Y0297018D01*
X0238343Y0296993D01*
X0238451Y0296965D01*
X0238558Y0296932D01*
X0238664Y0296896D01*
X0238768Y0296856D01*
X0238871Y0296813D01*
X0238973Y0296766D01*
X0239072Y0296715D01*
X0239170Y0296661D01*
X0239266Y0296603D01*
X0239360Y0296542D01*
X0239451Y0296478D01*
X0239540Y0296411D01*
X0239627Y0296340D01*
X0239711Y0296266D01*
X0239793Y0296190D01*
X0239871Y0296110D01*
X0239947Y0296028D01*
X0240020Y0295943D01*
X0240090Y0295856D01*
X0240156Y0295766D01*
X0240220Y0295674D01*
X0240280Y0295580D01*
X0240337Y0295484D01*
X0240390Y0295385D01*
X0240440Y0295285D01*
X0240486Y0295184D01*
X0240529Y0295080D01*
X0240568Y0294975D01*
X0240603Y0294869D01*
X0240634Y0294762D01*
X0240662Y0294653D01*
X0240685Y0294544D01*
X0240705Y0294434D01*
X0240721Y0294323D01*
X0240733Y0294212D01*
X0240741Y0294101D01*
X0240745Y0293989D01*
X0240745Y0293877D01*
X0240741Y0293765D01*
X0240733Y0293654D01*
X0240721Y0293543D01*
X0240705Y0293432D01*
X0240685Y0293322D01*
X0240662Y0293213D01*
X0240634Y0293104D01*
X0240603Y0292997D01*
X0240568Y0292891D01*
X0240529Y0292786D01*
X0240486Y0292682D01*
X0240440Y0292581D01*
X0240390Y0292481D01*
X0240337Y0292382D01*
X0240280Y0292286D01*
X0240220Y0292192D01*
X0240156Y0292100D01*
X0240090Y0292010D01*
X0240020Y0291923D01*
X0239947Y0291838D01*
X0239871Y0291756D01*
X0239793Y0291676D01*
X0239711Y0291600D01*
X0239627Y0291526D01*
X0239540Y0291455D01*
X0239451Y0291388D01*
X0239360Y0291324D01*
X0239266Y0291263D01*
X0239170Y0291205D01*
X0239072Y0291151D01*
X0238973Y0291100D01*
X0238871Y0291053D01*
X0238768Y0291010D01*
X0238664Y0290970D01*
X0238558Y0290934D01*
X0238451Y0290901D01*
X0238343Y0290873D01*
X0238234Y0290848D01*
X0238124Y0290828D01*
X0238013Y0290811D01*
X0237902Y0290798D01*
X0237791Y0290789D01*
X0237679Y0290784D01*
X0237567Y0290783D01*
X0237455Y0290786D01*
X0237344Y0290793D01*
X0237232Y0290804D01*
X0237122Y0290819D01*
X0237011Y0290838D01*
X0236902Y0290860D01*
X0236793Y0290887D01*
X0236686Y0290917D01*
X0236579Y0290951D01*
X0236474Y0290989D01*
X0236370Y0291031D01*
X0236268Y0291076D01*
X0236167Y0291125D01*
X0236069Y0291177D01*
X0235972Y0291233D01*
X0235877Y0291293D01*
X0235784Y0291355D01*
X0235694Y0291421D01*
X0235606Y0291490D01*
X0235521Y0291562D01*
X0235438Y0291638D01*
X0235358Y0291716D01*
X0235280Y0291796D01*
X0235206Y0291880D01*
X0235135Y0291966D01*
X0235066Y0292054D01*
X0235001Y0292145D01*
X0234940Y0292239D01*
X0234881Y0292334D01*
X0234826Y0292431D01*
X0234775Y0292530D01*
X0234727Y0292631D01*
X0234682Y0292734D01*
X0234641Y0292838D01*
X0234604Y0292944D01*
X0234571Y0293050D01*
X0234542Y0293158D01*
X0234516Y0293267D01*
X0234494Y0293377D01*
X0234477Y0293487D01*
X0234463Y0293598D01*
X0234453Y0293710D01*
X0234447Y0293821D01*
X0234445Y0293933D01*
X0224445Y0293933D02*
X0224447Y0294045D01*
X0224453Y0294156D01*
X0224463Y0294268D01*
X0224477Y0294379D01*
X0224494Y0294489D01*
X0224516Y0294599D01*
X0224542Y0294708D01*
X0224571Y0294816D01*
X0224604Y0294922D01*
X0224641Y0295028D01*
X0224682Y0295132D01*
X0224727Y0295235D01*
X0224775Y0295336D01*
X0224826Y0295435D01*
X0224881Y0295532D01*
X0224940Y0295627D01*
X0225001Y0295721D01*
X0225066Y0295812D01*
X0225135Y0295900D01*
X0225206Y0295986D01*
X0225280Y0296070D01*
X0225358Y0296150D01*
X0225438Y0296228D01*
X0225521Y0296304D01*
X0225606Y0296376D01*
X0225694Y0296445D01*
X0225784Y0296511D01*
X0225877Y0296573D01*
X0225972Y0296633D01*
X0226069Y0296689D01*
X0226167Y0296741D01*
X0226268Y0296790D01*
X0226370Y0296835D01*
X0226474Y0296877D01*
X0226579Y0296915D01*
X0226686Y0296949D01*
X0226793Y0296979D01*
X0226902Y0297006D01*
X0227011Y0297028D01*
X0227122Y0297047D01*
X0227232Y0297062D01*
X0227344Y0297073D01*
X0227455Y0297080D01*
X0227567Y0297083D01*
X0227679Y0297082D01*
X0227791Y0297077D01*
X0227902Y0297068D01*
X0228013Y0297055D01*
X0228124Y0297038D01*
X0228234Y0297018D01*
X0228343Y0296993D01*
X0228451Y0296965D01*
X0228558Y0296932D01*
X0228664Y0296896D01*
X0228768Y0296856D01*
X0228871Y0296813D01*
X0228973Y0296766D01*
X0229072Y0296715D01*
X0229170Y0296661D01*
X0229266Y0296603D01*
X0229360Y0296542D01*
X0229451Y0296478D01*
X0229540Y0296411D01*
X0229627Y0296340D01*
X0229711Y0296266D01*
X0229793Y0296190D01*
X0229871Y0296110D01*
X0229947Y0296028D01*
X0230020Y0295943D01*
X0230090Y0295856D01*
X0230156Y0295766D01*
X0230220Y0295674D01*
X0230280Y0295580D01*
X0230337Y0295484D01*
X0230390Y0295385D01*
X0230440Y0295285D01*
X0230486Y0295184D01*
X0230529Y0295080D01*
X0230568Y0294975D01*
X0230603Y0294869D01*
X0230634Y0294762D01*
X0230662Y0294653D01*
X0230685Y0294544D01*
X0230705Y0294434D01*
X0230721Y0294323D01*
X0230733Y0294212D01*
X0230741Y0294101D01*
X0230745Y0293989D01*
X0230745Y0293877D01*
X0230741Y0293765D01*
X0230733Y0293654D01*
X0230721Y0293543D01*
X0230705Y0293432D01*
X0230685Y0293322D01*
X0230662Y0293213D01*
X0230634Y0293104D01*
X0230603Y0292997D01*
X0230568Y0292891D01*
X0230529Y0292786D01*
X0230486Y0292682D01*
X0230440Y0292581D01*
X0230390Y0292481D01*
X0230337Y0292382D01*
X0230280Y0292286D01*
X0230220Y0292192D01*
X0230156Y0292100D01*
X0230090Y0292010D01*
X0230020Y0291923D01*
X0229947Y0291838D01*
X0229871Y0291756D01*
X0229793Y0291676D01*
X0229711Y0291600D01*
X0229627Y0291526D01*
X0229540Y0291455D01*
X0229451Y0291388D01*
X0229360Y0291324D01*
X0229266Y0291263D01*
X0229170Y0291205D01*
X0229072Y0291151D01*
X0228973Y0291100D01*
X0228871Y0291053D01*
X0228768Y0291010D01*
X0228664Y0290970D01*
X0228558Y0290934D01*
X0228451Y0290901D01*
X0228343Y0290873D01*
X0228234Y0290848D01*
X0228124Y0290828D01*
X0228013Y0290811D01*
X0227902Y0290798D01*
X0227791Y0290789D01*
X0227679Y0290784D01*
X0227567Y0290783D01*
X0227455Y0290786D01*
X0227344Y0290793D01*
X0227232Y0290804D01*
X0227122Y0290819D01*
X0227011Y0290838D01*
X0226902Y0290860D01*
X0226793Y0290887D01*
X0226686Y0290917D01*
X0226579Y0290951D01*
X0226474Y0290989D01*
X0226370Y0291031D01*
X0226268Y0291076D01*
X0226167Y0291125D01*
X0226069Y0291177D01*
X0225972Y0291233D01*
X0225877Y0291293D01*
X0225784Y0291355D01*
X0225694Y0291421D01*
X0225606Y0291490D01*
X0225521Y0291562D01*
X0225438Y0291638D01*
X0225358Y0291716D01*
X0225280Y0291796D01*
X0225206Y0291880D01*
X0225135Y0291966D01*
X0225066Y0292054D01*
X0225001Y0292145D01*
X0224940Y0292239D01*
X0224881Y0292334D01*
X0224826Y0292431D01*
X0224775Y0292530D01*
X0224727Y0292631D01*
X0224682Y0292734D01*
X0224641Y0292838D01*
X0224604Y0292944D01*
X0224571Y0293050D01*
X0224542Y0293158D01*
X0224516Y0293267D01*
X0224494Y0293377D01*
X0224477Y0293487D01*
X0224463Y0293598D01*
X0224453Y0293710D01*
X0224447Y0293821D01*
X0224445Y0293933D01*
X0222595Y0298933D02*
X0207595Y0298933D01*
X0202595Y0298933D01*
X0202595Y0293933D01*
X0202595Y0128933D01*
X0230524Y0223933D02*
X0230526Y0224107D01*
X0230533Y0224280D01*
X0230543Y0224453D01*
X0230558Y0224626D01*
X0230577Y0224799D01*
X0230601Y0224971D01*
X0230628Y0225142D01*
X0230660Y0225312D01*
X0230696Y0225482D01*
X0230736Y0225651D01*
X0230780Y0225819D01*
X0230828Y0225986D01*
X0230881Y0226151D01*
X0230937Y0226315D01*
X0230998Y0226478D01*
X0231062Y0226639D01*
X0231131Y0226798D01*
X0231203Y0226956D01*
X0231279Y0227112D01*
X0231359Y0227266D01*
X0231443Y0227418D01*
X0231530Y0227568D01*
X0231621Y0227716D01*
X0231716Y0227861D01*
X0231814Y0228005D01*
X0231916Y0228145D01*
X0232021Y0228283D01*
X0232129Y0228419D01*
X0232241Y0228552D01*
X0232356Y0228682D01*
X0232474Y0228809D01*
X0232595Y0228933D01*
X0232719Y0229054D01*
X0232846Y0229172D01*
X0232976Y0229287D01*
X0233109Y0229399D01*
X0233245Y0229507D01*
X0233383Y0229612D01*
X0233523Y0229714D01*
X0233667Y0229812D01*
X0233812Y0229907D01*
X0233960Y0229998D01*
X0234110Y0230085D01*
X0234262Y0230169D01*
X0234416Y0230249D01*
X0234572Y0230325D01*
X0234730Y0230397D01*
X0234889Y0230466D01*
X0235050Y0230530D01*
X0235213Y0230591D01*
X0235377Y0230647D01*
X0235542Y0230700D01*
X0235709Y0230748D01*
X0235877Y0230792D01*
X0236046Y0230832D01*
X0236216Y0230868D01*
X0236386Y0230900D01*
X0236557Y0230927D01*
X0236729Y0230951D01*
X0236902Y0230970D01*
X0237075Y0230985D01*
X0237248Y0230995D01*
X0237421Y0231002D01*
X0237595Y0231004D01*
X0237769Y0231002D01*
X0237942Y0230995D01*
X0238115Y0230985D01*
X0238288Y0230970D01*
X0238461Y0230951D01*
X0238633Y0230927D01*
X0238804Y0230900D01*
X0238974Y0230868D01*
X0239144Y0230832D01*
X0239313Y0230792D01*
X0239481Y0230748D01*
X0239648Y0230700D01*
X0239813Y0230647D01*
X0239977Y0230591D01*
X0240140Y0230530D01*
X0240301Y0230466D01*
X0240460Y0230397D01*
X0240618Y0230325D01*
X0240774Y0230249D01*
X0240928Y0230169D01*
X0241080Y0230085D01*
X0241230Y0229998D01*
X0241378Y0229907D01*
X0241523Y0229812D01*
X0241667Y0229714D01*
X0241807Y0229612D01*
X0241945Y0229507D01*
X0242081Y0229399D01*
X0242214Y0229287D01*
X0242344Y0229172D01*
X0242471Y0229054D01*
X0242595Y0228933D01*
X0242716Y0228809D01*
X0242834Y0228682D01*
X0242949Y0228552D01*
X0243061Y0228419D01*
X0243169Y0228283D01*
X0243274Y0228145D01*
X0243376Y0228005D01*
X0243474Y0227861D01*
X0243569Y0227716D01*
X0243660Y0227568D01*
X0243747Y0227418D01*
X0243831Y0227266D01*
X0243911Y0227112D01*
X0243987Y0226956D01*
X0244059Y0226798D01*
X0244128Y0226639D01*
X0244192Y0226478D01*
X0244253Y0226315D01*
X0244309Y0226151D01*
X0244362Y0225986D01*
X0244410Y0225819D01*
X0244454Y0225651D01*
X0244494Y0225482D01*
X0244530Y0225312D01*
X0244562Y0225142D01*
X0244589Y0224971D01*
X0244613Y0224799D01*
X0244632Y0224626D01*
X0244647Y0224453D01*
X0244657Y0224280D01*
X0244664Y0224107D01*
X0244666Y0223933D01*
X0244664Y0223759D01*
X0244657Y0223586D01*
X0244647Y0223413D01*
X0244632Y0223240D01*
X0244613Y0223067D01*
X0244589Y0222895D01*
X0244562Y0222724D01*
X0244530Y0222554D01*
X0244494Y0222384D01*
X0244454Y0222215D01*
X0244410Y0222047D01*
X0244362Y0221880D01*
X0244309Y0221715D01*
X0244253Y0221551D01*
X0244192Y0221388D01*
X0244128Y0221227D01*
X0244059Y0221068D01*
X0243987Y0220910D01*
X0243911Y0220754D01*
X0243831Y0220600D01*
X0243747Y0220448D01*
X0243660Y0220298D01*
X0243569Y0220150D01*
X0243474Y0220005D01*
X0243376Y0219861D01*
X0243274Y0219721D01*
X0243169Y0219583D01*
X0243061Y0219447D01*
X0242949Y0219314D01*
X0242834Y0219184D01*
X0242716Y0219057D01*
X0242595Y0218933D01*
X0242471Y0218812D01*
X0242344Y0218694D01*
X0242214Y0218579D01*
X0242081Y0218467D01*
X0241945Y0218359D01*
X0241807Y0218254D01*
X0241667Y0218152D01*
X0241523Y0218054D01*
X0241378Y0217959D01*
X0241230Y0217868D01*
X0241080Y0217781D01*
X0240928Y0217697D01*
X0240774Y0217617D01*
X0240618Y0217541D01*
X0240460Y0217469D01*
X0240301Y0217400D01*
X0240140Y0217336D01*
X0239977Y0217275D01*
X0239813Y0217219D01*
X0239648Y0217166D01*
X0239481Y0217118D01*
X0239313Y0217074D01*
X0239144Y0217034D01*
X0238974Y0216998D01*
X0238804Y0216966D01*
X0238633Y0216939D01*
X0238461Y0216915D01*
X0238288Y0216896D01*
X0238115Y0216881D01*
X0237942Y0216871D01*
X0237769Y0216864D01*
X0237595Y0216862D01*
X0237421Y0216864D01*
X0237248Y0216871D01*
X0237075Y0216881D01*
X0236902Y0216896D01*
X0236729Y0216915D01*
X0236557Y0216939D01*
X0236386Y0216966D01*
X0236216Y0216998D01*
X0236046Y0217034D01*
X0235877Y0217074D01*
X0235709Y0217118D01*
X0235542Y0217166D01*
X0235377Y0217219D01*
X0235213Y0217275D01*
X0235050Y0217336D01*
X0234889Y0217400D01*
X0234730Y0217469D01*
X0234572Y0217541D01*
X0234416Y0217617D01*
X0234262Y0217697D01*
X0234110Y0217781D01*
X0233960Y0217868D01*
X0233812Y0217959D01*
X0233667Y0218054D01*
X0233523Y0218152D01*
X0233383Y0218254D01*
X0233245Y0218359D01*
X0233109Y0218467D01*
X0232976Y0218579D01*
X0232846Y0218694D01*
X0232719Y0218812D01*
X0232595Y0218933D01*
X0232474Y0219057D01*
X0232356Y0219184D01*
X0232241Y0219314D01*
X0232129Y0219447D01*
X0232021Y0219583D01*
X0231916Y0219721D01*
X0231814Y0219861D01*
X0231716Y0220005D01*
X0231621Y0220150D01*
X0231530Y0220298D01*
X0231443Y0220448D01*
X0231359Y0220600D01*
X0231279Y0220754D01*
X0231203Y0220910D01*
X0231131Y0221068D01*
X0231062Y0221227D01*
X0230998Y0221388D01*
X0230937Y0221551D01*
X0230881Y0221715D01*
X0230828Y0221880D01*
X0230780Y0222047D01*
X0230736Y0222215D01*
X0230696Y0222384D01*
X0230660Y0222554D01*
X0230628Y0222724D01*
X0230601Y0222895D01*
X0230577Y0223067D01*
X0230558Y0223240D01*
X0230543Y0223413D01*
X0230533Y0223586D01*
X0230526Y0223759D01*
X0230524Y0223933D01*
X0212595Y0268933D02*
X0217595Y0273933D01*
X0212595Y0278933D01*
X0212595Y0268933D01*
X0212595Y0269230D02*
X0212892Y0269230D01*
X0212595Y0269729D02*
X0213391Y0269729D01*
X0213890Y0270227D02*
X0212595Y0270227D01*
X0212595Y0270726D02*
X0214388Y0270726D01*
X0214887Y0271224D02*
X0212595Y0271224D01*
X0212595Y0271723D02*
X0215385Y0271723D01*
X0215884Y0272221D02*
X0212595Y0272221D01*
X0212595Y0272720D02*
X0216382Y0272720D01*
X0216881Y0273219D02*
X0212595Y0273219D01*
X0212595Y0273717D02*
X0217379Y0273717D01*
X0217313Y0274216D02*
X0212595Y0274216D01*
X0212595Y0274714D02*
X0216814Y0274714D01*
X0216316Y0275213D02*
X0212595Y0275213D01*
X0212595Y0275711D02*
X0215817Y0275711D01*
X0215319Y0276210D02*
X0212595Y0276210D01*
X0212595Y0276708D02*
X0214820Y0276708D01*
X0214322Y0277207D02*
X0212595Y0277207D01*
X0212595Y0277705D02*
X0213823Y0277705D01*
X0213325Y0278204D02*
X0212595Y0278204D01*
X0212595Y0278702D02*
X0212826Y0278702D01*
X0215334Y0281195D02*
X0217595Y0281195D01*
X0217595Y0281693D02*
X0214835Y0281693D01*
X0214337Y0282192D02*
X0217595Y0282192D01*
X0217595Y0282690D02*
X0213838Y0282690D01*
X0213339Y0283189D02*
X0217595Y0283189D01*
X0217595Y0283687D02*
X0212841Y0283687D01*
X0212595Y0283933D02*
X0217595Y0288933D01*
X0217595Y0278933D01*
X0212595Y0283933D01*
X0212848Y0284186D02*
X0217595Y0284186D01*
X0217595Y0284684D02*
X0213346Y0284684D01*
X0213845Y0285183D02*
X0217595Y0285183D01*
X0217595Y0285681D02*
X0214343Y0285681D01*
X0214842Y0286180D02*
X0217595Y0286180D01*
X0217595Y0286678D02*
X0215340Y0286678D01*
X0215839Y0287177D02*
X0217595Y0287177D01*
X0217595Y0287675D02*
X0216337Y0287675D01*
X0216836Y0288174D02*
X0217595Y0288174D01*
X0217595Y0288672D02*
X0217334Y0288672D01*
X0217595Y0280696D02*
X0215832Y0280696D01*
X0216331Y0280198D02*
X0217595Y0280198D01*
X0217595Y0279699D02*
X0216829Y0279699D01*
X0217328Y0279201D02*
X0217595Y0279201D01*
X0224445Y0283933D02*
X0224447Y0284045D01*
X0224453Y0284156D01*
X0224463Y0284268D01*
X0224477Y0284379D01*
X0224494Y0284489D01*
X0224516Y0284599D01*
X0224542Y0284708D01*
X0224571Y0284816D01*
X0224604Y0284922D01*
X0224641Y0285028D01*
X0224682Y0285132D01*
X0224727Y0285235D01*
X0224775Y0285336D01*
X0224826Y0285435D01*
X0224881Y0285532D01*
X0224940Y0285627D01*
X0225001Y0285721D01*
X0225066Y0285812D01*
X0225135Y0285900D01*
X0225206Y0285986D01*
X0225280Y0286070D01*
X0225358Y0286150D01*
X0225438Y0286228D01*
X0225521Y0286304D01*
X0225606Y0286376D01*
X0225694Y0286445D01*
X0225784Y0286511D01*
X0225877Y0286573D01*
X0225972Y0286633D01*
X0226069Y0286689D01*
X0226167Y0286741D01*
X0226268Y0286790D01*
X0226370Y0286835D01*
X0226474Y0286877D01*
X0226579Y0286915D01*
X0226686Y0286949D01*
X0226793Y0286979D01*
X0226902Y0287006D01*
X0227011Y0287028D01*
X0227122Y0287047D01*
X0227232Y0287062D01*
X0227344Y0287073D01*
X0227455Y0287080D01*
X0227567Y0287083D01*
X0227679Y0287082D01*
X0227791Y0287077D01*
X0227902Y0287068D01*
X0228013Y0287055D01*
X0228124Y0287038D01*
X0228234Y0287018D01*
X0228343Y0286993D01*
X0228451Y0286965D01*
X0228558Y0286932D01*
X0228664Y0286896D01*
X0228768Y0286856D01*
X0228871Y0286813D01*
X0228973Y0286766D01*
X0229072Y0286715D01*
X0229170Y0286661D01*
X0229266Y0286603D01*
X0229360Y0286542D01*
X0229451Y0286478D01*
X0229540Y0286411D01*
X0229627Y0286340D01*
X0229711Y0286266D01*
X0229793Y0286190D01*
X0229871Y0286110D01*
X0229947Y0286028D01*
X0230020Y0285943D01*
X0230090Y0285856D01*
X0230156Y0285766D01*
X0230220Y0285674D01*
X0230280Y0285580D01*
X0230337Y0285484D01*
X0230390Y0285385D01*
X0230440Y0285285D01*
X0230486Y0285184D01*
X0230529Y0285080D01*
X0230568Y0284975D01*
X0230603Y0284869D01*
X0230634Y0284762D01*
X0230662Y0284653D01*
X0230685Y0284544D01*
X0230705Y0284434D01*
X0230721Y0284323D01*
X0230733Y0284212D01*
X0230741Y0284101D01*
X0230745Y0283989D01*
X0230745Y0283877D01*
X0230741Y0283765D01*
X0230733Y0283654D01*
X0230721Y0283543D01*
X0230705Y0283432D01*
X0230685Y0283322D01*
X0230662Y0283213D01*
X0230634Y0283104D01*
X0230603Y0282997D01*
X0230568Y0282891D01*
X0230529Y0282786D01*
X0230486Y0282682D01*
X0230440Y0282581D01*
X0230390Y0282481D01*
X0230337Y0282382D01*
X0230280Y0282286D01*
X0230220Y0282192D01*
X0230156Y0282100D01*
X0230090Y0282010D01*
X0230020Y0281923D01*
X0229947Y0281838D01*
X0229871Y0281756D01*
X0229793Y0281676D01*
X0229711Y0281600D01*
X0229627Y0281526D01*
X0229540Y0281455D01*
X0229451Y0281388D01*
X0229360Y0281324D01*
X0229266Y0281263D01*
X0229170Y0281205D01*
X0229072Y0281151D01*
X0228973Y0281100D01*
X0228871Y0281053D01*
X0228768Y0281010D01*
X0228664Y0280970D01*
X0228558Y0280934D01*
X0228451Y0280901D01*
X0228343Y0280873D01*
X0228234Y0280848D01*
X0228124Y0280828D01*
X0228013Y0280811D01*
X0227902Y0280798D01*
X0227791Y0280789D01*
X0227679Y0280784D01*
X0227567Y0280783D01*
X0227455Y0280786D01*
X0227344Y0280793D01*
X0227232Y0280804D01*
X0227122Y0280819D01*
X0227011Y0280838D01*
X0226902Y0280860D01*
X0226793Y0280887D01*
X0226686Y0280917D01*
X0226579Y0280951D01*
X0226474Y0280989D01*
X0226370Y0281031D01*
X0226268Y0281076D01*
X0226167Y0281125D01*
X0226069Y0281177D01*
X0225972Y0281233D01*
X0225877Y0281293D01*
X0225784Y0281355D01*
X0225694Y0281421D01*
X0225606Y0281490D01*
X0225521Y0281562D01*
X0225438Y0281638D01*
X0225358Y0281716D01*
X0225280Y0281796D01*
X0225206Y0281880D01*
X0225135Y0281966D01*
X0225066Y0282054D01*
X0225001Y0282145D01*
X0224940Y0282239D01*
X0224881Y0282334D01*
X0224826Y0282431D01*
X0224775Y0282530D01*
X0224727Y0282631D01*
X0224682Y0282734D01*
X0224641Y0282838D01*
X0224604Y0282944D01*
X0224571Y0283050D01*
X0224542Y0283158D01*
X0224516Y0283267D01*
X0224494Y0283377D01*
X0224477Y0283487D01*
X0224463Y0283598D01*
X0224453Y0283710D01*
X0224447Y0283821D01*
X0224445Y0283933D01*
X0234445Y0283933D02*
X0234447Y0284045D01*
X0234453Y0284156D01*
X0234463Y0284268D01*
X0234477Y0284379D01*
X0234494Y0284489D01*
X0234516Y0284599D01*
X0234542Y0284708D01*
X0234571Y0284816D01*
X0234604Y0284922D01*
X0234641Y0285028D01*
X0234682Y0285132D01*
X0234727Y0285235D01*
X0234775Y0285336D01*
X0234826Y0285435D01*
X0234881Y0285532D01*
X0234940Y0285627D01*
X0235001Y0285721D01*
X0235066Y0285812D01*
X0235135Y0285900D01*
X0235206Y0285986D01*
X0235280Y0286070D01*
X0235358Y0286150D01*
X0235438Y0286228D01*
X0235521Y0286304D01*
X0235606Y0286376D01*
X0235694Y0286445D01*
X0235784Y0286511D01*
X0235877Y0286573D01*
X0235972Y0286633D01*
X0236069Y0286689D01*
X0236167Y0286741D01*
X0236268Y0286790D01*
X0236370Y0286835D01*
X0236474Y0286877D01*
X0236579Y0286915D01*
X0236686Y0286949D01*
X0236793Y0286979D01*
X0236902Y0287006D01*
X0237011Y0287028D01*
X0237122Y0287047D01*
X0237232Y0287062D01*
X0237344Y0287073D01*
X0237455Y0287080D01*
X0237567Y0287083D01*
X0237679Y0287082D01*
X0237791Y0287077D01*
X0237902Y0287068D01*
X0238013Y0287055D01*
X0238124Y0287038D01*
X0238234Y0287018D01*
X0238343Y0286993D01*
X0238451Y0286965D01*
X0238558Y0286932D01*
X0238664Y0286896D01*
X0238768Y0286856D01*
X0238871Y0286813D01*
X0238973Y0286766D01*
X0239072Y0286715D01*
X0239170Y0286661D01*
X0239266Y0286603D01*
X0239360Y0286542D01*
X0239451Y0286478D01*
X0239540Y0286411D01*
X0239627Y0286340D01*
X0239711Y0286266D01*
X0239793Y0286190D01*
X0239871Y0286110D01*
X0239947Y0286028D01*
X0240020Y0285943D01*
X0240090Y0285856D01*
X0240156Y0285766D01*
X0240220Y0285674D01*
X0240280Y0285580D01*
X0240337Y0285484D01*
X0240390Y0285385D01*
X0240440Y0285285D01*
X0240486Y0285184D01*
X0240529Y0285080D01*
X0240568Y0284975D01*
X0240603Y0284869D01*
X0240634Y0284762D01*
X0240662Y0284653D01*
X0240685Y0284544D01*
X0240705Y0284434D01*
X0240721Y0284323D01*
X0240733Y0284212D01*
X0240741Y0284101D01*
X0240745Y0283989D01*
X0240745Y0283877D01*
X0240741Y0283765D01*
X0240733Y0283654D01*
X0240721Y0283543D01*
X0240705Y0283432D01*
X0240685Y0283322D01*
X0240662Y0283213D01*
X0240634Y0283104D01*
X0240603Y0282997D01*
X0240568Y0282891D01*
X0240529Y0282786D01*
X0240486Y0282682D01*
X0240440Y0282581D01*
X0240390Y0282481D01*
X0240337Y0282382D01*
X0240280Y0282286D01*
X0240220Y0282192D01*
X0240156Y0282100D01*
X0240090Y0282010D01*
X0240020Y0281923D01*
X0239947Y0281838D01*
X0239871Y0281756D01*
X0239793Y0281676D01*
X0239711Y0281600D01*
X0239627Y0281526D01*
X0239540Y0281455D01*
X0239451Y0281388D01*
X0239360Y0281324D01*
X0239266Y0281263D01*
X0239170Y0281205D01*
X0239072Y0281151D01*
X0238973Y0281100D01*
X0238871Y0281053D01*
X0238768Y0281010D01*
X0238664Y0280970D01*
X0238558Y0280934D01*
X0238451Y0280901D01*
X0238343Y0280873D01*
X0238234Y0280848D01*
X0238124Y0280828D01*
X0238013Y0280811D01*
X0237902Y0280798D01*
X0237791Y0280789D01*
X0237679Y0280784D01*
X0237567Y0280783D01*
X0237455Y0280786D01*
X0237344Y0280793D01*
X0237232Y0280804D01*
X0237122Y0280819D01*
X0237011Y0280838D01*
X0236902Y0280860D01*
X0236793Y0280887D01*
X0236686Y0280917D01*
X0236579Y0280951D01*
X0236474Y0280989D01*
X0236370Y0281031D01*
X0236268Y0281076D01*
X0236167Y0281125D01*
X0236069Y0281177D01*
X0235972Y0281233D01*
X0235877Y0281293D01*
X0235784Y0281355D01*
X0235694Y0281421D01*
X0235606Y0281490D01*
X0235521Y0281562D01*
X0235438Y0281638D01*
X0235358Y0281716D01*
X0235280Y0281796D01*
X0235206Y0281880D01*
X0235135Y0281966D01*
X0235066Y0282054D01*
X0235001Y0282145D01*
X0234940Y0282239D01*
X0234881Y0282334D01*
X0234826Y0282431D01*
X0234775Y0282530D01*
X0234727Y0282631D01*
X0234682Y0282734D01*
X0234641Y0282838D01*
X0234604Y0282944D01*
X0234571Y0283050D01*
X0234542Y0283158D01*
X0234516Y0283267D01*
X0234494Y0283377D01*
X0234477Y0283487D01*
X0234463Y0283598D01*
X0234453Y0283710D01*
X0234447Y0283821D01*
X0234445Y0283933D01*
X0244445Y0283933D02*
X0244447Y0284045D01*
X0244453Y0284156D01*
X0244463Y0284268D01*
X0244477Y0284379D01*
X0244494Y0284489D01*
X0244516Y0284599D01*
X0244542Y0284708D01*
X0244571Y0284816D01*
X0244604Y0284922D01*
X0244641Y0285028D01*
X0244682Y0285132D01*
X0244727Y0285235D01*
X0244775Y0285336D01*
X0244826Y0285435D01*
X0244881Y0285532D01*
X0244940Y0285627D01*
X0245001Y0285721D01*
X0245066Y0285812D01*
X0245135Y0285900D01*
X0245206Y0285986D01*
X0245280Y0286070D01*
X0245358Y0286150D01*
X0245438Y0286228D01*
X0245521Y0286304D01*
X0245606Y0286376D01*
X0245694Y0286445D01*
X0245784Y0286511D01*
X0245877Y0286573D01*
X0245972Y0286633D01*
X0246069Y0286689D01*
X0246167Y0286741D01*
X0246268Y0286790D01*
X0246370Y0286835D01*
X0246474Y0286877D01*
X0246579Y0286915D01*
X0246686Y0286949D01*
X0246793Y0286979D01*
X0246902Y0287006D01*
X0247011Y0287028D01*
X0247122Y0287047D01*
X0247232Y0287062D01*
X0247344Y0287073D01*
X0247455Y0287080D01*
X0247567Y0287083D01*
X0247679Y0287082D01*
X0247791Y0287077D01*
X0247902Y0287068D01*
X0248013Y0287055D01*
X0248124Y0287038D01*
X0248234Y0287018D01*
X0248343Y0286993D01*
X0248451Y0286965D01*
X0248558Y0286932D01*
X0248664Y0286896D01*
X0248768Y0286856D01*
X0248871Y0286813D01*
X0248973Y0286766D01*
X0249072Y0286715D01*
X0249170Y0286661D01*
X0249266Y0286603D01*
X0249360Y0286542D01*
X0249451Y0286478D01*
X0249540Y0286411D01*
X0249627Y0286340D01*
X0249711Y0286266D01*
X0249793Y0286190D01*
X0249871Y0286110D01*
X0249947Y0286028D01*
X0250020Y0285943D01*
X0250090Y0285856D01*
X0250156Y0285766D01*
X0250220Y0285674D01*
X0250280Y0285580D01*
X0250337Y0285484D01*
X0250390Y0285385D01*
X0250440Y0285285D01*
X0250486Y0285184D01*
X0250529Y0285080D01*
X0250568Y0284975D01*
X0250603Y0284869D01*
X0250634Y0284762D01*
X0250662Y0284653D01*
X0250685Y0284544D01*
X0250705Y0284434D01*
X0250721Y0284323D01*
X0250733Y0284212D01*
X0250741Y0284101D01*
X0250745Y0283989D01*
X0250745Y0283877D01*
X0250741Y0283765D01*
X0250733Y0283654D01*
X0250721Y0283543D01*
X0250705Y0283432D01*
X0250685Y0283322D01*
X0250662Y0283213D01*
X0250634Y0283104D01*
X0250603Y0282997D01*
X0250568Y0282891D01*
X0250529Y0282786D01*
X0250486Y0282682D01*
X0250440Y0282581D01*
X0250390Y0282481D01*
X0250337Y0282382D01*
X0250280Y0282286D01*
X0250220Y0282192D01*
X0250156Y0282100D01*
X0250090Y0282010D01*
X0250020Y0281923D01*
X0249947Y0281838D01*
X0249871Y0281756D01*
X0249793Y0281676D01*
X0249711Y0281600D01*
X0249627Y0281526D01*
X0249540Y0281455D01*
X0249451Y0281388D01*
X0249360Y0281324D01*
X0249266Y0281263D01*
X0249170Y0281205D01*
X0249072Y0281151D01*
X0248973Y0281100D01*
X0248871Y0281053D01*
X0248768Y0281010D01*
X0248664Y0280970D01*
X0248558Y0280934D01*
X0248451Y0280901D01*
X0248343Y0280873D01*
X0248234Y0280848D01*
X0248124Y0280828D01*
X0248013Y0280811D01*
X0247902Y0280798D01*
X0247791Y0280789D01*
X0247679Y0280784D01*
X0247567Y0280783D01*
X0247455Y0280786D01*
X0247344Y0280793D01*
X0247232Y0280804D01*
X0247122Y0280819D01*
X0247011Y0280838D01*
X0246902Y0280860D01*
X0246793Y0280887D01*
X0246686Y0280917D01*
X0246579Y0280951D01*
X0246474Y0280989D01*
X0246370Y0281031D01*
X0246268Y0281076D01*
X0246167Y0281125D01*
X0246069Y0281177D01*
X0245972Y0281233D01*
X0245877Y0281293D01*
X0245784Y0281355D01*
X0245694Y0281421D01*
X0245606Y0281490D01*
X0245521Y0281562D01*
X0245438Y0281638D01*
X0245358Y0281716D01*
X0245280Y0281796D01*
X0245206Y0281880D01*
X0245135Y0281966D01*
X0245066Y0282054D01*
X0245001Y0282145D01*
X0244940Y0282239D01*
X0244881Y0282334D01*
X0244826Y0282431D01*
X0244775Y0282530D01*
X0244727Y0282631D01*
X0244682Y0282734D01*
X0244641Y0282838D01*
X0244604Y0282944D01*
X0244571Y0283050D01*
X0244542Y0283158D01*
X0244516Y0283267D01*
X0244494Y0283377D01*
X0244477Y0283487D01*
X0244463Y0283598D01*
X0244453Y0283710D01*
X0244447Y0283821D01*
X0244445Y0283933D01*
X0238452Y0308683D02*
X0235449Y0308683D01*
X0238452Y0311686D01*
X0238452Y0312436D01*
X0237701Y0313187D01*
X0236200Y0313187D01*
X0235449Y0312436D01*
X0233848Y0312436D02*
X0233097Y0313187D01*
X0231596Y0313187D01*
X0230845Y0312436D01*
X0230845Y0311686D01*
X0231596Y0310935D01*
X0233097Y0310935D01*
X0233848Y0310184D01*
X0233848Y0309434D01*
X0233097Y0308683D01*
X0231596Y0308683D01*
X0230845Y0309434D01*
X0227595Y0319933D02*
X0077595Y0319933D01*
X0077595Y0367933D01*
X0227595Y0367933D01*
X0227595Y0319933D01*
X0215095Y0321433D02*
X0097595Y0321433D01*
X0097595Y0366433D01*
X0215095Y0366433D01*
X0215095Y0321433D01*
X0193595Y0335933D02*
X0105095Y0335933D01*
X0105095Y0357933D01*
X0193595Y0357933D01*
X0193595Y0335933D01*
X0230845Y0356934D02*
X0231596Y0356183D01*
X0233097Y0356183D01*
X0233848Y0356934D01*
X0233848Y0357684D01*
X0233097Y0358435D01*
X0231596Y0358435D01*
X0230845Y0359186D01*
X0230845Y0359936D01*
X0231596Y0360687D01*
X0233097Y0360687D01*
X0233848Y0359936D01*
X0235449Y0359936D02*
X0236200Y0360687D01*
X0237701Y0360687D01*
X0238452Y0359936D01*
X0238452Y0359186D01*
X0237701Y0358435D01*
X0238452Y0357684D01*
X0238452Y0356934D01*
X0237701Y0356183D01*
X0236200Y0356183D01*
X0235449Y0356934D01*
X0236950Y0358435D02*
X0237701Y0358435D01*
X0270845Y0357434D02*
X0271596Y0356683D01*
X0273097Y0356683D01*
X0273848Y0357434D01*
X0273848Y0361187D01*
X0275449Y0361187D02*
X0277701Y0361187D01*
X0278452Y0360436D01*
X0278452Y0358935D01*
X0277701Y0358184D01*
X0275449Y0358184D01*
X0275449Y0356683D02*
X0275449Y0361187D01*
X0270845Y0361187D02*
X0270845Y0357434D01*
X0283345Y0348687D02*
X0283345Y0344183D01*
X0286348Y0344183D01*
X0287949Y0344183D02*
X0287949Y0348687D01*
X0290952Y0344183D01*
X0290952Y0348687D01*
X0292553Y0348687D02*
X0295556Y0348687D01*
X0294054Y0348687D02*
X0294054Y0344183D01*
X0297157Y0344183D02*
X0297157Y0348687D01*
X0300159Y0348687D01*
X0301761Y0348687D02*
X0304013Y0348687D01*
X0304763Y0347936D01*
X0304763Y0346435D01*
X0304013Y0345684D01*
X0301761Y0345684D01*
X0301761Y0344183D02*
X0301761Y0348687D01*
X0303262Y0345684D02*
X0304763Y0344183D01*
X0300159Y0344183D02*
X0297157Y0344183D01*
X0297157Y0346435D02*
X0298658Y0346435D01*
X0286348Y0348687D02*
X0283345Y0348687D01*
X0283345Y0346435D02*
X0284846Y0346435D01*
X0304096Y0315687D02*
X0303345Y0314936D01*
X0303345Y0314186D01*
X0304096Y0313435D01*
X0305597Y0313435D01*
X0306348Y0312684D01*
X0306348Y0311934D01*
X0305597Y0311183D01*
X0304096Y0311183D01*
X0303345Y0311934D01*
X0304096Y0315687D02*
X0305597Y0315687D01*
X0306348Y0314936D01*
X0307949Y0314186D02*
X0309450Y0315687D01*
X0309450Y0311183D01*
X0307949Y0311183D02*
X0310952Y0311183D01*
X0270159Y0309183D02*
X0270159Y0313687D01*
X0267157Y0313687D02*
X0267157Y0309183D01*
X0265556Y0309183D02*
X0265556Y0313687D01*
X0267157Y0313687D02*
X0270159Y0309183D01*
X0265556Y0309183D02*
X0264054Y0310684D01*
X0262553Y0309183D01*
X0262553Y0313687D01*
X0260952Y0312936D02*
X0260952Y0309934D01*
X0260201Y0309183D01*
X0258700Y0309183D01*
X0257949Y0309934D01*
X0257949Y0312936D01*
X0258700Y0313687D01*
X0260201Y0313687D01*
X0260952Y0312936D01*
X0256348Y0312936D02*
X0256348Y0309934D01*
X0255597Y0309183D01*
X0253345Y0309183D01*
X0253345Y0313687D01*
X0255597Y0313687D01*
X0256348Y0312936D01*
X0093244Y0265436D02*
X0092493Y0266187D01*
X0090992Y0266187D01*
X0090241Y0265436D01*
X0090241Y0262434D01*
X0090992Y0261683D01*
X0092493Y0261683D01*
X0093244Y0262434D01*
X0088640Y0262434D02*
X0088640Y0263184D01*
X0087889Y0263935D01*
X0086388Y0263935D01*
X0085637Y0264686D01*
X0085637Y0265436D01*
X0086388Y0266187D01*
X0087889Y0266187D01*
X0088640Y0265436D01*
X0088640Y0262434D02*
X0087889Y0261683D01*
X0086388Y0261683D01*
X0085637Y0262434D01*
X0084036Y0261683D02*
X0081033Y0261683D01*
X0081033Y0266187D01*
X0084036Y0266187D01*
X0082535Y0263935D02*
X0081033Y0263935D01*
X0074993Y0284683D02*
X0074993Y0289187D01*
X0072741Y0286935D01*
X0075744Y0286935D01*
X0071140Y0286184D02*
X0071140Y0285434D01*
X0070389Y0284683D01*
X0068888Y0284683D01*
X0068137Y0285434D01*
X0068888Y0286935D02*
X0070389Y0286935D01*
X0071140Y0286184D01*
X0071140Y0288436D02*
X0070389Y0289187D01*
X0068888Y0289187D01*
X0068137Y0288436D01*
X0068137Y0287686D01*
X0068888Y0286935D01*
D16*
X0232745Y0276986D02*
X0233713Y0276986D01*
X0233229Y0276986D02*
X0233229Y0274083D01*
X0232745Y0274083D02*
X0233713Y0274083D01*
X0234709Y0274567D02*
X0235193Y0274083D01*
X0236161Y0274083D01*
X0236644Y0274567D01*
X0237656Y0274567D02*
X0238140Y0274083D01*
X0239107Y0274083D01*
X0239591Y0274567D01*
X0239591Y0275051D01*
X0239107Y0275534D01*
X0238140Y0275534D01*
X0237656Y0276018D01*
X0237656Y0276502D01*
X0238140Y0276986D01*
X0239107Y0276986D01*
X0239591Y0276502D01*
X0240603Y0276986D02*
X0242054Y0276986D01*
X0242537Y0276502D01*
X0242537Y0275534D01*
X0242054Y0275051D01*
X0240603Y0275051D01*
X0240603Y0274083D02*
X0240603Y0276986D01*
X0236644Y0276502D02*
X0236161Y0276986D01*
X0235193Y0276986D01*
X0234709Y0276502D01*
X0234709Y0274567D01*
X0255245Y0294083D02*
X0257714Y0294083D01*
X0256480Y0294083D02*
X0256480Y0297786D01*
X0255245Y0296552D01*
X0243140Y0234902D02*
X0243140Y0232967D01*
X0243623Y0232483D01*
X0243623Y0234418D02*
X0242656Y0234418D01*
X0241644Y0233934D02*
X0241644Y0233451D01*
X0239709Y0233451D01*
X0239709Y0233934D02*
X0240193Y0234418D01*
X0241161Y0234418D01*
X0241644Y0233934D01*
X0241161Y0232483D02*
X0240193Y0232483D01*
X0239709Y0232967D01*
X0239709Y0233934D01*
X0238698Y0234418D02*
X0237247Y0234418D01*
X0236763Y0233934D01*
X0237247Y0233451D01*
X0238214Y0233451D01*
X0238698Y0232967D01*
X0238214Y0232483D01*
X0236763Y0232483D01*
X0235751Y0233451D02*
X0233816Y0233451D01*
X0233816Y0233934D02*
X0234300Y0234418D01*
X0235268Y0234418D01*
X0235751Y0233934D01*
X0235751Y0233451D01*
X0235268Y0232483D02*
X0234300Y0232483D01*
X0233816Y0232967D01*
X0233816Y0233934D01*
X0232805Y0233934D02*
X0232321Y0233451D01*
X0230870Y0233451D01*
X0231837Y0233451D02*
X0232805Y0232483D01*
X0232805Y0233934D02*
X0232805Y0234902D01*
X0232321Y0235386D01*
X0230870Y0235386D01*
X0230870Y0232483D01*
X0262445Y0146552D02*
X0262445Y0144083D01*
X0262445Y0145317D02*
X0258742Y0145317D01*
X0259976Y0144083D01*
D17*
X0267595Y0138933D02*
X0267595Y0128933D01*
X0262595Y0133933D02*
X0272595Y0133933D01*
X0212595Y0133933D02*
X0202595Y0133933D01*
X0207595Y0128933D02*
X0207595Y0138933D01*
X0207595Y0288933D02*
X0207595Y0298933D01*
X0212595Y0293933D02*
X0202595Y0293933D01*
X0262595Y0293933D02*
X0272595Y0293933D01*
X0267595Y0288933D02*
X0267595Y0298933D01*
M02*
