G75*
%MOIN*%
%OFA0B0*%
%FSLAX25Y25*%
%IPPOS*%
%LPD*%
%AMOC8*
5,1,8,0,0,1.08239X$1,22.5*
%
%ADD10C,0.00000*%
%ADD11R,0.05150X0.05150*%
%ADD12C,0.05150*%
%ADD13R,0.05937X0.05937*%
%ADD14C,0.05937*%
%ADD15C,0.06000*%
%ADD16OC8,0.06300*%
%ADD17C,0.02400*%
%ADD18C,0.01600*%
%ADD19C,0.04000*%
D10*
X0126800Y0001800D02*
X0126800Y0249300D01*
X0046800Y0249300D01*
X0046800Y0224300D01*
X0001800Y0224300D01*
X0001800Y0284300D01*
X0246800Y0284300D01*
X0246800Y0051800D01*
X0221800Y0051800D01*
X0221800Y0001800D01*
X0126800Y0001800D01*
X0138300Y0014300D02*
X0138302Y0014418D01*
X0138308Y0014536D01*
X0138318Y0014654D01*
X0138332Y0014771D01*
X0138350Y0014888D01*
X0138372Y0015005D01*
X0138397Y0015120D01*
X0138427Y0015234D01*
X0138461Y0015348D01*
X0138498Y0015460D01*
X0138539Y0015571D01*
X0138584Y0015680D01*
X0138632Y0015788D01*
X0138684Y0015894D01*
X0138740Y0015999D01*
X0138799Y0016101D01*
X0138861Y0016201D01*
X0138927Y0016299D01*
X0138996Y0016395D01*
X0139069Y0016489D01*
X0139144Y0016580D01*
X0139223Y0016668D01*
X0139304Y0016754D01*
X0139389Y0016837D01*
X0139476Y0016917D01*
X0139565Y0016994D01*
X0139658Y0017068D01*
X0139752Y0017138D01*
X0139849Y0017206D01*
X0139949Y0017270D01*
X0140050Y0017331D01*
X0140153Y0017388D01*
X0140259Y0017442D01*
X0140366Y0017493D01*
X0140474Y0017539D01*
X0140584Y0017582D01*
X0140696Y0017621D01*
X0140809Y0017657D01*
X0140923Y0017688D01*
X0141038Y0017716D01*
X0141153Y0017740D01*
X0141270Y0017760D01*
X0141387Y0017776D01*
X0141505Y0017788D01*
X0141623Y0017796D01*
X0141741Y0017800D01*
X0141859Y0017800D01*
X0141977Y0017796D01*
X0142095Y0017788D01*
X0142213Y0017776D01*
X0142330Y0017760D01*
X0142447Y0017740D01*
X0142562Y0017716D01*
X0142677Y0017688D01*
X0142791Y0017657D01*
X0142904Y0017621D01*
X0143016Y0017582D01*
X0143126Y0017539D01*
X0143234Y0017493D01*
X0143341Y0017442D01*
X0143447Y0017388D01*
X0143550Y0017331D01*
X0143651Y0017270D01*
X0143751Y0017206D01*
X0143848Y0017138D01*
X0143942Y0017068D01*
X0144035Y0016994D01*
X0144124Y0016917D01*
X0144211Y0016837D01*
X0144296Y0016754D01*
X0144377Y0016668D01*
X0144456Y0016580D01*
X0144531Y0016489D01*
X0144604Y0016395D01*
X0144673Y0016299D01*
X0144739Y0016201D01*
X0144801Y0016101D01*
X0144860Y0015999D01*
X0144916Y0015894D01*
X0144968Y0015788D01*
X0145016Y0015680D01*
X0145061Y0015571D01*
X0145102Y0015460D01*
X0145139Y0015348D01*
X0145173Y0015234D01*
X0145203Y0015120D01*
X0145228Y0015005D01*
X0145250Y0014888D01*
X0145268Y0014771D01*
X0145282Y0014654D01*
X0145292Y0014536D01*
X0145298Y0014418D01*
X0145300Y0014300D01*
X0145298Y0014182D01*
X0145292Y0014064D01*
X0145282Y0013946D01*
X0145268Y0013829D01*
X0145250Y0013712D01*
X0145228Y0013595D01*
X0145203Y0013480D01*
X0145173Y0013366D01*
X0145139Y0013252D01*
X0145102Y0013140D01*
X0145061Y0013029D01*
X0145016Y0012920D01*
X0144968Y0012812D01*
X0144916Y0012706D01*
X0144860Y0012601D01*
X0144801Y0012499D01*
X0144739Y0012399D01*
X0144673Y0012301D01*
X0144604Y0012205D01*
X0144531Y0012111D01*
X0144456Y0012020D01*
X0144377Y0011932D01*
X0144296Y0011846D01*
X0144211Y0011763D01*
X0144124Y0011683D01*
X0144035Y0011606D01*
X0143942Y0011532D01*
X0143848Y0011462D01*
X0143751Y0011394D01*
X0143651Y0011330D01*
X0143550Y0011269D01*
X0143447Y0011212D01*
X0143341Y0011158D01*
X0143234Y0011107D01*
X0143126Y0011061D01*
X0143016Y0011018D01*
X0142904Y0010979D01*
X0142791Y0010943D01*
X0142677Y0010912D01*
X0142562Y0010884D01*
X0142447Y0010860D01*
X0142330Y0010840D01*
X0142213Y0010824D01*
X0142095Y0010812D01*
X0141977Y0010804D01*
X0141859Y0010800D01*
X0141741Y0010800D01*
X0141623Y0010804D01*
X0141505Y0010812D01*
X0141387Y0010824D01*
X0141270Y0010840D01*
X0141153Y0010860D01*
X0141038Y0010884D01*
X0140923Y0010912D01*
X0140809Y0010943D01*
X0140696Y0010979D01*
X0140584Y0011018D01*
X0140474Y0011061D01*
X0140366Y0011107D01*
X0140259Y0011158D01*
X0140153Y0011212D01*
X0140050Y0011269D01*
X0139949Y0011330D01*
X0139849Y0011394D01*
X0139752Y0011462D01*
X0139658Y0011532D01*
X0139565Y0011606D01*
X0139476Y0011683D01*
X0139389Y0011763D01*
X0139304Y0011846D01*
X0139223Y0011932D01*
X0139144Y0012020D01*
X0139069Y0012111D01*
X0138996Y0012205D01*
X0138927Y0012301D01*
X0138861Y0012399D01*
X0138799Y0012499D01*
X0138740Y0012601D01*
X0138684Y0012706D01*
X0138632Y0012812D01*
X0138584Y0012920D01*
X0138539Y0013029D01*
X0138498Y0013140D01*
X0138461Y0013252D01*
X0138427Y0013366D01*
X0138397Y0013480D01*
X0138372Y0013595D01*
X0138350Y0013712D01*
X0138332Y0013829D01*
X0138318Y0013946D01*
X0138308Y0014064D01*
X0138302Y0014182D01*
X0138300Y0014300D01*
X0198300Y0014300D02*
X0198302Y0014418D01*
X0198308Y0014536D01*
X0198318Y0014654D01*
X0198332Y0014771D01*
X0198350Y0014888D01*
X0198372Y0015005D01*
X0198397Y0015120D01*
X0198427Y0015234D01*
X0198461Y0015348D01*
X0198498Y0015460D01*
X0198539Y0015571D01*
X0198584Y0015680D01*
X0198632Y0015788D01*
X0198684Y0015894D01*
X0198740Y0015999D01*
X0198799Y0016101D01*
X0198861Y0016201D01*
X0198927Y0016299D01*
X0198996Y0016395D01*
X0199069Y0016489D01*
X0199144Y0016580D01*
X0199223Y0016668D01*
X0199304Y0016754D01*
X0199389Y0016837D01*
X0199476Y0016917D01*
X0199565Y0016994D01*
X0199658Y0017068D01*
X0199752Y0017138D01*
X0199849Y0017206D01*
X0199949Y0017270D01*
X0200050Y0017331D01*
X0200153Y0017388D01*
X0200259Y0017442D01*
X0200366Y0017493D01*
X0200474Y0017539D01*
X0200584Y0017582D01*
X0200696Y0017621D01*
X0200809Y0017657D01*
X0200923Y0017688D01*
X0201038Y0017716D01*
X0201153Y0017740D01*
X0201270Y0017760D01*
X0201387Y0017776D01*
X0201505Y0017788D01*
X0201623Y0017796D01*
X0201741Y0017800D01*
X0201859Y0017800D01*
X0201977Y0017796D01*
X0202095Y0017788D01*
X0202213Y0017776D01*
X0202330Y0017760D01*
X0202447Y0017740D01*
X0202562Y0017716D01*
X0202677Y0017688D01*
X0202791Y0017657D01*
X0202904Y0017621D01*
X0203016Y0017582D01*
X0203126Y0017539D01*
X0203234Y0017493D01*
X0203341Y0017442D01*
X0203447Y0017388D01*
X0203550Y0017331D01*
X0203651Y0017270D01*
X0203751Y0017206D01*
X0203848Y0017138D01*
X0203942Y0017068D01*
X0204035Y0016994D01*
X0204124Y0016917D01*
X0204211Y0016837D01*
X0204296Y0016754D01*
X0204377Y0016668D01*
X0204456Y0016580D01*
X0204531Y0016489D01*
X0204604Y0016395D01*
X0204673Y0016299D01*
X0204739Y0016201D01*
X0204801Y0016101D01*
X0204860Y0015999D01*
X0204916Y0015894D01*
X0204968Y0015788D01*
X0205016Y0015680D01*
X0205061Y0015571D01*
X0205102Y0015460D01*
X0205139Y0015348D01*
X0205173Y0015234D01*
X0205203Y0015120D01*
X0205228Y0015005D01*
X0205250Y0014888D01*
X0205268Y0014771D01*
X0205282Y0014654D01*
X0205292Y0014536D01*
X0205298Y0014418D01*
X0205300Y0014300D01*
X0205298Y0014182D01*
X0205292Y0014064D01*
X0205282Y0013946D01*
X0205268Y0013829D01*
X0205250Y0013712D01*
X0205228Y0013595D01*
X0205203Y0013480D01*
X0205173Y0013366D01*
X0205139Y0013252D01*
X0205102Y0013140D01*
X0205061Y0013029D01*
X0205016Y0012920D01*
X0204968Y0012812D01*
X0204916Y0012706D01*
X0204860Y0012601D01*
X0204801Y0012499D01*
X0204739Y0012399D01*
X0204673Y0012301D01*
X0204604Y0012205D01*
X0204531Y0012111D01*
X0204456Y0012020D01*
X0204377Y0011932D01*
X0204296Y0011846D01*
X0204211Y0011763D01*
X0204124Y0011683D01*
X0204035Y0011606D01*
X0203942Y0011532D01*
X0203848Y0011462D01*
X0203751Y0011394D01*
X0203651Y0011330D01*
X0203550Y0011269D01*
X0203447Y0011212D01*
X0203341Y0011158D01*
X0203234Y0011107D01*
X0203126Y0011061D01*
X0203016Y0011018D01*
X0202904Y0010979D01*
X0202791Y0010943D01*
X0202677Y0010912D01*
X0202562Y0010884D01*
X0202447Y0010860D01*
X0202330Y0010840D01*
X0202213Y0010824D01*
X0202095Y0010812D01*
X0201977Y0010804D01*
X0201859Y0010800D01*
X0201741Y0010800D01*
X0201623Y0010804D01*
X0201505Y0010812D01*
X0201387Y0010824D01*
X0201270Y0010840D01*
X0201153Y0010860D01*
X0201038Y0010884D01*
X0200923Y0010912D01*
X0200809Y0010943D01*
X0200696Y0010979D01*
X0200584Y0011018D01*
X0200474Y0011061D01*
X0200366Y0011107D01*
X0200259Y0011158D01*
X0200153Y0011212D01*
X0200050Y0011269D01*
X0199949Y0011330D01*
X0199849Y0011394D01*
X0199752Y0011462D01*
X0199658Y0011532D01*
X0199565Y0011606D01*
X0199476Y0011683D01*
X0199389Y0011763D01*
X0199304Y0011846D01*
X0199223Y0011932D01*
X0199144Y0012020D01*
X0199069Y0012111D01*
X0198996Y0012205D01*
X0198927Y0012301D01*
X0198861Y0012399D01*
X0198799Y0012499D01*
X0198740Y0012601D01*
X0198684Y0012706D01*
X0198632Y0012812D01*
X0198584Y0012920D01*
X0198539Y0013029D01*
X0198498Y0013140D01*
X0198461Y0013252D01*
X0198427Y0013366D01*
X0198397Y0013480D01*
X0198372Y0013595D01*
X0198350Y0013712D01*
X0198332Y0013829D01*
X0198318Y0013946D01*
X0198308Y0014064D01*
X0198302Y0014182D01*
X0198300Y0014300D01*
X0198300Y0174300D02*
X0198302Y0174418D01*
X0198308Y0174536D01*
X0198318Y0174654D01*
X0198332Y0174771D01*
X0198350Y0174888D01*
X0198372Y0175005D01*
X0198397Y0175120D01*
X0198427Y0175234D01*
X0198461Y0175348D01*
X0198498Y0175460D01*
X0198539Y0175571D01*
X0198584Y0175680D01*
X0198632Y0175788D01*
X0198684Y0175894D01*
X0198740Y0175999D01*
X0198799Y0176101D01*
X0198861Y0176201D01*
X0198927Y0176299D01*
X0198996Y0176395D01*
X0199069Y0176489D01*
X0199144Y0176580D01*
X0199223Y0176668D01*
X0199304Y0176754D01*
X0199389Y0176837D01*
X0199476Y0176917D01*
X0199565Y0176994D01*
X0199658Y0177068D01*
X0199752Y0177138D01*
X0199849Y0177206D01*
X0199949Y0177270D01*
X0200050Y0177331D01*
X0200153Y0177388D01*
X0200259Y0177442D01*
X0200366Y0177493D01*
X0200474Y0177539D01*
X0200584Y0177582D01*
X0200696Y0177621D01*
X0200809Y0177657D01*
X0200923Y0177688D01*
X0201038Y0177716D01*
X0201153Y0177740D01*
X0201270Y0177760D01*
X0201387Y0177776D01*
X0201505Y0177788D01*
X0201623Y0177796D01*
X0201741Y0177800D01*
X0201859Y0177800D01*
X0201977Y0177796D01*
X0202095Y0177788D01*
X0202213Y0177776D01*
X0202330Y0177760D01*
X0202447Y0177740D01*
X0202562Y0177716D01*
X0202677Y0177688D01*
X0202791Y0177657D01*
X0202904Y0177621D01*
X0203016Y0177582D01*
X0203126Y0177539D01*
X0203234Y0177493D01*
X0203341Y0177442D01*
X0203447Y0177388D01*
X0203550Y0177331D01*
X0203651Y0177270D01*
X0203751Y0177206D01*
X0203848Y0177138D01*
X0203942Y0177068D01*
X0204035Y0176994D01*
X0204124Y0176917D01*
X0204211Y0176837D01*
X0204296Y0176754D01*
X0204377Y0176668D01*
X0204456Y0176580D01*
X0204531Y0176489D01*
X0204604Y0176395D01*
X0204673Y0176299D01*
X0204739Y0176201D01*
X0204801Y0176101D01*
X0204860Y0175999D01*
X0204916Y0175894D01*
X0204968Y0175788D01*
X0205016Y0175680D01*
X0205061Y0175571D01*
X0205102Y0175460D01*
X0205139Y0175348D01*
X0205173Y0175234D01*
X0205203Y0175120D01*
X0205228Y0175005D01*
X0205250Y0174888D01*
X0205268Y0174771D01*
X0205282Y0174654D01*
X0205292Y0174536D01*
X0205298Y0174418D01*
X0205300Y0174300D01*
X0205298Y0174182D01*
X0205292Y0174064D01*
X0205282Y0173946D01*
X0205268Y0173829D01*
X0205250Y0173712D01*
X0205228Y0173595D01*
X0205203Y0173480D01*
X0205173Y0173366D01*
X0205139Y0173252D01*
X0205102Y0173140D01*
X0205061Y0173029D01*
X0205016Y0172920D01*
X0204968Y0172812D01*
X0204916Y0172706D01*
X0204860Y0172601D01*
X0204801Y0172499D01*
X0204739Y0172399D01*
X0204673Y0172301D01*
X0204604Y0172205D01*
X0204531Y0172111D01*
X0204456Y0172020D01*
X0204377Y0171932D01*
X0204296Y0171846D01*
X0204211Y0171763D01*
X0204124Y0171683D01*
X0204035Y0171606D01*
X0203942Y0171532D01*
X0203848Y0171462D01*
X0203751Y0171394D01*
X0203651Y0171330D01*
X0203550Y0171269D01*
X0203447Y0171212D01*
X0203341Y0171158D01*
X0203234Y0171107D01*
X0203126Y0171061D01*
X0203016Y0171018D01*
X0202904Y0170979D01*
X0202791Y0170943D01*
X0202677Y0170912D01*
X0202562Y0170884D01*
X0202447Y0170860D01*
X0202330Y0170840D01*
X0202213Y0170824D01*
X0202095Y0170812D01*
X0201977Y0170804D01*
X0201859Y0170800D01*
X0201741Y0170800D01*
X0201623Y0170804D01*
X0201505Y0170812D01*
X0201387Y0170824D01*
X0201270Y0170840D01*
X0201153Y0170860D01*
X0201038Y0170884D01*
X0200923Y0170912D01*
X0200809Y0170943D01*
X0200696Y0170979D01*
X0200584Y0171018D01*
X0200474Y0171061D01*
X0200366Y0171107D01*
X0200259Y0171158D01*
X0200153Y0171212D01*
X0200050Y0171269D01*
X0199949Y0171330D01*
X0199849Y0171394D01*
X0199752Y0171462D01*
X0199658Y0171532D01*
X0199565Y0171606D01*
X0199476Y0171683D01*
X0199389Y0171763D01*
X0199304Y0171846D01*
X0199223Y0171932D01*
X0199144Y0172020D01*
X0199069Y0172111D01*
X0198996Y0172205D01*
X0198927Y0172301D01*
X0198861Y0172399D01*
X0198799Y0172499D01*
X0198740Y0172601D01*
X0198684Y0172706D01*
X0198632Y0172812D01*
X0198584Y0172920D01*
X0198539Y0173029D01*
X0198498Y0173140D01*
X0198461Y0173252D01*
X0198427Y0173366D01*
X0198397Y0173480D01*
X0198372Y0173595D01*
X0198350Y0173712D01*
X0198332Y0173829D01*
X0198318Y0173946D01*
X0198308Y0174064D01*
X0198302Y0174182D01*
X0198300Y0174300D01*
X0138300Y0174300D02*
X0138302Y0174418D01*
X0138308Y0174536D01*
X0138318Y0174654D01*
X0138332Y0174771D01*
X0138350Y0174888D01*
X0138372Y0175005D01*
X0138397Y0175120D01*
X0138427Y0175234D01*
X0138461Y0175348D01*
X0138498Y0175460D01*
X0138539Y0175571D01*
X0138584Y0175680D01*
X0138632Y0175788D01*
X0138684Y0175894D01*
X0138740Y0175999D01*
X0138799Y0176101D01*
X0138861Y0176201D01*
X0138927Y0176299D01*
X0138996Y0176395D01*
X0139069Y0176489D01*
X0139144Y0176580D01*
X0139223Y0176668D01*
X0139304Y0176754D01*
X0139389Y0176837D01*
X0139476Y0176917D01*
X0139565Y0176994D01*
X0139658Y0177068D01*
X0139752Y0177138D01*
X0139849Y0177206D01*
X0139949Y0177270D01*
X0140050Y0177331D01*
X0140153Y0177388D01*
X0140259Y0177442D01*
X0140366Y0177493D01*
X0140474Y0177539D01*
X0140584Y0177582D01*
X0140696Y0177621D01*
X0140809Y0177657D01*
X0140923Y0177688D01*
X0141038Y0177716D01*
X0141153Y0177740D01*
X0141270Y0177760D01*
X0141387Y0177776D01*
X0141505Y0177788D01*
X0141623Y0177796D01*
X0141741Y0177800D01*
X0141859Y0177800D01*
X0141977Y0177796D01*
X0142095Y0177788D01*
X0142213Y0177776D01*
X0142330Y0177760D01*
X0142447Y0177740D01*
X0142562Y0177716D01*
X0142677Y0177688D01*
X0142791Y0177657D01*
X0142904Y0177621D01*
X0143016Y0177582D01*
X0143126Y0177539D01*
X0143234Y0177493D01*
X0143341Y0177442D01*
X0143447Y0177388D01*
X0143550Y0177331D01*
X0143651Y0177270D01*
X0143751Y0177206D01*
X0143848Y0177138D01*
X0143942Y0177068D01*
X0144035Y0176994D01*
X0144124Y0176917D01*
X0144211Y0176837D01*
X0144296Y0176754D01*
X0144377Y0176668D01*
X0144456Y0176580D01*
X0144531Y0176489D01*
X0144604Y0176395D01*
X0144673Y0176299D01*
X0144739Y0176201D01*
X0144801Y0176101D01*
X0144860Y0175999D01*
X0144916Y0175894D01*
X0144968Y0175788D01*
X0145016Y0175680D01*
X0145061Y0175571D01*
X0145102Y0175460D01*
X0145139Y0175348D01*
X0145173Y0175234D01*
X0145203Y0175120D01*
X0145228Y0175005D01*
X0145250Y0174888D01*
X0145268Y0174771D01*
X0145282Y0174654D01*
X0145292Y0174536D01*
X0145298Y0174418D01*
X0145300Y0174300D01*
X0145298Y0174182D01*
X0145292Y0174064D01*
X0145282Y0173946D01*
X0145268Y0173829D01*
X0145250Y0173712D01*
X0145228Y0173595D01*
X0145203Y0173480D01*
X0145173Y0173366D01*
X0145139Y0173252D01*
X0145102Y0173140D01*
X0145061Y0173029D01*
X0145016Y0172920D01*
X0144968Y0172812D01*
X0144916Y0172706D01*
X0144860Y0172601D01*
X0144801Y0172499D01*
X0144739Y0172399D01*
X0144673Y0172301D01*
X0144604Y0172205D01*
X0144531Y0172111D01*
X0144456Y0172020D01*
X0144377Y0171932D01*
X0144296Y0171846D01*
X0144211Y0171763D01*
X0144124Y0171683D01*
X0144035Y0171606D01*
X0143942Y0171532D01*
X0143848Y0171462D01*
X0143751Y0171394D01*
X0143651Y0171330D01*
X0143550Y0171269D01*
X0143447Y0171212D01*
X0143341Y0171158D01*
X0143234Y0171107D01*
X0143126Y0171061D01*
X0143016Y0171018D01*
X0142904Y0170979D01*
X0142791Y0170943D01*
X0142677Y0170912D01*
X0142562Y0170884D01*
X0142447Y0170860D01*
X0142330Y0170840D01*
X0142213Y0170824D01*
X0142095Y0170812D01*
X0141977Y0170804D01*
X0141859Y0170800D01*
X0141741Y0170800D01*
X0141623Y0170804D01*
X0141505Y0170812D01*
X0141387Y0170824D01*
X0141270Y0170840D01*
X0141153Y0170860D01*
X0141038Y0170884D01*
X0140923Y0170912D01*
X0140809Y0170943D01*
X0140696Y0170979D01*
X0140584Y0171018D01*
X0140474Y0171061D01*
X0140366Y0171107D01*
X0140259Y0171158D01*
X0140153Y0171212D01*
X0140050Y0171269D01*
X0139949Y0171330D01*
X0139849Y0171394D01*
X0139752Y0171462D01*
X0139658Y0171532D01*
X0139565Y0171606D01*
X0139476Y0171683D01*
X0139389Y0171763D01*
X0139304Y0171846D01*
X0139223Y0171932D01*
X0139144Y0172020D01*
X0139069Y0172111D01*
X0138996Y0172205D01*
X0138927Y0172301D01*
X0138861Y0172399D01*
X0138799Y0172499D01*
X0138740Y0172601D01*
X0138684Y0172706D01*
X0138632Y0172812D01*
X0138584Y0172920D01*
X0138539Y0173029D01*
X0138498Y0173140D01*
X0138461Y0173252D01*
X0138427Y0173366D01*
X0138397Y0173480D01*
X0138372Y0173595D01*
X0138350Y0173712D01*
X0138332Y0173829D01*
X0138318Y0173946D01*
X0138308Y0174064D01*
X0138302Y0174182D01*
X0138300Y0174300D01*
D11*
X0141800Y0024300D03*
D12*
X0141800Y0034300D03*
X0141800Y0044300D03*
X0141800Y0054300D03*
X0141800Y0064300D03*
X0141800Y0074300D03*
X0141800Y0084300D03*
X0141800Y0094300D03*
X0141800Y0104300D03*
X0141800Y0114300D03*
X0141800Y0124300D03*
X0141800Y0134300D03*
X0141800Y0144300D03*
X0141800Y0154300D03*
X0141800Y0164300D03*
X0201800Y0164300D03*
X0201800Y0154300D03*
X0201800Y0144300D03*
X0201800Y0134300D03*
X0201800Y0124300D03*
X0201800Y0114300D03*
X0201800Y0104300D03*
X0201800Y0094300D03*
X0201800Y0084300D03*
X0201800Y0074300D03*
X0201800Y0064300D03*
X0201800Y0054300D03*
X0201800Y0044300D03*
X0201800Y0034300D03*
X0201800Y0024300D03*
D13*
X0009300Y0241800D03*
D14*
X0009300Y0251800D03*
X0009300Y0261800D03*
X0009300Y0271800D03*
D15*
X0153500Y0235700D02*
X0159500Y0235700D01*
X0159500Y0217900D02*
X0153500Y0217900D01*
X0153500Y0208200D02*
X0159500Y0208200D01*
X0159500Y0190400D02*
X0153500Y0190400D01*
X0179100Y0190400D02*
X0185100Y0190400D01*
X0185100Y0208200D02*
X0179100Y0208200D01*
X0179100Y0217900D02*
X0185100Y0217900D01*
X0185100Y0235700D02*
X0179100Y0235700D01*
X0205400Y0222600D02*
X0205400Y0216600D01*
X0205400Y0197000D02*
X0205400Y0191000D01*
X0223200Y0191000D02*
X0223200Y0197000D01*
X0223200Y0216600D02*
X0223200Y0222600D01*
X0231600Y0257900D02*
X0237600Y0257900D01*
X0237600Y0275700D02*
X0231600Y0275700D01*
X0212000Y0275700D02*
X0206000Y0275700D01*
X0206000Y0257900D02*
X0212000Y0257900D01*
D16*
X0194300Y0246800D03*
X0194300Y0236800D03*
X0194300Y0226800D03*
X0194300Y0216800D03*
X0194300Y0206800D03*
X0194300Y0196800D03*
X0234300Y0196800D03*
X0234300Y0206800D03*
X0234300Y0216800D03*
X0234300Y0226800D03*
X0234300Y0236800D03*
X0194300Y0276800D03*
X0184300Y0276800D03*
X0174300Y0276800D03*
X0164300Y0276800D03*
X0154300Y0276800D03*
X0154300Y0246800D03*
X0164300Y0246800D03*
X0174300Y0246800D03*
X0184300Y0246800D03*
X0024300Y0246800D03*
X0024300Y0256800D03*
X0024300Y0266800D03*
X0024300Y0276800D03*
X0024300Y0236800D03*
D17*
X0024438Y0237154D01*
X0024438Y0245520D01*
X0024300Y0246800D01*
X0024438Y0247981D01*
X0024438Y0256347D01*
X0024300Y0256800D01*
X0024300Y0246800D02*
X0023946Y0246505D01*
X0014103Y0246505D01*
X0009674Y0242076D01*
X0009300Y0241800D01*
X0137135Y0153985D02*
X0137135Y0132331D01*
X0140087Y0129379D01*
X0143532Y0129379D01*
X0146977Y0132824D01*
X0200127Y0132824D01*
X0201603Y0134300D01*
X0201800Y0134300D01*
X0196682Y0181544D02*
X0189300Y0181544D01*
X0142056Y0134300D01*
X0141800Y0134300D01*
X0141564Y0153985D02*
X0137135Y0153985D01*
X0141564Y0153985D02*
X0141800Y0154300D01*
X0143040Y0153985D01*
X0174044Y0184989D01*
X0189792Y0184989D01*
X0200127Y0195324D01*
X0200127Y0202213D01*
X0214891Y0202213D01*
X0222765Y0194339D01*
X0223200Y0194000D01*
X0225717Y0185973D02*
X0234083Y0194339D01*
X0234083Y0196800D01*
X0234300Y0196800D01*
X0234576Y0197784D01*
X0234576Y0206643D01*
X0234300Y0206800D01*
X0234576Y0207627D01*
X0234576Y0216485D01*
X0234300Y0216800D01*
X0234576Y0217961D01*
X0234576Y0226328D01*
X0234300Y0226800D01*
X0234576Y0227804D01*
X0234576Y0236662D01*
X0234300Y0236800D01*
X0234600Y0275700D02*
X0234576Y0276032D01*
X0209969Y0276032D01*
X0209000Y0275700D01*
X0208985Y0276032D01*
X0208493Y0276524D01*
X0194713Y0276524D01*
X0194300Y0276800D01*
X0193237Y0277017D01*
X0184379Y0277017D01*
X0184300Y0276800D01*
X0182100Y0235700D02*
X0181918Y0235678D01*
X0156820Y0235678D01*
X0156500Y0235700D01*
X0156500Y0208200D02*
X0156820Y0208119D01*
X0181918Y0208119D01*
X0182100Y0208200D01*
X0201111Y0185973D02*
X0225717Y0185973D01*
X0201111Y0185973D02*
X0196682Y0181544D01*
D18*
X0193994Y0177144D02*
X0193500Y0175951D01*
X0193500Y0172649D01*
X0194764Y0169598D01*
X0196871Y0167491D01*
X0196025Y0165449D01*
X0196025Y0163151D01*
X0196904Y0161029D01*
X0198529Y0159404D01*
X0198781Y0159300D01*
X0198529Y0159196D01*
X0196904Y0157571D01*
X0196025Y0155449D01*
X0196025Y0153151D01*
X0196904Y0151029D01*
X0198529Y0149404D01*
X0198781Y0149300D01*
X0198529Y0149196D01*
X0196904Y0147571D01*
X0196025Y0145449D01*
X0196025Y0143151D01*
X0196904Y0141029D01*
X0198529Y0139404D01*
X0200649Y0138526D01*
X0200121Y0138354D01*
X0199507Y0138042D01*
X0198950Y0137637D01*
X0198463Y0137150D01*
X0198058Y0136593D01*
X0197746Y0135979D01*
X0197533Y0135324D01*
X0197425Y0134644D01*
X0197425Y0134300D01*
X0201800Y0134300D01*
X0206175Y0134300D01*
X0206175Y0134644D01*
X0206067Y0135324D01*
X0205854Y0135979D01*
X0205542Y0136593D01*
X0205137Y0137150D01*
X0204650Y0137637D01*
X0204093Y0138042D01*
X0203479Y0138354D01*
X0202951Y0138526D01*
X0205071Y0139404D01*
X0206696Y0141029D01*
X0207575Y0143151D01*
X0207575Y0145449D01*
X0206696Y0147571D01*
X0205071Y0149196D01*
X0204819Y0149300D01*
X0205071Y0149404D01*
X0206696Y0151029D01*
X0207575Y0153151D01*
X0207575Y0155449D01*
X0206696Y0157571D01*
X0205071Y0159196D01*
X0204819Y0159300D01*
X0205071Y0159404D01*
X0206696Y0161029D01*
X0207575Y0163151D01*
X0207575Y0165449D01*
X0206729Y0167491D01*
X0208836Y0169598D01*
X0210100Y0172649D01*
X0210100Y0175951D01*
X0208836Y0179002D01*
X0206502Y0181336D01*
X0205930Y0181573D01*
X0226593Y0181573D01*
X0228210Y0182243D01*
X0235497Y0189530D01*
X0235497Y0143831D01*
X0207440Y0115774D01*
X0206696Y0117571D01*
X0205071Y0119196D01*
X0204819Y0119300D01*
X0205071Y0119404D01*
X0206696Y0121029D01*
X0207575Y0123151D01*
X0207575Y0125449D01*
X0206696Y0127571D01*
X0205071Y0129196D01*
X0202951Y0130074D01*
X0203479Y0130246D01*
X0204093Y0130558D01*
X0204650Y0130963D01*
X0205137Y0131450D01*
X0205542Y0132007D01*
X0205854Y0132621D01*
X0206067Y0133276D01*
X0206175Y0133956D01*
X0206175Y0134300D01*
X0201800Y0134300D01*
X0201800Y0134300D01*
X0201800Y0134300D01*
X0197425Y0134300D01*
X0197425Y0133956D01*
X0197533Y0133276D01*
X0197746Y0132621D01*
X0197861Y0132394D01*
X0183304Y0132394D01*
X0182895Y0132803D01*
X0180984Y0133594D01*
X0178915Y0133594D01*
X0177004Y0132803D01*
X0175541Y0131340D01*
X0174750Y0129429D01*
X0174750Y0127360D01*
X0175541Y0125449D01*
X0177004Y0123986D01*
X0178915Y0123194D01*
X0180984Y0123194D01*
X0182895Y0123986D01*
X0183304Y0124394D01*
X0196009Y0124394D01*
X0196025Y0124379D01*
X0196025Y0123151D01*
X0196904Y0121029D01*
X0198529Y0119404D01*
X0198781Y0119300D01*
X0198529Y0119196D01*
X0196904Y0117571D01*
X0196025Y0115449D01*
X0196025Y0113151D01*
X0196904Y0111029D01*
X0198529Y0109404D01*
X0198781Y0109300D01*
X0198529Y0109196D01*
X0196904Y0107571D01*
X0196025Y0105449D01*
X0196025Y0103151D01*
X0196904Y0101029D01*
X0198529Y0099404D01*
X0198781Y0099300D01*
X0198529Y0099196D01*
X0196904Y0097571D01*
X0196025Y0095449D01*
X0196025Y0093151D01*
X0196904Y0091029D01*
X0198529Y0089404D01*
X0198781Y0089300D01*
X0198529Y0089196D01*
X0196904Y0087571D01*
X0196025Y0085449D01*
X0196025Y0083151D01*
X0196904Y0081029D01*
X0198529Y0079404D01*
X0198781Y0079300D01*
X0198529Y0079196D01*
X0196904Y0077571D01*
X0196025Y0075449D01*
X0196025Y0073151D01*
X0196904Y0071029D01*
X0198529Y0069404D01*
X0198781Y0069300D01*
X0198529Y0069196D01*
X0196904Y0067571D01*
X0196025Y0065449D01*
X0196025Y0063151D01*
X0196904Y0061029D01*
X0198529Y0059404D01*
X0198781Y0059300D01*
X0198529Y0059196D01*
X0196904Y0057571D01*
X0196025Y0055449D01*
X0196025Y0053151D01*
X0196904Y0051029D01*
X0198529Y0049404D01*
X0198781Y0049300D01*
X0198529Y0049196D01*
X0196904Y0047571D01*
X0196025Y0045449D01*
X0196025Y0043151D01*
X0196904Y0041029D01*
X0198529Y0039404D01*
X0198781Y0039300D01*
X0198529Y0039196D01*
X0196904Y0037571D01*
X0196025Y0035449D01*
X0196025Y0033151D01*
X0196904Y0031029D01*
X0198529Y0029404D01*
X0198781Y0029300D01*
X0198529Y0029196D01*
X0196904Y0027571D01*
X0196025Y0025449D01*
X0196025Y0023151D01*
X0196871Y0021109D01*
X0194764Y0019002D01*
X0193500Y0015951D01*
X0193500Y0012649D01*
X0194764Y0009598D01*
X0197098Y0007264D01*
X0198701Y0006600D01*
X0144899Y0006600D01*
X0146502Y0007264D01*
X0148836Y0009598D01*
X0150100Y0012649D01*
X0150100Y0015951D01*
X0148836Y0019002D01*
X0147333Y0020505D01*
X0147575Y0021089D01*
X0147575Y0027511D01*
X0147088Y0028687D01*
X0146187Y0029588D01*
X0145528Y0029861D01*
X0146696Y0031029D01*
X0147575Y0033151D01*
X0147575Y0035449D01*
X0146696Y0037571D01*
X0145071Y0039196D01*
X0144819Y0039300D01*
X0145071Y0039404D01*
X0146696Y0041029D01*
X0147575Y0043151D01*
X0147575Y0045449D01*
X0146696Y0047571D01*
X0145071Y0049196D01*
X0144819Y0049300D01*
X0145071Y0049404D01*
X0146696Y0051029D01*
X0147575Y0053151D01*
X0147575Y0055449D01*
X0146696Y0057571D01*
X0145071Y0059196D01*
X0144819Y0059300D01*
X0145071Y0059404D01*
X0146696Y0061029D01*
X0147575Y0063151D01*
X0147575Y0065449D01*
X0146696Y0067571D01*
X0145071Y0069196D01*
X0144819Y0069300D01*
X0145071Y0069404D01*
X0146696Y0071029D01*
X0147575Y0073151D01*
X0147575Y0075449D01*
X0146696Y0077571D01*
X0145071Y0079196D01*
X0144819Y0079300D01*
X0145071Y0079404D01*
X0146696Y0081029D01*
X0147575Y0083151D01*
X0147575Y0085449D01*
X0146696Y0087571D01*
X0145071Y0089196D01*
X0144819Y0089300D01*
X0145071Y0089404D01*
X0146696Y0091029D01*
X0147575Y0093151D01*
X0147575Y0095449D01*
X0146696Y0097571D01*
X0145071Y0099196D01*
X0144819Y0099300D01*
X0145071Y0099404D01*
X0146696Y0101029D01*
X0147575Y0103151D01*
X0147575Y0105449D01*
X0146696Y0107571D01*
X0145071Y0109196D01*
X0144819Y0109300D01*
X0145071Y0109404D01*
X0146696Y0111029D01*
X0147575Y0113151D01*
X0147575Y0115449D01*
X0146696Y0117571D01*
X0145071Y0119196D01*
X0144819Y0119300D01*
X0145071Y0119404D01*
X0146696Y0121029D01*
X0147575Y0123151D01*
X0147575Y0125449D01*
X0146696Y0127571D01*
X0145071Y0129196D01*
X0144819Y0129300D01*
X0145071Y0129404D01*
X0146696Y0131029D01*
X0147575Y0133151D01*
X0147575Y0133596D01*
X0191123Y0177144D01*
X0193994Y0177144D01*
X0193929Y0176986D02*
X0190964Y0176986D01*
X0189366Y0175387D02*
X0193500Y0175387D01*
X0193500Y0173789D02*
X0187767Y0173789D01*
X0186169Y0172190D02*
X0193690Y0172190D01*
X0194352Y0170592D02*
X0184570Y0170592D01*
X0182972Y0168993D02*
X0195369Y0168993D01*
X0196831Y0167395D02*
X0181373Y0167395D01*
X0179774Y0165796D02*
X0196169Y0165796D01*
X0196025Y0164198D02*
X0178176Y0164198D01*
X0176577Y0162599D02*
X0196254Y0162599D01*
X0196933Y0161001D02*
X0174979Y0161001D01*
X0173380Y0159402D02*
X0198534Y0159402D01*
X0197137Y0157803D02*
X0171782Y0157803D01*
X0170183Y0156205D02*
X0196338Y0156205D01*
X0196025Y0154606D02*
X0168585Y0154606D01*
X0166986Y0153008D02*
X0196085Y0153008D01*
X0196747Y0151409D02*
X0165388Y0151409D01*
X0163789Y0149811D02*
X0198122Y0149811D01*
X0197546Y0148212D02*
X0162191Y0148212D01*
X0160592Y0146614D02*
X0196508Y0146614D01*
X0196025Y0145015D02*
X0158994Y0145015D01*
X0157395Y0143417D02*
X0196025Y0143417D01*
X0196577Y0141818D02*
X0155797Y0141818D01*
X0154198Y0140220D02*
X0197713Y0140220D01*
X0200419Y0138621D02*
X0152600Y0138621D01*
X0151001Y0137023D02*
X0198371Y0137023D01*
X0197565Y0135424D02*
X0149403Y0135424D01*
X0147804Y0133826D02*
X0197446Y0133826D01*
X0197666Y0128394D02*
X0179950Y0128394D01*
X0176429Y0132227D02*
X0147192Y0132227D01*
X0146296Y0130629D02*
X0175247Y0130629D01*
X0174750Y0129030D02*
X0145237Y0129030D01*
X0146753Y0127432D02*
X0174750Y0127432D01*
X0175382Y0125833D02*
X0147415Y0125833D01*
X0147575Y0124235D02*
X0176755Y0124235D01*
X0183144Y0124235D02*
X0196025Y0124235D01*
X0196239Y0122636D02*
X0147361Y0122636D01*
X0146699Y0121038D02*
X0196901Y0121038D01*
X0198494Y0119439D02*
X0145106Y0119439D01*
X0146426Y0117841D02*
X0197174Y0117841D01*
X0196354Y0116242D02*
X0147246Y0116242D01*
X0147575Y0114644D02*
X0196025Y0114644D01*
X0196069Y0113045D02*
X0147531Y0113045D01*
X0146869Y0111447D02*
X0196731Y0111447D01*
X0198085Y0109848D02*
X0145515Y0109848D01*
X0146017Y0108250D02*
X0197583Y0108250D01*
X0196523Y0106651D02*
X0147077Y0106651D01*
X0147575Y0105053D02*
X0196025Y0105053D01*
X0196025Y0103454D02*
X0147575Y0103454D01*
X0147038Y0101856D02*
X0196562Y0101856D01*
X0197676Y0100257D02*
X0145924Y0100257D01*
X0145608Y0098659D02*
X0197992Y0098659D01*
X0196693Y0097060D02*
X0146907Y0097060D01*
X0147569Y0095462D02*
X0196031Y0095462D01*
X0196025Y0093863D02*
X0147575Y0093863D01*
X0147207Y0092265D02*
X0196393Y0092265D01*
X0197267Y0090666D02*
X0146333Y0090666D01*
X0145199Y0089068D02*
X0198401Y0089068D01*
X0196862Y0087469D02*
X0146738Y0087469D01*
X0147400Y0085870D02*
X0196200Y0085870D01*
X0196025Y0084272D02*
X0147575Y0084272D01*
X0147377Y0082673D02*
X0196223Y0082673D01*
X0196885Y0081075D02*
X0146715Y0081075D01*
X0145143Y0079476D02*
X0198457Y0079476D01*
X0197211Y0077878D02*
X0146389Y0077878D01*
X0147231Y0076279D02*
X0196369Y0076279D01*
X0196025Y0074681D02*
X0147575Y0074681D01*
X0147546Y0073082D02*
X0196054Y0073082D01*
X0196716Y0071484D02*
X0146884Y0071484D01*
X0145552Y0069885D02*
X0198048Y0069885D01*
X0197620Y0068287D02*
X0145980Y0068287D01*
X0147061Y0066688D02*
X0196539Y0066688D01*
X0196025Y0065090D02*
X0147575Y0065090D01*
X0147575Y0063491D02*
X0196025Y0063491D01*
X0196546Y0061893D02*
X0147053Y0061893D01*
X0145961Y0060294D02*
X0197639Y0060294D01*
X0198029Y0058696D02*
X0145571Y0058696D01*
X0146892Y0057097D02*
X0196708Y0057097D01*
X0196046Y0055499D02*
X0147554Y0055499D01*
X0147575Y0053900D02*
X0196025Y0053900D01*
X0196377Y0052302D02*
X0147223Y0052302D01*
X0146370Y0050703D02*
X0197230Y0050703D01*
X0198438Y0049105D02*
X0145162Y0049105D01*
X0146723Y0047506D02*
X0196877Y0047506D01*
X0196215Y0045908D02*
X0147385Y0045908D01*
X0147575Y0044309D02*
X0196025Y0044309D01*
X0196208Y0042711D02*
X0147392Y0042711D01*
X0146730Y0041112D02*
X0196870Y0041112D01*
X0198420Y0039514D02*
X0145180Y0039514D01*
X0146352Y0037915D02*
X0197248Y0037915D01*
X0196385Y0036317D02*
X0147215Y0036317D01*
X0147575Y0034718D02*
X0196025Y0034718D01*
X0196038Y0033120D02*
X0147562Y0033120D01*
X0146900Y0031521D02*
X0196700Y0031521D01*
X0198011Y0029923D02*
X0145589Y0029923D01*
X0147238Y0028324D02*
X0197657Y0028324D01*
X0196554Y0026726D02*
X0147575Y0026726D01*
X0147575Y0025127D02*
X0196025Y0025127D01*
X0196025Y0023529D02*
X0147575Y0023529D01*
X0147575Y0021930D02*
X0196531Y0021930D01*
X0196094Y0020332D02*
X0147506Y0020332D01*
X0148948Y0018733D02*
X0194652Y0018733D01*
X0193990Y0017134D02*
X0149610Y0017134D01*
X0150100Y0015536D02*
X0193500Y0015536D01*
X0193500Y0013937D02*
X0150100Y0013937D01*
X0149972Y0012339D02*
X0193628Y0012339D01*
X0194291Y0010740D02*
X0149309Y0010740D01*
X0148380Y0009142D02*
X0195220Y0009142D01*
X0196819Y0007543D02*
X0146781Y0007543D01*
X0141800Y0094300D02*
X0141564Y0094438D01*
X0131721Y0104280D01*
X0131721Y0271603D01*
X0009674Y0271603D01*
X0009300Y0271800D01*
X0006600Y0277358D02*
X0006600Y0279500D01*
X0020000Y0279500D01*
X0019350Y0278850D01*
X0019350Y0276900D01*
X0024200Y0276900D01*
X0024200Y0276700D01*
X0019350Y0276700D01*
X0019350Y0275603D01*
X0014220Y0275603D01*
X0012794Y0277029D01*
X0010527Y0277968D01*
X0008073Y0277968D01*
X0006600Y0277358D01*
X0006600Y0277692D02*
X0007405Y0277692D01*
X0006600Y0279290D02*
X0019790Y0279290D01*
X0019350Y0277692D02*
X0011195Y0277692D01*
X0013730Y0276093D02*
X0019350Y0276093D01*
X0024400Y0276700D02*
X0024400Y0276900D01*
X0029250Y0276900D01*
X0029250Y0278850D01*
X0028600Y0279500D01*
X0150000Y0279500D01*
X0149350Y0278850D01*
X0149350Y0276900D01*
X0154200Y0276900D01*
X0154200Y0276700D01*
X0154400Y0276700D01*
X0154400Y0276900D01*
X0159250Y0276900D01*
X0159250Y0278850D01*
X0158600Y0279500D01*
X0160000Y0279500D01*
X0159350Y0278850D01*
X0159350Y0276900D01*
X0164200Y0276900D01*
X0164200Y0276700D01*
X0164400Y0276700D01*
X0164400Y0276900D01*
X0169250Y0276900D01*
X0169250Y0278850D01*
X0168600Y0279500D01*
X0170000Y0279500D01*
X0169350Y0278850D01*
X0169350Y0276900D01*
X0174200Y0276900D01*
X0174200Y0276700D01*
X0174400Y0276700D01*
X0174400Y0276900D01*
X0179250Y0276900D01*
X0179250Y0278850D01*
X0178600Y0279500D01*
X0180000Y0279500D01*
X0179350Y0278850D01*
X0179350Y0276900D01*
X0184200Y0276900D01*
X0184200Y0279500D01*
X0184400Y0279500D01*
X0184400Y0276900D01*
X0184200Y0276900D01*
X0184200Y0276700D01*
X0184400Y0276700D01*
X0184400Y0276900D01*
X0189250Y0276900D01*
X0189250Y0278850D01*
X0188600Y0279500D01*
X0190000Y0279500D01*
X0189350Y0278850D01*
X0189350Y0276900D01*
X0194200Y0276900D01*
X0194200Y0276700D01*
X0194400Y0276700D01*
X0194400Y0276900D01*
X0199250Y0276900D01*
X0199250Y0278850D01*
X0198600Y0279500D01*
X0203064Y0279500D01*
X0202873Y0279361D01*
X0202339Y0278827D01*
X0201895Y0278216D01*
X0201552Y0277543D01*
X0201318Y0276824D01*
X0201200Y0276078D01*
X0201200Y0275900D01*
X0208800Y0275900D01*
X0208800Y0279500D01*
X0209200Y0279500D01*
X0209200Y0275900D01*
X0208800Y0275900D01*
X0208800Y0275500D01*
X0209200Y0275500D01*
X0209200Y0275900D01*
X0216800Y0275900D01*
X0216800Y0276078D01*
X0216682Y0276824D01*
X0216448Y0277543D01*
X0216105Y0278216D01*
X0215661Y0278827D01*
X0215127Y0279361D01*
X0214936Y0279500D01*
X0228664Y0279500D01*
X0228473Y0279361D01*
X0227939Y0278827D01*
X0227495Y0278216D01*
X0227152Y0277543D01*
X0226918Y0276824D01*
X0226800Y0276078D01*
X0226800Y0275900D01*
X0234400Y0275900D01*
X0234400Y0279500D01*
X0234800Y0279500D01*
X0234800Y0275900D01*
X0234400Y0275900D01*
X0234400Y0275500D01*
X0234800Y0275500D01*
X0234800Y0270900D01*
X0237978Y0270900D01*
X0238724Y0271018D01*
X0239443Y0271252D01*
X0240116Y0271595D01*
X0240727Y0272039D01*
X0241261Y0272573D01*
X0241705Y0273184D01*
X0242000Y0273763D01*
X0242000Y0262268D01*
X0241112Y0263156D01*
X0238833Y0264100D01*
X0230367Y0264100D01*
X0228088Y0263156D01*
X0226755Y0261824D01*
X0216844Y0261824D01*
X0215512Y0263156D01*
X0213233Y0264100D01*
X0204767Y0264100D01*
X0202488Y0263156D01*
X0200744Y0261412D01*
X0199800Y0259133D01*
X0199800Y0256667D01*
X0200146Y0255832D01*
X0199938Y0255918D01*
X0168819Y0255918D01*
X0167349Y0255309D01*
X0165190Y0253150D01*
X0161670Y0253150D01*
X0159300Y0250780D01*
X0156930Y0253150D01*
X0151670Y0253150D01*
X0147950Y0249430D01*
X0147950Y0246245D01*
X0145696Y0243990D01*
X0144570Y0242865D01*
X0143961Y0241395D01*
X0143961Y0196004D01*
X0144570Y0194534D01*
X0145696Y0193409D01*
X0147166Y0192800D01*
X0147783Y0192800D01*
X0147300Y0191633D01*
X0147300Y0189167D01*
X0148244Y0186888D01*
X0149988Y0185144D01*
X0152267Y0184200D01*
X0160733Y0184200D01*
X0163012Y0185144D01*
X0164270Y0186402D01*
X0174330Y0186402D01*
X0175588Y0185144D01*
X0177867Y0184200D01*
X0185733Y0184200D01*
X0185570Y0184036D01*
X0147401Y0145868D01*
X0146696Y0147571D01*
X0145071Y0149196D01*
X0142951Y0150074D01*
X0143479Y0150246D01*
X0144093Y0150558D01*
X0144650Y0150963D01*
X0145137Y0151450D01*
X0145542Y0152007D01*
X0145854Y0152621D01*
X0146067Y0153276D01*
X0146175Y0153956D01*
X0146175Y0154300D01*
X0146175Y0154644D01*
X0146067Y0155324D01*
X0145854Y0155979D01*
X0145542Y0156593D01*
X0145137Y0157150D01*
X0144650Y0157637D01*
X0144093Y0158042D01*
X0143479Y0158354D01*
X0142951Y0158526D01*
X0145071Y0159404D01*
X0146696Y0161029D01*
X0147575Y0163151D01*
X0147575Y0165449D01*
X0146729Y0167491D01*
X0148836Y0169598D01*
X0150100Y0172649D01*
X0150100Y0175951D01*
X0148836Y0179002D01*
X0146502Y0181336D01*
X0143451Y0182600D01*
X0140149Y0182600D01*
X0137098Y0181336D01*
X0135721Y0179959D01*
X0135721Y0272399D01*
X0135112Y0273869D01*
X0133987Y0274994D01*
X0132517Y0275603D01*
X0029250Y0275603D01*
X0029250Y0276700D01*
X0024400Y0276700D01*
X0029250Y0276093D02*
X0149350Y0276093D01*
X0149350Y0276700D02*
X0149350Y0274750D01*
X0152250Y0271850D01*
X0154200Y0271850D01*
X0154200Y0276700D01*
X0149350Y0276700D01*
X0149350Y0277692D02*
X0029250Y0277692D01*
X0028810Y0279290D02*
X0149790Y0279290D01*
X0149605Y0274495D02*
X0134486Y0274495D01*
X0135515Y0272896D02*
X0151203Y0272896D01*
X0154200Y0272896D02*
X0154400Y0272896D01*
X0154400Y0271850D02*
X0156350Y0271850D01*
X0159250Y0274750D01*
X0159250Y0276700D01*
X0154400Y0276700D01*
X0154400Y0271850D01*
X0154400Y0274495D02*
X0154200Y0274495D01*
X0154200Y0276093D02*
X0154400Y0276093D01*
X0157397Y0272896D02*
X0161203Y0272896D01*
X0162250Y0271850D02*
X0159350Y0274750D01*
X0159350Y0276700D01*
X0164200Y0276700D01*
X0164200Y0271850D01*
X0162250Y0271850D01*
X0164400Y0271850D02*
X0164400Y0276700D01*
X0169250Y0276700D01*
X0169250Y0274750D01*
X0166350Y0271850D01*
X0164400Y0271850D01*
X0164400Y0272896D02*
X0164200Y0272896D01*
X0164200Y0274495D02*
X0164400Y0274495D01*
X0164400Y0276093D02*
X0164200Y0276093D01*
X0167397Y0272896D02*
X0171203Y0272896D01*
X0172250Y0271850D02*
X0169350Y0274750D01*
X0169350Y0276700D01*
X0174200Y0276700D01*
X0174200Y0271850D01*
X0172250Y0271850D01*
X0174400Y0271850D02*
X0174400Y0276700D01*
X0179250Y0276700D01*
X0179250Y0274750D01*
X0176350Y0271850D01*
X0174400Y0271850D01*
X0174400Y0272896D02*
X0174200Y0272896D01*
X0174200Y0274495D02*
X0174400Y0274495D01*
X0174400Y0276093D02*
X0174200Y0276093D01*
X0177397Y0272896D02*
X0181203Y0272896D01*
X0182250Y0271850D02*
X0179350Y0274750D01*
X0179350Y0276700D01*
X0184200Y0276700D01*
X0184200Y0271850D01*
X0182250Y0271850D01*
X0184400Y0271850D02*
X0184400Y0276700D01*
X0189250Y0276700D01*
X0189250Y0274750D01*
X0186350Y0271850D01*
X0184400Y0271850D01*
X0184400Y0272896D02*
X0184200Y0272896D01*
X0184200Y0274495D02*
X0184400Y0274495D01*
X0184400Y0276093D02*
X0184200Y0276093D01*
X0184200Y0277692D02*
X0184400Y0277692D01*
X0184400Y0279290D02*
X0184200Y0279290D01*
X0188810Y0279290D02*
X0189790Y0279290D01*
X0189350Y0277692D02*
X0189250Y0277692D01*
X0189350Y0276700D02*
X0189350Y0274750D01*
X0192250Y0271850D01*
X0194200Y0271850D01*
X0194200Y0276700D01*
X0189350Y0276700D01*
X0189350Y0276093D02*
X0189250Y0276093D01*
X0188995Y0274495D02*
X0189605Y0274495D01*
X0191203Y0272896D02*
X0187397Y0272896D01*
X0194200Y0272896D02*
X0194400Y0272896D01*
X0194400Y0271850D02*
X0196350Y0271850D01*
X0199250Y0274750D01*
X0199250Y0276700D01*
X0194400Y0276700D01*
X0194400Y0271850D01*
X0194400Y0274495D02*
X0194200Y0274495D01*
X0194200Y0276093D02*
X0194400Y0276093D01*
X0197397Y0272896D02*
X0202104Y0272896D01*
X0201895Y0273184D02*
X0202339Y0272573D01*
X0202873Y0272039D01*
X0203484Y0271595D01*
X0204157Y0271252D01*
X0204876Y0271018D01*
X0205622Y0270900D01*
X0208800Y0270900D01*
X0208800Y0275500D01*
X0201200Y0275500D01*
X0201200Y0275322D01*
X0201318Y0274576D01*
X0201552Y0273857D01*
X0201895Y0273184D01*
X0201345Y0274495D02*
X0198995Y0274495D01*
X0199250Y0276093D02*
X0201202Y0276093D01*
X0201628Y0277692D02*
X0199250Y0277692D01*
X0198810Y0279290D02*
X0202802Y0279290D01*
X0208800Y0279290D02*
X0209200Y0279290D01*
X0209200Y0277692D02*
X0208800Y0277692D01*
X0208800Y0276093D02*
X0209200Y0276093D01*
X0209200Y0275500D02*
X0216800Y0275500D01*
X0216800Y0275322D01*
X0216682Y0274576D01*
X0216448Y0273857D01*
X0216105Y0273184D01*
X0215661Y0272573D01*
X0215127Y0272039D01*
X0214516Y0271595D01*
X0213843Y0271252D01*
X0213124Y0271018D01*
X0212378Y0270900D01*
X0209200Y0270900D01*
X0209200Y0275500D01*
X0209200Y0274495D02*
X0208800Y0274495D01*
X0208800Y0272896D02*
X0209200Y0272896D01*
X0209200Y0271298D02*
X0208800Y0271298D01*
X0204067Y0271298D02*
X0135721Y0271298D01*
X0135721Y0269699D02*
X0242000Y0269699D01*
X0242000Y0268101D02*
X0135721Y0268101D01*
X0135721Y0266502D02*
X0242000Y0266502D01*
X0242000Y0264904D02*
X0135721Y0264904D01*
X0135721Y0263305D02*
X0202848Y0263305D01*
X0201039Y0261707D02*
X0135721Y0261707D01*
X0135721Y0260108D02*
X0200204Y0260108D01*
X0199800Y0258510D02*
X0135721Y0258510D01*
X0135721Y0256911D02*
X0199800Y0256911D01*
X0199143Y0251918D02*
X0169615Y0251918D01*
X0164694Y0246997D01*
X0164300Y0246800D01*
X0169005Y0242525D02*
X0169595Y0242525D01*
X0169300Y0242820D02*
X0171670Y0240450D01*
X0176930Y0240450D01*
X0179300Y0242820D01*
X0181620Y0240500D01*
X0178722Y0240500D01*
X0177976Y0240382D01*
X0177257Y0240148D01*
X0176584Y0239805D01*
X0175973Y0239361D01*
X0175439Y0238827D01*
X0174995Y0238216D01*
X0174652Y0237543D01*
X0174418Y0236824D01*
X0174300Y0236078D01*
X0174300Y0235900D01*
X0181900Y0235900D01*
X0181900Y0235500D01*
X0182300Y0235500D01*
X0182300Y0230900D01*
X0185478Y0230900D01*
X0186224Y0231018D01*
X0186943Y0231252D01*
X0187616Y0231595D01*
X0188227Y0232039D01*
X0188761Y0232573D01*
X0189092Y0233028D01*
X0190320Y0231800D01*
X0187950Y0229430D01*
X0187950Y0224170D01*
X0190320Y0221800D01*
X0190144Y0221624D01*
X0188612Y0223156D01*
X0186333Y0224100D01*
X0177867Y0224100D01*
X0175588Y0223156D01*
X0174393Y0221961D01*
X0164207Y0221961D01*
X0163012Y0223156D01*
X0160733Y0224100D01*
X0152267Y0224100D01*
X0151961Y0223974D01*
X0151961Y0231153D01*
X0152376Y0231018D01*
X0153122Y0230900D01*
X0156300Y0230900D01*
X0156300Y0235500D01*
X0156700Y0235500D01*
X0156700Y0235900D01*
X0164300Y0235900D01*
X0164300Y0236078D01*
X0164182Y0236824D01*
X0163948Y0237543D01*
X0163605Y0238216D01*
X0163161Y0238827D01*
X0162627Y0239361D01*
X0162016Y0239805D01*
X0161343Y0240148D01*
X0160624Y0240382D01*
X0159878Y0240500D01*
X0156980Y0240500D01*
X0159300Y0242820D01*
X0161670Y0240450D01*
X0166930Y0240450D01*
X0169300Y0242820D01*
X0167406Y0240926D02*
X0171194Y0240926D01*
X0174747Y0237729D02*
X0163853Y0237729D01*
X0164292Y0236131D02*
X0174308Y0236131D01*
X0174300Y0235500D02*
X0174300Y0235322D01*
X0174418Y0234576D01*
X0174652Y0233857D01*
X0174995Y0233184D01*
X0175439Y0232573D01*
X0175973Y0232039D01*
X0176584Y0231595D01*
X0177257Y0231252D01*
X0177976Y0231018D01*
X0178722Y0230900D01*
X0181900Y0230900D01*
X0181900Y0235500D01*
X0174300Y0235500D01*
X0174432Y0234532D02*
X0164168Y0234532D01*
X0164182Y0234576D02*
X0164300Y0235322D01*
X0164300Y0235500D01*
X0156700Y0235500D01*
X0156700Y0230900D01*
X0159878Y0230900D01*
X0160624Y0231018D01*
X0161343Y0231252D01*
X0162016Y0231595D01*
X0162627Y0232039D01*
X0163161Y0232573D01*
X0163605Y0233184D01*
X0163948Y0233857D01*
X0164182Y0234576D01*
X0163423Y0232934D02*
X0175177Y0232934D01*
X0177094Y0231335D02*
X0161506Y0231335D01*
X0156700Y0231335D02*
X0156300Y0231335D01*
X0156300Y0232934D02*
X0156700Y0232934D01*
X0156700Y0234532D02*
X0156300Y0234532D01*
X0151961Y0229737D02*
X0188256Y0229737D01*
X0187950Y0228138D02*
X0151961Y0228138D01*
X0151961Y0226539D02*
X0187950Y0226539D01*
X0187950Y0224941D02*
X0151961Y0224941D01*
X0156500Y0217900D02*
X0156820Y0217961D01*
X0181918Y0217961D01*
X0182100Y0217900D01*
X0176519Y0212258D02*
X0175973Y0211861D01*
X0175439Y0211327D01*
X0174995Y0210716D01*
X0174652Y0210043D01*
X0174418Y0209324D01*
X0174300Y0208578D01*
X0174300Y0208400D01*
X0181900Y0208400D01*
X0181900Y0208000D01*
X0182300Y0208000D01*
X0182300Y0203400D01*
X0185478Y0203400D01*
X0186224Y0203518D01*
X0186943Y0203752D01*
X0187616Y0204095D01*
X0187950Y0204338D01*
X0187950Y0204170D01*
X0190320Y0201800D01*
X0189320Y0200800D01*
X0151961Y0200800D01*
X0151961Y0203653D01*
X0152376Y0203518D01*
X0153122Y0203400D01*
X0156300Y0203400D01*
X0156300Y0208000D01*
X0156700Y0208000D01*
X0156700Y0208400D01*
X0164300Y0208400D01*
X0164300Y0208578D01*
X0164182Y0209324D01*
X0163948Y0210043D01*
X0163605Y0210716D01*
X0163161Y0211327D01*
X0162627Y0211861D01*
X0162081Y0212258D01*
X0163012Y0212644D01*
X0164330Y0213961D01*
X0174270Y0213961D01*
X0175588Y0212644D01*
X0176519Y0212258D01*
X0176374Y0212153D02*
X0162226Y0212153D01*
X0163688Y0210554D02*
X0174912Y0210554D01*
X0174360Y0208956D02*
X0164240Y0208956D01*
X0164300Y0208000D02*
X0156700Y0208000D01*
X0156700Y0203400D01*
X0159878Y0203400D01*
X0160624Y0203518D01*
X0161343Y0203752D01*
X0162016Y0204095D01*
X0162627Y0204539D01*
X0163161Y0205073D01*
X0163605Y0205684D01*
X0163948Y0206357D01*
X0164182Y0207076D01*
X0164300Y0207822D01*
X0164300Y0208000D01*
X0164226Y0207357D02*
X0174374Y0207357D01*
X0174418Y0207076D02*
X0174652Y0206357D01*
X0174995Y0205684D01*
X0175439Y0205073D01*
X0175973Y0204539D01*
X0176584Y0204095D01*
X0177257Y0203752D01*
X0177976Y0203518D01*
X0178722Y0203400D01*
X0181900Y0203400D01*
X0181900Y0208000D01*
X0174300Y0208000D01*
X0174300Y0207822D01*
X0174418Y0207076D01*
X0174957Y0205759D02*
X0163643Y0205759D01*
X0162106Y0204160D02*
X0176494Y0204160D01*
X0181900Y0204160D02*
X0182300Y0204160D01*
X0182300Y0205759D02*
X0181900Y0205759D01*
X0181900Y0207357D02*
X0182300Y0207357D01*
X0187706Y0204160D02*
X0187959Y0204160D01*
X0189558Y0202562D02*
X0151961Y0202562D01*
X0151961Y0200963D02*
X0189483Y0200963D01*
X0194300Y0196800D02*
X0147961Y0196800D01*
X0147961Y0240599D01*
X0153867Y0246505D01*
X0154300Y0246800D01*
X0159005Y0242525D02*
X0159595Y0242525D01*
X0161194Y0240926D02*
X0157406Y0240926D01*
X0162661Y0239328D02*
X0175939Y0239328D01*
X0177406Y0240926D02*
X0181194Y0240926D01*
X0179595Y0242525D02*
X0179005Y0242525D01*
X0181900Y0234532D02*
X0182300Y0234532D01*
X0182300Y0232934D02*
X0181900Y0232934D01*
X0181900Y0231335D02*
X0182300Y0231335D01*
X0187106Y0231335D02*
X0189855Y0231335D01*
X0189186Y0232934D02*
X0189023Y0232934D01*
X0194300Y0236800D02*
X0194221Y0237154D01*
X0194221Y0246505D01*
X0194300Y0246800D01*
X0199143Y0251918D02*
X0199143Y0211564D01*
X0194713Y0207135D01*
X0194300Y0206800D01*
X0199042Y0202562D02*
X0202626Y0202562D01*
X0201888Y0202256D02*
X0200144Y0200512D01*
X0199975Y0200105D01*
X0198280Y0201800D01*
X0200650Y0204170D01*
X0200650Y0207414D01*
X0201408Y0208173D01*
X0202534Y0209298D01*
X0203143Y0210768D01*
X0203143Y0210824D01*
X0204167Y0210400D01*
X0206633Y0210400D01*
X0208912Y0211344D01*
X0210656Y0213088D01*
X0211600Y0215367D01*
X0211600Y0223833D01*
X0210656Y0226112D01*
X0208912Y0227856D01*
X0206633Y0228800D01*
X0204167Y0228800D01*
X0203143Y0228376D01*
X0203143Y0252373D01*
X0204767Y0251700D01*
X0213233Y0251700D01*
X0215512Y0252644D01*
X0216692Y0253824D01*
X0226908Y0253824D01*
X0228088Y0252644D01*
X0230367Y0251700D01*
X0235497Y0251700D01*
X0235497Y0243150D01*
X0231670Y0243150D01*
X0227950Y0239430D01*
X0227950Y0234170D01*
X0230176Y0231944D01*
X0230176Y0231656D01*
X0227950Y0229430D01*
X0227950Y0224170D01*
X0230176Y0221944D01*
X0230176Y0221656D01*
X0227950Y0219430D01*
X0227950Y0219400D01*
X0223400Y0219400D01*
X0223400Y0219800D01*
X0223000Y0219800D01*
X0223000Y0227400D01*
X0222822Y0227400D01*
X0222076Y0227282D01*
X0221357Y0227048D01*
X0220684Y0226705D01*
X0220073Y0226261D01*
X0219539Y0225727D01*
X0219095Y0225116D01*
X0218752Y0224443D01*
X0218518Y0223724D01*
X0218400Y0222978D01*
X0218400Y0219800D01*
X0223000Y0219800D01*
X0223000Y0219400D01*
X0223400Y0219400D01*
X0223400Y0211800D01*
X0223578Y0211800D01*
X0224324Y0211918D01*
X0225043Y0212152D01*
X0225716Y0212495D01*
X0226327Y0212939D01*
X0226861Y0213473D01*
X0227305Y0214084D01*
X0227648Y0214757D01*
X0227882Y0215476D01*
X0227950Y0215907D01*
X0227950Y0214170D01*
X0230176Y0211944D01*
X0230176Y0211656D01*
X0227950Y0209430D01*
X0227950Y0204170D01*
X0230176Y0201944D01*
X0230176Y0201656D01*
X0227950Y0199430D01*
X0227950Y0197693D01*
X0227882Y0198124D01*
X0227648Y0198843D01*
X0227305Y0199516D01*
X0226861Y0200127D01*
X0226327Y0200661D01*
X0225716Y0201105D01*
X0225043Y0201448D01*
X0224324Y0201682D01*
X0223578Y0201800D01*
X0223400Y0201800D01*
X0223400Y0194200D01*
X0223000Y0194200D01*
X0223000Y0201800D01*
X0222822Y0201800D01*
X0222076Y0201682D01*
X0221357Y0201448D01*
X0220684Y0201105D01*
X0220073Y0200661D01*
X0219539Y0200127D01*
X0219095Y0199516D01*
X0218752Y0198843D01*
X0218518Y0198124D01*
X0218400Y0197378D01*
X0218400Y0194200D01*
X0223000Y0194200D01*
X0223000Y0193800D01*
X0218400Y0193800D01*
X0218400Y0190622D01*
X0218439Y0190373D01*
X0211600Y0190373D01*
X0211600Y0198233D01*
X0210656Y0200512D01*
X0208912Y0202256D01*
X0206633Y0203200D01*
X0204167Y0203200D01*
X0201888Y0202256D01*
X0200595Y0200963D02*
X0199117Y0200963D01*
X0200641Y0204160D02*
X0227959Y0204160D01*
X0227950Y0205759D02*
X0200650Y0205759D01*
X0200650Y0207357D02*
X0227950Y0207357D01*
X0227950Y0208956D02*
X0202191Y0208956D01*
X0203054Y0210554D02*
X0203794Y0210554D01*
X0207006Y0210554D02*
X0229074Y0210554D01*
X0229967Y0212153D02*
X0225045Y0212153D01*
X0223400Y0212153D02*
X0223000Y0212153D01*
X0223000Y0211800D02*
X0223000Y0219400D01*
X0218400Y0219400D01*
X0218400Y0216222D01*
X0218518Y0215476D01*
X0218752Y0214757D01*
X0219095Y0214084D01*
X0219539Y0213473D01*
X0220073Y0212939D01*
X0220684Y0212495D01*
X0221357Y0212152D01*
X0222076Y0211918D01*
X0222822Y0211800D01*
X0223000Y0211800D01*
X0221355Y0212153D02*
X0209721Y0212153D01*
X0210931Y0213751D02*
X0219337Y0213751D01*
X0218559Y0215350D02*
X0211593Y0215350D01*
X0211600Y0216948D02*
X0218400Y0216948D01*
X0218400Y0218547D02*
X0211600Y0218547D01*
X0211600Y0220145D02*
X0218400Y0220145D01*
X0218400Y0221744D02*
X0211600Y0221744D01*
X0211600Y0223342D02*
X0218458Y0223342D01*
X0219006Y0224941D02*
X0211141Y0224941D01*
X0210229Y0226539D02*
X0220456Y0226539D01*
X0223000Y0226539D02*
X0223400Y0226539D01*
X0223400Y0227400D02*
X0223400Y0219800D01*
X0228000Y0219800D01*
X0228000Y0222978D01*
X0227882Y0223724D01*
X0227648Y0224443D01*
X0227305Y0225116D01*
X0226861Y0225727D01*
X0226327Y0226261D01*
X0225716Y0226705D01*
X0225043Y0227048D01*
X0224324Y0227282D01*
X0223578Y0227400D01*
X0223400Y0227400D01*
X0223400Y0224941D02*
X0223000Y0224941D01*
X0223000Y0223342D02*
X0223400Y0223342D01*
X0223400Y0221744D02*
X0223000Y0221744D01*
X0223000Y0220145D02*
X0223400Y0220145D01*
X0223400Y0218547D02*
X0223000Y0218547D01*
X0223000Y0216948D02*
X0223400Y0216948D01*
X0223400Y0215350D02*
X0223000Y0215350D01*
X0223000Y0213751D02*
X0223400Y0213751D01*
X0227063Y0213751D02*
X0228368Y0213751D01*
X0227950Y0215350D02*
X0227841Y0215350D01*
X0228000Y0220145D02*
X0228665Y0220145D01*
X0228000Y0221744D02*
X0230176Y0221744D01*
X0228777Y0223342D02*
X0227942Y0223342D01*
X0227950Y0224941D02*
X0227394Y0224941D01*
X0227950Y0226539D02*
X0225944Y0226539D01*
X0227950Y0228138D02*
X0208231Y0228138D01*
X0203143Y0229737D02*
X0228256Y0229737D01*
X0229855Y0231335D02*
X0203143Y0231335D01*
X0203143Y0232934D02*
X0229186Y0232934D01*
X0227950Y0234532D02*
X0203143Y0234532D01*
X0203143Y0236131D02*
X0227950Y0236131D01*
X0227950Y0237729D02*
X0203143Y0237729D01*
X0203143Y0239328D02*
X0227950Y0239328D01*
X0229446Y0240926D02*
X0203143Y0240926D01*
X0203143Y0242525D02*
X0231044Y0242525D01*
X0235497Y0244123D02*
X0203143Y0244123D01*
X0203143Y0245722D02*
X0235497Y0245722D01*
X0235497Y0247320D02*
X0203143Y0247320D01*
X0203143Y0248919D02*
X0235497Y0248919D01*
X0235497Y0250517D02*
X0203143Y0250517D01*
X0203143Y0252116D02*
X0203763Y0252116D01*
X0209000Y0257900D02*
X0209477Y0257824D01*
X0234083Y0257824D01*
X0234600Y0257900D01*
X0235068Y0257824D01*
X0239497Y0257824D01*
X0239497Y0142174D01*
X0202095Y0104772D01*
X0201800Y0104300D01*
X0207246Y0116242D02*
X0207908Y0116242D01*
X0206426Y0117841D02*
X0209507Y0117841D01*
X0211105Y0119439D02*
X0205106Y0119439D01*
X0206699Y0121038D02*
X0212704Y0121038D01*
X0214302Y0122636D02*
X0207361Y0122636D01*
X0207575Y0124235D02*
X0215901Y0124235D01*
X0217499Y0125833D02*
X0207415Y0125833D01*
X0206753Y0127432D02*
X0219098Y0127432D01*
X0220696Y0129030D02*
X0205237Y0129030D01*
X0204190Y0130629D02*
X0222295Y0130629D01*
X0223893Y0132227D02*
X0205654Y0132227D01*
X0206154Y0133826D02*
X0225492Y0133826D01*
X0227090Y0135424D02*
X0206035Y0135424D01*
X0205229Y0137023D02*
X0228689Y0137023D01*
X0230287Y0138621D02*
X0203181Y0138621D01*
X0205887Y0140220D02*
X0231886Y0140220D01*
X0233484Y0141818D02*
X0207023Y0141818D01*
X0207575Y0143417D02*
X0235083Y0143417D01*
X0235497Y0145015D02*
X0207575Y0145015D01*
X0207092Y0146614D02*
X0235497Y0146614D01*
X0235497Y0148212D02*
X0206054Y0148212D01*
X0205478Y0149811D02*
X0235497Y0149811D01*
X0235497Y0151409D02*
X0206853Y0151409D01*
X0207515Y0153008D02*
X0235497Y0153008D01*
X0235497Y0154606D02*
X0207575Y0154606D01*
X0207262Y0156205D02*
X0235497Y0156205D01*
X0235497Y0157803D02*
X0206463Y0157803D01*
X0205065Y0159402D02*
X0235497Y0159402D01*
X0235497Y0161001D02*
X0206667Y0161001D01*
X0207346Y0162599D02*
X0235497Y0162599D01*
X0235497Y0164198D02*
X0207575Y0164198D01*
X0207431Y0165796D02*
X0235497Y0165796D01*
X0235497Y0167395D02*
X0206769Y0167395D01*
X0208231Y0168993D02*
X0235497Y0168993D01*
X0235497Y0170592D02*
X0209248Y0170592D01*
X0209910Y0172190D02*
X0235497Y0172190D01*
X0235497Y0173789D02*
X0210100Y0173789D01*
X0210100Y0175387D02*
X0235497Y0175387D01*
X0235497Y0176986D02*
X0209671Y0176986D01*
X0209009Y0178584D02*
X0235497Y0178584D01*
X0235497Y0180183D02*
X0207655Y0180183D01*
X0211600Y0191372D02*
X0218400Y0191372D01*
X0218400Y0192971D02*
X0211600Y0192971D01*
X0211600Y0194569D02*
X0218400Y0194569D01*
X0218400Y0196168D02*
X0211600Y0196168D01*
X0211600Y0197766D02*
X0218462Y0197766D01*
X0219018Y0199365D02*
X0211131Y0199365D01*
X0210205Y0200963D02*
X0220489Y0200963D01*
X0223000Y0200963D02*
X0223400Y0200963D01*
X0223400Y0199365D02*
X0223000Y0199365D01*
X0223000Y0197766D02*
X0223400Y0197766D01*
X0223400Y0196168D02*
X0223000Y0196168D01*
X0223000Y0194569D02*
X0223400Y0194569D01*
X0227938Y0197766D02*
X0227950Y0197766D01*
X0227950Y0199365D02*
X0227382Y0199365D01*
X0225911Y0200963D02*
X0229483Y0200963D01*
X0229558Y0202562D02*
X0208174Y0202562D01*
X0190264Y0221744D02*
X0190024Y0221744D01*
X0188777Y0223342D02*
X0188162Y0223342D01*
X0176038Y0223342D02*
X0162562Y0223342D01*
X0164120Y0213751D02*
X0174480Y0213751D01*
X0156700Y0207357D02*
X0156300Y0207357D01*
X0156300Y0205759D02*
X0156700Y0205759D01*
X0156700Y0204160D02*
X0156300Y0204160D01*
X0146754Y0192971D02*
X0135721Y0192971D01*
X0135721Y0194569D02*
X0144556Y0194569D01*
X0143961Y0196168D02*
X0135721Y0196168D01*
X0135721Y0197766D02*
X0143961Y0197766D01*
X0143961Y0199365D02*
X0135721Y0199365D01*
X0135721Y0200963D02*
X0143961Y0200963D01*
X0143961Y0202562D02*
X0135721Y0202562D01*
X0135721Y0204160D02*
X0143961Y0204160D01*
X0143961Y0205759D02*
X0135721Y0205759D01*
X0135721Y0207357D02*
X0143961Y0207357D01*
X0143961Y0208956D02*
X0135721Y0208956D01*
X0135721Y0210554D02*
X0143961Y0210554D01*
X0143961Y0212153D02*
X0135721Y0212153D01*
X0135721Y0213751D02*
X0143961Y0213751D01*
X0143961Y0215350D02*
X0135721Y0215350D01*
X0135721Y0216948D02*
X0143961Y0216948D01*
X0143961Y0218547D02*
X0135721Y0218547D01*
X0135721Y0220145D02*
X0143961Y0220145D01*
X0143961Y0221744D02*
X0135721Y0221744D01*
X0135721Y0223342D02*
X0143961Y0223342D01*
X0143961Y0224941D02*
X0135721Y0224941D01*
X0135721Y0226539D02*
X0143961Y0226539D01*
X0143961Y0228138D02*
X0135721Y0228138D01*
X0135721Y0229737D02*
X0143961Y0229737D01*
X0143961Y0231335D02*
X0135721Y0231335D01*
X0135721Y0232934D02*
X0143961Y0232934D01*
X0143961Y0234532D02*
X0135721Y0234532D01*
X0135721Y0236131D02*
X0143961Y0236131D01*
X0143961Y0237729D02*
X0135721Y0237729D01*
X0135721Y0239328D02*
X0143961Y0239328D01*
X0143961Y0240926D02*
X0135721Y0240926D01*
X0135721Y0242525D02*
X0144429Y0242525D01*
X0145828Y0244123D02*
X0135721Y0244123D01*
X0135721Y0245722D02*
X0147427Y0245722D01*
X0147950Y0247320D02*
X0135721Y0247320D01*
X0135721Y0248919D02*
X0147950Y0248919D01*
X0149037Y0250517D02*
X0135721Y0250517D01*
X0135721Y0252116D02*
X0150635Y0252116D01*
X0157965Y0252116D02*
X0160635Y0252116D01*
X0165754Y0253714D02*
X0135721Y0253714D01*
X0135721Y0255313D02*
X0167358Y0255313D01*
X0168995Y0274495D02*
X0169605Y0274495D01*
X0169350Y0276093D02*
X0169250Y0276093D01*
X0169250Y0277692D02*
X0169350Y0277692D01*
X0169790Y0279290D02*
X0168810Y0279290D01*
X0159790Y0279290D02*
X0158810Y0279290D01*
X0159250Y0277692D02*
X0159350Y0277692D01*
X0159350Y0276093D02*
X0159250Y0276093D01*
X0158995Y0274495D02*
X0159605Y0274495D01*
X0178810Y0279290D02*
X0179790Y0279290D01*
X0179350Y0277692D02*
X0179250Y0277692D01*
X0179250Y0276093D02*
X0179350Y0276093D01*
X0179605Y0274495D02*
X0178995Y0274495D01*
X0213933Y0271298D02*
X0229667Y0271298D01*
X0229757Y0271252D02*
X0230476Y0271018D01*
X0231222Y0270900D01*
X0234400Y0270900D01*
X0234400Y0275500D01*
X0226800Y0275500D01*
X0226800Y0275322D01*
X0226918Y0274576D01*
X0227152Y0273857D01*
X0227495Y0273184D01*
X0227939Y0272573D01*
X0228473Y0272039D01*
X0229084Y0271595D01*
X0229757Y0271252D01*
X0227704Y0272896D02*
X0215896Y0272896D01*
X0216655Y0274495D02*
X0226945Y0274495D01*
X0226802Y0276093D02*
X0216798Y0276093D01*
X0216372Y0277692D02*
X0227228Y0277692D01*
X0228402Y0279290D02*
X0215198Y0279290D01*
X0215152Y0263305D02*
X0228448Y0263305D01*
X0234400Y0271298D02*
X0234800Y0271298D01*
X0234800Y0272896D02*
X0234400Y0272896D01*
X0234400Y0274495D02*
X0234800Y0274495D01*
X0234800Y0276093D02*
X0234400Y0276093D01*
X0234400Y0277692D02*
X0234800Y0277692D01*
X0234800Y0279290D02*
X0234400Y0279290D01*
X0239533Y0271298D02*
X0242000Y0271298D01*
X0242000Y0272896D02*
X0241496Y0272896D01*
X0242000Y0263305D02*
X0240752Y0263305D01*
X0229363Y0252116D02*
X0214237Y0252116D01*
X0216582Y0253714D02*
X0227018Y0253714D01*
X0234142Y0188175D02*
X0235497Y0188175D01*
X0235497Y0186577D02*
X0232543Y0186577D01*
X0230945Y0184978D02*
X0235497Y0184978D01*
X0235497Y0183380D02*
X0229346Y0183380D01*
X0227095Y0181781D02*
X0235497Y0181781D01*
X0197666Y0128394D02*
X0201603Y0124457D01*
X0201800Y0124300D01*
X0167329Y0165796D02*
X0147431Y0165796D01*
X0147575Y0164198D02*
X0165731Y0164198D01*
X0164132Y0162599D02*
X0147346Y0162599D01*
X0146667Y0161001D02*
X0162534Y0161001D01*
X0160935Y0159402D02*
X0145065Y0159402D01*
X0144421Y0157803D02*
X0159337Y0157803D01*
X0157738Y0156205D02*
X0145739Y0156205D01*
X0146175Y0154606D02*
X0156140Y0154606D01*
X0154541Y0153008D02*
X0145980Y0153008D01*
X0146175Y0154300D02*
X0141800Y0154300D01*
X0146175Y0154300D01*
X0145096Y0151409D02*
X0152943Y0151409D01*
X0151344Y0149811D02*
X0143586Y0149811D01*
X0146054Y0148212D02*
X0149746Y0148212D01*
X0148147Y0146614D02*
X0147092Y0146614D01*
X0140649Y0150074D02*
X0138529Y0149196D01*
X0136904Y0147571D01*
X0136025Y0145449D01*
X0136025Y0143151D01*
X0136904Y0141029D01*
X0138529Y0139404D01*
X0138781Y0139300D01*
X0138529Y0139196D01*
X0136904Y0137571D01*
X0136025Y0135449D01*
X0136025Y0133151D01*
X0136904Y0131029D01*
X0138529Y0129404D01*
X0138781Y0129300D01*
X0138529Y0129196D01*
X0136904Y0127571D01*
X0136025Y0125449D01*
X0136025Y0123151D01*
X0136904Y0121029D01*
X0138529Y0119404D01*
X0138781Y0119300D01*
X0138529Y0119196D01*
X0136904Y0117571D01*
X0136025Y0115449D01*
X0136025Y0113151D01*
X0136904Y0111029D01*
X0138529Y0109404D01*
X0138781Y0109300D01*
X0138529Y0109196D01*
X0136904Y0107571D01*
X0136079Y0105579D01*
X0135721Y0105937D01*
X0135721Y0168641D01*
X0136871Y0167491D01*
X0136025Y0165449D01*
X0136025Y0163151D01*
X0136904Y0161029D01*
X0138529Y0159404D01*
X0140649Y0158526D01*
X0140121Y0158354D01*
X0139507Y0158042D01*
X0138950Y0157637D01*
X0138463Y0157150D01*
X0138058Y0156593D01*
X0137746Y0155979D01*
X0137533Y0155324D01*
X0137425Y0154644D01*
X0137425Y0154300D01*
X0141800Y0154300D01*
X0141800Y0154300D01*
X0141800Y0154300D01*
X0137425Y0154300D01*
X0137425Y0153956D01*
X0137533Y0153276D01*
X0137746Y0152621D01*
X0138058Y0152007D01*
X0138463Y0151450D01*
X0138950Y0150963D01*
X0139507Y0150558D01*
X0140121Y0150246D01*
X0140649Y0150074D01*
X0140014Y0149811D02*
X0135721Y0149811D01*
X0135721Y0151409D02*
X0138504Y0151409D01*
X0137620Y0153008D02*
X0135721Y0153008D01*
X0135721Y0154606D02*
X0137425Y0154606D01*
X0137861Y0156205D02*
X0135721Y0156205D01*
X0135721Y0157803D02*
X0139179Y0157803D01*
X0138534Y0159402D02*
X0135721Y0159402D01*
X0135721Y0161001D02*
X0136933Y0161001D01*
X0136254Y0162599D02*
X0135721Y0162599D01*
X0135721Y0164198D02*
X0136025Y0164198D01*
X0136169Y0165796D02*
X0135721Y0165796D01*
X0135721Y0167395D02*
X0136831Y0167395D01*
X0146769Y0167395D02*
X0168928Y0167395D01*
X0170526Y0168993D02*
X0148231Y0168993D01*
X0149248Y0170592D02*
X0172125Y0170592D01*
X0173723Y0172190D02*
X0149910Y0172190D01*
X0150100Y0173789D02*
X0175322Y0173789D01*
X0176920Y0175387D02*
X0150100Y0175387D01*
X0149671Y0176986D02*
X0178519Y0176986D01*
X0180118Y0178584D02*
X0149009Y0178584D01*
X0147655Y0180183D02*
X0181716Y0180183D01*
X0183315Y0181781D02*
X0145428Y0181781D01*
X0148555Y0186577D02*
X0135721Y0186577D01*
X0135721Y0188175D02*
X0147711Y0188175D01*
X0147300Y0189774D02*
X0135721Y0189774D01*
X0135721Y0191372D02*
X0147300Y0191372D01*
X0150388Y0184978D02*
X0135721Y0184978D01*
X0135721Y0183380D02*
X0184913Y0183380D01*
X0182100Y0190400D02*
X0181918Y0190402D01*
X0156820Y0190402D01*
X0156500Y0190400D01*
X0162612Y0184978D02*
X0175988Y0184978D01*
X0138172Y0181781D02*
X0135721Y0181781D01*
X0135721Y0180183D02*
X0135945Y0180183D01*
X0135721Y0148212D02*
X0137546Y0148212D01*
X0136508Y0146614D02*
X0135721Y0146614D01*
X0135721Y0145015D02*
X0136025Y0145015D01*
X0136025Y0143417D02*
X0135721Y0143417D01*
X0135721Y0141818D02*
X0136577Y0141818D01*
X0135721Y0140220D02*
X0137713Y0140220D01*
X0137955Y0138621D02*
X0135721Y0138621D01*
X0135721Y0137023D02*
X0136677Y0137023D01*
X0136025Y0135424D02*
X0135721Y0135424D01*
X0135721Y0133826D02*
X0136025Y0133826D01*
X0135721Y0132227D02*
X0136408Y0132227D01*
X0135721Y0130629D02*
X0137304Y0130629D01*
X0138363Y0129030D02*
X0135721Y0129030D01*
X0135721Y0127432D02*
X0136847Y0127432D01*
X0136185Y0125833D02*
X0135721Y0125833D01*
X0135721Y0124235D02*
X0136025Y0124235D01*
X0136239Y0122636D02*
X0135721Y0122636D01*
X0135721Y0121038D02*
X0136901Y0121038D01*
X0135721Y0119439D02*
X0138494Y0119439D01*
X0137174Y0117841D02*
X0135721Y0117841D01*
X0135721Y0116242D02*
X0136354Y0116242D01*
X0136025Y0114644D02*
X0135721Y0114644D01*
X0135721Y0113045D02*
X0136069Y0113045D01*
X0135721Y0111447D02*
X0136731Y0111447D01*
X0135721Y0109848D02*
X0138085Y0109848D01*
X0137583Y0108250D02*
X0135721Y0108250D01*
X0135721Y0106651D02*
X0136523Y0106651D01*
X0042000Y0229100D02*
X0006600Y0229100D01*
X0006600Y0237031D01*
X0009116Y0237031D01*
X0009116Y0241616D01*
X0009484Y0241616D01*
X0009484Y0237031D01*
X0012505Y0237031D01*
X0012963Y0237154D01*
X0013374Y0237391D01*
X0013709Y0237726D01*
X0013946Y0238137D01*
X0014068Y0238595D01*
X0014068Y0241616D01*
X0009484Y0241616D01*
X0009484Y0241984D01*
X0014068Y0241984D01*
X0014068Y0245005D01*
X0013946Y0245463D01*
X0013709Y0245874D01*
X0013374Y0246209D01*
X0012963Y0246446D01*
X0012678Y0246522D01*
X0012794Y0246571D01*
X0014529Y0248306D01*
X0015468Y0250573D01*
X0015468Y0253027D01*
X0014529Y0255294D01*
X0013024Y0256800D01*
X0013984Y0257761D01*
X0019350Y0257761D01*
X0019350Y0256900D01*
X0024200Y0256900D01*
X0024200Y0256700D01*
X0024400Y0256700D01*
X0024400Y0256900D01*
X0029250Y0256900D01*
X0029250Y0257761D01*
X0118033Y0257761D01*
X0118441Y0257352D01*
X0120352Y0256561D01*
X0122421Y0256561D01*
X0124332Y0257352D01*
X0125795Y0258815D01*
X0126587Y0260726D01*
X0126587Y0262795D01*
X0125795Y0264706D01*
X0124332Y0266169D01*
X0122421Y0266961D01*
X0120352Y0266961D01*
X0118441Y0266169D01*
X0118033Y0265761D01*
X0029250Y0265761D01*
X0029250Y0266700D01*
X0024400Y0266700D01*
X0024400Y0266900D01*
X0029250Y0266900D01*
X0029250Y0267603D01*
X0127721Y0267603D01*
X0127721Y0254100D01*
X0045845Y0254100D01*
X0044081Y0253369D01*
X0042731Y0252019D01*
X0042000Y0250255D01*
X0042000Y0229100D01*
X0042000Y0229737D02*
X0006600Y0229737D01*
X0006600Y0231335D02*
X0042000Y0231335D01*
X0042000Y0232934D02*
X0027434Y0232934D01*
X0026350Y0231850D02*
X0029250Y0234750D01*
X0029250Y0236700D01*
X0024400Y0236700D01*
X0024400Y0236900D01*
X0029250Y0236900D01*
X0029250Y0238850D01*
X0026350Y0241750D01*
X0024400Y0241750D01*
X0024400Y0236900D01*
X0024200Y0236900D01*
X0024200Y0241750D01*
X0022250Y0241750D01*
X0019350Y0238850D01*
X0019350Y0236900D01*
X0024200Y0236900D01*
X0024200Y0236700D01*
X0024400Y0236700D01*
X0024400Y0231850D01*
X0026350Y0231850D01*
X0024200Y0231850D02*
X0024200Y0236700D01*
X0019350Y0236700D01*
X0019350Y0234750D01*
X0022250Y0231850D01*
X0024200Y0231850D01*
X0024200Y0232934D02*
X0024400Y0232934D01*
X0024400Y0234532D02*
X0024200Y0234532D01*
X0024200Y0236131D02*
X0024400Y0236131D01*
X0024400Y0237729D02*
X0024200Y0237729D01*
X0024200Y0239328D02*
X0024400Y0239328D01*
X0024400Y0240926D02*
X0024200Y0240926D01*
X0024200Y0241850D02*
X0024200Y0246700D01*
X0024400Y0246700D01*
X0024400Y0246900D01*
X0029250Y0246900D01*
X0029250Y0248850D01*
X0026350Y0251750D01*
X0024400Y0251750D01*
X0024400Y0246900D01*
X0024200Y0246900D01*
X0024200Y0251750D01*
X0022250Y0251750D01*
X0019350Y0248850D01*
X0019350Y0246900D01*
X0024200Y0246900D01*
X0024200Y0246700D01*
X0019350Y0246700D01*
X0019350Y0244750D01*
X0022250Y0241850D01*
X0024200Y0241850D01*
X0024400Y0241850D02*
X0026350Y0241850D01*
X0029250Y0244750D01*
X0029250Y0246700D01*
X0024400Y0246700D01*
X0024400Y0241850D01*
X0024400Y0242525D02*
X0024200Y0242525D01*
X0024200Y0244123D02*
X0024400Y0244123D01*
X0024400Y0245722D02*
X0024200Y0245722D01*
X0024200Y0247320D02*
X0024400Y0247320D01*
X0024400Y0248919D02*
X0024200Y0248919D01*
X0024200Y0250517D02*
X0024400Y0250517D01*
X0024400Y0251850D02*
X0026350Y0251850D01*
X0029250Y0254750D01*
X0029250Y0256700D01*
X0024400Y0256700D01*
X0024400Y0251850D01*
X0024200Y0251850D02*
X0024200Y0256700D01*
X0019350Y0256700D01*
X0019350Y0254750D01*
X0022250Y0251850D01*
X0024200Y0251850D01*
X0024200Y0252116D02*
X0024400Y0252116D01*
X0024400Y0253714D02*
X0024200Y0253714D01*
X0024200Y0255313D02*
X0024400Y0255313D01*
X0026616Y0252116D02*
X0042827Y0252116D01*
X0042109Y0250517D02*
X0027583Y0250517D01*
X0029182Y0248919D02*
X0042000Y0248919D01*
X0042000Y0247320D02*
X0029250Y0247320D01*
X0029250Y0245722D02*
X0042000Y0245722D01*
X0042000Y0244123D02*
X0028623Y0244123D01*
X0027025Y0242525D02*
X0042000Y0242525D01*
X0042000Y0240926D02*
X0027174Y0240926D01*
X0028773Y0239328D02*
X0042000Y0239328D01*
X0042000Y0237729D02*
X0029250Y0237729D01*
X0029250Y0236131D02*
X0042000Y0236131D01*
X0042000Y0234532D02*
X0029032Y0234532D01*
X0021166Y0232934D02*
X0006600Y0232934D01*
X0006600Y0234532D02*
X0019568Y0234532D01*
X0019350Y0236131D02*
X0006600Y0236131D01*
X0009116Y0237729D02*
X0009484Y0237729D01*
X0009484Y0239328D02*
X0009116Y0239328D01*
X0009116Y0240926D02*
X0009484Y0240926D01*
X0014068Y0240926D02*
X0021426Y0240926D01*
X0021575Y0242525D02*
X0014068Y0242525D01*
X0014068Y0244123D02*
X0019977Y0244123D01*
X0019350Y0245722D02*
X0013797Y0245722D01*
X0013544Y0247320D02*
X0019350Y0247320D01*
X0019418Y0248919D02*
X0014783Y0248919D01*
X0015445Y0250517D02*
X0021017Y0250517D01*
X0021984Y0252116D02*
X0015468Y0252116D01*
X0015184Y0253714D02*
X0020385Y0253714D01*
X0019350Y0255313D02*
X0014511Y0255313D01*
X0013135Y0256911D02*
X0019350Y0256911D01*
X0019350Y0265761D02*
X0014063Y0265761D01*
X0013024Y0266800D01*
X0013827Y0267603D01*
X0019350Y0267603D01*
X0019350Y0266900D01*
X0024200Y0266900D01*
X0024200Y0266700D01*
X0019350Y0266700D01*
X0019350Y0265761D01*
X0019350Y0266502D02*
X0013321Y0266502D01*
X0009674Y0261761D02*
X0009300Y0261800D01*
X0009674Y0261761D02*
X0121387Y0261761D01*
X0126587Y0261707D02*
X0127721Y0261707D01*
X0127721Y0263305D02*
X0126375Y0263305D01*
X0125597Y0264904D02*
X0127721Y0264904D01*
X0127721Y0266502D02*
X0123528Y0266502D01*
X0119246Y0266502D02*
X0029250Y0266502D01*
X0029250Y0256911D02*
X0119506Y0256911D01*
X0123267Y0256911D02*
X0127721Y0256911D01*
X0127721Y0255313D02*
X0029250Y0255313D01*
X0028215Y0253714D02*
X0044914Y0253714D01*
X0019827Y0239328D02*
X0014068Y0239328D01*
X0013710Y0237729D02*
X0019350Y0237729D01*
X0125490Y0258510D02*
X0127721Y0258510D01*
X0127721Y0260108D02*
X0126331Y0260108D01*
D19*
X0121387Y0261761D03*
X0179950Y0128394D03*
M02*
