%
M48
M72
T01C0.02400
T02C0.03150
T03C0.03600
T04C0.03937
T05C0.04000
T06C0.07000
%
T01
X121387Y261761
X179950Y128394
T02
X141800Y24300
X141800Y34300
X141800Y44300
X141800Y54300
X141800Y64300
X141800Y74300
X141800Y84300
X141800Y94300
X141800Y104300
X141800Y114300
X141800Y124300
X141800Y134300
X141800Y144300
X141800Y154300
X141800Y164300
X201800Y164300
X201800Y154300
X201800Y144300
X201800Y134300
X201800Y124300
X201800Y114300
X201800Y104300
X201800Y94300
X201800Y84300
X201800Y74300
X201800Y64300
X201800Y54300
X201800Y44300
X201800Y34300
X201800Y24300
T03
X194300Y196800
X194300Y206800
X194300Y216800
X194300Y226800
X194300Y236800
X194300Y246800
X184300Y246800
X174300Y246800
X164300Y246800
X154300Y246800
X154300Y276800
X164300Y276800
X174300Y276800
X184300Y276800
X194300Y276800
X234300Y236800
X234300Y226800
X234300Y216800
X234300Y206800
X234300Y196800
X24300Y236800
X24300Y246800
X24300Y256800
X24300Y266800
X24300Y276800
T04
X9300Y241800
X9300Y251800
X9300Y261800
X9300Y271800
T05
X156500Y235700
X156500Y217900
X156500Y208200
X156500Y190400
X182100Y190400
X182100Y208200
X182100Y217900
X182100Y235700
X205400Y219600
X223200Y219600
X223200Y194000
X205400Y194000
X209000Y257900
X209000Y275700
X234600Y275700
X234600Y257900
T06
X141800Y14300
X201800Y14300
X201800Y174300
X141800Y174300
M30
