%
M48
M72
T01C0.02400
T02C0.03200
T03C0.04331
T04C0.19685
%
T01
X136495Y86733
X140095Y105933
X158695Y119133
X162295Y110133
X162295Y90333
X172495Y138333
X166495Y149733
X165295Y173133
X161695Y182133
X187495Y189333
X225295Y218133
X232495Y182133
X236195Y168333
X233095Y142533
X242795Y123933
X248695Y114333
X205495Y111333
X132295Y209733
X127495Y209133
X134095Y237933
X137695Y246933
X130595Y248733
X147295Y250533
X137195Y275733
X108295Y249933
X110695Y241533
X137195Y325533
X135995Y355533
X165895Y329133
X191095Y313533
X202495Y346533
X188695Y240333
X115595Y138933
X122195Y132333
T02
X127595Y153933
X137595Y153933
X260095Y283933
X260095Y293933
X260095Y303933
X260095Y313933
X260095Y323933
X260095Y333933
X250095Y333933
X240095Y333933
X230095Y333933
X220095Y333933
X220095Y363933
X230095Y363933
X240095Y363933
X250095Y363933
X260095Y363933
X300095Y323933
X300095Y313933
X300095Y303933
X300095Y293933
X300095Y283933
T03
X120095Y173933
X120095Y183933
X120095Y193933
X120095Y203933
X120095Y213933
X120095Y223933
X120095Y233933
X120095Y243933
X120095Y253933
X120095Y263933
X120095Y273933
X120095Y283933
X120095Y293933
X120095Y303933
X120095Y313933
X120095Y323933
X180095Y323933
X180095Y313933
X180095Y303933
X180095Y293933
X180095Y283933
X180095Y273933
X180095Y263933
X180095Y253933
X180095Y243933
X180095Y233933
X180095Y223933
X180095Y213933
X180095Y203933
X180095Y193933
X180095Y183933
X180095Y173933
T04
X84780Y132358
X295331Y132358
M30
