G75*
%MOIN*%
%OFA0B0*%
%FSLAX25Y25*%
%IPPOS*%
%LPD*%
%AMOC8*
5,1,8,0,0,1.08239X$1,22.5*
%
%ADD10C,0.00000*%
%ADD11C,0.20485*%
%ADD12R,0.05800X0.05800*%
%ADD13C,0.02207*%
%ADD14C,0.07296*%
%ADD15OC8,0.06000*%
%ADD16C,0.07800*%
%ADD17R,0.05950X0.05950*%
%ADD18C,0.05950*%
%ADD19R,0.06737X0.06737*%
%ADD20C,0.06737*%
%ADD21C,0.06800*%
%ADD22C,0.04800*%
D10*
X0067595Y0047713D02*
X0067595Y0372634D01*
X0312516Y0372634D01*
X0312516Y0047713D01*
X0312517Y0047713D02*
X0312543Y0047410D01*
X0312563Y0047106D01*
X0312574Y0046802D01*
X0312579Y0046498D01*
X0312576Y0046194D01*
X0312566Y0045889D01*
X0312548Y0045586D01*
X0312524Y0045282D01*
X0312491Y0044980D01*
X0312452Y0044678D01*
X0312405Y0044377D01*
X0312351Y0044078D01*
X0312290Y0043780D01*
X0312221Y0043483D01*
X0312146Y0043189D01*
X0312063Y0042896D01*
X0311973Y0042605D01*
X0311877Y0042317D01*
X0311773Y0042030D01*
X0311663Y0041747D01*
X0311545Y0041466D01*
X0311421Y0041188D01*
X0311290Y0040914D01*
X0311153Y0040642D01*
X0311009Y0040374D01*
X0310859Y0040109D01*
X0310702Y0039849D01*
X0310539Y0039592D01*
X0310370Y0039339D01*
X0310195Y0039090D01*
X0310013Y0038845D01*
X0309826Y0038605D01*
X0309634Y0038370D01*
X0309435Y0038139D01*
X0309231Y0037913D01*
X0309022Y0037692D01*
X0308808Y0037477D01*
X0308588Y0037266D01*
X0308363Y0037061D01*
X0308133Y0036861D01*
X0307899Y0036667D01*
X0307660Y0036479D01*
X0307417Y0036296D01*
X0307169Y0036120D01*
X0306917Y0035949D01*
X0306661Y0035785D01*
X0306401Y0035627D01*
X0306137Y0035475D01*
X0305870Y0035330D01*
X0305599Y0035191D01*
X0305325Y0035058D01*
X0305048Y0034933D01*
X0304768Y0034814D01*
X0304485Y0034702D01*
X0304199Y0034596D01*
X0303911Y0034498D01*
X0303621Y0034407D01*
X0303329Y0034322D01*
X0303034Y0034245D01*
X0302738Y0034175D01*
X0302440Y0034112D01*
X0302141Y0034057D01*
X0301841Y0034008D01*
X0301539Y0033967D01*
X0301237Y0033933D01*
X0078875Y0033933D01*
X0078568Y0033968D01*
X0078262Y0034010D01*
X0077957Y0034059D01*
X0077653Y0034116D01*
X0077351Y0034180D01*
X0077050Y0034252D01*
X0076751Y0034331D01*
X0076455Y0034418D01*
X0076160Y0034512D01*
X0075868Y0034612D01*
X0075578Y0034720D01*
X0075292Y0034836D01*
X0075008Y0034958D01*
X0074727Y0035087D01*
X0074449Y0035223D01*
X0074175Y0035365D01*
X0073905Y0035515D01*
X0073638Y0035671D01*
X0073375Y0035833D01*
X0073116Y0036002D01*
X0072861Y0036177D01*
X0072611Y0036358D01*
X0072365Y0036546D01*
X0072124Y0036739D01*
X0071888Y0036939D01*
X0071657Y0037144D01*
X0071431Y0037354D01*
X0071210Y0037570D01*
X0070994Y0037792D01*
X0070784Y0038018D01*
X0070580Y0038250D01*
X0070381Y0038487D01*
X0070188Y0038729D01*
X0070002Y0038975D01*
X0069821Y0039225D01*
X0069646Y0039480D01*
X0069478Y0039740D01*
X0069316Y0040003D01*
X0069161Y0040270D01*
X0069012Y0040541D01*
X0068870Y0040816D01*
X0068735Y0041094D01*
X0068607Y0041375D01*
X0068485Y0041659D01*
X0068371Y0041946D01*
X0068264Y0042236D01*
X0068164Y0042528D01*
X0068071Y0042823D01*
X0067985Y0043120D01*
X0067907Y0043419D01*
X0067835Y0043720D01*
X0067772Y0044022D01*
X0067716Y0044326D01*
X0067667Y0044631D01*
X0067626Y0044937D01*
X0067592Y0045245D01*
X0067566Y0045553D01*
X0067547Y0045861D01*
X0067536Y0046170D01*
X0067533Y0046479D01*
X0067537Y0046788D01*
X0067549Y0047097D01*
X0067568Y0047405D01*
X0067595Y0047713D01*
X0074937Y0132358D02*
X0074940Y0132600D01*
X0074949Y0132841D01*
X0074964Y0133082D01*
X0074984Y0133323D01*
X0075011Y0133563D01*
X0075044Y0133802D01*
X0075082Y0134041D01*
X0075126Y0134278D01*
X0075176Y0134515D01*
X0075232Y0134750D01*
X0075294Y0134983D01*
X0075361Y0135215D01*
X0075434Y0135446D01*
X0075512Y0135674D01*
X0075597Y0135900D01*
X0075686Y0136125D01*
X0075781Y0136347D01*
X0075882Y0136566D01*
X0075988Y0136784D01*
X0076099Y0136998D01*
X0076216Y0137210D01*
X0076337Y0137418D01*
X0076464Y0137624D01*
X0076596Y0137826D01*
X0076733Y0138026D01*
X0076874Y0138221D01*
X0077020Y0138414D01*
X0077171Y0138602D01*
X0077327Y0138787D01*
X0077487Y0138968D01*
X0077651Y0139145D01*
X0077820Y0139318D01*
X0077993Y0139487D01*
X0078170Y0139651D01*
X0078351Y0139811D01*
X0078536Y0139967D01*
X0078724Y0140118D01*
X0078917Y0140264D01*
X0079112Y0140405D01*
X0079312Y0140542D01*
X0079514Y0140674D01*
X0079720Y0140801D01*
X0079928Y0140922D01*
X0080140Y0141039D01*
X0080354Y0141150D01*
X0080572Y0141256D01*
X0080791Y0141357D01*
X0081013Y0141452D01*
X0081238Y0141541D01*
X0081464Y0141626D01*
X0081692Y0141704D01*
X0081923Y0141777D01*
X0082155Y0141844D01*
X0082388Y0141906D01*
X0082623Y0141962D01*
X0082860Y0142012D01*
X0083097Y0142056D01*
X0083336Y0142094D01*
X0083575Y0142127D01*
X0083815Y0142154D01*
X0084056Y0142174D01*
X0084297Y0142189D01*
X0084538Y0142198D01*
X0084780Y0142201D01*
X0085022Y0142198D01*
X0085263Y0142189D01*
X0085504Y0142174D01*
X0085745Y0142154D01*
X0085985Y0142127D01*
X0086224Y0142094D01*
X0086463Y0142056D01*
X0086700Y0142012D01*
X0086937Y0141962D01*
X0087172Y0141906D01*
X0087405Y0141844D01*
X0087637Y0141777D01*
X0087868Y0141704D01*
X0088096Y0141626D01*
X0088322Y0141541D01*
X0088547Y0141452D01*
X0088769Y0141357D01*
X0088988Y0141256D01*
X0089206Y0141150D01*
X0089420Y0141039D01*
X0089632Y0140922D01*
X0089840Y0140801D01*
X0090046Y0140674D01*
X0090248Y0140542D01*
X0090448Y0140405D01*
X0090643Y0140264D01*
X0090836Y0140118D01*
X0091024Y0139967D01*
X0091209Y0139811D01*
X0091390Y0139651D01*
X0091567Y0139487D01*
X0091740Y0139318D01*
X0091909Y0139145D01*
X0092073Y0138968D01*
X0092233Y0138787D01*
X0092389Y0138602D01*
X0092540Y0138414D01*
X0092686Y0138221D01*
X0092827Y0138026D01*
X0092964Y0137826D01*
X0093096Y0137624D01*
X0093223Y0137418D01*
X0093344Y0137210D01*
X0093461Y0136998D01*
X0093572Y0136784D01*
X0093678Y0136566D01*
X0093779Y0136347D01*
X0093874Y0136125D01*
X0093963Y0135900D01*
X0094048Y0135674D01*
X0094126Y0135446D01*
X0094199Y0135215D01*
X0094266Y0134983D01*
X0094328Y0134750D01*
X0094384Y0134515D01*
X0094434Y0134278D01*
X0094478Y0134041D01*
X0094516Y0133802D01*
X0094549Y0133563D01*
X0094576Y0133323D01*
X0094596Y0133082D01*
X0094611Y0132841D01*
X0094620Y0132600D01*
X0094623Y0132358D01*
X0094620Y0132116D01*
X0094611Y0131875D01*
X0094596Y0131634D01*
X0094576Y0131393D01*
X0094549Y0131153D01*
X0094516Y0130914D01*
X0094478Y0130675D01*
X0094434Y0130438D01*
X0094384Y0130201D01*
X0094328Y0129966D01*
X0094266Y0129733D01*
X0094199Y0129501D01*
X0094126Y0129270D01*
X0094048Y0129042D01*
X0093963Y0128816D01*
X0093874Y0128591D01*
X0093779Y0128369D01*
X0093678Y0128150D01*
X0093572Y0127932D01*
X0093461Y0127718D01*
X0093344Y0127506D01*
X0093223Y0127298D01*
X0093096Y0127092D01*
X0092964Y0126890D01*
X0092827Y0126690D01*
X0092686Y0126495D01*
X0092540Y0126302D01*
X0092389Y0126114D01*
X0092233Y0125929D01*
X0092073Y0125748D01*
X0091909Y0125571D01*
X0091740Y0125398D01*
X0091567Y0125229D01*
X0091390Y0125065D01*
X0091209Y0124905D01*
X0091024Y0124749D01*
X0090836Y0124598D01*
X0090643Y0124452D01*
X0090448Y0124311D01*
X0090248Y0124174D01*
X0090046Y0124042D01*
X0089840Y0123915D01*
X0089632Y0123794D01*
X0089420Y0123677D01*
X0089206Y0123566D01*
X0088988Y0123460D01*
X0088769Y0123359D01*
X0088547Y0123264D01*
X0088322Y0123175D01*
X0088096Y0123090D01*
X0087868Y0123012D01*
X0087637Y0122939D01*
X0087405Y0122872D01*
X0087172Y0122810D01*
X0086937Y0122754D01*
X0086700Y0122704D01*
X0086463Y0122660D01*
X0086224Y0122622D01*
X0085985Y0122589D01*
X0085745Y0122562D01*
X0085504Y0122542D01*
X0085263Y0122527D01*
X0085022Y0122518D01*
X0084780Y0122515D01*
X0084538Y0122518D01*
X0084297Y0122527D01*
X0084056Y0122542D01*
X0083815Y0122562D01*
X0083575Y0122589D01*
X0083336Y0122622D01*
X0083097Y0122660D01*
X0082860Y0122704D01*
X0082623Y0122754D01*
X0082388Y0122810D01*
X0082155Y0122872D01*
X0081923Y0122939D01*
X0081692Y0123012D01*
X0081464Y0123090D01*
X0081238Y0123175D01*
X0081013Y0123264D01*
X0080791Y0123359D01*
X0080572Y0123460D01*
X0080354Y0123566D01*
X0080140Y0123677D01*
X0079928Y0123794D01*
X0079720Y0123915D01*
X0079514Y0124042D01*
X0079312Y0124174D01*
X0079112Y0124311D01*
X0078917Y0124452D01*
X0078724Y0124598D01*
X0078536Y0124749D01*
X0078351Y0124905D01*
X0078170Y0125065D01*
X0077993Y0125229D01*
X0077820Y0125398D01*
X0077651Y0125571D01*
X0077487Y0125748D01*
X0077327Y0125929D01*
X0077171Y0126114D01*
X0077020Y0126302D01*
X0076874Y0126495D01*
X0076733Y0126690D01*
X0076596Y0126890D01*
X0076464Y0127092D01*
X0076337Y0127298D01*
X0076216Y0127506D01*
X0076099Y0127718D01*
X0075988Y0127932D01*
X0075882Y0128150D01*
X0075781Y0128369D01*
X0075686Y0128591D01*
X0075597Y0128816D01*
X0075512Y0129042D01*
X0075434Y0129270D01*
X0075361Y0129501D01*
X0075294Y0129733D01*
X0075232Y0129966D01*
X0075176Y0130201D01*
X0075126Y0130438D01*
X0075082Y0130675D01*
X0075044Y0130914D01*
X0075011Y0131153D01*
X0074984Y0131393D01*
X0074964Y0131634D01*
X0074949Y0131875D01*
X0074940Y0132116D01*
X0074937Y0132358D01*
X0204095Y0133933D02*
X0204097Y0134051D01*
X0204103Y0134169D01*
X0204113Y0134287D01*
X0204127Y0134404D01*
X0204145Y0134521D01*
X0204167Y0134638D01*
X0204192Y0134753D01*
X0204222Y0134867D01*
X0204256Y0134981D01*
X0204293Y0135093D01*
X0204334Y0135204D01*
X0204379Y0135313D01*
X0204427Y0135421D01*
X0204479Y0135527D01*
X0204535Y0135632D01*
X0204594Y0135734D01*
X0204656Y0135834D01*
X0204722Y0135932D01*
X0204791Y0136028D01*
X0204864Y0136122D01*
X0204939Y0136213D01*
X0205018Y0136301D01*
X0205099Y0136387D01*
X0205184Y0136470D01*
X0205271Y0136550D01*
X0205360Y0136627D01*
X0205453Y0136701D01*
X0205547Y0136771D01*
X0205644Y0136839D01*
X0205744Y0136903D01*
X0205845Y0136964D01*
X0205948Y0137021D01*
X0206054Y0137075D01*
X0206161Y0137126D01*
X0206269Y0137172D01*
X0206379Y0137215D01*
X0206491Y0137254D01*
X0206604Y0137290D01*
X0206718Y0137321D01*
X0206833Y0137349D01*
X0206948Y0137373D01*
X0207065Y0137393D01*
X0207182Y0137409D01*
X0207300Y0137421D01*
X0207418Y0137429D01*
X0207536Y0137433D01*
X0207654Y0137433D01*
X0207772Y0137429D01*
X0207890Y0137421D01*
X0208008Y0137409D01*
X0208125Y0137393D01*
X0208242Y0137373D01*
X0208357Y0137349D01*
X0208472Y0137321D01*
X0208586Y0137290D01*
X0208699Y0137254D01*
X0208811Y0137215D01*
X0208921Y0137172D01*
X0209029Y0137126D01*
X0209136Y0137075D01*
X0209242Y0137021D01*
X0209345Y0136964D01*
X0209446Y0136903D01*
X0209546Y0136839D01*
X0209643Y0136771D01*
X0209737Y0136701D01*
X0209830Y0136627D01*
X0209919Y0136550D01*
X0210006Y0136470D01*
X0210091Y0136387D01*
X0210172Y0136301D01*
X0210251Y0136213D01*
X0210326Y0136122D01*
X0210399Y0136028D01*
X0210468Y0135932D01*
X0210534Y0135834D01*
X0210596Y0135734D01*
X0210655Y0135632D01*
X0210711Y0135527D01*
X0210763Y0135421D01*
X0210811Y0135313D01*
X0210856Y0135204D01*
X0210897Y0135093D01*
X0210934Y0134981D01*
X0210968Y0134867D01*
X0210998Y0134753D01*
X0211023Y0134638D01*
X0211045Y0134521D01*
X0211063Y0134404D01*
X0211077Y0134287D01*
X0211087Y0134169D01*
X0211093Y0134051D01*
X0211095Y0133933D01*
X0211093Y0133815D01*
X0211087Y0133697D01*
X0211077Y0133579D01*
X0211063Y0133462D01*
X0211045Y0133345D01*
X0211023Y0133228D01*
X0210998Y0133113D01*
X0210968Y0132999D01*
X0210934Y0132885D01*
X0210897Y0132773D01*
X0210856Y0132662D01*
X0210811Y0132553D01*
X0210763Y0132445D01*
X0210711Y0132339D01*
X0210655Y0132234D01*
X0210596Y0132132D01*
X0210534Y0132032D01*
X0210468Y0131934D01*
X0210399Y0131838D01*
X0210326Y0131744D01*
X0210251Y0131653D01*
X0210172Y0131565D01*
X0210091Y0131479D01*
X0210006Y0131396D01*
X0209919Y0131316D01*
X0209830Y0131239D01*
X0209737Y0131165D01*
X0209643Y0131095D01*
X0209546Y0131027D01*
X0209446Y0130963D01*
X0209345Y0130902D01*
X0209242Y0130845D01*
X0209136Y0130791D01*
X0209029Y0130740D01*
X0208921Y0130694D01*
X0208811Y0130651D01*
X0208699Y0130612D01*
X0208586Y0130576D01*
X0208472Y0130545D01*
X0208357Y0130517D01*
X0208242Y0130493D01*
X0208125Y0130473D01*
X0208008Y0130457D01*
X0207890Y0130445D01*
X0207772Y0130437D01*
X0207654Y0130433D01*
X0207536Y0130433D01*
X0207418Y0130437D01*
X0207300Y0130445D01*
X0207182Y0130457D01*
X0207065Y0130473D01*
X0206948Y0130493D01*
X0206833Y0130517D01*
X0206718Y0130545D01*
X0206604Y0130576D01*
X0206491Y0130612D01*
X0206379Y0130651D01*
X0206269Y0130694D01*
X0206161Y0130740D01*
X0206054Y0130791D01*
X0205948Y0130845D01*
X0205845Y0130902D01*
X0205744Y0130963D01*
X0205644Y0131027D01*
X0205547Y0131095D01*
X0205453Y0131165D01*
X0205360Y0131239D01*
X0205271Y0131316D01*
X0205184Y0131396D01*
X0205099Y0131479D01*
X0205018Y0131565D01*
X0204939Y0131653D01*
X0204864Y0131744D01*
X0204791Y0131838D01*
X0204722Y0131934D01*
X0204656Y0132032D01*
X0204594Y0132132D01*
X0204535Y0132234D01*
X0204479Y0132339D01*
X0204427Y0132445D01*
X0204379Y0132553D01*
X0204334Y0132662D01*
X0204293Y0132773D01*
X0204256Y0132885D01*
X0204222Y0132999D01*
X0204192Y0133113D01*
X0204167Y0133228D01*
X0204145Y0133345D01*
X0204127Y0133462D01*
X0204113Y0133579D01*
X0204103Y0133697D01*
X0204097Y0133815D01*
X0204095Y0133933D01*
X0264095Y0133933D02*
X0264097Y0134051D01*
X0264103Y0134169D01*
X0264113Y0134287D01*
X0264127Y0134404D01*
X0264145Y0134521D01*
X0264167Y0134638D01*
X0264192Y0134753D01*
X0264222Y0134867D01*
X0264256Y0134981D01*
X0264293Y0135093D01*
X0264334Y0135204D01*
X0264379Y0135313D01*
X0264427Y0135421D01*
X0264479Y0135527D01*
X0264535Y0135632D01*
X0264594Y0135734D01*
X0264656Y0135834D01*
X0264722Y0135932D01*
X0264791Y0136028D01*
X0264864Y0136122D01*
X0264939Y0136213D01*
X0265018Y0136301D01*
X0265099Y0136387D01*
X0265184Y0136470D01*
X0265271Y0136550D01*
X0265360Y0136627D01*
X0265453Y0136701D01*
X0265547Y0136771D01*
X0265644Y0136839D01*
X0265744Y0136903D01*
X0265845Y0136964D01*
X0265948Y0137021D01*
X0266054Y0137075D01*
X0266161Y0137126D01*
X0266269Y0137172D01*
X0266379Y0137215D01*
X0266491Y0137254D01*
X0266604Y0137290D01*
X0266718Y0137321D01*
X0266833Y0137349D01*
X0266948Y0137373D01*
X0267065Y0137393D01*
X0267182Y0137409D01*
X0267300Y0137421D01*
X0267418Y0137429D01*
X0267536Y0137433D01*
X0267654Y0137433D01*
X0267772Y0137429D01*
X0267890Y0137421D01*
X0268008Y0137409D01*
X0268125Y0137393D01*
X0268242Y0137373D01*
X0268357Y0137349D01*
X0268472Y0137321D01*
X0268586Y0137290D01*
X0268699Y0137254D01*
X0268811Y0137215D01*
X0268921Y0137172D01*
X0269029Y0137126D01*
X0269136Y0137075D01*
X0269242Y0137021D01*
X0269345Y0136964D01*
X0269446Y0136903D01*
X0269546Y0136839D01*
X0269643Y0136771D01*
X0269737Y0136701D01*
X0269830Y0136627D01*
X0269919Y0136550D01*
X0270006Y0136470D01*
X0270091Y0136387D01*
X0270172Y0136301D01*
X0270251Y0136213D01*
X0270326Y0136122D01*
X0270399Y0136028D01*
X0270468Y0135932D01*
X0270534Y0135834D01*
X0270596Y0135734D01*
X0270655Y0135632D01*
X0270711Y0135527D01*
X0270763Y0135421D01*
X0270811Y0135313D01*
X0270856Y0135204D01*
X0270897Y0135093D01*
X0270934Y0134981D01*
X0270968Y0134867D01*
X0270998Y0134753D01*
X0271023Y0134638D01*
X0271045Y0134521D01*
X0271063Y0134404D01*
X0271077Y0134287D01*
X0271087Y0134169D01*
X0271093Y0134051D01*
X0271095Y0133933D01*
X0271093Y0133815D01*
X0271087Y0133697D01*
X0271077Y0133579D01*
X0271063Y0133462D01*
X0271045Y0133345D01*
X0271023Y0133228D01*
X0270998Y0133113D01*
X0270968Y0132999D01*
X0270934Y0132885D01*
X0270897Y0132773D01*
X0270856Y0132662D01*
X0270811Y0132553D01*
X0270763Y0132445D01*
X0270711Y0132339D01*
X0270655Y0132234D01*
X0270596Y0132132D01*
X0270534Y0132032D01*
X0270468Y0131934D01*
X0270399Y0131838D01*
X0270326Y0131744D01*
X0270251Y0131653D01*
X0270172Y0131565D01*
X0270091Y0131479D01*
X0270006Y0131396D01*
X0269919Y0131316D01*
X0269830Y0131239D01*
X0269737Y0131165D01*
X0269643Y0131095D01*
X0269546Y0131027D01*
X0269446Y0130963D01*
X0269345Y0130902D01*
X0269242Y0130845D01*
X0269136Y0130791D01*
X0269029Y0130740D01*
X0268921Y0130694D01*
X0268811Y0130651D01*
X0268699Y0130612D01*
X0268586Y0130576D01*
X0268472Y0130545D01*
X0268357Y0130517D01*
X0268242Y0130493D01*
X0268125Y0130473D01*
X0268008Y0130457D01*
X0267890Y0130445D01*
X0267772Y0130437D01*
X0267654Y0130433D01*
X0267536Y0130433D01*
X0267418Y0130437D01*
X0267300Y0130445D01*
X0267182Y0130457D01*
X0267065Y0130473D01*
X0266948Y0130493D01*
X0266833Y0130517D01*
X0266718Y0130545D01*
X0266604Y0130576D01*
X0266491Y0130612D01*
X0266379Y0130651D01*
X0266269Y0130694D01*
X0266161Y0130740D01*
X0266054Y0130791D01*
X0265948Y0130845D01*
X0265845Y0130902D01*
X0265744Y0130963D01*
X0265644Y0131027D01*
X0265547Y0131095D01*
X0265453Y0131165D01*
X0265360Y0131239D01*
X0265271Y0131316D01*
X0265184Y0131396D01*
X0265099Y0131479D01*
X0265018Y0131565D01*
X0264939Y0131653D01*
X0264864Y0131744D01*
X0264791Y0131838D01*
X0264722Y0131934D01*
X0264656Y0132032D01*
X0264594Y0132132D01*
X0264535Y0132234D01*
X0264479Y0132339D01*
X0264427Y0132445D01*
X0264379Y0132553D01*
X0264334Y0132662D01*
X0264293Y0132773D01*
X0264256Y0132885D01*
X0264222Y0132999D01*
X0264192Y0133113D01*
X0264167Y0133228D01*
X0264145Y0133345D01*
X0264127Y0133462D01*
X0264113Y0133579D01*
X0264103Y0133697D01*
X0264097Y0133815D01*
X0264095Y0133933D01*
X0285488Y0132358D02*
X0285491Y0132600D01*
X0285500Y0132841D01*
X0285515Y0133082D01*
X0285535Y0133323D01*
X0285562Y0133563D01*
X0285595Y0133802D01*
X0285633Y0134041D01*
X0285677Y0134278D01*
X0285727Y0134515D01*
X0285783Y0134750D01*
X0285845Y0134983D01*
X0285912Y0135215D01*
X0285985Y0135446D01*
X0286063Y0135674D01*
X0286148Y0135900D01*
X0286237Y0136125D01*
X0286332Y0136347D01*
X0286433Y0136566D01*
X0286539Y0136784D01*
X0286650Y0136998D01*
X0286767Y0137210D01*
X0286888Y0137418D01*
X0287015Y0137624D01*
X0287147Y0137826D01*
X0287284Y0138026D01*
X0287425Y0138221D01*
X0287571Y0138414D01*
X0287722Y0138602D01*
X0287878Y0138787D01*
X0288038Y0138968D01*
X0288202Y0139145D01*
X0288371Y0139318D01*
X0288544Y0139487D01*
X0288721Y0139651D01*
X0288902Y0139811D01*
X0289087Y0139967D01*
X0289275Y0140118D01*
X0289468Y0140264D01*
X0289663Y0140405D01*
X0289863Y0140542D01*
X0290065Y0140674D01*
X0290271Y0140801D01*
X0290479Y0140922D01*
X0290691Y0141039D01*
X0290905Y0141150D01*
X0291123Y0141256D01*
X0291342Y0141357D01*
X0291564Y0141452D01*
X0291789Y0141541D01*
X0292015Y0141626D01*
X0292243Y0141704D01*
X0292474Y0141777D01*
X0292706Y0141844D01*
X0292939Y0141906D01*
X0293174Y0141962D01*
X0293411Y0142012D01*
X0293648Y0142056D01*
X0293887Y0142094D01*
X0294126Y0142127D01*
X0294366Y0142154D01*
X0294607Y0142174D01*
X0294848Y0142189D01*
X0295089Y0142198D01*
X0295331Y0142201D01*
X0295573Y0142198D01*
X0295814Y0142189D01*
X0296055Y0142174D01*
X0296296Y0142154D01*
X0296536Y0142127D01*
X0296775Y0142094D01*
X0297014Y0142056D01*
X0297251Y0142012D01*
X0297488Y0141962D01*
X0297723Y0141906D01*
X0297956Y0141844D01*
X0298188Y0141777D01*
X0298419Y0141704D01*
X0298647Y0141626D01*
X0298873Y0141541D01*
X0299098Y0141452D01*
X0299320Y0141357D01*
X0299539Y0141256D01*
X0299757Y0141150D01*
X0299971Y0141039D01*
X0300183Y0140922D01*
X0300391Y0140801D01*
X0300597Y0140674D01*
X0300799Y0140542D01*
X0300999Y0140405D01*
X0301194Y0140264D01*
X0301387Y0140118D01*
X0301575Y0139967D01*
X0301760Y0139811D01*
X0301941Y0139651D01*
X0302118Y0139487D01*
X0302291Y0139318D01*
X0302460Y0139145D01*
X0302624Y0138968D01*
X0302784Y0138787D01*
X0302940Y0138602D01*
X0303091Y0138414D01*
X0303237Y0138221D01*
X0303378Y0138026D01*
X0303515Y0137826D01*
X0303647Y0137624D01*
X0303774Y0137418D01*
X0303895Y0137210D01*
X0304012Y0136998D01*
X0304123Y0136784D01*
X0304229Y0136566D01*
X0304330Y0136347D01*
X0304425Y0136125D01*
X0304514Y0135900D01*
X0304599Y0135674D01*
X0304677Y0135446D01*
X0304750Y0135215D01*
X0304817Y0134983D01*
X0304879Y0134750D01*
X0304935Y0134515D01*
X0304985Y0134278D01*
X0305029Y0134041D01*
X0305067Y0133802D01*
X0305100Y0133563D01*
X0305127Y0133323D01*
X0305147Y0133082D01*
X0305162Y0132841D01*
X0305171Y0132600D01*
X0305174Y0132358D01*
X0305171Y0132116D01*
X0305162Y0131875D01*
X0305147Y0131634D01*
X0305127Y0131393D01*
X0305100Y0131153D01*
X0305067Y0130914D01*
X0305029Y0130675D01*
X0304985Y0130438D01*
X0304935Y0130201D01*
X0304879Y0129966D01*
X0304817Y0129733D01*
X0304750Y0129501D01*
X0304677Y0129270D01*
X0304599Y0129042D01*
X0304514Y0128816D01*
X0304425Y0128591D01*
X0304330Y0128369D01*
X0304229Y0128150D01*
X0304123Y0127932D01*
X0304012Y0127718D01*
X0303895Y0127506D01*
X0303774Y0127298D01*
X0303647Y0127092D01*
X0303515Y0126890D01*
X0303378Y0126690D01*
X0303237Y0126495D01*
X0303091Y0126302D01*
X0302940Y0126114D01*
X0302784Y0125929D01*
X0302624Y0125748D01*
X0302460Y0125571D01*
X0302291Y0125398D01*
X0302118Y0125229D01*
X0301941Y0125065D01*
X0301760Y0124905D01*
X0301575Y0124749D01*
X0301387Y0124598D01*
X0301194Y0124452D01*
X0300999Y0124311D01*
X0300799Y0124174D01*
X0300597Y0124042D01*
X0300391Y0123915D01*
X0300183Y0123794D01*
X0299971Y0123677D01*
X0299757Y0123566D01*
X0299539Y0123460D01*
X0299320Y0123359D01*
X0299098Y0123264D01*
X0298873Y0123175D01*
X0298647Y0123090D01*
X0298419Y0123012D01*
X0298188Y0122939D01*
X0297956Y0122872D01*
X0297723Y0122810D01*
X0297488Y0122754D01*
X0297251Y0122704D01*
X0297014Y0122660D01*
X0296775Y0122622D01*
X0296536Y0122589D01*
X0296296Y0122562D01*
X0296055Y0122542D01*
X0295814Y0122527D01*
X0295573Y0122518D01*
X0295331Y0122515D01*
X0295089Y0122518D01*
X0294848Y0122527D01*
X0294607Y0122542D01*
X0294366Y0122562D01*
X0294126Y0122589D01*
X0293887Y0122622D01*
X0293648Y0122660D01*
X0293411Y0122704D01*
X0293174Y0122754D01*
X0292939Y0122810D01*
X0292706Y0122872D01*
X0292474Y0122939D01*
X0292243Y0123012D01*
X0292015Y0123090D01*
X0291789Y0123175D01*
X0291564Y0123264D01*
X0291342Y0123359D01*
X0291123Y0123460D01*
X0290905Y0123566D01*
X0290691Y0123677D01*
X0290479Y0123794D01*
X0290271Y0123915D01*
X0290065Y0124042D01*
X0289863Y0124174D01*
X0289663Y0124311D01*
X0289468Y0124452D01*
X0289275Y0124598D01*
X0289087Y0124749D01*
X0288902Y0124905D01*
X0288721Y0125065D01*
X0288544Y0125229D01*
X0288371Y0125398D01*
X0288202Y0125571D01*
X0288038Y0125748D01*
X0287878Y0125929D01*
X0287722Y0126114D01*
X0287571Y0126302D01*
X0287425Y0126495D01*
X0287284Y0126690D01*
X0287147Y0126890D01*
X0287015Y0127092D01*
X0286888Y0127298D01*
X0286767Y0127506D01*
X0286650Y0127718D01*
X0286539Y0127932D01*
X0286433Y0128150D01*
X0286332Y0128369D01*
X0286237Y0128591D01*
X0286148Y0128816D01*
X0286063Y0129042D01*
X0285985Y0129270D01*
X0285912Y0129501D01*
X0285845Y0129733D01*
X0285783Y0129966D01*
X0285727Y0130201D01*
X0285677Y0130438D01*
X0285633Y0130675D01*
X0285595Y0130914D01*
X0285562Y0131153D01*
X0285535Y0131393D01*
X0285515Y0131634D01*
X0285500Y0131875D01*
X0285491Y0132116D01*
X0285488Y0132358D01*
X0264095Y0293933D02*
X0264097Y0294051D01*
X0264103Y0294169D01*
X0264113Y0294287D01*
X0264127Y0294404D01*
X0264145Y0294521D01*
X0264167Y0294638D01*
X0264192Y0294753D01*
X0264222Y0294867D01*
X0264256Y0294981D01*
X0264293Y0295093D01*
X0264334Y0295204D01*
X0264379Y0295313D01*
X0264427Y0295421D01*
X0264479Y0295527D01*
X0264535Y0295632D01*
X0264594Y0295734D01*
X0264656Y0295834D01*
X0264722Y0295932D01*
X0264791Y0296028D01*
X0264864Y0296122D01*
X0264939Y0296213D01*
X0265018Y0296301D01*
X0265099Y0296387D01*
X0265184Y0296470D01*
X0265271Y0296550D01*
X0265360Y0296627D01*
X0265453Y0296701D01*
X0265547Y0296771D01*
X0265644Y0296839D01*
X0265744Y0296903D01*
X0265845Y0296964D01*
X0265948Y0297021D01*
X0266054Y0297075D01*
X0266161Y0297126D01*
X0266269Y0297172D01*
X0266379Y0297215D01*
X0266491Y0297254D01*
X0266604Y0297290D01*
X0266718Y0297321D01*
X0266833Y0297349D01*
X0266948Y0297373D01*
X0267065Y0297393D01*
X0267182Y0297409D01*
X0267300Y0297421D01*
X0267418Y0297429D01*
X0267536Y0297433D01*
X0267654Y0297433D01*
X0267772Y0297429D01*
X0267890Y0297421D01*
X0268008Y0297409D01*
X0268125Y0297393D01*
X0268242Y0297373D01*
X0268357Y0297349D01*
X0268472Y0297321D01*
X0268586Y0297290D01*
X0268699Y0297254D01*
X0268811Y0297215D01*
X0268921Y0297172D01*
X0269029Y0297126D01*
X0269136Y0297075D01*
X0269242Y0297021D01*
X0269345Y0296964D01*
X0269446Y0296903D01*
X0269546Y0296839D01*
X0269643Y0296771D01*
X0269737Y0296701D01*
X0269830Y0296627D01*
X0269919Y0296550D01*
X0270006Y0296470D01*
X0270091Y0296387D01*
X0270172Y0296301D01*
X0270251Y0296213D01*
X0270326Y0296122D01*
X0270399Y0296028D01*
X0270468Y0295932D01*
X0270534Y0295834D01*
X0270596Y0295734D01*
X0270655Y0295632D01*
X0270711Y0295527D01*
X0270763Y0295421D01*
X0270811Y0295313D01*
X0270856Y0295204D01*
X0270897Y0295093D01*
X0270934Y0294981D01*
X0270968Y0294867D01*
X0270998Y0294753D01*
X0271023Y0294638D01*
X0271045Y0294521D01*
X0271063Y0294404D01*
X0271077Y0294287D01*
X0271087Y0294169D01*
X0271093Y0294051D01*
X0271095Y0293933D01*
X0271093Y0293815D01*
X0271087Y0293697D01*
X0271077Y0293579D01*
X0271063Y0293462D01*
X0271045Y0293345D01*
X0271023Y0293228D01*
X0270998Y0293113D01*
X0270968Y0292999D01*
X0270934Y0292885D01*
X0270897Y0292773D01*
X0270856Y0292662D01*
X0270811Y0292553D01*
X0270763Y0292445D01*
X0270711Y0292339D01*
X0270655Y0292234D01*
X0270596Y0292132D01*
X0270534Y0292032D01*
X0270468Y0291934D01*
X0270399Y0291838D01*
X0270326Y0291744D01*
X0270251Y0291653D01*
X0270172Y0291565D01*
X0270091Y0291479D01*
X0270006Y0291396D01*
X0269919Y0291316D01*
X0269830Y0291239D01*
X0269737Y0291165D01*
X0269643Y0291095D01*
X0269546Y0291027D01*
X0269446Y0290963D01*
X0269345Y0290902D01*
X0269242Y0290845D01*
X0269136Y0290791D01*
X0269029Y0290740D01*
X0268921Y0290694D01*
X0268811Y0290651D01*
X0268699Y0290612D01*
X0268586Y0290576D01*
X0268472Y0290545D01*
X0268357Y0290517D01*
X0268242Y0290493D01*
X0268125Y0290473D01*
X0268008Y0290457D01*
X0267890Y0290445D01*
X0267772Y0290437D01*
X0267654Y0290433D01*
X0267536Y0290433D01*
X0267418Y0290437D01*
X0267300Y0290445D01*
X0267182Y0290457D01*
X0267065Y0290473D01*
X0266948Y0290493D01*
X0266833Y0290517D01*
X0266718Y0290545D01*
X0266604Y0290576D01*
X0266491Y0290612D01*
X0266379Y0290651D01*
X0266269Y0290694D01*
X0266161Y0290740D01*
X0266054Y0290791D01*
X0265948Y0290845D01*
X0265845Y0290902D01*
X0265744Y0290963D01*
X0265644Y0291027D01*
X0265547Y0291095D01*
X0265453Y0291165D01*
X0265360Y0291239D01*
X0265271Y0291316D01*
X0265184Y0291396D01*
X0265099Y0291479D01*
X0265018Y0291565D01*
X0264939Y0291653D01*
X0264864Y0291744D01*
X0264791Y0291838D01*
X0264722Y0291934D01*
X0264656Y0292032D01*
X0264594Y0292132D01*
X0264535Y0292234D01*
X0264479Y0292339D01*
X0264427Y0292445D01*
X0264379Y0292553D01*
X0264334Y0292662D01*
X0264293Y0292773D01*
X0264256Y0292885D01*
X0264222Y0292999D01*
X0264192Y0293113D01*
X0264167Y0293228D01*
X0264145Y0293345D01*
X0264127Y0293462D01*
X0264113Y0293579D01*
X0264103Y0293697D01*
X0264097Y0293815D01*
X0264095Y0293933D01*
X0204095Y0293933D02*
X0204097Y0294051D01*
X0204103Y0294169D01*
X0204113Y0294287D01*
X0204127Y0294404D01*
X0204145Y0294521D01*
X0204167Y0294638D01*
X0204192Y0294753D01*
X0204222Y0294867D01*
X0204256Y0294981D01*
X0204293Y0295093D01*
X0204334Y0295204D01*
X0204379Y0295313D01*
X0204427Y0295421D01*
X0204479Y0295527D01*
X0204535Y0295632D01*
X0204594Y0295734D01*
X0204656Y0295834D01*
X0204722Y0295932D01*
X0204791Y0296028D01*
X0204864Y0296122D01*
X0204939Y0296213D01*
X0205018Y0296301D01*
X0205099Y0296387D01*
X0205184Y0296470D01*
X0205271Y0296550D01*
X0205360Y0296627D01*
X0205453Y0296701D01*
X0205547Y0296771D01*
X0205644Y0296839D01*
X0205744Y0296903D01*
X0205845Y0296964D01*
X0205948Y0297021D01*
X0206054Y0297075D01*
X0206161Y0297126D01*
X0206269Y0297172D01*
X0206379Y0297215D01*
X0206491Y0297254D01*
X0206604Y0297290D01*
X0206718Y0297321D01*
X0206833Y0297349D01*
X0206948Y0297373D01*
X0207065Y0297393D01*
X0207182Y0297409D01*
X0207300Y0297421D01*
X0207418Y0297429D01*
X0207536Y0297433D01*
X0207654Y0297433D01*
X0207772Y0297429D01*
X0207890Y0297421D01*
X0208008Y0297409D01*
X0208125Y0297393D01*
X0208242Y0297373D01*
X0208357Y0297349D01*
X0208472Y0297321D01*
X0208586Y0297290D01*
X0208699Y0297254D01*
X0208811Y0297215D01*
X0208921Y0297172D01*
X0209029Y0297126D01*
X0209136Y0297075D01*
X0209242Y0297021D01*
X0209345Y0296964D01*
X0209446Y0296903D01*
X0209546Y0296839D01*
X0209643Y0296771D01*
X0209737Y0296701D01*
X0209830Y0296627D01*
X0209919Y0296550D01*
X0210006Y0296470D01*
X0210091Y0296387D01*
X0210172Y0296301D01*
X0210251Y0296213D01*
X0210326Y0296122D01*
X0210399Y0296028D01*
X0210468Y0295932D01*
X0210534Y0295834D01*
X0210596Y0295734D01*
X0210655Y0295632D01*
X0210711Y0295527D01*
X0210763Y0295421D01*
X0210811Y0295313D01*
X0210856Y0295204D01*
X0210897Y0295093D01*
X0210934Y0294981D01*
X0210968Y0294867D01*
X0210998Y0294753D01*
X0211023Y0294638D01*
X0211045Y0294521D01*
X0211063Y0294404D01*
X0211077Y0294287D01*
X0211087Y0294169D01*
X0211093Y0294051D01*
X0211095Y0293933D01*
X0211093Y0293815D01*
X0211087Y0293697D01*
X0211077Y0293579D01*
X0211063Y0293462D01*
X0211045Y0293345D01*
X0211023Y0293228D01*
X0210998Y0293113D01*
X0210968Y0292999D01*
X0210934Y0292885D01*
X0210897Y0292773D01*
X0210856Y0292662D01*
X0210811Y0292553D01*
X0210763Y0292445D01*
X0210711Y0292339D01*
X0210655Y0292234D01*
X0210596Y0292132D01*
X0210534Y0292032D01*
X0210468Y0291934D01*
X0210399Y0291838D01*
X0210326Y0291744D01*
X0210251Y0291653D01*
X0210172Y0291565D01*
X0210091Y0291479D01*
X0210006Y0291396D01*
X0209919Y0291316D01*
X0209830Y0291239D01*
X0209737Y0291165D01*
X0209643Y0291095D01*
X0209546Y0291027D01*
X0209446Y0290963D01*
X0209345Y0290902D01*
X0209242Y0290845D01*
X0209136Y0290791D01*
X0209029Y0290740D01*
X0208921Y0290694D01*
X0208811Y0290651D01*
X0208699Y0290612D01*
X0208586Y0290576D01*
X0208472Y0290545D01*
X0208357Y0290517D01*
X0208242Y0290493D01*
X0208125Y0290473D01*
X0208008Y0290457D01*
X0207890Y0290445D01*
X0207772Y0290437D01*
X0207654Y0290433D01*
X0207536Y0290433D01*
X0207418Y0290437D01*
X0207300Y0290445D01*
X0207182Y0290457D01*
X0207065Y0290473D01*
X0206948Y0290493D01*
X0206833Y0290517D01*
X0206718Y0290545D01*
X0206604Y0290576D01*
X0206491Y0290612D01*
X0206379Y0290651D01*
X0206269Y0290694D01*
X0206161Y0290740D01*
X0206054Y0290791D01*
X0205948Y0290845D01*
X0205845Y0290902D01*
X0205744Y0290963D01*
X0205644Y0291027D01*
X0205547Y0291095D01*
X0205453Y0291165D01*
X0205360Y0291239D01*
X0205271Y0291316D01*
X0205184Y0291396D01*
X0205099Y0291479D01*
X0205018Y0291565D01*
X0204939Y0291653D01*
X0204864Y0291744D01*
X0204791Y0291838D01*
X0204722Y0291934D01*
X0204656Y0292032D01*
X0204594Y0292132D01*
X0204535Y0292234D01*
X0204479Y0292339D01*
X0204427Y0292445D01*
X0204379Y0292553D01*
X0204334Y0292662D01*
X0204293Y0292773D01*
X0204256Y0292885D01*
X0204222Y0292999D01*
X0204192Y0293113D01*
X0204167Y0293228D01*
X0204145Y0293345D01*
X0204127Y0293462D01*
X0204113Y0293579D01*
X0204103Y0293697D01*
X0204097Y0293815D01*
X0204095Y0293933D01*
D11*
X0295331Y0132358D03*
X0084780Y0132358D03*
D12*
X0081109Y0078211D03*
X0096699Y0078211D03*
X0112290Y0078211D03*
X0127880Y0078211D03*
X0143471Y0078211D03*
X0159061Y0078211D03*
X0174652Y0078211D03*
X0190243Y0078211D03*
X0205833Y0078211D03*
X0221424Y0078211D03*
X0237014Y0078211D03*
X0252605Y0078211D03*
X0268195Y0078211D03*
X0283786Y0078211D03*
X0299376Y0078211D03*
D13*
X0294961Y0075008D02*
X0294961Y0036414D01*
X0294961Y0075008D02*
X0303791Y0075008D01*
X0303791Y0036414D01*
X0294961Y0036414D01*
X0294961Y0038620D02*
X0303791Y0038620D01*
X0303791Y0040826D02*
X0294961Y0040826D01*
X0294961Y0043032D02*
X0303791Y0043032D01*
X0303791Y0045238D02*
X0294961Y0045238D01*
X0294961Y0047444D02*
X0303791Y0047444D01*
X0303791Y0049650D02*
X0294961Y0049650D01*
X0294961Y0051856D02*
X0303791Y0051856D01*
X0303791Y0054062D02*
X0294961Y0054062D01*
X0294961Y0056268D02*
X0303791Y0056268D01*
X0303791Y0058474D02*
X0294961Y0058474D01*
X0294961Y0060680D02*
X0303791Y0060680D01*
X0303791Y0062886D02*
X0294961Y0062886D01*
X0294961Y0065092D02*
X0303791Y0065092D01*
X0303791Y0067298D02*
X0294961Y0067298D01*
X0294961Y0069504D02*
X0303791Y0069504D01*
X0303791Y0071710D02*
X0294961Y0071710D01*
X0294961Y0073916D02*
X0303791Y0073916D01*
X0279371Y0075008D02*
X0279371Y0036414D01*
X0279371Y0075008D02*
X0288201Y0075008D01*
X0288201Y0036414D01*
X0279371Y0036414D01*
X0279371Y0038620D02*
X0288201Y0038620D01*
X0288201Y0040826D02*
X0279371Y0040826D01*
X0279371Y0043032D02*
X0288201Y0043032D01*
X0288201Y0045238D02*
X0279371Y0045238D01*
X0279371Y0047444D02*
X0288201Y0047444D01*
X0288201Y0049650D02*
X0279371Y0049650D01*
X0279371Y0051856D02*
X0288201Y0051856D01*
X0288201Y0054062D02*
X0279371Y0054062D01*
X0279371Y0056268D02*
X0288201Y0056268D01*
X0288201Y0058474D02*
X0279371Y0058474D01*
X0279371Y0060680D02*
X0288201Y0060680D01*
X0288201Y0062886D02*
X0279371Y0062886D01*
X0279371Y0065092D02*
X0288201Y0065092D01*
X0288201Y0067298D02*
X0279371Y0067298D01*
X0279371Y0069504D02*
X0288201Y0069504D01*
X0288201Y0071710D02*
X0279371Y0071710D01*
X0279371Y0073916D02*
X0288201Y0073916D01*
X0263780Y0075008D02*
X0263780Y0036414D01*
X0263780Y0075008D02*
X0272610Y0075008D01*
X0272610Y0036414D01*
X0263780Y0036414D01*
X0263780Y0038620D02*
X0272610Y0038620D01*
X0272610Y0040826D02*
X0263780Y0040826D01*
X0263780Y0043032D02*
X0272610Y0043032D01*
X0272610Y0045238D02*
X0263780Y0045238D01*
X0263780Y0047444D02*
X0272610Y0047444D01*
X0272610Y0049650D02*
X0263780Y0049650D01*
X0263780Y0051856D02*
X0272610Y0051856D01*
X0272610Y0054062D02*
X0263780Y0054062D01*
X0263780Y0056268D02*
X0272610Y0056268D01*
X0272610Y0058474D02*
X0263780Y0058474D01*
X0263780Y0060680D02*
X0272610Y0060680D01*
X0272610Y0062886D02*
X0263780Y0062886D01*
X0263780Y0065092D02*
X0272610Y0065092D01*
X0272610Y0067298D02*
X0263780Y0067298D01*
X0263780Y0069504D02*
X0272610Y0069504D01*
X0272610Y0071710D02*
X0263780Y0071710D01*
X0263780Y0073916D02*
X0272610Y0073916D01*
X0248190Y0075008D02*
X0248190Y0036414D01*
X0248190Y0075008D02*
X0257020Y0075008D01*
X0257020Y0036414D01*
X0248190Y0036414D01*
X0248190Y0038620D02*
X0257020Y0038620D01*
X0257020Y0040826D02*
X0248190Y0040826D01*
X0248190Y0043032D02*
X0257020Y0043032D01*
X0257020Y0045238D02*
X0248190Y0045238D01*
X0248190Y0047444D02*
X0257020Y0047444D01*
X0257020Y0049650D02*
X0248190Y0049650D01*
X0248190Y0051856D02*
X0257020Y0051856D01*
X0257020Y0054062D02*
X0248190Y0054062D01*
X0248190Y0056268D02*
X0257020Y0056268D01*
X0257020Y0058474D02*
X0248190Y0058474D01*
X0248190Y0060680D02*
X0257020Y0060680D01*
X0257020Y0062886D02*
X0248190Y0062886D01*
X0248190Y0065092D02*
X0257020Y0065092D01*
X0257020Y0067298D02*
X0248190Y0067298D01*
X0248190Y0069504D02*
X0257020Y0069504D01*
X0257020Y0071710D02*
X0248190Y0071710D01*
X0248190Y0073916D02*
X0257020Y0073916D01*
X0232599Y0075008D02*
X0232599Y0036414D01*
X0232599Y0075008D02*
X0241429Y0075008D01*
X0241429Y0036414D01*
X0232599Y0036414D01*
X0232599Y0038620D02*
X0241429Y0038620D01*
X0241429Y0040826D02*
X0232599Y0040826D01*
X0232599Y0043032D02*
X0241429Y0043032D01*
X0241429Y0045238D02*
X0232599Y0045238D01*
X0232599Y0047444D02*
X0241429Y0047444D01*
X0241429Y0049650D02*
X0232599Y0049650D01*
X0232599Y0051856D02*
X0241429Y0051856D01*
X0241429Y0054062D02*
X0232599Y0054062D01*
X0232599Y0056268D02*
X0241429Y0056268D01*
X0241429Y0058474D02*
X0232599Y0058474D01*
X0232599Y0060680D02*
X0241429Y0060680D01*
X0241429Y0062886D02*
X0232599Y0062886D01*
X0232599Y0065092D02*
X0241429Y0065092D01*
X0241429Y0067298D02*
X0232599Y0067298D01*
X0232599Y0069504D02*
X0241429Y0069504D01*
X0241429Y0071710D02*
X0232599Y0071710D01*
X0232599Y0073916D02*
X0241429Y0073916D01*
X0217009Y0075008D02*
X0217009Y0036414D01*
X0217009Y0075008D02*
X0225839Y0075008D01*
X0225839Y0036414D01*
X0217009Y0036414D01*
X0217009Y0038620D02*
X0225839Y0038620D01*
X0225839Y0040826D02*
X0217009Y0040826D01*
X0217009Y0043032D02*
X0225839Y0043032D01*
X0225839Y0045238D02*
X0217009Y0045238D01*
X0217009Y0047444D02*
X0225839Y0047444D01*
X0225839Y0049650D02*
X0217009Y0049650D01*
X0217009Y0051856D02*
X0225839Y0051856D01*
X0225839Y0054062D02*
X0217009Y0054062D01*
X0217009Y0056268D02*
X0225839Y0056268D01*
X0225839Y0058474D02*
X0217009Y0058474D01*
X0217009Y0060680D02*
X0225839Y0060680D01*
X0225839Y0062886D02*
X0217009Y0062886D01*
X0217009Y0065092D02*
X0225839Y0065092D01*
X0225839Y0067298D02*
X0217009Y0067298D01*
X0217009Y0069504D02*
X0225839Y0069504D01*
X0225839Y0071710D02*
X0217009Y0071710D01*
X0217009Y0073916D02*
X0225839Y0073916D01*
X0201418Y0075008D02*
X0201418Y0036414D01*
X0201418Y0075008D02*
X0210248Y0075008D01*
X0210248Y0036414D01*
X0201418Y0036414D01*
X0201418Y0038620D02*
X0210248Y0038620D01*
X0210248Y0040826D02*
X0201418Y0040826D01*
X0201418Y0043032D02*
X0210248Y0043032D01*
X0210248Y0045238D02*
X0201418Y0045238D01*
X0201418Y0047444D02*
X0210248Y0047444D01*
X0210248Y0049650D02*
X0201418Y0049650D01*
X0201418Y0051856D02*
X0210248Y0051856D01*
X0210248Y0054062D02*
X0201418Y0054062D01*
X0201418Y0056268D02*
X0210248Y0056268D01*
X0210248Y0058474D02*
X0201418Y0058474D01*
X0201418Y0060680D02*
X0210248Y0060680D01*
X0210248Y0062886D02*
X0201418Y0062886D01*
X0201418Y0065092D02*
X0210248Y0065092D01*
X0210248Y0067298D02*
X0201418Y0067298D01*
X0201418Y0069504D02*
X0210248Y0069504D01*
X0210248Y0071710D02*
X0201418Y0071710D01*
X0201418Y0073916D02*
X0210248Y0073916D01*
X0185828Y0075008D02*
X0185828Y0036414D01*
X0185828Y0075008D02*
X0194658Y0075008D01*
X0194658Y0036414D01*
X0185828Y0036414D01*
X0185828Y0038620D02*
X0194658Y0038620D01*
X0194658Y0040826D02*
X0185828Y0040826D01*
X0185828Y0043032D02*
X0194658Y0043032D01*
X0194658Y0045238D02*
X0185828Y0045238D01*
X0185828Y0047444D02*
X0194658Y0047444D01*
X0194658Y0049650D02*
X0185828Y0049650D01*
X0185828Y0051856D02*
X0194658Y0051856D01*
X0194658Y0054062D02*
X0185828Y0054062D01*
X0185828Y0056268D02*
X0194658Y0056268D01*
X0194658Y0058474D02*
X0185828Y0058474D01*
X0185828Y0060680D02*
X0194658Y0060680D01*
X0194658Y0062886D02*
X0185828Y0062886D01*
X0185828Y0065092D02*
X0194658Y0065092D01*
X0194658Y0067298D02*
X0185828Y0067298D01*
X0185828Y0069504D02*
X0194658Y0069504D01*
X0194658Y0071710D02*
X0185828Y0071710D01*
X0185828Y0073916D02*
X0194658Y0073916D01*
X0170237Y0075008D02*
X0170237Y0036414D01*
X0170237Y0075008D02*
X0179067Y0075008D01*
X0179067Y0036414D01*
X0170237Y0036414D01*
X0170237Y0038620D02*
X0179067Y0038620D01*
X0179067Y0040826D02*
X0170237Y0040826D01*
X0170237Y0043032D02*
X0179067Y0043032D01*
X0179067Y0045238D02*
X0170237Y0045238D01*
X0170237Y0047444D02*
X0179067Y0047444D01*
X0179067Y0049650D02*
X0170237Y0049650D01*
X0170237Y0051856D02*
X0179067Y0051856D01*
X0179067Y0054062D02*
X0170237Y0054062D01*
X0170237Y0056268D02*
X0179067Y0056268D01*
X0179067Y0058474D02*
X0170237Y0058474D01*
X0170237Y0060680D02*
X0179067Y0060680D01*
X0179067Y0062886D02*
X0170237Y0062886D01*
X0170237Y0065092D02*
X0179067Y0065092D01*
X0179067Y0067298D02*
X0170237Y0067298D01*
X0170237Y0069504D02*
X0179067Y0069504D01*
X0179067Y0071710D02*
X0170237Y0071710D01*
X0170237Y0073916D02*
X0179067Y0073916D01*
X0154646Y0075008D02*
X0154646Y0036414D01*
X0154646Y0075008D02*
X0163476Y0075008D01*
X0163476Y0036414D01*
X0154646Y0036414D01*
X0154646Y0038620D02*
X0163476Y0038620D01*
X0163476Y0040826D02*
X0154646Y0040826D01*
X0154646Y0043032D02*
X0163476Y0043032D01*
X0163476Y0045238D02*
X0154646Y0045238D01*
X0154646Y0047444D02*
X0163476Y0047444D01*
X0163476Y0049650D02*
X0154646Y0049650D01*
X0154646Y0051856D02*
X0163476Y0051856D01*
X0163476Y0054062D02*
X0154646Y0054062D01*
X0154646Y0056268D02*
X0163476Y0056268D01*
X0163476Y0058474D02*
X0154646Y0058474D01*
X0154646Y0060680D02*
X0163476Y0060680D01*
X0163476Y0062886D02*
X0154646Y0062886D01*
X0154646Y0065092D02*
X0163476Y0065092D01*
X0163476Y0067298D02*
X0154646Y0067298D01*
X0154646Y0069504D02*
X0163476Y0069504D01*
X0163476Y0071710D02*
X0154646Y0071710D01*
X0154646Y0073916D02*
X0163476Y0073916D01*
X0139056Y0075008D02*
X0139056Y0036414D01*
X0139056Y0075008D02*
X0147886Y0075008D01*
X0147886Y0036414D01*
X0139056Y0036414D01*
X0139056Y0038620D02*
X0147886Y0038620D01*
X0147886Y0040826D02*
X0139056Y0040826D01*
X0139056Y0043032D02*
X0147886Y0043032D01*
X0147886Y0045238D02*
X0139056Y0045238D01*
X0139056Y0047444D02*
X0147886Y0047444D01*
X0147886Y0049650D02*
X0139056Y0049650D01*
X0139056Y0051856D02*
X0147886Y0051856D01*
X0147886Y0054062D02*
X0139056Y0054062D01*
X0139056Y0056268D02*
X0147886Y0056268D01*
X0147886Y0058474D02*
X0139056Y0058474D01*
X0139056Y0060680D02*
X0147886Y0060680D01*
X0147886Y0062886D02*
X0139056Y0062886D01*
X0139056Y0065092D02*
X0147886Y0065092D01*
X0147886Y0067298D02*
X0139056Y0067298D01*
X0139056Y0069504D02*
X0147886Y0069504D01*
X0147886Y0071710D02*
X0139056Y0071710D01*
X0139056Y0073916D02*
X0147886Y0073916D01*
X0123465Y0075008D02*
X0123465Y0036414D01*
X0123465Y0075008D02*
X0132295Y0075008D01*
X0132295Y0036414D01*
X0123465Y0036414D01*
X0123465Y0038620D02*
X0132295Y0038620D01*
X0132295Y0040826D02*
X0123465Y0040826D01*
X0123465Y0043032D02*
X0132295Y0043032D01*
X0132295Y0045238D02*
X0123465Y0045238D01*
X0123465Y0047444D02*
X0132295Y0047444D01*
X0132295Y0049650D02*
X0123465Y0049650D01*
X0123465Y0051856D02*
X0132295Y0051856D01*
X0132295Y0054062D02*
X0123465Y0054062D01*
X0123465Y0056268D02*
X0132295Y0056268D01*
X0132295Y0058474D02*
X0123465Y0058474D01*
X0123465Y0060680D02*
X0132295Y0060680D01*
X0132295Y0062886D02*
X0123465Y0062886D01*
X0123465Y0065092D02*
X0132295Y0065092D01*
X0132295Y0067298D02*
X0123465Y0067298D01*
X0123465Y0069504D02*
X0132295Y0069504D01*
X0132295Y0071710D02*
X0123465Y0071710D01*
X0123465Y0073916D02*
X0132295Y0073916D01*
X0107875Y0075008D02*
X0107875Y0036414D01*
X0107875Y0075008D02*
X0116705Y0075008D01*
X0116705Y0036414D01*
X0107875Y0036414D01*
X0107875Y0038620D02*
X0116705Y0038620D01*
X0116705Y0040826D02*
X0107875Y0040826D01*
X0107875Y0043032D02*
X0116705Y0043032D01*
X0116705Y0045238D02*
X0107875Y0045238D01*
X0107875Y0047444D02*
X0116705Y0047444D01*
X0116705Y0049650D02*
X0107875Y0049650D01*
X0107875Y0051856D02*
X0116705Y0051856D01*
X0116705Y0054062D02*
X0107875Y0054062D01*
X0107875Y0056268D02*
X0116705Y0056268D01*
X0116705Y0058474D02*
X0107875Y0058474D01*
X0107875Y0060680D02*
X0116705Y0060680D01*
X0116705Y0062886D02*
X0107875Y0062886D01*
X0107875Y0065092D02*
X0116705Y0065092D01*
X0116705Y0067298D02*
X0107875Y0067298D01*
X0107875Y0069504D02*
X0116705Y0069504D01*
X0116705Y0071710D02*
X0107875Y0071710D01*
X0107875Y0073916D02*
X0116705Y0073916D01*
X0092284Y0075008D02*
X0092284Y0036414D01*
X0092284Y0075008D02*
X0101114Y0075008D01*
X0101114Y0036414D01*
X0092284Y0036414D01*
X0092284Y0038620D02*
X0101114Y0038620D01*
X0101114Y0040826D02*
X0092284Y0040826D01*
X0092284Y0043032D02*
X0101114Y0043032D01*
X0101114Y0045238D02*
X0092284Y0045238D01*
X0092284Y0047444D02*
X0101114Y0047444D01*
X0101114Y0049650D02*
X0092284Y0049650D01*
X0092284Y0051856D02*
X0101114Y0051856D01*
X0101114Y0054062D02*
X0092284Y0054062D01*
X0092284Y0056268D02*
X0101114Y0056268D01*
X0101114Y0058474D02*
X0092284Y0058474D01*
X0092284Y0060680D02*
X0101114Y0060680D01*
X0101114Y0062886D02*
X0092284Y0062886D01*
X0092284Y0065092D02*
X0101114Y0065092D01*
X0101114Y0067298D02*
X0092284Y0067298D01*
X0092284Y0069504D02*
X0101114Y0069504D01*
X0101114Y0071710D02*
X0092284Y0071710D01*
X0092284Y0073916D02*
X0101114Y0073916D01*
X0076694Y0075008D02*
X0076694Y0036414D01*
X0076694Y0075008D02*
X0085524Y0075008D01*
X0085524Y0036414D01*
X0076694Y0036414D01*
X0076694Y0038620D02*
X0085524Y0038620D01*
X0085524Y0040826D02*
X0076694Y0040826D01*
X0076694Y0043032D02*
X0085524Y0043032D01*
X0085524Y0045238D02*
X0076694Y0045238D01*
X0076694Y0047444D02*
X0085524Y0047444D01*
X0085524Y0049650D02*
X0076694Y0049650D01*
X0076694Y0051856D02*
X0085524Y0051856D01*
X0085524Y0054062D02*
X0076694Y0054062D01*
X0076694Y0056268D02*
X0085524Y0056268D01*
X0085524Y0058474D02*
X0076694Y0058474D01*
X0076694Y0060680D02*
X0085524Y0060680D01*
X0085524Y0062886D02*
X0076694Y0062886D01*
X0076694Y0065092D02*
X0085524Y0065092D01*
X0085524Y0067298D02*
X0076694Y0067298D01*
X0076694Y0069504D02*
X0085524Y0069504D01*
X0085524Y0071710D02*
X0076694Y0071710D01*
X0076694Y0073916D02*
X0085524Y0073916D01*
D14*
X0111847Y0148933D02*
X0118343Y0148933D01*
X0118343Y0158933D02*
X0111847Y0158933D01*
X0111847Y0168933D02*
X0118343Y0168933D01*
X0118343Y0178933D02*
X0111847Y0178933D01*
X0111847Y0188933D02*
X0118343Y0188933D01*
X0118343Y0198933D02*
X0111847Y0198933D01*
X0111847Y0208933D02*
X0118343Y0208933D01*
X0118343Y0218933D02*
X0111847Y0218933D01*
X0111847Y0228933D02*
X0118343Y0228933D01*
X0118343Y0238933D02*
X0111847Y0238933D01*
X0111847Y0248933D02*
X0118343Y0248933D01*
X0118343Y0258933D02*
X0111847Y0258933D01*
X0111847Y0268933D02*
X0118343Y0268933D01*
X0118343Y0278933D02*
X0111847Y0278933D01*
X0111847Y0288933D02*
X0118343Y0288933D01*
X0118343Y0298933D02*
X0111847Y0298933D01*
X0171847Y0298933D02*
X0178343Y0298933D01*
X0178343Y0288933D02*
X0171847Y0288933D01*
X0171847Y0278933D02*
X0178343Y0278933D01*
X0178343Y0268933D02*
X0171847Y0268933D01*
X0171847Y0258933D02*
X0178343Y0258933D01*
X0178343Y0248933D02*
X0171847Y0248933D01*
X0171847Y0238933D02*
X0178343Y0238933D01*
X0178343Y0228933D02*
X0171847Y0228933D01*
X0171847Y0218933D02*
X0178343Y0218933D01*
X0178343Y0208933D02*
X0171847Y0208933D01*
X0171847Y0198933D02*
X0178343Y0198933D01*
X0178343Y0188933D02*
X0171847Y0188933D01*
X0171847Y0178933D02*
X0178343Y0178933D01*
X0178343Y0168933D02*
X0171847Y0168933D01*
X0171847Y0158933D02*
X0178343Y0158933D01*
X0178343Y0148933D02*
X0171847Y0148933D01*
D15*
X0127595Y0128933D03*
X0117595Y0128933D03*
D16*
X0207595Y0133933D03*
X0267595Y0133933D03*
X0267595Y0293933D03*
X0207595Y0293933D03*
D17*
X0267595Y0143933D03*
D18*
X0267595Y0153933D03*
X0267595Y0163933D03*
X0267595Y0173933D03*
X0267595Y0183933D03*
X0267595Y0193933D03*
X0267595Y0203933D03*
X0267595Y0213933D03*
X0267595Y0223933D03*
X0267595Y0233933D03*
X0267595Y0243933D03*
X0267595Y0253933D03*
X0267595Y0263933D03*
X0267595Y0273933D03*
X0267595Y0283933D03*
X0207595Y0283933D03*
X0207595Y0273933D03*
X0207595Y0263933D03*
X0207595Y0253933D03*
X0207595Y0243933D03*
X0207595Y0233933D03*
X0207595Y0223933D03*
X0207595Y0213933D03*
X0207595Y0203933D03*
X0207595Y0193933D03*
X0207595Y0183933D03*
X0207595Y0173933D03*
X0207595Y0163933D03*
X0207595Y0153933D03*
X0207595Y0143933D03*
D19*
X0082595Y0328933D03*
D20*
X0082595Y0338933D03*
X0082595Y0348933D03*
X0082595Y0358933D03*
D21*
X0081195Y0302233D02*
X0081195Y0296233D01*
X0081195Y0276633D02*
X0081195Y0270633D01*
X0098995Y0270633D02*
X0098995Y0276633D01*
X0098995Y0296233D02*
X0098995Y0302233D01*
X0236795Y0320033D02*
X0242795Y0320033D01*
X0242795Y0337833D02*
X0236795Y0337833D01*
X0236795Y0350033D02*
X0242795Y0350033D01*
X0242795Y0367833D02*
X0236795Y0367833D01*
X0262395Y0367833D02*
X0268395Y0367833D01*
X0268395Y0350033D02*
X0262395Y0350033D01*
X0262395Y0337833D02*
X0268395Y0337833D01*
X0276795Y0337833D02*
X0282795Y0337833D01*
X0282795Y0320033D02*
X0276795Y0320033D01*
X0268395Y0320033D02*
X0262395Y0320033D01*
X0302395Y0320033D02*
X0308395Y0320033D01*
X0308395Y0337833D02*
X0302395Y0337833D01*
D22*
X0248698Y0354799D03*
X0242792Y0303618D03*
X0246729Y0281965D03*
X0236886Y0272122D03*
X0229012Y0285902D03*
X0221138Y0228815D03*
X0232949Y0213067D03*
X0236886Y0203224D03*
X0276257Y0191413D03*
X0250666Y0148106D03*
X0246729Y0142201D03*
X0229012Y0148106D03*
X0201453Y0173697D03*
X0193579Y0175665D03*
X0185705Y0165823D03*
X0167989Y0144169D03*
X0173894Y0132358D03*
X0169957Y0118579D03*
X0156178Y0106768D03*
X0156178Y0098894D03*
X0148304Y0102831D03*
X0140430Y0087083D03*
X0136493Y0083146D03*
X0136493Y0077240D03*
X0120745Y0079209D03*
X0110902Y0091020D03*
X0110902Y0098894D03*
X0104997Y0098894D03*
X0122713Y0094957D03*
X0132556Y0102831D03*
X0122713Y0116610D03*
X0110902Y0134327D03*
X0108934Y0142201D03*
X0106965Y0154012D03*
X0085312Y0159917D03*
X0144367Y0146138D03*
X0156178Y0167791D03*
X0148304Y0191413D03*
X0160115Y0207161D03*
X0148304Y0236689D03*
X0140430Y0274091D03*
X0106965Y0234720D03*
X0189642Y0193382D03*
X0193579Y0203224D03*
X0225075Y0110705D03*
X0205390Y0087083D03*
X0189642Y0087083D03*
X0173894Y0087083D03*
X0169957Y0083146D03*
X0266414Y0100862D03*
M02*
